<svg xmlns="http://www.w3.org/2000/svg" xmlns:xlink="http://www.w3.org/1999/xlink" width="14" height="20.276" viewBox="0 0 14 20.276">
  <defs>
    <rect id="rect-1" width="14" height="20.276" x="0" y="0"/>
    <mask id="mask-2" maskContentUnits="userSpaceOnUse" maskUnits="userSpaceOnUse">
      <rect width="14" height="20.276" x="0" y="0" fill="black"/>
      <use fill="white" xlink:href="#rect-1"/>
    </mask>
  </defs>
  <g>
    <use fill="none" xlink:href="#rect-1"/>
    <g mask="url(#mask-2)">
      <g opacity="0">
        <rect width="24.138" height="24.138" x="-5.069" y="-1.931" fill="rgb(255,255,255)" rx="0" ry="0"/>
      </g>
      <path fill="rgb(0,0,0)" fill-rule="evenodd" d="M11.94239044 2.12762451C10.63391876.817688 8.85856628.0812378 7.00704194.08044434 3.14862823.08099365.01997374 3.2069702.01609038 7.06536865c0 3.31896973 6.99095154 13.13000489 6.99095154 13.13000489s.02511597-.0310669.0723343-.0904541l.0870285-.10998536c.0342865-.04351806.0737152-.09375.11791992-.15039062l.09466552-.1217041c1.44482422-1.86346436 6.60491944-8.78942872 6.60491944-12.6574707.00133514-1.8515625-.73304749-3.62774659-2.04151917-4.93774415zm-7.93147278-.23950195c1.84964753-1.0678711 4.12850953-1.0678711 5.97815705 0 1.84965515 1.06793213 2.98908233 3.04144287 2.98908233 5.1772461 0 2.97198486-3.73635101 8.5368042-5.92686462 11.43737792-.67622376-.98608398-1.40840912-2.09869385-2.12172699-3.24023437l-.1642456-.26385498c-.13653565-.22027588-.2721634-.44134522-.40634156-.66247559l-.16029358-.26538086C2.47041321 11.19628906 1.02183533 8.3526001 1.02183533 7.06536865c0-2.13580322 1.13943481-4.10931396 2.98908233-5.1772461zM7 1.98132324c2.37954712.00219727 4.30831146 1.93005371 4.31163788 4.30963135.00080871 1.74407959-1.04917145 3.31689453-2.66025543 3.98486328-1.61108399.66796875-3.46592713.29962158-4.6994629-.9333496-1.23353576-1.2329712-1.60279083-3.0876465-.93554687-4.69903565C3.68360901 3.03204346 5.25592041 1.98132324 7 1.98132324zM3.69410706 6.29229736C3.69392395 4.4666748 5.1736679 2.9864502 6.9993286 2.98608398c1.8256607-.0003662 3.30600739 1.47924805 3.30656433 3.30487061.00026703.87695312-.34791565 1.71807861-.9679184 2.33825684C8.7179718 9.24945068 7.87695314 9.59783936 7 9.59783936c-1.8256607 0-3.3057022-1.4798584-3.30589294-3.305542z"/>
    </g>
  </g>
</svg>
