<?xml version="1.0" encoding="utf-8"?>
<!DOCTYPE svg PUBLIC "-//W3C//DTD SVG 1.1//EN" "http://www.w3.org/Graphics/SVG/1.1/DTD/svg11.dtd">
<svg xmlns="http://www.w3.org/2000/svg" xmlns:xlink="http://www.w3.org/1999/xlink" viewBox="0 0 180 180" style="enable-background:new 0 0 180 180;" xml:space="preserve">
<path style="fill:#3366CC;" d="M177.7,150L108.1,11.6C104.5,4.4,97.6,0,90,0c-7.6,0-14.5,4.4-18.1,11.5L2.3,149.9c-3.3,6.6-3.1,14.2,0.7,20.3c3.8,6.1,10.4,9.7,17.9,9.7h138.2c7.4,0,14.1-3.6,17.9-9.7C180.7,164.2,181,156.6,177.7,150z"/>
<path style="fill:#FFFFFF;" d="M90,120c-11,0-20,8.9-20,20s9,20,20,20c11.1,0,20-8.9,20-20S101.1,120,90,120z"/>
<path style="fill:#FFFFFF;" d="M90,30c-7.5,0-15,6.5-15,14.4v51.2c0,7.9,7.5,14.4,15,14.4s15-6.4,15-14.4V44.4C105,36.5,97.5,30,90,30z"/>
</svg>
