<svg xmlns="http://www.w3.org/2000/svg" xmlns:xlink="http://www.w3.org/1999/xlink" version="1.1" fill="#fff" width="20px" height="20px" x="0px" y="0px" viewBox="0 0 100 100" enable-background="new 0 0 100 100" xml:space="preserve"><g><path d="M69,26.5c-1.1,0-2-0.9-2-2V10.2c0-1.1,0.9-2,2-2s2,0.9,2,2v14.3C71,25.6,70.1,26.5,69,26.5z"/><path d="M31,26.5c-1.1,0-2-0.9-2-2V10.2c0-1.1,0.9-2,2-2s2,0.9,2,2v14.3C33,25.6,32.1,26.5,31,26.5z"/><g><rect x="37" y="13.9" width="26" height="3.8"/><path d="M87.4,13.9H75v3.8h12.4c2.1,0,3.8,1.7,3.8,3.8v15.8H8.8v3.9h82.5v42.9c0,2.1-1.7,3.8-3.8,3.8H12.6c-2.1,0-3.8-1.7-3.8-3.8    V21.6c0-2.1,1.7-3.8,3.8-3.8H25v-3.8H12.6c-4.2,0-7.7,3.4-7.7,7.7v62.6c0,4.2,3.4,7.7,7.7,7.7h74.8c4.2,0,7.7-3.4,7.7-7.7V21.6    C95.1,17.3,91.6,13.9,87.4,13.9z"/></g></g></svg>