<svg xmlns="http://www.w3.org/2000/svg" xmlns:xlink="http://www.w3.org/1999/xlink" width="30" height="29.663" viewBox="0 0 30 29.663">
  <defs>
    <rect id="rect-1" width="30" height="29.663" x="0" y="0"/>
    <mask id="mask-2" maskContentUnits="userSpaceOnUse" maskUnits="userSpaceOnUse">
      <rect width="30" height="29.663" x="0" y="0" fill="black"/>
      <use fill="white" xlink:href="#rect-1"/>
    </mask>
  </defs>
  <g>
    <use fill="none" xlink:href="#rect-1"/>
    <g mask="url(#mask-2)">
      <g opacity="0">
        <rect width="33.708" height="33.708" x="-1.903" y="-2.022" fill="rgb(255,255,255)" rx="0" ry="0"/>
      </g>
      <g>
        <g opacity="0">
          <rect width="33.708" height="33.708" x="-1.903" y="-2.022" fill="rgb(255,255,255)" rx="0" ry="0"/>
        </g>
        <path fill="#000" fill-rule="evenodd" d="M7.81375122 21.28515625c6.6769638 6.80493164 11.75701904 8.24731445 14.84690857 8.24731445l.07724762.01245117c1.44333649.0913086 2.86878204-.359375 3.99719238-1.26391601 1.49437714-1.48730469 2.15729523-2.13208008 2.43819428-2.47045899l.0224762.02246094c.3425598-.3395996.52960204-.80566406.51686096-1.28808594-.00708008-.35229492-.11904908-.69458007-.32164002-.9831543l-.20645142-.2512207-5.3370819-5.29785156c-.32953644-.33081054-.77735138-.5168457-1.24438477-.5168457h-.01544952c-.46858979.00390625-.91654969.19335937-1.24578095.52661133l-2.43539429 2.46069336c-.4620819.46508789-1.23596191.06469726-3.59690857-1.84814453-1.76039886-1.42919922-3.37203216-3.0324707-4.81039428-4.78515625-1.27528382-1.55908204-1.58848572-2.35400391-1.1235962-2.82299805 1.42556-1.42993164 2.10673524-2.11254883 2.41712952-2.49316406l.03089905.02954101c.58298493-.58862305.68201447-1.50219726.23876953-2.20214844l.00982666-.05908203-.25701904-.25561523L6.32779693.59277344c-.6967697-.6821289-1.81311797-.67529297-2.50141143.01538086L1.31936646 3.13623047c-1.7485962 2.20239258-2.64185334 8.83154297 6.49438476 18.14892578zM4.82778931 1.59838867c.07495117-.07421875.17546081-.11694336.28089904-.1196289.06786347-.00195313.13421631.0205078.1867981.06347656.02388.02954101.02388.02954101 5.27809143 5.24853515l.25562286.25708008c.07159424.06860352.11207581.16333008.11207581.26269532 0 .09912109-.04048157.19384765-.1120758.26245117l-.16994477.17578125c-.54634857.54907226-2.27949524 2.2878418-2.27949524 2.2878418-1.53368377 1.54614257.12471771 3.59301757 1.02106476 4.69946288 1.50074768 1.82739258 3.18148804 3.49902344 5.01685333 4.98999024 2.14326477 1.73608398 3.99438477 3.23461914 5.47753144 1.74731445l2.44381713-2.45507812c.06869507-.06982422.16190339-.11010742.2598343-.1123047.05477905.04345704.16712951.01953126.25982665.11083985l5.12078858 5.0871582.20646667.20776368c.07058716.07128906.11169434.16674804.1153717.2668457.00326539.09716797-.03570556.19116211-.10694884.25708008l-.10392762.1081543c-.45506286.45507812-2.35253143 2.3371582-2.36376953 2.34838867-.87265014.62329101-1.93606567.92163086-3.00561523.84277344-2.33287049-.01000977-7.18960572-.98046875-13.90449524-7.82592774-8.7626419-8.9453125-7.58848572-14.79907226-6.44944-16.24169922L4.8277893 1.59838867z"/>
      </g>
    </g>
  </g>
</svg>
