<svg xmlns="http://www.w3.org/2000/svg" xmlns:xlink="http://www.w3.org/1999/xlink" height="300px" width="300px" fill="#3267cc" version="1.1" x="0px" y="0px" viewBox="0 0 100 100" enable-background="new 0 0 100 100" xml:space="preserve"><path d="M50,5C25.146,5,5,25.148,5,50c0,24.854,20.146,45,45,45c24.852,0,45-20.146,45-45C95,25.148,74.852,5,50,5z M44.32,28.178  c0-3.131,2.548-5.678,5.68-5.678s5.68,2.547,5.68,5.678v25.309c0,3.131-2.548,5.678-5.68,5.678s-5.68-2.547-5.68-5.678V28.178z   M50,77.5c-3.572,0-6.48-2.907-6.48-6.479c0-3.576,2.908-6.483,6.48-6.483c3.574,0,6.48,2.907,6.48,6.483  C56.48,74.593,53.574,77.5,50,77.5z"/></svg>