<?xml version="1.0" encoding="UTF-8" standalone="no"?>
<svg xmlns:dc="http://purl.org/dc/elements/1.1/" xmlns:cc="http://creativecommons.org/ns#" xmlns:rdf="http://www.w3.org/1999/02/22-rdf-syntax-ns#" xmlns:svg="http://www.w3.org/2000/svg" xmlns="http://www.w3.org/2000/svg" viewBox="0 0 48 48" height="48" width="48" xml:space="preserve" id="svg2" version="1.1">
    <metadata id="metadata8">
        <rdf:RDF>
            <cc:Work rdf:about="">
                <dc:format>image/svg+xml</dc:format>
                <dc:type rdf:resource="http://purl.org/dc/dcmitype/StillImage" />
            </cc:Work>
        </rdf:RDF>
    </metadata>
    <defs id="defs6">
        <clipPath id="clipPath20" clipPathUnits="userSpaceOnUse">
            <path id="path18" d="M 0,360 V 0 h 359.996 v 360 z" />
        </clipPath>
    </defs>
    <g transform="matrix(1.3333333,0,0,-1.3333333,0,48)" id="g10">
        <g transform="scale(0.1)" id="g12">
            <g id="g14">
                <g clip-path="url(#clipPath20)" id="g16">
                    <path id="path22" style="fill:#0352c2;fill-opacity:1;fill-rule:nonzero;stroke:none" d="M 51.6445,84.7461 C 33.6914,108.887 22.2578,138.203 20.293,170.117 h 28.1758 v 19.781 H 20.293 c 4.9414,80.434 69.3906,144.868 149.824,149.809 v -28.176 h 19.789 v 28.176 c 32.16,-1.988 61.672,-13.574 85.93,-31.809 l 16.297,12.684 C 261.344,345.188 222.387,360 180.023,360 80.7461,360 0,279.254 0,180 0,137.891 14.6523,99.1797 38.9805,68.4766 l 12.664,16.2695" />
                    <path id="path24" style="fill:#0352c2;fill-opacity:1;fill-rule:nonzero;stroke:none" d="m 308.434,275.168 c 17.898,-24.152 29.316,-53.422 31.269,-85.27 h -28.164 v -19.781 h 28.164 C 334.77,89.668 270.328,25.2344 189.906,20.293 V 48.457 H 170.117 V 20.293 C 138.676,22.207 109.762,33.3398 85.8125,50.8398 L 69.5273,38.1836 C 100.063,14.3555 138.352,0 180.023,0 c 99.231,0 179.973,80.7617 179.973,180 0,42.074 -14.621,80.727 -38.887,111.426 l -12.675,-16.258" />
                    <path id="path26" style="fill:#0352c2;fill-opacity:1;fill-rule:nonzero;stroke:none" d="M 191.137,163.508 56.7852,56.0352 164.262,190.426 Z M 16.5,15.7617 197.887,156.777 338.891,338.125 157.551,197.117 16.5,15.7617" />
                </g>
            </g>
        </g>
    </g>
</svg>