<?xml version="1.0" encoding="UTF-8" standalone="no"?>
<svg xmlns:dc="http://purl.org/dc/elements/1.1/" xmlns:cc="http://creativecommons.org/ns#" xmlns:rdf="http://www.w3.org/1999/02/22-rdf-syntax-ns#" xmlns:svg="http://www.w3.org/2000/svg" xmlns="http://www.w3.org/2000/svg" viewBox="0 0 48 43.506668" height="43.506668" width="48" xml:space="preserve" id="svg2" version="1.1">
    <metadata id="metadata8">
        <rdf:RDF>
            <cc:Work rdf:about="">
                <dc:format>image/svg+xml</dc:format>
                <dc:type rdf:resource="http://purl.org/dc/dcmitype/StillImage" />
            </cc:Work>
        </rdf:RDF>
    </metadata>
    <defs id="defs6" />
    <g transform="matrix(1.3333333,0,0,-1.3333333,0,43.506667)" id="g10">
        <g transform="scale(0.1)" id="g12">
            <path id="path14" style="fill:#fff;fill-opacity:1;fill-rule:nonzero;stroke:none" d="m 181.215,149.773 v 0 c -4.539,-6.265 -9.844,-11.738 -15.727,-16.367 -7.269,-5.75 -15.414,-10.23 -24.25,-13.203 -15.816,-5.262 -33.074,-5.098 -49.0974,-0.086 -0.2226,0.059 -0.4453,0.086 -0.6523,0.156 -2.4102,0.774 -4.7266,1.766 -7.0547,2.786 -0.8711,0.332 -1.7227,0.601 -2.543,0.964 -1.707,0.801 -3.3515,1.797 -5.0156,2.707 -1.3594,0.77 -2.793,1.446 -4.1445,2.254 -1.1719,0.762 -2.2696,1.641 -3.4102,2.43 -1.7578,1.242 -3.5625,2.402 -5.2578,3.789 -2.1523,1.801 -4.1562,3.735 -6.1133,5.688 -0.4375,0.464 -0.9609,0.839 -1.3867,1.297 -1.7734,1.867 -3.4102,3.859 -5.0039,5.839 -0.5078,0.633 -1.0977,1.219 -1.5859,1.844 -1.4493,1.906 -2.7383,3.918 -4.0196,5.91 -0.5429,0.836 -1.1484,1.621 -1.6679,2.446 -1.1602,1.961 -2.1329,3.996 -3.1719,6.011 -0.5,0.996 -1.0703,1.899 -1.5547,2.93 -0.9023,1.977 -1.6328,4.039 -2.4063,6.078 -0.4179,1.125 -0.9531,2.203 -1.3242,3.359 -0.6836,2.051 -1.1797,4.192 -1.7343,6.301 -0.3165,1.18 -0.7305,2.336 -0.9727,3.52 -0.4766,2.222 -0.7617,4.469 -1.0898,6.738 -0.1836,1.156 -0.4375,2.285 -0.5665,3.453 -0.3632,3.449 -0.5429,6.922 -0.5429,10.446 0,20.011 6.1133,38.867 17.6953,54.57 10.1758,14.012 23.9023,24.203 39.7226,29.461 3.0665,1.039 6.2149,1.828 9.379,2.457 0.2968,0.043 0.6015,0.125 0.8789,0.16 19.6643,3.656 40.3943,-0.328 57.7183,-11.023 0.536,-0.329 1.067,-0.653 1.575,-0.997 2.597,-1.671 5.121,-3.488 7.539,-5.468 0.058,-0.047 0.129,-0.094 0.199,-0.137 7.387,-6.141 13.594,-13.367 18.668,-21.336 9.387,-14.801 14.598,-32.238 14.598,-50.586 0,-19.949 -6.114,-38.742 -17.68,-54.391 z M 351.086,43.9258 219.316,154.211 c 2.715,6.086 4.715,12.41 6.36,18.801 2.586,10.078 4.043,20.457 4.043,31.152 0,37.609 -16.133,72.57 -44.289,95.914 -20.45,16.887 -45.989,26.172 -71.914,26.172 -11.895,0 -23.6957,-1.918 -35.0004,-5.699 -19.1054,-6.375 -36.0586,-17.856 -49.457,-33.488 -1.9336,-2.223 -3.7656,-4.54 -5.5391,-6.95 -1.9336,-2.593 -3.7304,-5.304 -5.4297,-8.039 -3.1054,-5.047 -5.789,-10.301 -8.10933,-15.722 C 9.77344,255.863 9.51953,255.375 9.33594,254.91 8.77734,253.551 8.31641,252.156 7.80859,250.816 7.20313,249.145 6.53125,247.523 6,245.859 5.83594,245.371 5.72266,244.848 5.58203,244.352 1.92578,232.539 0,220.113 0,207.297 v 0 c 0,-37.731 16.1914,-72.727 44.3789,-95.988 9.3984,-7.793 19.9297,-13.8988 31.0352,-18.2817 0.9023,-0.3789 1.8164,-0.8085 2.7539,-1.1406 0.2109,-0.1015 0.4218,-0.1484 0.6484,-0.2148 8.9102,-3.2031 18.1875,-5.2852 27.5896,-6.125 3.196,-0.293 6.414,-0.4297 9.645,-0.4297 4.179,0 8.328,0.3047 12.484,0.7891 7.656,0.8789 15.215,2.4726 22.594,4.9531 6.855,2.2851 13.41,5.2851 19.66,8.8359 6.906,3.9377 13.438,8.6247 19.527,14.1057 L 319.211,5.80078 C 323.613,2.07031 329.266,0 335.117,0 c 7.422,0 14.363,3.25391 19.043,8.91406 3.762,4.44534 5.84,10.10154 5.84,15.94144 0,7.3633 -3.242,14.3047 -8.914,19.0703" />
        </g>
    </g>
</svg>