<svg width="752pt" height="752pt" version="1.1" viewBox="0 0 752 752" xmlns="http://www.w3.org/2000/svg">
 <g>
  <path fill="#fff" d="m365.58 592.43c-15.629-4.7344-25.574-19.891-25.574-35.992v-12.312s0-0.47266 0.47266-0.47266h74.824v13.262c-0.46875 24.621-24.148 43.566-49.723 35.516z"/>
  <path fill="#fff" d="m536.55 535.12h-318.25c-13.734 0-24.625-10.891-24.625-24.625v-4.2617c0-6.6289 2.3672-12.785 7.1055-17.523l33.145-32.203v-104.66c0-63.461 39.781-116.97 99.453-135.92 0.47266 0 0.47266-0.47266 0.47266-0.94531v-3.7891c0-14.207 6.6289-27.941 18.469-35.52 32.203-20.836 67.723 4.2617 67.723 35.52v3.7891c60.145 18.941 100.4 72.457 100.4 136.39l0.003906 105.14 33.152 32.676c4.7344 4.7344 7.1055 10.891 7.1055 17.523v4.2617c0.46875 13.258-10.426 24.152-24.156 24.152z"/>
 </g>
</svg>
