<svg width="154" height="33" viewBox="0 0 154 33" fill="none" xmlns="http://www.w3.org/2000/svg">
<path fill-rule="evenodd" clip-rule="evenodd" d="M140.875 14.5835C140.875 14.2466 141.16 13.9688 141.514 13.9688C141.865 13.9688 142.149 14.2466 142.149 14.5835C142.149 14.9318 141.865 15.2083 141.514 15.2083C141.16 15.2083 140.875 14.9318 140.875 14.5835ZM140.996 14.5835C140.996 14.8675 141.226 15.0867 141.514 15.0867C141.798 15.0867 142.025 14.8675 142.025 14.5835C142.025 14.3122 141.798 14.0904 141.514 14.0904C141.226 14.0904 140.996 14.3122 140.996 14.5835Z" fill="#E31837"/>
<path fill-rule="evenodd" clip-rule="evenodd" d="M141.828 14.9346H141.709L141.504 14.6135H141.38V14.9346H141.277V14.2402H141.584C141.647 14.2402 141.704 14.2442 141.758 14.2748C141.811 14.3028 141.837 14.3649 141.837 14.4223C141.837 14.5592 141.739 14.6091 141.611 14.6135L141.828 14.9346ZM141.496 14.5286C141.598 14.5286 141.735 14.547 141.735 14.4201C141.735 14.3299 141.655 14.3203 141.562 14.3203H141.38V14.5286H141.496Z" fill="#E31837"/>
<path d="M138.497 15.2079C142.932 11.4104 149.164 7.70959 152.581 6.38557C152.049 6.04639 151.224 5.55978 150.302 5.03125C145.895 6.485 140.744 9.72518 136.133 13.3847C136.918 13.9543 137.728 14.5807 138.497 15.2079Z" fill="#E31837"/>
<path d="M136.46 4.8822C135.8 4.57582 135.094 4.26974 134.528 4.01758C132.855 4.84153 130.687 6.09809 127.938 8.05278C128.537 8.36814 129.169 8.74546 129.847 9.1277C131.962 7.56083 134.097 6.07607 136.46 4.8822Z" fill="#012169"/>
<path d="M140.407 3.05367C139.611 2.59971 136.809 1.58538 134.889 1.13867C134.322 1.35679 133.519 1.66433 132.969 1.8957C133.656 2.08998 136.262 2.77807 138.479 3.90066C139.069 3.63334 139.852 3.29024 140.407 3.05367Z" fill="#E31837"/>
<path d="M130.966 2.7793C128.486 3.9202 125.902 5.48998 124.488 6.38535C124.99 6.61052 125.497 6.80714 126.197 7.15102C129.318 5.03666 131.766 3.75568 132.747 3.32622C132.052 3.09316 131.385 2.9056 130.966 2.7793Z" fill="#012169"/>
<path d="M142.265 2.4151C142.826 2.23331 143.497 2.05081 144.064 1.89183C142.407 1.19446 140.34 0.463184 138.495 0C138.207 0.0788514 137.321 0.32279 136.691 0.514156C137.329 0.669925 139.427 1.15431 142.265 2.4151Z" fill="#E31837"/>
<path d="M131.852 10.3435C132.521 10.7503 133.251 11.3026 133.947 11.7604C138.571 8.17646 143.131 5.39693 148.151 3.82958C147.453 3.47776 146.841 3.16194 146.067 2.7832C143.051 3.54959 137.932 5.6041 131.852 10.3435Z" fill="#E31837"/>
<path fill-rule="evenodd" clip-rule="evenodd" d="M40.7198 10.2508C40.7307 7.98729 42.3318 6.2207 44.8379 6.2207C47.3442 6.2207 48.9452 7.98729 48.9562 10.2508C48.9452 12.5141 47.3442 14.2807 44.8379 14.2807C42.3318 14.2807 40.7307 12.5141 40.7198 10.2508ZM3.87844 14.115H0.5V6.3864H3.65775C5.36898 6.3864 6.17498 7.26969 6.17498 8.37385C6.17498 9.24585 5.73343 9.83134 4.76173 10.074C5.86589 10.295 6.39585 10.9793 6.39585 11.9843C6.39585 13.2319 5.58985 14.115 3.87844 14.115ZM4.50781 11.7963C4.50781 11.145 4.07719 10.8359 3.43688 10.8359H2.34387V12.7571H3.43688C4.07719 12.7571 4.50781 12.481 4.50781 11.7963ZM3.22717 7.74452C3.86747 7.74452 4.29805 8.02037 4.29805 8.64989C4.29805 9.27926 3.86747 9.5553 3.22717 9.5553H2.34387V7.74452H3.22717ZM11.2993 6.3864H13.2095L16.1021 14.115H14.1589L13.6401 12.5141H10.8466L10.3278 14.115H8.40664L11.2993 6.3864ZM12.2599 8.23027L13.1762 11.0789H11.3214L12.2599 8.23027ZM24.0073 6.3864H25.7518V14.115H23.7865L20.4962 8.95902V14.115H18.7518V6.3864H20.7171L24.0073 11.5537V6.3864ZM33.8545 14.115L31.3151 10.1843V14.115H29.4382V6.3864H31.3151V10.107L33.7332 6.3864H35.831L33.3026 10.0962L36.0738 14.115H33.8545ZM44.8379 12.7459C43.6345 12.7459 42.707 11.7963 42.707 10.2508C42.707 8.70492 43.6345 7.75549 44.8379 7.75549C46.0414 7.75549 46.9689 8.70492 46.9689 10.2508C46.9689 11.7963 46.0414 12.7459 44.8379 12.7459ZM53.4156 14.115H51.5386V6.3864H56.7057L56.3745 7.86583H53.4156V9.58836H55.8555V11.0678H53.4156V14.115ZM65.462 6.3864H63.5518L60.6592 14.115H62.5803L63.0991 12.5141H65.8926L66.4114 14.115H68.3547L65.462 6.3864ZM65.4288 11.0789L64.5124 8.23027L63.574 11.0789H65.4288ZM79.5418 6.3864H77.3446L75.3352 10.5599L73.3369 6.3864H71.1397V14.115H72.829V8.94787L75.3132 14.115L77.7973 8.94787V14.115H79.5418V6.3864ZM88.4628 14.115H83.1853V6.3864H88.507L88.1758 7.86583H85.0623V9.47801H87.7452V10.9132H85.0623V12.6356H88.4628V14.115ZM95.6285 14.115H97.671L95.7389 10.8359C96.7877 10.5488 97.2956 9.80908 97.2956 8.71603C97.2956 7.31393 96.4565 6.3864 94.5574 6.3864H91.5875V14.115H93.4313V11.0678H93.9281L95.6285 14.115ZM95.4077 8.79332C95.4077 8.15298 94.9992 7.81066 94.2262 7.81066H93.4313V9.78714H94.2262C94.9992 9.78714 95.4077 9.45575 95.4077 8.79332ZM100.486 14.115H102.363V13.5146V6.3864H100.486V14.115ZM109.628 12.7129C110.269 12.7129 110.898 12.536 111.627 12.0393V13.784C110.964 14.1373 110.214 14.2807 109.352 14.2807C106.758 14.2807 105.179 12.536 105.168 10.2508C105.179 7.98729 106.78 6.2207 109.341 6.2207C110.169 6.2207 110.898 6.36432 111.538 6.71761V8.46193C110.843 7.9652 110.224 7.78854 109.584 7.78854C108.182 7.78854 107.188 8.77139 107.188 10.2508C107.188 11.7302 108.182 12.7129 109.628 12.7129ZM118.505 6.3864H116.595L113.702 14.115H115.623L116.142 12.5141H118.936L119.455 14.115H121.398L118.505 6.3864ZM118.472 11.0789L117.556 8.23027L116.617 11.0789H118.472Z" fill="#012169"/>
<path fill-rule="evenodd" clip-rule="evenodd" d="M1.46988 29.4621H2.91275C4.5132 29.4621 4.97401 28.3345 4.97401 27.5706C4.97401 26.3823 4.07673 25.752 2.8158 25.752H0.5V31.9355H1.46988V29.4621ZM1.46988 28.7588V26.5036H2.76733C3.45833 26.5036 3.99196 26.8068 3.99196 27.6069C3.99196 28.4921 3.39769 28.7588 2.80363 28.7588H1.46988Z" fill="#012169"/>
<path fill-rule="evenodd" clip-rule="evenodd" d="M11.2191 31.9355L9.72775 29.2439C10.6129 29.0257 11.0856 28.2497 11.0856 27.5222C11.0856 26.5158 10.3825 25.752 8.91525 25.752H6.42969V31.9355H7.42391V29.353H8.79396L10.1884 31.9355H11.2191ZM10.0914 27.5463C10.0914 28.3829 9.54582 28.6618 8.79396 28.6618H7.41174V26.4673H8.76983C9.50931 26.4673 10.0914 26.7825 10.0914 27.5463Z" fill="#012169"/>
<path d="M12.8438 31.9355V25.752H13.8258V31.5711V31.9355H12.8438Z" fill="#012169"/>
<path d="M17.9106 30.9167C18.0077 30.5894 18.1168 30.2379 18.226 29.9347C18.6259 28.7829 19.0019 27.6673 19.6445 25.7637H20.6146C19.7293 28.3342 19.0626 30.1044 18.4199 31.9353H17.3043C16.6496 30.1044 15.9949 28.3464 15.0977 25.7637H16.0919C16.7225 27.6673 17.1831 28.8557 17.5954 30.056C17.6802 30.3227 17.7773 30.65 17.8743 30.9167H17.9106Z" fill="#012169"/>
<path fill-rule="evenodd" clip-rule="evenodd" d="M24.9649 30.2381L25.559 31.9355H26.6138L24.3344 25.752H23.1704L20.8789 31.9355H21.8973C22.1439 31.2116 22.2756 30.8582 22.3713 30.6015C22.4215 30.467 22.4618 30.359 22.5035 30.2381H24.9649ZM23.8081 26.8063C23.8629 26.9859 23.9303 27.2069 23.9707 27.3039C24.1175 27.7033 24.233 28.0543 24.3476 28.4025C24.4695 28.773 24.5904 29.1403 24.7467 29.5591H22.7339C22.8794 29.1529 22.9946 28.7922 23.1098 28.4315C23.225 28.0708 23.3402 27.7101 23.4858 27.3039C23.5319 27.1927 23.6207 26.9189 23.6816 26.7308C23.7005 26.6727 23.7167 26.6228 23.7281 26.5884H23.7403C23.7565 26.6369 23.7807 26.7165 23.8081 26.8063Z" fill="#012169"/>
<path d="M28.8075 31.9355L28.7954 26.5036H26.625V25.752H31.9115V26.5036H29.7653L29.7533 31.9355H28.8075Z" fill="#012169"/>
<path d="M33.1836 31.9355V25.752H37.4515V26.5279H34.1778V28.3101H36.9786V29.0498H34.1778V31.1595H37.6091V31.9355H33.1836Z" fill="#012169"/>
<path fill-rule="evenodd" clip-rule="evenodd" d="M46.5298 28.7202C47.2552 28.9861 47.5455 29.6635 47.5455 30.2076C47.5455 31.2596 46.6265 31.9368 45.5624 31.9368H42.6602V25.7695H45.2963C46.6507 25.7695 47.3279 26.4467 47.3279 27.3778C47.3279 27.7648 47.1465 28.3333 46.5298 28.6718V28.7202ZM43.6395 26.5435V28.3815H45.2722C45.9493 28.3815 46.3483 28.0187 46.3483 27.4383C46.3483 26.8822 45.9493 26.5435 45.2722 26.5435H43.6395ZM43.6395 31.1629V29.1192H45.3689C46.1548 29.1192 46.5539 29.6029 46.5539 30.1592C46.5539 30.7275 46.1791 31.1629 45.3689 31.1629H43.6395Z" fill="#012169"/>
<path fill-rule="evenodd" clip-rule="evenodd" d="M52.5909 30.244L53.1833 31.9368H54.2355L51.962 25.7695H50.8011L48.5156 31.9368H49.5313C49.7775 31.2144 49.9089 30.8621 50.0044 30.606C50.0544 30.472 50.0945 30.3644 50.1361 30.244H52.5909ZM51.4379 26.824C51.4924 27.0027 51.5591 27.2212 51.5992 27.3174C51.746 27.7168 51.8615 28.0677 51.976 28.4157C52.0974 28.7844 52.2177 29.1499 52.3731 29.5666H50.3659C50.5111 29.1613 50.6259 28.8014 50.7408 28.4415C50.8556 28.0819 50.9704 27.7223 51.1155 27.3174C51.1613 27.2074 51.2488 26.9376 51.3096 26.7502C51.329 26.6904 51.3457 26.639 51.3574 26.6039H51.3694C51.3857 26.6528 51.4102 26.7333 51.4379 26.824Z" fill="#012169"/>
<path d="M56.3645 27.2202C56.3645 28.5626 56.3764 29.8444 56.4008 31.9364H55.4453V25.7813H56.449L59.0491 29.5057L59.7382 30.5216H59.7504V25.7812H60.6937L60.6815 31.9364H59.7745L56.9086 27.8854C56.7273 27.6193 56.5821 27.4378 56.4008 27.1719L56.3645 27.2202Z" fill="#012169"/>
<path d="M63.546 31.9368H62.5664V25.7695H63.546V28.4057L66.2547 25.7695H67.4156L64.8036 28.2485L67.4761 31.9368H66.3515L64.1506 28.8652L63.546 29.4457V31.9368Z" fill="#012169"/>
</svg>
