<svg width="370" height="20" viewBox="0 0 370 20" fill="none" xmlns="http://www.w3.org/2000/svg">
<path fill-rule="evenodd" clip-rule="evenodd" d="M182.457 18.9551C182.451 18.6191 182.648 18.3126 182.957 18.1793C183.265 18.046 183.623 18.1123 183.864 18.3472C184.104 18.5821 184.178 18.939 184.052 19.2504C183.926 19.5618 183.624 19.766 183.288 19.7672C183.07 19.771 182.859 19.6873 182.703 19.5347C182.547 19.3821 182.458 19.1734 182.457 18.9551ZM182.614 18.9551C182.602 19.2276 182.757 19.4799 183.006 19.5928C183.254 19.7056 183.546 19.6564 183.744 19.4684C183.942 19.2804 184.005 18.9912 183.905 18.7375C183.805 18.4838 183.561 18.3163 183.288 18.3141C182.925 18.3053 182.623 18.5921 182.614 18.9551Z" fill="#E31837"/>
<path fill-rule="evenodd" clip-rule="evenodd" d="M183.7 19.4135H183.545L183.279 18.9949H183.118V19.4135H182.984V18.5126H183.383C183.461 18.5076 183.539 18.5237 183.609 18.5591C183.675 18.5998 183.714 18.6731 183.711 18.7507C183.711 18.8249 183.679 18.8953 183.622 18.9433C183.566 18.9912 183.491 19.0116 183.418 18.9991L183.7 19.4135ZM183.268 18.8847C183.4 18.8847 183.579 18.9084 183.579 18.7452C183.579 18.6279 183.475 18.6154 183.354 18.6154H183.118V18.8847H183.268H183.268Z" fill="#E31837"/>
<path d="M179.367 19.767C185.135 14.8312 193.233 10.0205 197.674 8.29953C196.983 7.8586 195.911 7.22604 194.712 6.53906C188.984 8.42883 182.288 12.6405 176.293 17.3967C177.315 18.1391 178.368 18.9512 179.367 19.767Z" fill="#E31837"/>
<path d="M176.722 6.34638C175.865 5.94824 174.947 5.5501 174.211 5.22266C171.22 6.74062 168.356 8.49455 165.645 10.4678C166.424 10.8775 167.245 11.3682 168.126 11.8631C170.829 9.78275 173.705 7.93712 176.722 6.34638Z" fill="#012169"/>
<path d="M181.856 3.96782C180.821 3.37759 177.179 2.06084 174.683 1.47852C173.947 1.76224 172.902 2.16177 172.188 2.4627C174.651 3.10442 177.05 3.97648 179.35 5.06735C180.117 4.72131 181.134 4.27526 181.856 3.96782Z" fill="#E31837"/>
<path d="M169.583 3.61328C166.682 4.99934 163.87 6.5647 161.164 8.30026C161.815 8.59282 162.476 8.84863 163.385 9.29561C166.086 7.4148 168.933 5.75307 171.898 4.3263C170.995 4.02119 170.129 3.77747 169.583 3.61328Z" fill="#012169"/>
<path d="M184.268 3.13907C184.997 2.90279 185.87 2.66558 186.606 2.45907C184.255 1.46683 181.837 0.645017 179.368 0C178.993 0.102326 177.843 0.418605 177.023 0.668372C179.511 1.26155 181.936 2.08881 184.268 3.13907Z" fill="#E31837"/>
<path d="M170.73 13.4451C171.6 13.9739 172.55 14.6916 173.454 15.287C179.464 10.6284 185.391 7.01579 191.916 4.97719C191.01 4.51998 190.214 4.10928 189.208 3.61719C185.288 4.6144 178.634 7.28509 170.73 13.4451Z" fill="#E31837"/>
<path fill-rule="evenodd" clip-rule="evenodd" d="M141.845 16.5239C142.782 16.514 143.691 16.2075 144.443 15.6485H144.445V17.916C143.528 18.3743 142.512 18.5962 141.488 18.5616C138.116 18.5616 136.064 16.2936 136.049 13.3234C136.064 10.3816 138.145 8.08527 141.474 8.08527C142.466 8.05207 143.449 8.27455 144.33 8.73132V10.9988C143.602 10.4358 142.71 10.1282 141.79 10.1234C139.965 10.1234 138.673 11.4011 138.673 13.3239C138.621 14.1825 138.938 15.0228 139.543 15.6337C140.149 16.2447 140.986 16.5685 141.845 16.5239ZM52.2758 13.3243C52.2902 10.382 54.3688 8.0862 57.6288 8.0862C60.8888 8.0862 62.9674 10.3825 62.9819 13.3243C62.9674 16.2662 60.8888 18.5625 57.6288 18.5625C54.3688 18.5625 52.2921 16.2657 52.2791 13.3239L52.2758 13.3243ZM14.0372 8.29829H16.5214L20.2791 18.3462H17.7563L17.0819 16.2653H13.4507L12.7763 18.3462H10.2791L14.0372 8.29829ZM4.39116 18.3462H0V8.30062H4.10372C6.32837 8.30062 7.37581 9.44853 7.37581 10.8839C7.37581 12.0174 6.80186 12.7783 5.53907 13.0936C6.97442 13.3811 7.66326 14.2709 7.66326 15.5769C7.66326 17.1983 6.61581 18.3462 4.39116 18.3462ZM5.2093 15.3322C5.2093 14.4857 4.6493 14.0839 3.81721 14.0839V14.0843H2.39674V16.5811H3.81721C4.65116 16.5811 5.2093 16.222 5.2093 15.3322ZM3.54465 10.0657C4.37674 10.0657 4.93674 10.4243 4.93674 11.2425C4.93674 12.0606 4.3786 12.4192 3.54465 12.4192H2.39674V10.0657H3.54465ZM15.2856 10.6978L16.4767 14.4006H14.0656L15.2856 10.6978ZM30.5549 8.30108H32.8205L32.8223 8.30015V18.3467H30.2679L25.9912 11.6448V18.3471H23.7237V8.30062H26.2791L30.5549 15.0174V8.30108ZM43.3526 18.3476L40.0502 13.2383V18.3462H37.614V8.29969H40.0535V13.1369L43.1963 8.29969H45.9228L42.6372 13.1229L46.2391 18.3467H43.3553L43.3526 18.3476ZM57.6288 16.5676C56.0647 16.5676 54.8591 15.3332 54.8591 13.3243C54.8591 11.315 56.0647 10.0811 57.6288 10.0811C59.193 10.0811 60.3986 11.3155 60.3986 13.3243C60.3986 15.3332 59.193 16.5676 57.6288 16.5676ZM68.7777 18.3476H66.3423V8.30108H73.0586L72.6279 10.2239H68.7819V12.4625H71.9535V14.3857H68.7777V18.3476ZM84.4358 8.30108H81.9535L78.1935 18.3476H80.6907L81.3651 16.2667H84.9963L85.6707 18.3476H88.1967L84.4358 8.30108ZM84.3949 14.4006L83.2037 10.6978L81.9842 14.4006H84.3949ZM102.739 8.30108H99.8828L97.2712 13.7257L94.6735 8.30108H91.8177V18.3476H94.0135V11.6281L97.2423 18.3443L100.472 11.6281V18.3443H102.739V8.29783L102.739 8.30108ZM114.335 18.3476H107.475V8.30108H114.393L113.963 10.2239H109.916V12.3192H113.405V14.1862H109.916V16.4234H114.335V18.3476ZM123.648 18.3476H126.303L123.792 14.0853C125.155 13.7132 125.815 12.7504 125.815 11.3299C125.815 9.5076 124.724 8.30202 122.256 8.30202H118.395V18.3485H120.791V14.3857H121.436L123.648 18.3476ZM123.36 11.4304C123.36 10.5983 122.83 10.1532 121.826 10.1532L121.824 10.1518H120.791V12.722H121.826C122.829 12.722 123.36 12.2913 123.36 11.4304ZM129.963 18.3462H132.403V8.29969H129.963V18.3462ZM153.384 8.29969H150.901L147.141 18.3462H149.638L150.313 16.2653H153.943L154.618 18.3462H157.143L153.384 8.29969ZM153.341 14.4006L152.15 10.6978L150.93 14.4006H153.341Z" fill="#012169"/>
<path fill-rule="evenodd" clip-rule="evenodd" d="M257.022 14.3729H259.464C262.176 14.3729 262.957 12.4604 262.958 11.1673C262.958 9.15338 261.438 8.08594 259.301 8.08594H255.379V18.5631H257.022V14.3729ZM257.022 13.1794V9.35896H259.22C260.391 9.35896 261.295 9.87245 261.295 11.2292C261.295 12.7278 260.288 13.1794 259.281 13.1794H257.022Z" fill="#012169"/>
<path fill-rule="evenodd" clip-rule="evenodd" d="M273.545 18.559L271.018 14.0008C272.365 13.6755 273.316 12.4711 273.319 11.085C273.319 9.37896 272.126 8.08594 269.641 8.08594H265.43V18.559H267.114V14.1831H269.435L271.798 18.559H273.545ZM271.635 11.1236C271.635 12.5422 270.711 13.0138 269.437 13.0138H267.095V9.29524H269.396C270.649 9.29524 271.635 9.82873 271.635 11.1236Z" fill="#012169"/>
<path d="M276.301 18.5622V8.08594H277.965V18.5622H276.301Z" fill="#012169"/>
<path d="M284.891 16.8377C285.056 16.2842 285.241 15.6884 285.425 15.1749C286.103 13.2214 286.74 11.3325 287.829 8.10742H289.472C287.972 12.4614 286.843 15.4623 285.754 18.5637H283.864C282.755 15.4623 281.645 12.4832 280.125 8.10742H281.81C282.879 11.3325 283.658 13.3465 284.357 15.379C284.5 15.8325 284.665 16.386 284.829 16.8377H284.891H284.891Z" fill="#012169"/>
<path fill-rule="evenodd" clip-rule="evenodd" d="M296.915 15.6869L297.922 18.5622H299.707L295.847 8.08594H293.875L289.992 18.5622H291.718C292.137 17.331 292.36 16.7327 292.522 16.2977C292.607 16.072 292.675 15.8903 292.745 15.6869H296.915ZM294.961 9.89234C295.053 10.1926 295.163 10.5541 295.23 10.7152V10.7157C295.48 11.3948 295.676 11.9912 295.871 12.583C296.077 13.2084 296.281 13.8286 296.545 14.5357H293.135C293.38 13.8522 293.574 13.2446 293.767 12.6378C293.964 12.0223 294.16 11.4076 294.409 10.7152C294.487 10.5253 294.639 10.0573 294.743 9.7388C294.774 9.64247 294.801 9.55982 294.82 9.50268H294.84C294.868 9.58831 294.912 9.73156 294.961 9.89234Z" fill="#012169"/>
<path d="M303.617 18.5622L303.596 9.35896H299.918V8.08594H308.876V9.35896H305.239L305.219 18.5622H303.617Z" fill="#012169"/>
<path d="M311.039 18.5622V8.08594H318.27V9.40082H312.724V12.4194H317.468V13.6752H312.724V17.2501H318.538V18.565H311.039V18.5622Z" fill="#012169"/>
<path fill-rule="evenodd" clip-rule="evenodd" d="M333.687 13.0976C334.737 13.4918 335.428 14.5029 335.412 15.625C335.412 17.4115 333.851 18.5622 332.044 18.5622H327.113V8.08594H331.591C333.892 8.08594 335.043 9.23524 335.043 10.8176C335.031 11.7441 334.51 12.5887 333.687 13.0157V13.0976H333.687ZM328.777 9.40082V12.5222H331.55C332.701 12.5222 333.378 11.9069 333.378 10.9199C333.378 9.97477 332.701 9.40082 331.55 9.40082H328.777ZM328.777 17.2455V13.7734H331.715C333.05 13.7734 333.728 14.5957 333.728 15.5408C333.728 16.5059 333.09 17.2455 331.715 17.2455H328.777Z" fill="#012169"/>
<path fill-rule="evenodd" clip-rule="evenodd" d="M344.188 15.6869L345.195 18.5622H346.981L343.12 8.08594H341.148L337.266 18.5622H338.991C339.41 17.331 339.633 16.7327 339.796 16.2977C339.88 16.072 339.948 15.8903 340.018 15.6869H344.188ZM342.235 9.89234C342.326 10.1926 342.437 10.5541 342.504 10.7152V10.7157C342.755 11.399 342.952 11.9986 343.148 12.594C343.352 13.2157 343.555 13.8327 343.817 14.5357H340.407C340.652 13.8522 340.846 13.2446 341.039 12.6378C341.236 12.0223 341.432 11.4076 341.681 10.7152C341.759 10.5253 341.911 10.0573 342.015 9.7388C342.046 9.64247 342.073 9.55982 342.092 9.50268H342.113C342.142 9.58831 342.186 9.73156 342.235 9.89234Z" fill="#012169"/>
<path d="M350.604 10.5497C350.604 12.8315 350.625 15.0073 350.666 18.5622H349.043V8.10547H350.748L355.166 14.4311L356.337 16.1571H356.358V8.10547H357.96L357.939 18.5617H356.399L351.53 11.678C351.222 11.2264 350.975 10.9171 350.667 10.4655L350.604 10.5497Z" fill="#012169"/>
<path d="M362.812 18.5622H361.148V8.08594H362.812V12.5641L367.414 8.08594H369.386L364.949 12.2962L369.489 18.5622H367.58L363.84 13.345L362.813 14.3301V18.5627L362.812 18.5622Z" fill="#012169"/>
</svg>
