<?xml version="1.0" encoding="UTF-8" standalone="no"?>
<svg width="80px" height="79px" viewBox="0 0 80 79" version="1.1" xmlns="http://www.w3.org/2000/svg" xmlns:xlink="http://www.w3.org/1999/xlink" xmlns:sketch="http://www.bohemiancoding.com/sketch/ns">
    <!-- Generator: Sketch 3.5.2 (25235) - http://www.bohemiancoding.com/sketch -->
    <title>Group</title>
    <desc>Created with Sketch.</desc>
    <defs>
        <path id="path-1" d="M39.7554182,0 L0,36.7262306 L13.4797618,36.7262306 L13.4797618,69.0386262 L29.6652197,69.0386262 L29.6652197,41.2631201 L45.7198586,41.2631201 L45.7198586,69.0386262 L53.9335938,69.0386262 L66.032879,69.0386262 L66.032879,39.1754381 L66.032879,36.7262306 L79.5090319,36.7262306 L66.032879,24.2765171 L66.032879,6.85455598 L54.3205259,6.85455598 L54.3205259,13.448576 L39.7554182,0 Z"></path>
        <path id="path-3" d="M0,0.234227739 L50.2750636,0.234227739 L50.2750636,47.5244688 L0,47.5244688 L0,0.234227739 Z"></path>
    </defs>
    <g id="Page-1" stroke="none" stroke-width="1" fill="none" fill-rule="evenodd" sketch:type="MSPage">
        <g id="Assets" sketch:type="MSArtboardGroup" transform="translate(-331.000000, -533.000000)">
            <g id="Group" sketch:type="MSLayerGroup" transform="translate(331.000000, 533.000000)">
                <g id="Page-1" transform="translate(15.000000, 31.000000)" fill="#0070CD" sketch:type="MSShapeGroup">
                    <path d="M20.1162506,32.2843901 C12.2481693,32.2843901 5.87322811,26.2878205 5.87322811,18.8867331 C5.87322811,11.4856457 12.2481693,5.4865302 20.1162506,5.4865302 C27.9843319,5.4865302 34.3610775,11.4856457 34.3610775,18.8867331 C34.3610775,26.2878205 27.9843319,32.2843901 20.1162506,32.2843901 L20.1162506,32.2843901 Z M37.5702009,27.873101 C41.6120544,20.7698902 40.4581413,11.7224194 34.0877111,5.73348771 C30.3210284,2.19121747 25.3129194,0.234227739 19.9682899,0.234227739 C14.6417044,0.234227739 9.62998657,2.19121747 5.84525993,5.73348771 C2.07947948,9.28084984 -9.02199436e-05,13.9925615 -9.02199436e-05,19.0174254 C-9.02199436e-05,24.0295596 2.07947948,28.7421198 5.84525993,32.2852387 C9.62998657,35.844482 14.6417044,37.786196 19.9682899,37.786196 C23.3190586,37.786196 26.5390084,37.0266531 29.4134158,35.5729136 L42.1181883,47.5244688 L50.2749734,39.837386 L37.5702009,27.873101 Z" id="Fill-1"></path>
                </g>
                <g id="Page-1">
                    <mask id="mask-2" sketch:name="Mask" fill="white">
                        <use xlink:href="#path-1"></use>
                    </mask>
                    <use id="Mask" fill="#D1C9C0" sketch:type="MSShapeGroup" xlink:href="#path-1"></use>
                    <g mask="url(#mask-2)">
                        <g transform="translate(15.000000, 31.000000)">
                            <mask id="mask-4" sketch:name="Clip 2" fill="white">
                                <use xlink:href="#path-3"></use>
                            </mask>
                            <g id="Clip-2"></g>
                            <path d="M20.1162506,32.2843901 C12.2481693,32.2843901 5.87322811,26.2878205 5.87322811,18.8867331 C5.87322811,11.4856457 12.2481693,5.4865302 20.1162506,5.4865302 C27.9843319,5.4865302 34.3610775,11.4856457 34.3610775,18.8867331 C34.3610775,26.2878205 27.9843319,32.2843901 20.1162506,32.2843901 L20.1162506,32.2843901 Z M37.5702009,27.873101 C41.6120544,20.7698902 40.4581413,11.7224194 34.0877111,5.73348771 C30.3210284,2.19121747 25.3129194,0.234227739 19.9682899,0.234227739 C14.6417044,0.234227739 9.62998657,2.19121747 5.84525993,5.73348771 C2.07947948,9.28084984 -9.02199436e-05,13.9925615 -9.02199436e-05,19.0174254 C-9.02199436e-05,24.0295596 2.07947948,28.7421198 5.84525993,32.2852387 C9.62998657,35.844482 14.6417044,37.786196 19.9682899,37.786196 C23.3190586,37.786196 26.5390084,37.0266531 29.4134158,35.5729136 L42.1181883,47.5244688 L50.2749734,39.837386 L37.5702009,27.873101 Z" id="Fill-1" stroke="none" fill="#00589A" fill-rule="evenodd" sketch:type="MSShapeGroup" mask="url(#mask-4)"></path>
                        </g>
                    </g>
                </g>
            </g>
        </g>
    </g>
</svg>