<?xml version="1.0" encoding="UTF-8"?>
<svg width="24px" height="24px" viewBox="0 0 24 24" version="1.1" xmlns="http://www.w3.org/2000/svg" xmlns:xlink="http://www.w3.org/1999/xlink">
    <title>find-a-location-med-small</title>
    <g id="find-a-location-med-small" stroke="none" stroke-width="1" fill="none" fill-rule="evenodd">
        <g id="Icon-Color" fill="#E31837">
            <path d="M12.5085,0 C17.1907857,0 21,3.7584 21,8.3784 C21,13.5408 12.4769286,24 12.4769286,24 C12.4769286,24 4,12.2268 4,8.3784 C4,3.7584 7.81771429,0 12.5085,0 Z M12.5085,1.2 C8.48557143,1.2 5.21428571,4.4208 5.21428571,8.3784 C5.21428571,11.0676 10.1236429,18.5784 12.534,21.9948 C14.2473571,19.8036 19.7857143,12.4044 19.7857143,8.3784 C19.7857143,4.4208 16.5205,1.2 12.5085,1.2 Z M12.5,3.5952 C14.8435714,3.5952 16.75,5.478 16.75,7.7928 C16.75,10.1088 14.8435714,11.994 12.5,11.994 C10.1564286,11.994 8.25,10.1088 8.25,7.7928 C8.25,5.478 10.1564286,3.5952 12.5,3.5952 Z M12.5,4.7952 C10.8255,4.7952 9.46428571,6.1404 9.46428571,7.7928 C9.46428571,9.4476 10.8255,10.794 12.5,10.794 C14.1745,10.794 15.5357143,9.4476 15.5357143,7.7928 C15.5357143,6.1404 14.1745,4.7952 12.5,4.7952 Z"></path>
        </g>
    </g>
</svg>