<svg xmlns="http://www.w3.org/2000/svg" viewBox="0 0 187.55 217.104"><title>Untitled-1</title><g style="isolation:isolate"><path d="M109.051,145.38l0.009,22.333H11.816V20.14h97.227V45.38l11.833-11.833V17.522A17.567,17.567,0,0,0,103.323,0H17.53A17.584,17.584,0,0,0,0,17.543V199.582A17.579,17.579,0,0,0,17.543,217.1h85.793a17.6,17.6,0,0,0,17.556-17.53V157.221Z" style="fill:#cfc7bd"/><g style="mix-blend-mode:multiply"><path d="M151.838,181.721L137.2,167.085a101.516,101.516,0,0,0,0-143.41L151.838,9.03A122.242,122.242,0,0,1,151.838,181.721Z" style="fill:#e31932"/><path d="M125.5,155.377l-14.637-14.641a64.2,64.2,0,0,0-.008-90.716L125.5,35.383A84.96,84.96,0,0,1,125.5,155.377Z" style="fill:#e31932"/><path d="M99.157,62.411L84.946,76.618a27.509,27.509,0,0,1-.008,38.9l14.206,14.219A47.651,47.651,0,0,0,99.157,62.411Z" style="fill:#e31932"/></g></g></svg>