<svg xmlns="http://www.w3.org/2000/svg" viewBox="0 0 215.36 244.548"><title>Untitled-1</title><g style="isolation:isolate"><path d="M123.8,7.42c0.93,0.46,1.84.97,2.73,1.52C125.64,8.4,124.73,7.89,123.8,7.42Z" style="fill:#e21d38"/><path d="M123.8,7.42c0.93,0.46,1.84.97,2.73,1.52C125.64,8.4,124.73,7.89,123.8,7.42Z" style="fill:#c52739"/><path d="M141.134,138.184c5.539,4.431,48.739,18.173,58.723,25.709,9.964,7.526,15.5,80.654,15.5,80.654H0s5.549-73.128,15.516-80.654S68.7,142.616,74.239,138.184L85.1,170.63l23.092-17.689L129.87,170.63l11.264-32.446h0Z" style="fill:#d1c8bf"/><path d="M90.023,31.41l11.43-.174c4.521,9.236,17.493,24.155,53.608,20.725C150.41,24.247,131.019,3.45,107.781,3.45c-23.61,0-43.239,21.465-47.481,49.838,19.042,0.995,29.62-21.65,29.723-21.878" style="fill:#d1c8bf"/><path d="M95.937,45.822C89.767,54.449,78.367,66,61.55,66c-0.72,0-1.463-.043-2.2-0.086C59.829,99.247,81.256,126.1,107.658,126.1c26.708,0,48.354-27.457,48.354-61.326l-0.006-.226c-33.886,3.171-51.435-8.531-60.069-18.724" style="fill:#d1c8bf"/><path d="M64.093,65.911c0.215-.011.44-0.022,0.655-0.045,0.011,0,.023-0.012.034-0.012C64.544,65.877,64.319,65.9,64.093,65.911Z" style="fill:#c52739"/><path d="M64.781,65.855c-0.237.023-.463,0.045-0.688,0.056,0.215-.011.44-0.022,0.655-0.045h0.045V65.855H64.781Z" style="fill:#c52739"/><path d="M64.781,65.855c-0.237.023-.463,0.045-0.688,0.056,0.215-.011.44-0.022,0.655-0.045h0.045V65.855H64.781Z" style="fill:#c52739"/><path d="M64.781,65.855c-0.237.023-.463,0.045-0.688,0.056,0.215-.011.44-0.022,0.655-0.045h0.045V65.855H64.781Z" style="fill:#c52739"/><path d="M64.781,65.855c-0.237.023-.463,0.045-0.688,0.056,0.215-.011.44-0.022,0.655-0.045h0.045V65.855H64.781Z" style="fill:#c52739"/><path d="M64.917,65.844v0.011c-0.045,0-.079.012-0.124,0.012H64.747c-0.214.023-.44,0.034-0.655,0.045,0.226-.011.451-0.034,0.688-0.056h0.011C64.838,65.855,64.872,65.844,64.917,65.844Z" style="fill:#e21d38"/><path d="M64.781,65.855c-0.237.023-.463,0.045-0.688,0.056,0.215-.011.44-0.022,0.655-0.045h0.045V65.855H64.781Z" style="fill:#c52739"/><path d="M64.781,65.855c-0.237.023-.463,0.045-0.688,0.056,0.215-.011.44-0.022,0.655-0.045h0.045V65.855H64.781Z" style="fill:#c52739"/><path d="M64.781,65.855c-0.237.023-.463,0.045-0.688,0.056,0.215-.011.44-0.022,0.655-0.045h0.045V65.855H64.781Z" style="fill:#c52739"/><path d="M64.781,65.855c-0.237.023-.463,0.045-0.688,0.056,0.215-.011.44-0.022,0.655-0.045h0.045V65.855H64.781Z" style="fill:#c52739"/><path d="M64.781,65.855c-0.237.023-.463,0.045-0.688,0.056,0.215-.011.44-0.022,0.655-0.045h0.045V65.855H64.781Z" style="fill:#c52739"/><path d="M64.781,65.855c-0.237.023-.463,0.045-0.688,0.056,0.215-.011.44-0.022,0.655-0.045h0.045V65.855H64.781Z" style="fill:#c52739"/><path d="M155.217,76.87c3.984-1.862,6.918-9.085,6.918-17.719,0-8.487-2.9-15.609-6.772-17.629C143.8,7.99,123.368.3,107.7,0.011,107.409,0,107.116,0,106.834,0,90.976,0,77.365,8.16,67.49,23.622a83.426,83.426,0,0,0-8.352,17.415c-4.571.857-8.149,8.634-8.149,18.114,0,9.029,3.239,16.512,7.494,17.945,0.813,1.986,1.93,4.571,3.386,7.358a0.023,0.023,0,0,1,.011.023,0.25,0.25,0,0,0,.011.045c0.023,0.079.034,0.147,0.068,0.237,5.135,9.74,14.175,22.268,27.572,24.819l0.677,0.056,8.194,0.113a10.5,10.5,0,0,0,7.945,3.217c5.214,0,9.446-3.115,9.446-6.975,0-3.837-4.244-6.963-9.458-6.963-3.691,0-6.873,1.557-8.431,3.837l-6.941-.034-0.542-.068C76.846,99.95,68.68,83.156,64.68,74.793v-8.3h0.067c-0.214,0-.44.039-0.655,0.051,0.226-.011.451-0.051,0.688-0.051h-0.1V45.269c4-10.383,15.033-38.384,41.962-38.384,0.26,0,.89.012,1.15,0.012,13.092,0.248,30.888,6.76,40.888,34.761V77.49h4.37a5.234,5.234,0,0,0,2.122-.547" style="fill:#dd1e33;mix-blend-mode:multiply"/><path d="M64.781,65.855c-0.237.023-.463,0.045-0.688,0.056,0.215-.011.44-0.022,0.655-0.045h0.045V65.855H64.781Z" style="fill:#c52739"/><path d="M64.781,65.855c-0.237.023-.463,0.045-0.688,0.056,0.215-.011.44-0.022,0.655-0.045h0.045V65.855H64.781Z" style="fill:#c52739"/><path d="M64.793,65.855v0.012H64.747c0.011,0,.023-0.012.034-0.012h0.011Z" style="fill:#c52739"/></g></svg>