<svg xmlns="http://www.w3.org/2000/svg" viewBox="0 0 300.695 219.057"><title>Untitled-1</title><g style="isolation:isolate"><path d="M96.651,59.772C43.268,59.772,0,93.513,0,135.143c0,18.763,8.824,35.886,23.359,49.068l10.212,34.846L52.9,202.3a118.563,118.563,0,0,0,43.752,8.212c53.35,0,96.618-33.741,96.618-75.372S150,59.772,96.651,59.772" style="fill:#d1c8bf"/><g style="mix-blend-mode:multiply"><path d="M300.695,75.38C300.695,33.758,257.443,0,204.044,0c-53.35,0-96.6,33.758-96.6,75.38s43.252,75.371,96.6,75.371a125.676,125.676,0,0,0,17.246-1.258l26.3,22.778,9.988-34.137c25.988-13.542,43.121-36.58,43.121-62.755" style="fill:#dd1e33"/></g></g></svg>