<?xml version="1.0" encoding="utf-8"?>
<svg width="24" height="24" viewBox="1.5 0 21 24" xmlns="http://www.w3.org/2000/svg">
  <path d="M12 15.724l4.402 4.47-.928.945-2.818-2.864V24h-1.312l-.001-5.723-2.816 2.862-.93-.944L12 15.724zM22.5 0v17.333h-5.25V16h3.938V1.333H2.813V16H6.75v1.333H1.5V0h21zm-9.844 2.667v1.796c1.35.245 2.363 1.229 2.363 2.404v.3h-1.313v-.3c0-.615-.78-1.134-1.706-1.134-.925 0-1.706.519-1.706 1.134 0 .249 0 .91 1.785 1.136 1.951.249 2.94 1.078 2.94 2.464 0 1.174-1.014 2.158-2.363 2.404v1.796h-1.312V12.87c-1.35-.246-2.363-1.23-2.363-2.404v-.3h1.313v.3c0 .614.78 1.133 1.706 1.133.925 0 1.706-.519 1.706-1.133 0-.25 0-.912-1.79-1.14-1.919-.243-2.935-1.094-2.935-2.46 0-1.175 1.014-2.159 2.363-2.404V2.667h1.312z" fill="#E31837" fill-rule="evenodd"/>
</svg>