<?xml version="1.0" encoding="utf-8"?>
<svg width="24" height="24" viewBox="0 0 24 24" xmlns="http://www.w3.org/2000/svg">
  <path d="M12 0c6.617 0 12 5.383 12 12s-5.383 12-12 12S0 18.617 0 12 5.383 0 12 0zm0 1.2C6.046 1.2 1.2 6.046 1.2 12c0 5.954 4.846 10.8 10.8 10.8 5.954 0 10.8-4.846 10.8-10.8 0-5.954-4.846-10.8-10.8-10.8zm.6 3.6v2.328c1.633.227 2.88 1.352 2.88 2.712v.36h-1.2v-.36c0-.846-1.044-1.56-2.28-1.56-1.236 0-2.28.714-2.28 1.56 0 .348 0 1.27 2.352 1.562 2.26.285 3.408 1.212 3.408 2.758 0 1.36-1.247 2.485-2.88 2.712V19.2h-1.2v-2.328c-1.633-.227-2.88-1.353-2.88-2.712v-.36h1.2v.36c0 .846 1.044 1.56 2.28 1.56 1.236 0 2.28-.714 2.28-1.56 0-.348 0-1.27-2.357-1.567-2.258-.281-3.403-1.206-3.403-2.753 0-1.36 1.247-2.485 2.88-2.712V4.8h1.2z" fill="#E31837" fill-rule="evenodd"/>
</svg>