<?xml version="1.0" encoding="UTF-8" standalone="no"?>
<svg width="16px" height="16px" viewBox="0 0 16 16" version="1.1" xmlns="http://www.w3.org/2000/svg" xmlns:xlink="http://www.w3.org/1999/xlink">
    <!-- Generator: Sketch 3.7.2 (28276) - http://www.bohemiancoding.com/sketch -->
    <title>PRINT_ICON</title>
    <desc>Created with Sketch.</desc>
    <defs></defs>
    <g id="Page-1" stroke="none" stroke-width="1" fill="none" fill-rule="evenodd">
        <g id="320-640" transform="translate(-240.000000, -65.000000)" fill="#A59183">
            <path d="M253.177,76.428 L254.117,76.428 L254.117,75.285 L253.177,75.285 L253.177,76.428 Z M242.823,79.857 L253.177,79.857 L253.177,78.713 L242.823,78.713 L242.823,79.857 Z M243.765,66.142 L249.412,66.142 L249.412,69.571 L252.236,69.571 L252.236,74.142 L243.765,74.142 L243.765,66.142 Z M255.059,74.142 L253.177,74.142 L253.177,68.428 L250.353,65 L242.824,65 L242.824,74.142 L240.942,74.142 C240.477,74.142 240,74.72 240,75.286 L240,81 L256,81 L256,75.286 C256,74.72 255.525,74.142 255.059,74.142 L255.059,74.142 Z" id="PRINT_ICON"></path>
        </g>
    </g>
</svg>
