<?xml version="1.0" encoding="UTF-8"?>
<svg width="24px" height="24px" viewBox="0 0 24 24" version="1.1" xmlns="http://www.w3.org/2000/svg" xmlns:xlink="http://www.w3.org/1999/xlink">
    <title>icon/brand/lifeplan/icon_calendar_red</title>
    <g id="Page-1" stroke="none" stroke-width="1" fill="none" fill-rule="evenodd">
        <g id="Icon-Color" fill="#E31837">
            <path d="M7.2,0 L7.2,1.206 L16.8,1.2024 L16.8,0 L18,0 L18,1.2024 L24,1.2 L24,24 L0,24 L0,1.2096 L6,1.2072 L6,0 L7.2,0 Z M22.8,7.2 L1.2,7.2 L1.2,22.8 L22.8,22.8 L22.8,7.2 Z M8.4,9 L8.4,11.4 L15.6,11.4 L15.6,9 L16.8,9 L16.8,11.4 L20.4,11.4 L20.4,12.6 L16.8,12.6 L16.8,17.4 L20.4,17.4 L20.4,18.6 L16.8,18.6 L16.8,21 L15.6,21 L15.6,18.6 L8.4,18.6 L8.4,21 L7.2,21 L7.2,18.6 L3.6,18.6 L3.6,17.4 L7.2,17.4 L7.2,12.6 L3.6,12.6 L3.6,11.4 L7.2,11.4 L7.2,9 L8.4,9 Z M15.6,12.6 L8.4,12.6 L8.4,17.4 L15.6,17.4 L15.6,12.6 Z M22.8,2.4 L18,2.4024 L18,3.6 L16.8,3.6 L16.8,2.4024 L7.2,2.4072 L7.2,3.6 L6,3.6 L6,2.4072 L1.2,2.4096 L1.2,6 L22.8,6 L22.8,2.4 Z"></path>
        </g>
    </g>
</svg>