<?xml version="1.0" encoding="utf-8"?>
<!-- Generator: Adobe Illustrator 16.0.5, SVG Export Plug-In . SVG Version: 6.00 Build 0)  -->
<!DOCTYPE svg PUBLIC "-//W3C//DTD SVG 1.1//EN" "http://www.w3.org/Graphics/SVG/1.1/DTD/svg11.dtd">
<svg version="1.1" id="Layer_1" xmlns="http://www.w3.org/2000/svg" xmlns:xlink="http://www.w3.org/1999/xlink" x="0px" y="0px"
	 width="24.609px" height="23.729px" viewBox="0 0 24.609 23.729" enable-background="new 0 0 24.609 23.729" xml:space="preserve">
<g>
	<g>
		<g>
			<path fill="#DD1E33" d="M13.618,67.225v2.504H2.715V53.181h10.902v2.831l1.326-1.325v-1.799c0-1.079-0.886-1.966-1.968-1.965
				H3.357c-1.081,0-1.966,0.886-1.966,1.967v20.412c0,1.081,0.885,1.965,1.966,1.965h9.619c1.081,0,1.968-0.884,1.969-1.967v-4.749
				L13.618,67.225z"/>
		</g>
	</g>
	<g>
		<path fill="#DD1E33" d="M18.416,71.297l-1.643-1.641c4.435-4.432,4.435-11.646,0-16.078l1.643-1.642
			C23.754,57.274,23.753,65.96,18.416,71.297z"/>
		<path fill="#DD1E33" d="M15.462,68.344l-1.641-1.641c2.805-2.805,2.805-7.367-0.002-10.17l1.643-1.644
			C19.171,58.6,19.171,64.636,15.462,68.344z"/>
		<path fill="#DD1E33" d="M12.509,57.845l-1.594,1.593c0.56,0.557,0.904,1.328,0.904,2.181c0,0.852-0.346,1.624-0.904,2.181
			l1.592,1.593C14.589,63.309,14.589,59.925,12.509,57.845z"/>
	</g>
</g>
<rect x="0" y="0" fill="#C41230" width="24.609" height="23.729"/>
<circle fill="#FFFFFF" cx="12.305" cy="3.174" r="1.426"/>
<circle fill="#FFFFFF" cx="12.305" cy="3.174" r="1.426"/>
<rect x="1.614" y="6.346" fill="#FFFFFF" width="21.381" height="15.766"/>
<g>
	<g>
		<path fill="#C41230" d="M10.8,13.654c1.312,0.285,1.783,1.265,1.783,2.203c0,1.482-1.225,2.697-3.274,2.697
			c-0.894,0-2.048-0.147-2.875-0.656l0.496-1.285c1.202,0.519,1.795,0.546,2.151,0.546c1.213,0,1.658-0.683,1.67-1.201
			c0.023-1.101-0.832-1.484-2.414-1.523V13.26c1.636-0.051,2.082-0.705,2.082-1.287c0-0.424-0.312-0.789-0.987-0.789
			c-0.373,0-1.066,0.023-2.291,0.681l-0.482-1.25c1-0.57,2.053-0.843,2.818-0.843c1.92,0,2.733,0.99,2.733,2.054
			c0,0.557-0.332,1.409-1.41,1.795V13.654z"/>
		<path fill="#C41230" d="M16.442,11.504l-1.732,0.158v-1.175l1.896-0.557h1.571v8.512h-1.733L16.442,11.504L16.442,11.504z"/>
	</g>
</g>
</svg>
