<?xml version="1.0" encoding="UTF-8"?>
<svg width="24px" height="22px" viewBox="0 0 24 22" version="1.1" xmlns="http://www.w3.org/2000/svg" xmlns:xlink="http://www.w3.org/1999/xlink">
    <title>small-business-loans-icon</title>
    <g id="small-business-loans-icon" stroke="none" stroke-width="1" fill="none" fill-rule="evenodd">
        <g id="Icon-Color" fill="#E31837">
            <path d="M17.9088,3 C18.5256,3 19.164,3.425125 19.3932,3.9891875 L19.3932,3.9891875 L20.9292,7.75 L22.74,7.75 C23.4228,7.75 24,8.34375 24,9.04675 L24,9.04675 L24,9.96825 C24,10.6035625 23.4828,11.3125 22.74,11.3125 L22.74,11.3125 L22.3776,11.3125 L22.8,12.1675 L22.8,20.76025 C22.8,21.4905625 22.0812,22 21.4356,22 L21.4356,22 L19.26,22 C18.5652,22 18,21.44425 18,20.76025 L18,20.76025 L18,19.625 L6,19.625 L6,20.76025 C6,21.44425 5.4348,22 4.74,22 L4.74,22 L2.562,22 C1.9176,22 1.2,21.4905625 1.2,20.76025 L1.2,20.76025 L1.2,12.1675 L1.6224,11.3125 L1.26,11.3125 C0.5172,11.3125 0,10.6035625 0,9.96825 L0,9.96825 L0,9.04675 C0,8.34375 0.5772,7.75 1.26,7.75 L1.26,7.75 L3.0708,7.75 L4.608,3.988 C4.836,3.425125 5.4744,3 6.09,3 L6.09,3 Z M17.9088,4.1875 L6.09,4.1875 C5.964,4.1875 5.7672,4.3169375 5.7204,4.432125 L5.7204,4.432125 L3.8784,8.9375 L1.26,8.9375 C1.2444,8.944625 1.2,9.004 1.2,9.04675 L1.2,9.04675 L1.2,9.96825 C1.2,10.0264375 1.2588,10.1143125 1.2924,10.12975 L1.2924,10.12975 L3.5448,10.125 L2.4,12.443 L2.4,20.76025 C2.4048,20.76025 2.4984,20.8125 2.562,20.8125 L2.562,20.8125 L4.74,20.8125 L4.8,18.4375 L19.2,18.4375 L19.2,20.76025 L21.4356,20.8125 C21.4992,20.8125 21.5892,20.7566875 21.6072,20.72225 L21.6072,20.72225 L21.6,12.443 L20.4552,10.125 L22.74,10.125 C22.7424,10.1143125 22.8,10.027625 22.8,9.96825 L22.8,9.96825 L22.8,9.04675 C22.8,9.0051875 22.7592,8.949375 22.7328,8.9375 L22.7328,8.9375 L20.1216,8.9375 L18.2796,4.4333125 C18.2328,4.3169375 18.0348,4.1875 17.9088,4.1875 L17.9088,4.1875 Z M18.3012,13.09375 C19.458,13.09375 20.4,14.0259375 20.4,15.171875 C20.4,16.3178125 19.458,17.25 18.3012,17.25 C17.1432,17.25 16.2,16.3178125 16.2,15.171875 C16.2,14.0259375 17.1432,13.09375 18.3012,13.09375 Z M5.7012,13.09375 C6.858,13.09375 7.8,14.0259375 7.8,15.171875 C7.8,16.316625 6.858,17.2488125 5.7012,17.2488125 C4.5432,17.2488125 3.6,16.316625 3.6,15.171875 C3.6,14.0259375 4.5432,13.09375 5.7012,13.09375 Z M5.7012,14.28125 C5.2044,14.28125 4.8,14.68025 4.8,15.171875 C4.8,15.6623125 5.2044,16.0625 5.7012,16.0625 C6.1968,16.0625 6.6,15.6623125 6.6,15.171875 C6.6,14.68025 6.1968,14.28125 5.7012,14.28125 Z M18.3012,14.28125 C17.8044,14.28125 17.4,14.68025 17.4,15.171875 C17.4,15.6635 17.8044,16.0625 18.3012,16.0625 C18.7968,16.0625 19.2,15.6635 19.2,15.171875 C19.2,14.68025 18.7968,14.28125 18.3012,14.28125 Z"></path>
        </g>
    </g>
</svg>