<svg  width="24px" height="22px" xmlns="http://www.w3.org/2000/svg" viewBox="0 0 24 22"><defs><style>.cls-1{fill:none;}.cls-2{fill:#e31837;}</style></defs><title>bofa_icon_paperless2_186rgb</title><g id="ICON_ART" data-name="ICON ART"><rect class="cls-1" width="24px" height="22px"/><path class="cls-2" d="M12.807,16.163v-.615h-.231v-.09h.588v.09h-.236v.615Zm1.026-.438-.19.441h-.1l-.185-.444h-.007v.444h-.112v-.708h.132l.221.549.229-.549h.128v.708h-.115v-.441Z"/><path class="cls-2" d="M13.062,8.2C10.6,5.231,5.7,4.547,5.5,4.52l-.458-.062-.1.452c-.042.2-1.007,4.86,1.182,7.981a5.015,5.015,0,0,0,4.288,2.065l-.058-1a3.919,3.919,0,0,1-3.384-1.6C5.384,10.1,5.665,6.808,5.839,5.593c1.25.241,4.652,1.073,6.423,3.205.595.893,1,1.992-.587,5.587l-2.9,7.433.932.364L12.6,14.769C14.214,11.111,14,9.606,13.062,8.2Z"/><path class="cls-2" d="M19.311,1.9l-.095-.459-.464.065a11.074,11.074,0,0,0-7.176,4.4l.836.549a9.983,9.983,0,0,1,6.007-3.864c.237,1.409.8,5.524-.224,7.731-1.288,2.764-2.7,3.312-4.508,3.255l-.025,1c.078,0,.157,0,.236,0,1.728,0,3.663-.528,5.2-3.836C20.488,7.765,19.359,2.138,19.311,1.9Z"/></g></svg>