<?xml version="1.0" encoding="UTF-8"?>
<svg width="140px" height="140px" viewBox="0 0 140 140" version="1.1" xmlns="http://www.w3.org/2000/svg" xmlns:xlink="http://www.w3.org/1999/xlink">
    <title>purchase-hand-and-key-med</title>
    <defs>
        <path d="M15.1617286,0.151110416 L13.3960999,0.952986391 L12.7897153,2.10203969 L10.626873,3.08398151 L11.067752,3.90528905 L9.69158987,4.53033777 L9.25211948,3.71097339 L6.499091,4.96107083 L6.77094288,5.46629156 L0.705688035,8.22039224 L0.0528209607,10.6622924 L2.45300541,11.4751796 L17.5583916,4.6171321 C17.5583916,4.6171321 15.1025691,0.0409982062 15.1617286,0.151110416" id="path-1"></path>
        <path d="M26.0269153,0.441918961 C24.4081619,-0.202086991 20.910943,-0.241865847 10.90838,6.24963185 C0.905817109,12.7418154 -1.30534101,15.1196308 1.57536405,19.6749956 C4.45606911,24.2289887 5.50171958,28.6910789 13.8662345,25.3263364 C22.2300607,21.9615939 32.9379899,17.3616494 32.5949504,13.21779 C32.2512221,9.07461643 28.5452935,1.44324877 26.0269153,0.441918961" id="path-3"></path>
        <path d="M3.07663755,3.94068413 C2.0518559,4.41285298 0.81080786,4.01985444 0.304912664,3.0641048 C-0.200982533,2.10764192 0.220087336,0.949330422 1.244869,0.477161572 C2.26965066,0.00499272198 3.51069869,0.39727802 4.01582969,1.3537409 C4.52248908,2.31020378 4.10141921,3.46851528 3.07663755,3.94068413" id="path-5"></path>
        <path d="M9.88519942,10.4733691 C10.6671033,12.2090279 11.7951189,14.1418095 13.0555536,15.5712989 C14.244524,16.9197023 17.8240466,17.7843862 19.4453062,18.567285 C27.3702528,21.3053759 36.3469199,14.5977725 36.7028166,14.3283732 L36.7137525,14.3200588 L36.7137525,14.3200588 C36.7137525,14.3200588 33.170829,12.2158406 29.6637197,10.3746231 L29.2432675,10.1550909 C28.4036231,9.71915729 27.574287,9.30382661 26.8047317,8.94182327 C26.7305438,8.90694135 26.6491408,8.86787864 26.5614264,8.82473875 L26.3778501,8.73305346 C24.2718339,7.6653922 19.4026664,4.65781495 21.392359,0.813655589 C22.3846311,-0.214880748 25.0182403,0.434739736 27.6411708,1.04331464 L28.0779438,1.14406895 C28.7321051,1.29374598 29.3798628,1.4348882 29.9954042,1.54063309 C33.2098981,2.09285639 36.0649685,2.67583642 39.274558,3.25322432 C44.1411393,4.12909241 48.9495682,3.97600772 53.8904163,4.17522752 C59.1472489,4.38702962 63.7952334,7.67101068 67.4630354,11.4338183 C67.9766258,11.9606113 68.7986176,12.7887245 69.8436331,13.8327429 L70.5453113,14.5327991 C77.2841804,21.2476593 91.2188392,34.9078239 94.5585289,37.714754 L78.1861892,51.9719012 C77.5642409,50.6268953 74.7108222,46.7255737 71.6531745,42.7763251 L71.2044913,42.1983353 C67.9818525,38.0577965 64.6433469,33.99913 63.5275924,32.9160035 C61.2953828,30.7490513 57.9561766,29.4314046 55.0079224,30.4330957 C53.7054498,30.8755733 32.4847453,37.6022123 25.6528947,36.7990419 C18.8217448,35.9965706 13.2349151,25.4700762 7.29777001,21.8939061 L6.30918001,20.7621978 C4.118728,18.3463957 3.30083967,15.1060892 2.52931629,11.8909249 L2.3642162,11.2026556 C2.22641868,10.6299347 2.08707895,10.0599506 1.93864532,9.49754165 C1.22769373,6.80256012 0.254417013,4.51757569 0.0420993812,2.82514576 L0.0420993812,1.66589783 C0.147263548,1.04465166 0.457541845,0.552113862 1.06565939,0.204811931 C6.20969044,-0.434089451 8.38444833,7.14045691 9.88519942,10.4733691 Z" id="path-7"></path>
        <polygon id="path-9" points="0.0248853478 0.148268208 67.7088121 0.148268208 67.7088121 110.679085 0.0248853478 110.679085"></polygon>
    </defs>
    <g id="purchase-hand-and-key-med" stroke="none" stroke-width="1" fill="none" fill-rule="evenodd">
        <g id="hands-+-key" transform="translate(7.000000, 15.000000)">
            <path d="M72.8230843,18.0565728 C72.6027136,19.1619086 72.1949248,20.1675717 71.6560121,21.0240694 C70.9928405,22.0764756 70.1319532,22.9041026 69.174954,23.4162141 C68.2186414,23.9283255 67.1669034,24.1262961 66.1220306,23.9187019 C63.1823818,23.3351011 61.4159838,19.7640691 62.1766403,15.9428243 C62.9379832,12.1215795 65.9380451,9.49709441 68.8783804,10.0813826 C71.8180292,10.664296 73.5844272,14.235328 72.8230843,18.0565728 Z" id="Stroke-1" stroke="#012169" stroke-width="1.44462882"></path>
            <path d="M65,25 C61.4342225,24.3414634 59.2915916,20.3119021 60.2142636,16" id="Stroke-2" stroke="#012169" stroke-width="1.44462882" stroke-linecap="round"></path>
            <path d="M73.634309,17.4234324 C73.5103246,17.5684424 73.3702681,17.6897357 73.2240889,17.7825692 C73.0450003,17.8970864 72.857493,17.9695914 72.684527,17.9919528 C72.5107957,18.0149917 72.3508405,17.9892423 72.2268561,17.9058955 C71.8763322,17.6727953 71.9390897,17.0771703 72.3661472,16.5764116 C72.7932047,16.0763306 73.4230763,15.8608485 73.7728349,16.0939486 C74.1233588,16.328404 74.0613665,16.9233514 73.634309,17.4234324 Z" id="Stroke-3" stroke="#012169" stroke-width="0.5"></path>
            <path d="M72.5572068,18 C72.0992068,17.6493374 72.1812068,16.7533129 72.7392068,16" id="Stroke-4" stroke="#012169" stroke-width="0.5" stroke-linecap="round"></path>
            <path d="M74.2738769,17.9188699 C74.0365849,17.8558147 73.821346,17.7626026 73.6378636,17.6483722 C73.4120392,17.5085541 73.2347318,17.3376653 73.1253481,17.1576381 C73.0150823,16.976697 72.9727402,16.7866175 73.0177287,16.6056764 C73.1421085,16.0984931 73.9077944,15.8636353 74.7264078,16.0811301 C75.5450213,16.2986249 76.1078181,16.8862264 75.9825561,17.3943236 C75.8581762,17.9015069 75.0924904,18.1363647 74.2738769,17.9188699 Z" id="Stroke-5" stroke="#012169" stroke-width="0.5"></path>
            <path d="M72,16.8313895 C72.145586,16.2763895 73.0418172,16.0193895 74,16.2573895" id="Stroke-6" stroke="#012169" stroke-width="0.5" stroke-linecap="round"></path>
            <path d="M75.634131,17.9695425 C75.3956044,18.008292 75.1649126,18.0092371 74.9559841,17.9771034 C74.6991763,17.9374087 74.4745782,17.8485683 74.3074355,17.7238137 C74.1411633,17.5971689 74.0323464,17.4336647 74.0062303,17.2427523 C73.9313643,16.7068745 74.5398684,16.1643809 75.3651356,16.0301752 C76.1904029,15.8959695 76.9190408,16.2220327 76.9939068,16.7579105 C77.0679023,17.2928432 76.4593983,17.8362819 75.634131,17.9695425 Z" id="Stroke-7" stroke="#012169" stroke-width="0.5"></path>
            <path d="M74.0045639,17 C73.9497224,16.558067 74.3954687,16.1106781 75,16" id="Stroke-8" stroke="#012169" stroke-width="0.5" stroke-linecap="round"></path>
            <path d="M77.7460785,14.9565178 C77.6394028,15.1852526 77.5107405,15.3831783 77.3714921,15.5437595 C77.2012996,15.7416851 77.0148208,15.8826605 76.8340422,15.9517477 C76.6540779,16.020835 76.4798138,16.0180341 76.3340508,15.9284074 C75.9220059,15.6772659 75.8861759,14.833281 76.2542476,14.0443793 C76.6223194,13.2545439 77.2550446,12.8194809 77.6662753,13.071556 C78.0783203,13.3226975 78.1133359,14.167616 77.7460785,14.9565178 Z" id="Stroke-9" stroke="#012169" stroke-width="0.5"></path>
            <path d="M75.7051108,16 C75.1991108,15.7333994 75.1551108,14.8374628 75.6071108,14" id="Stroke-10" stroke="#012169" stroke-width="0.5" stroke-linecap="round"></path>
            <g id="Group-13" transform="translate(23.000000, 37.000000)">
                <mask id="mask-2" fill="white">
                    <use xlink:href="#path-1"></use>
                </mask>
                <g id="Clip-12"></g>
                <path d="M15.1617286,0.151110416 L13.3960999,0.952986391 L12.7897153,2.10203969 L10.626873,3.08398151 L11.067752,3.90528905 L9.69158987,4.53033777 L9.25211948,3.71097339 L6.499091,4.96107083 L6.77094288,5.46629156 L0.705688035,8.22039224 L0.0528209607,10.6622924 L2.45300541,11.4751796 L17.5583916,4.6171321 C17.5583916,4.6171321 15.1025691,0.0409982062 15.1617286,0.151110416" id="Fill-11" mask="url(#mask-2)"></path>
                <rect id="Rectangle" stroke="#979797" stroke-width="0.611353712" fill="#D8D8D8" mask="url(#mask-2)" x="-3.83714359" y="-4.63218005" width="42.3704084" height="29.5095734"></rect>
            </g>
            <g id="Group-16" transform="translate(35.000000, 17.000000)">
                <mask id="mask-4" fill="white">
                    <use xlink:href="#path-3"></use>
                </mask>
                <g id="Clip-15"></g>
                <path d="M26.0269153,0.441918961 C24.4081619,-0.202086991 20.910943,-0.241865847 10.90838,6.24963185 C0.905817109,12.7418154 -1.30534101,15.1196308 1.57536405,19.6749956 C4.45606911,24.2289887 5.50171958,28.6910789 13.8662345,25.3263364 C22.2300607,21.9615939 32.9379899,17.3616494 32.5949504,13.21779 C32.2512221,9.07461643 28.5452935,1.44324877 26.0269153,0.441918961" id="Fill-14" mask="url(#mask-4)"></path>
                <rect id="Rectangle" stroke="#979797" stroke-width="0.611353712" fill="#0072D6" mask="url(#mask-4)" x="-17.7762236" y="-5.28993985" width="75.3326283" height="42.6275027"></rect>
            </g>
            <path d="M57.3078409,24.3805476 C56.1426118,23.5791211 54.5055517,23.787275 48.6460379,27.5462502 C42.7865241,31.3045473 40.8705031,32.7311136 42.6256878,36.4995812 C44.5116771,40.5487514 45.6869167,41.8566632 49.4542237,40.459252 C53.2208633,39.0618408 62.7348986,35.57611 61.9547423,33.0192746 C60.945678,29.7132207 58.892846,25.4721692 57.3078409,24.3805476" id="Fill-17" fill="#012169"></path>
            <path d="M51,25 C51,25 52.9236551,28.780626 57,38" id="Stroke-18" stroke="#000000" stroke-width="0.5"></path>
            <path d="M45,28 C45,28 49.375537,36.0707292 51,40" id="Stroke-19" stroke="#000000" stroke-width="0.5"></path>
            <g id="Group-22" transform="translate(58.000000, 19.000000)">
                <mask id="mask-6" fill="white">
                    <use xlink:href="#path-5"></use>
                </mask>
                <g id="Clip-21"></g>
                <path d="M3.07663755,3.94068413 C2.0518559,4.41285298 0.81080786,4.01985444 0.304912664,3.0641048 C-0.200982533,2.10764192 0.220087336,0.949330422 1.244869,0.477161572 C2.26965066,0.00499272198 3.51069869,0.39727802 4.01582969,1.3537409 C4.52248908,2.31020378 4.10141921,3.46851528 3.07663755,3.94068413" id="Fill-20" mask="url(#mask-6)"></path>
            </g>
            <path d="M20.5717438,77.1477503 C19.7262065,75.6087074 17.3898007,72.909876 17.1889272,71.1526414 C16.9767086,69.2914733 17.1408777,67.0964788 17.4698831,65.2532066 C18.1011999,61.7153352 20.5063431,54.3642718 16.1278345,52.0089029 C13.6099085,51.790023 13.3089319,55.6390067 11.7706813,60.0262425 C10.4493207,63.7967599 8.57739311,67.6188999 9.08524939,71.5938429 L9.24674902,73.0619907 L26,86 C26,86 25.3940427,83.9261466 20.5717438,77.1477503" id="Fill-23" fill="#98452E"></path>
            <path d="M25.3000419,82.2634621 C25.1061617,80.9301635 24.1270318,78.3471949 24.4765722,77.0444922 C24.8469598,75.6636001 25.5939893,74.1555653 26.363256,72.9426103 C27.8406371,70.6173267 31.7265804,66.0959419 29.124833,63.1716598 C27.3062505,62.2938992 25.987309,64.9360197 23.5912553,67.6039767 C21.5322335,69.8973047 19.0472311,72.0689292 18.2967271,75.031966 L18,76.1184582 C18,76.1184582 26.9768626,88.4499403 25.3000419,82.2634621" id="Fill-24" fill="#98452E"></path>
            <g id="Group-27" transform="translate(0.000000, 53.000000)">
                <mask id="mask-8" fill="white">
                    <use xlink:href="#path-7"></use>
                </mask>
                <g id="Clip-26"></g>
                <polygon id="Fill-25" mask="url(#mask-8)" points="0.0420378457 58.7174136 127.05028 58.7174136 127.05028 -52.2773716 0.0420378457 -52.2773716"></polygon>
                <rect id="Rectangle" fill="#A26D60" mask="url(#mask-8)" x="-8.40756914" y="-34.2518246" width="107.897137" height="109.745642"></rect>
            </g>
            <g id="Group-31" transform="translate(59.000000, 0.000000)">
                <mask id="mask-10" fill="white">
                    <use xlink:href="#path-9"></use>
                </mask>
                <g id="Clip-29"></g>
                <path d="M67.6486386,110.559357 C65.9198874,106.72457 38.787981,82.1879218 35.664619,79.3304524 C31.7604166,75.7601817 27.8562141,72.189215 23.9520116,68.6182483 C23.9520116,68.6182483 20.2410725,65.9389792 17.5021134,67.0589958 C14.7631543,68.1776203 13.6701192,76.8593155 0.872971784,86.4194826 C0.380964401,86.7863246 0.102750154,87.4142021 0.0354973467,88.0177164 C-0.0317554611,88.6226228 0.2323003,89.210823 0.498479834,89.7600419 C2.62579233,94.1461357 9.71140657,103.016473 15.682748,110.679085 L67.7088121,110.679085 C67.6833269,110.628966 67.6599654,110.583024 67.6486386,110.559357" id="Fill-28" fill="#8090B4" mask="url(#mask-10)"></path>
                <path d="M43.4461229,16.7703177 L34.1652354,25.635782 C32.2311862,27.4825217 29.1127797,27.4379717 27.2346566,25.5362405 L18.983091,17.1837981 C17.1049679,15.282763 17.150275,12.2157689 19.0836163,10.3697253 L28.3645037,1.50495712 C30.2985529,-0.342478678 33.4169594,-0.297232511 35.2950826,1.60380259 L43.5466481,9.95624499 C45.4247713,11.8579762 45.3794641,14.9242741 43.4461229,16.7703177" id="Fill-30" fill="#012169" mask="url(#mask-10)"></path>
            </g>
            <path d="M92.9073009,16.345579 C90.3685842,17.1579205 86.1927512,17.5144255 84.283121,15.5937889 C82.1653771,13.4649644 83.0934153,11.5307208 84.0560262,10.5918337 C85.0457529,9.6270931 86.0578501,9.77268864 86.8760693,9.79854206 C86.8740356,8.97667563 86.7587935,7.95750683 87.7478422,6.99276627 C88.711131,6.05387912 90.6641464,5.17962551 92.7235914,7.36559971 C94.5803457,9.33658237 94.1044634,13.5159909 93.2218442,16.0387398 C93.190661,16.1285464 93.1567662,16.1904585 93.1086357,16.2380832 C93.0598273,16.2843472 92.9974609,16.3170042 92.9073009,16.345579" id="Fill-32" fill="#E7534F"></path>
        </g>
    </g>
</svg>