<?xml version="1.0" encoding="utf-8"?>
<!-- Generator: Adobe Illustrator 16.0.5, SVG Export Plug-In . SVG Version: 6.00 Build 0)  -->
<!DOCTYPE svg PUBLIC "-//W3C//DTD SVG 1.1//EN" "http://www.w3.org/Graphics/SVG/1.1/DTD/svg11.dtd">
<svg version="1.1" id="Layer_1" xmlns="http://www.w3.org/2000/svg" xmlns:xlink="http://www.w3.org/1999/xlink" x="0px" y="0px"
	 width="21.027px" height="24.344px" viewBox="0 0 21.027 24.344" enable-background="new 0 0 21.027 24.344" xml:space="preserve">
<rect x="-1.791" y="-43.47" fill="#DC1E34" width="24.609" height="23.729"/>
<g>
	<g>
		<g>
			<path fill="#C41230" d="M12.227,16.302v2.505H1.323V2.258h10.902v2.831l1.325-1.325V1.965c0-1.079-0.886-1.966-1.968-1.965H1.966
				C0.885,0,0,0.886,0,1.967v20.412c0,1.081,0.885,1.965,1.966,1.965h9.619c1.081,0,1.969-0.884,1.97-1.967v-4.749L12.227,16.302z"
				/>
		</g>
	</g>
	<g>
		<path fill="#C41230" d="M17.024,20.374l-1.644-1.642c4.436-4.431,4.436-11.646,0-16.077l1.644-1.641
			C22.362,6.352,22.361,15.037,17.024,20.374z"/>
		<path fill="#C41230" d="M14.07,17.421l-1.64-1.641c2.805-2.804,2.805-7.367-0.002-10.17l1.643-1.643
			C17.779,7.677,17.779,13.713,14.07,17.421z"/>
		<path fill="#C41230" d="M11.117,6.922L9.523,8.515c0.559,0.556,0.903,1.328,0.903,2.18s-0.346,1.624-0.903,2.181l1.592,1.593
			C13.197,12.386,13.197,9.002,11.117,6.922z"/>
	</g>
</g>
</svg>
