<?xml version="1.0" encoding="utf-8"?>
<!-- Generator: Adobe Illustrator 16.0.5, SVG Export Plug-In . SVG Version: 6.00 Build 0)  -->
<!DOCTYPE svg PUBLIC "-//W3C//DTD SVG 1.1//EN" "http://www.w3.org/Graphics/SVG/1.1/DTD/svg11.dtd">
<svg version="1.1" id="Layer_1" xmlns="http://www.w3.org/2000/svg" xmlns:xlink="http://www.w3.org/1999/xlink" x="0px" y="0px"
	 width="39.804px" height="40.562px" viewBox="0 0 39.804 40.562" enable-background="new 0 0 39.804 40.562" xml:space="preserve">
<g id="XMLID_1554_">
	<path id="XMLID_1575_" fill="#E01D3C" d="M39.804,40.562L25.5,15.09l0.494-12.829c0.007-0.058,0.01-0.121,0.01-0.185
		C26.003,0.929,25.064,0,23.908,0h-0.004h-8.117c-0.573,0-1.119,0.228-1.516,0.637c-0.394,0.408-0.604,0.965-0.576,1.53
		l0.566,13.004L0,40.562H39.804z"/>
	<path id="XMLID_1560_" fill="#FFFFFF" d="M15.787,2.076h8.117l-0.85,22.041H16.75L15.787,2.076z M19.84,35.487
		c1.495,0,2.646-0.434,3.456-1.31c0.805-0.883,1.213-1.965,1.213-3.236c0-1.279-0.395-2.35-1.182-3.231
		c-0.787-0.873-1.947-1.325-3.487-1.325c-1.489,0-2.621,0.452-3.384,1.325c-0.777,0.882-1.164,1.952-1.164,3.231
		c0,1.271,0.387,2.354,1.164,3.236C17.219,35.054,18.352,35.487,19.84,35.487"/>
</g>
</svg>
