<svg width="24" height="24" xmlns="http://www.w3.org/2000/svg"><path d="M12.01 22c-3.494 0-5.49-2.128-5.49-5.994v-9.99a3.638 3.638 0 013.993-3.996 3.632 3.632 0 013.992 3.996v8.991c0 2.777-1.906 2.997-2.495 2.997-.589 0-2.496-.22-2.496-2.997V8.014h1.997v6.993c0 .999.28.999.499.999.22 0 .499 0 .499-.999V6.016c0-1.439-.559-1.998-1.996-1.998-1.438 0-1.997.56-1.997 1.998v9.99c0 2.797.998 3.996 3.494 3.996 2.495 0 3.494-1.199 3.494-3.996V8.014H17.5v7.992c0 3.866-1.946 5.994-5.49 5.994z" fill="#919191"/></svg>