<svg width="24" height="24" xmlns="http://www.w3.org/2000/svg"><path d="M12 0c6.617 0 12 5.383 12 12s-5.383 12-12 12S0 18.617 0 12 5.383 0 12 0zm0 1.2C6.046 1.2 1.2 6.044 1.2 12S6.046 22.8 12 22.8c5.956 0 10.8-4.844 10.8-10.8S17.956 1.2 12 1.2zm-.685 16.628c.48 0 .859.38.859.821 0 .5-.398.821-.84.821-.458 0-.86-.34-.86-.82 0-.441.381-.822.84-.822zM11.909 4.8c3.872 0 4.291 2.322 4.291 3.32 0 1.7-1.386 2.936-2.609 4.026-.973.868-1.893 1.688-1.893 2.502 0 .393.075.836.172 1.395l-1.182.207c-.106-.619-.19-1.106-.19-1.602 0-1.352 1.166-2.391 2.295-3.398C13.878 10.283 15 9.282 15 8.12 15 6.712 13.96 6 11.909 6c-1.03 0-2.268.216-3.313.575L8.204 5.44c1.182-.408 2.532-.641 3.705-.641z" fill="#c41230"/></svg>