<svg width="24px" height="24px" xmlns="http://www.w3.org/2000/svg"><path d="M12,2 C14.6521649,2 17.195704,3.0535684 19.0710678,4.92893219 C20.9464316,6.80429597 22,9.3478351 22,12 C22,17.5228475 17.5228475,22 12,22 C6.4771525,22 2,17.5228475 2,12 C2,6.4771525 6.4771525,2 12,2 Z M4,12 C4,16.418278 7.581722,20 12,20 C13.8482015,20 15.550021,19.3732643 16.9045228,18.3207287 L5.67927125,7.09547725 C4.62673571,8.44997896 4,10.1517985 4,12 Z M12,4 C10.1517985,4 8.44997896,4.62673571 7.09547725,5.67927125 L18.3207287,16.9045228 C19.3732643,15.550021 20,13.8482015 20,12 C20,9.87826807 19.1571453,7.84343678 17.6568542,6.34314576 C16.1565632,4.84285472 14.1217319,4 12,4 Z" fill="#fff"></path></svg>