<svg width="24" height="24" xmlns="http://www.w3.org/2000/svg"><path d="M12.595.004v4.228c2.67.234 4.76 1.988 4.76 4.135v.598h-1.19v-.598c0-1.647-1.868-2.987-4.165-2.987-2.297 0-4.165 1.34-4.165 2.987 0 .672 0 2.46 4.235 2.987 3.507.444 5.285 1.851 5.285 4.182 0 2.147-2.09 3.901-4.76 4.135V23.9h-1.19V19.67c-2.67-.234-4.76-1.988-4.76-4.135v-.597h1.19v.597c0 1.648 1.868 2.987 4.165 2.987 2.297 0 4.165-1.34 4.165-2.987 0-.674 0-2.46-4.242-2.997-3.503-.436-5.278-1.84-5.278-4.172 0-2.147 2.09-3.9 4.76-4.135V.004h1.19zm7.154 7.768l4.153 4.175-4.162 4.184-.841-.845 2.726-2.742H17.95V11.35h3.675l-2.717-2.732.841-.845zm-15.49 0l.842.845-2.726 2.742H6.05v1.195H2.375l2.717 2.732-.842.845-4.152-4.175L4.26 7.772z" fill="#919191"/></svg>