<svg width="24" height="24" xmlns="http://www.w3.org/2000/svg"><path d="M15.708 0l2.17 3.493 3.83 1.09-.197 4.167L24 12l-2.489 3.25.197 4.167-3.83 1.09L15.708 24 12 22.514 8.292 24l-2.17-3.493-3.83-1.09.197-4.167L0 12l2.489-3.25-.197-4.167 3.83-1.09L8.292 0 12 1.486 15.708 0zm-.487 1.488l-2.775 1.111-.446.179-.446-.179-2.775-1.111-1.638 2.638-.245.396-.445.126-2.916.829.153 3.217.021.438-.267.348L1.512 12l1.93 2.52.267.348-.021.438-.153 3.216 2.916.83.445.126.245.396 1.638 2.638 2.775-1.111.446-.179.446.179 2.775 1.111 1.638-2.638.245-.396.446-.126 2.915-.83-.153-3.216-.021-.438.267-.348 1.93-2.52-1.93-2.52-.267-.348.021-.438.153-3.217-2.915-.83-.446-.125-.245-.396-1.638-2.638zM12 4.41c4.184 0 7.59 3.406 7.59 7.59 0 4.184-3.406 7.59-7.59 7.59-4.184 0-7.59-3.406-7.59-7.59 0-4.184 3.406-7.59 7.59-7.59zm0 1.2A6.396 6.396 0 005.61 12 6.397 6.397 0 0012 18.39 6.398 6.398 0 0018.39 12 6.397 6.397 0 0012 5.61zm.6 1.592v1.384c1.098.22 1.919 1.019 1.919 1.975v.24h-1.2v-.24c0-.446-.617-.839-1.319-.839s-1.319.393-1.319.84c0 .182 0 .668 1.392.842 1.6.201 2.446.904 2.446 2.035 0 .956-.821 1.754-1.919 1.975v1.384h-1.2v-1.384c-1.098-.22-1.919-1.019-1.919-1.975v-.24h1.2v.24c0 .446.617.839 1.319.839s1.319-.393 1.319-.84c0-.182 0-.668-1.396-.844-1.596-.2-2.442-.902-2.442-2.033 0-.956.821-1.754 1.919-1.975V7.202h1.2z" fill="#919191"/></svg>