<svg width="24" height="24" xmlns="http://www.w3.org/2000/svg"><path d="M12 2c5.523 0 10 4.477 10 10s-4.477 10-10 10S2 17.523 2 12 6.477 2 12 2zm0 2a8 8 0 100 16 8 8 0 000-16zm-.003 2.91c.46 0 .883.06 1.268.181s.717.3.998.537c.28.237.498.527.653.872.154.344.232.741.232 1.192 0 .483-.12.912-.362 1.286a2.608 2.608 0 01-.998.895c.483.232.865.553 1.148.96.283.408.424.888.424 1.44 0 .473-.084.888-.253 1.244a2.53 2.53 0 01-.7.895 3.028 3.028 0 01-1.064.544c-.41.12-.857.18-1.34.18-.478 0-.924-.06-1.336-.18a3.06 3.06 0 01-1.07-.544c-.3-.241-.536-.54-.707-.895-.171-.356-.257-.77-.257-1.245 0-.551.142-1.032.424-1.442.283-.41.663-.73 1.142-.957a2.581 2.581 0 01-.995-.895 2.331 2.331 0 01-.359-1.286c0-.45.079-.848.236-1.192.157-.345.375-.635.653-.872s.61-.416.995-.537a4.22 4.22 0 011.268-.18zm-.007 5.79c-.21 0-.399.033-.568.1-.168.065-.313.16-.434.283-.12.123-.214.273-.28.451-.066.178-.1.376-.1.595 0 .219.034.416.1.591a1.184 1.184 0 00.718.728c.17.064.363.096.577.096.429 0 .765-.125 1.009-.376.244-.25.365-.597.365-1.04 0-.218-.033-.416-.099-.594a1.262 1.262 0 00-.28-.451 1.221 1.221 0 00-.437-.284c-.171-.066-.362-.099-.571-.099zm.007-4.197c-.37 0-.657.114-.862.342-.205.228-.307.542-.307.943 0 .397.102.716.307.957.205.242.495.362.868.362.374 0 .662-.12.865-.362.203-.241.304-.56.304-.957 0-.387-.102-.698-.307-.933-.205-.235-.495-.352-.868-.352z" fill="#0053c2"/></svg>