<svg width="24" height="24" xmlns="http://www.w3.org/2000/svg"><path d="M12 2c5.523 0 10 4.477 10 10s-4.477 10-10 10S2 17.523 2 12 6.477 2 12 2zm-.003 4.91c-.46 0-.883.06-1.268.181-.386.121-.717.3-.995.537a2.487 2.487 0 00-.653.872 2.843 2.843 0 00-.236 1.192c0 .483.12.912.36 1.286.238.373.57.672.994.895a2.834 2.834 0 00-1.142.957c-.282.41-.424.891-.424 1.442 0 .474.086.89.257 1.245.17.355.406.654.707.895.3.242.658.423 1.07.544.412.12.858.18 1.336.18.483 0 .93-.06 1.34-.18.41-.121.765-.302 1.063-.544a2.53 2.53 0 00.7-.895c.17-.356.254-.77.254-1.245 0-.551-.141-1.03-.424-1.439a2.886 2.886 0 00-1.148-.96c.423-.223.756-.522.998-.895.241-.374.362-.803.362-1.286a2.88 2.88 0 00-.232-1.192 2.433 2.433 0 00-.653-.872 2.843 2.843 0 00-.998-.537 4.22 4.22 0 00-1.268-.18zm-.007 5.79c.21 0 .4.033.57.1.171.065.317.16.438.283.12.123.214.273.28.451.066.178.1.376.1.595 0 .442-.122.788-.366 1.039-.244.25-.58.376-1.009.376-.214 0-.406-.032-.577-.096a1.184 1.184 0 01-.718-.728 1.668 1.668 0 01-.1-.591c0-.219.034-.417.1-.595s.16-.328.28-.451c.121-.123.266-.218.434-.284.169-.066.358-.099.568-.099zm.007-4.197c.373 0 .663.117.868.352.205.235.307.546.307.933 0 .397-.101.716-.304.957-.203.242-.49.362-.865.362-.373 0-.663-.12-.868-.362-.205-.241-.307-.56-.307-.957 0-.401.102-.715.307-.943.205-.228.492-.342.862-.342z" fill="#fff"/></svg>