<svg width="24" height="24" xmlns="http://www.w3.org/2000/svg"><path d="M12 2c5.523 0 10 4.477 10 10s-4.477 10-10 10S2 17.523 2 12 6.477 2 12 2zm0 2a8 8 0 100 16 8 8 0 000-16zm3.107 3.047v1.647h-3.958l-.246 2.14.074-.038a3.138 3.138 0 01.524-.205c.13-.038.271-.07.424-.095.152-.025.31-.038.475-.038.478 0 .906.076 1.282.229.376.153.693.373.953.66.26.287.458.638.595 1.052.137.415.205.885.205 1.409 0 .442-.068.863-.205 1.264a2.987 2.987 0 01-.622 1.06c-.278.305-.628.549-1.05.731-.421.183-.917.274-1.486.274-.429 0-.843-.065-1.244-.195a3.326 3.326 0 01-1.067-.567 2.9 2.9 0 01-.752-.913 2.76 2.76 0 01-.307-1.23h1.955l.024.172c.06.332.197.597.41.795.248.23.573.345.974.345.25 0 .464-.048.64-.144a1.22 1.22 0 00.43-.39 1.72 1.72 0 00.246-.584c.052-.225.078-.468.078-.728 0-.26-.031-.498-.095-.714a1.467 1.467 0 00-.294-.554 1.33 1.33 0 00-.5-.355 1.826 1.826 0 00-.71-.127c-.182 0-.34.016-.475.048a1.789 1.789 0 00-.36.123c-.104.05-.196.108-.276.174-.08.067-.154.134-.222.202l-1.572-.39.574-5.058h5.578z" fill="#d5d5d5"/></svg>