<svg width="24" height="24" xmlns="http://www.w3.org/2000/svg"><path d="M12 2c5.523 0 10 4.477 10 10s-4.477 10-10 10S2 17.523 2 12 6.477 2 12 2zm-3.48 8.005c-.743.008-1.486.007-2.23.001-.133-.001-.164.041-.164.169.004 2.448.004 4.895 0 7.343 0 .142.046.176.182.175.73-.006 1.459-.009 2.188.001.165.002.195-.051.194-.202-.005-1.214-.003-2.428-.003-3.642 0-1.22-.001-2.44.003-3.661 0-.131-.022-.185-.17-.184zm6.96-.134c-1.12-.172-2.08.117-2.752 1.097-.013.02-.033.036-.082.09 0-.329-.006-.607.003-.884.004-.13-.033-.17-.165-.168-.737.006-1.473.007-2.21 0-.152-.002-.183.041-.182.189.01 1.347.012 2.693.012 4.04 0 1.095-.005 2.19-.016 3.285-.001.147.047.174.18.173a150.91 150.91 0 012.21 0c.124 0 .18-.026.17-.164-.011-.158-.002-.318-.002-.477 0-1.215.004-2.429-.002-3.643-.003-.508.152-.94.55-1.266.736-.604 1.77-.285 2.034.623a3.1 3.1 0 01.103.867c0 1.287.003 2.574-.003 3.862 0 .155.04.2.198.199a90.437 90.437 0 012.17 0c.159.002.197-.044.196-.2-.006-1.38-.003-2.76-.003-4.14 0-.332-.024-.662-.075-.991-.211-1.386-1.04-2.292-2.334-2.492zM7.428 6.306c-.645 0-1.157.31-1.357.823-.321.82.164 1.67 1.035 1.812.82.133 1.53-.262 1.705-.949.232-.91-.404-1.685-1.383-1.686z"/></svg>