<svg width="24" height="24" xmlns="http://www.w3.org/2000/svg"><path d="M12 2c5.523 0 10 4.477 10 10s-4.477 10-10 10S2 17.523 2 12 6.477 2 12 2zm2.023 4.944h-.28c-.802 0-1.517.135-2.146.404a4.461 4.461 0 00-1.593 1.128 4.939 4.939 0 00-.991 1.73 6.631 6.631 0 00-.335 1.867l-.007.34v.766c0 .583.083 1.117.25 1.603.166.485.4.902.704 1.25.303.35.67.62 1.104.814.432.194.916.29 1.449.29.51 0 .972-.087 1.384-.262a3.141 3.141 0 001.056-.722c.292-.305.516-.666.674-1.083.157-.417.235-.867.235-1.35 0-.46-.059-.895-.177-1.302a3.203 3.203 0 00-.534-1.074 2.582 2.582 0 00-.885-.731c-.353-.18-.764-.27-1.234-.27-.428 0-.81.074-1.145.222a2.762 2.762 0 00-.864.591c.054-.396.165-.754.331-1.073.166-.319.385-.59.656-.813.271-.224.594-.396.968-.517.299-.096.628-.154.988-.173l.276-.008h.116V6.944zm-1.927 4.984c.228 0 .432.044.612.133.18.089.333.214.46.376.129.162.225.353.291.574.067.221.1.464.1.728 0 .26-.035.5-.103.721a1.79 1.79 0 01-.287.571 1.34 1.34 0 01-.448.376c-.175.091-.37.137-.584.137-.219 0-.42-.043-.605-.13a1.236 1.236 0 01-.472-.393 1.988 1.988 0 01-.304-.66 3.236 3.236 0 01-.105-.717l-.005-.206v-.594a1.6 1.6 0 01.957-.844c.15-.048.315-.072.493-.072z" fill="#c41230"/></svg>