<svg width="24" height="24" xmlns="http://www.w3.org/2000/svg"><path d="M12 2c5.523 0 10 4.477 10 10s-4.477 10-10 10S2 17.523 2 12 6.477 2 12 2zm0 2a8 8 0 100 16 8 8 0 000-16zm2.796 2.91c.502 0 .959.081 1.371.243.413.162.767.415 1.063.759.296.344.526.783.69 1.319.165.535.247 1.177.247 1.924v1.73l-.005.314c-.02.614-.1 1.151-.238 1.61-.162.536-.39.976-.684 1.323-.294.346-.647.6-1.06.762-.412.162-.869.243-1.37.243-.501 0-.958-.081-1.37-.243a2.66 2.66 0 01-1.063-.762c-.297-.347-.527-.787-.69-1.323-.165-.535-.247-1.177-.247-1.924v-1.73l.005-.314c.02-.614.099-1.151.238-1.61.161-.536.39-.975.687-1.32.296-.343.65-.596 1.06-.758.41-.162.865-.243 1.366-.243zm-4.462.123V17H8.358V9.385L6 10.116V8.51l4.122-1.477h.212zm4.462 1.477c-.218 0-.413.04-.584.123-.17.082-.316.215-.434.4a2.144 2.144 0 00-.27.728c-.062.3-.092.672-.092 1.114v2.27l.003.259c.01.335.041.624.092.868.064.306.155.553.274.742.118.19.264.325.437.407.173.082.37.123.588.123.219 0 .415-.041.588-.123.173-.082.318-.218.434-.407.116-.189.205-.436.267-.742.061-.305.092-.68.092-1.127v-2.27l-.004-.257a5.093 5.093 0 00-.088-.857 2.096 2.096 0 00-.274-.728 1.082 1.082 0 00-.44-.4 1.357 1.357 0 00-.589-.123z" fill="#646464"/></svg>