<svg width="24" height="24" xmlns="http://www.w3.org/2000/svg"><path d="M12 2c5.523 0 10 4.477 10 10s-4.477 10-10 10S2 17.523 2 12 6.477 2 12 2zm2.796 4.91c-.5 0-.957.081-1.367.243-.41.162-.763.415-1.06.759-.295.344-.525.783-.686 1.319-.139.459-.218.996-.238 1.61l-.005.314v1.73c0 .747.082 1.389.246 1.924.164.536.394.976.69 1.323.297.346.651.6 1.064.762.412.162.869.243 1.37.243.501 0 .958-.081 1.37-.243a2.634 2.634 0 001.06-.762c.294-.347.522-.787.684-1.323.139-.459.218-.996.238-1.61l.005-.314v-1.73c0-.747-.082-1.389-.246-1.924-.165-.536-.395-.975-.69-1.32a2.674 2.674 0 00-1.064-.758 3.724 3.724 0 00-1.37-.243zm-4.462.123h-.212L6 8.51v1.606l2.358-.731V17h1.976V7.033zm4.462 1.477c.22 0 .415.04.588.123.174.082.32.215.441.4.121.184.212.427.274.728.049.24.078.526.088.857l.004.257v2.27c0 .446-.03.822-.092 1.127-.062.306-.15.553-.267.742-.116.19-.26.325-.434.407-.173.082-.37.123-.588.123-.219 0-.415-.041-.588-.123a1.048 1.048 0 01-.437-.407 2.277 2.277 0 01-.274-.742 5.054 5.054 0 01-.092-.868l-.003-.26v-2.269c0-.442.03-.813.092-1.114.061-.301.151-.544.27-.728.118-.185.263-.318.434-.4.17-.082.366-.123.584-.123z" fill="#d5d5d5"/></svg>