<svg width="24" height="24" xmlns="http://www.w3.org/2000/svg"><path d="M12 2c5.523 0 10 4.477 10 10s-4.477 10-10 10S2 17.523 2 12 6.477 2 12 2zm0 2a8 8 0 100 16 8 8 0 000-16zm-.195 2.91c.501 0 .958.06 1.37.181.413.121.768.301 1.064.54.296.24.526.536.69.889.164.353.246.762.246 1.227a2.141 2.141 0 01-.393 1.227 2.708 2.708 0 01-1.117.913c.56.2.978.501 1.254.902s.414.875.414 1.422c0 .465-.09.88-.27 1.244-.18.365-.428.671-.742.92a3.336 3.336 0 01-1.118.567 4.82 4.82 0 01-1.398.195c-.424 0-.838-.057-1.244-.171a3.262 3.262 0 01-1.083-.527 2.71 2.71 0 01-.766-.892c-.194-.357-.29-.782-.29-1.275h1.975l.007.138c.013.134.048.259.102.375.073.155.175.288.305.4.13.112.283.2.461.263.178.064.371.096.581.096.232 0 .442-.032.629-.096s.345-.156.475-.277c.13-.12.229-.264.297-.43.069-.167.103-.352.103-.557a1.84 1.84 0 00-.113-.68 1.138 1.138 0 00-.325-.462 1.366 1.366 0 00-.516-.263 2.514 2.514 0 00-.68-.086H10.67v-1.545h1.053l.182-.005c.41-.028.721-.151.932-.37.242-.251.363-.584.363-.999a1.54 1.54 0 00-.082-.509 1.049 1.049 0 00-.25-.403 1.17 1.17 0 00-.42-.263 1.678 1.678 0 00-.595-.096c-.182 0-.354.026-.516.079a1.34 1.34 0 00-.424.222 1.019 1.019 0 00-.393.82H8.544l.008-.202c.023-.331.106-.637.249-.916.17-.335.403-.62.697-.854.294-.235.64-.417 1.036-.547a4.06 4.06 0 011.271-.195z" fill="#fff"/></svg>