<svg width="24" height="24" xmlns="http://www.w3.org/2000/svg"><path d="M12 2c5.523 0 10 4.477 10 10s-4.477 10-10 10S2 17.523 2 12 6.477 2 12 2zm-.195 4.91a4.06 4.06 0 00-1.271.195c-.397.13-.742.312-1.036.547-.294.235-.526.52-.697.854-.143.28-.226.585-.25.916l-.007.202h1.976a1.019 1.019 0 01.393-.82c.12-.096.262-.17.424-.222.162-.053.334-.08.516-.08.228 0 .426.033.595.097.168.063.309.151.42.263.112.111.195.246.25.403.054.157.082.327.082.51 0 .414-.121.747-.363.997-.21.22-.522.343-.932.37l-.182.006H10.67v1.545h1.053c.25 0 .478.029.68.086.203.057.375.145.516.263.142.118.25.272.325.461.075.19.113.416.113.68 0 .206-.034.391-.103.558-.068.166-.167.31-.297.43-.13.121-.288.213-.475.277a1.939 1.939 0 01-.629.096c-.21 0-.403-.032-.581-.096a1.452 1.452 0 01-.461-.263 1.19 1.19 0 01-.305-.4 1.149 1.149 0 01-.102-.375l-.007-.138H8.421c0 .493.097.918.29 1.275.195.358.45.655.767.892.316.237.677.413 1.083.527.406.114.82.17 1.244.17a4.82 4.82 0 001.398-.194c.43-.13.803-.32 1.118-.567.314-.249.561-.555.742-.92.18-.365.27-.78.27-1.244 0-.547-.138-1.02-.414-1.422-.276-.401-.694-.702-1.254-.902a2.758 2.758 0 001.117-.913 2.141 2.141 0 00.393-1.227c0-.465-.082-.874-.246-1.227a2.455 2.455 0 00-.69-.889 3.02 3.02 0 00-1.063-.54 4.867 4.867 0 00-1.37-.18z" fill="#d5d5d5"/></svg>