<svg width="24" height="24" xmlns="http://www.w3.org/2000/svg"><path d="M12 2c5.523 0 10 4.477 10 10s-4.477 10-10 10S2 17.523 2 12 6.477 2 12 2zm-.079 4.91c-.533 0-1.012.087-1.439.26-.426.173-.79.408-1.09.704-.3.296-.53.643-.69 1.04-.128.316-.205.65-.23.999l-.01.265h1.983c0-.242.032-.465.096-.67.063-.205.156-.382.276-.53.121-.148.272-.264.452-.349.18-.084.386-.126.618-.126.415 0 .734.126.957.38.224.252.335.6.335 1.042 0 .146-.021.297-.065.454a2.298 2.298 0 01-.218.51 5.33 5.33 0 01-.404.601c-.125.164-.27.341-.438.53l-.174.195-3.22 3.431V17h6.823v-1.593h-4.28l1.757-1.852c.333-.342.635-.671.906-.988.271-.317.503-.63.694-.94.191-.31.34-.62.444-.93.105-.31.158-.63.158-.964 0-.437-.071-.831-.212-1.182a2.326 2.326 0 00-.622-.889 2.813 2.813 0 00-1.015-.557 4.538 4.538 0 00-1.392-.195z" fill="#012169"/></svg>