<svg width="24px" height="24px" xmlns="http://www.w3.org/2000/svg"><path d="M3.42,2 L22,20.55 L20.58,22 L18.5,19.91 C17.277968,20.9998978 15.7740444,21.7241376 14.16,22 L14.16,22 L14,22 L14,20 C15.1367198,19.7649013 16.1938978,19.2414777 17.07,18.48 L17.07,18.48 L15.66,17.08 C15.1502061,17.4299724 14.5809081,17.6841233 13.98,17.83 L13.98,17.83 L13.98,15.74 C14.0586683,15.7039595 14.1354359,15.6639069 14.21,15.62 L14.21,15.62 L12,13.42 L12,22 L6.54,16.68 L2,16.68 L2,7.41 L6,7.41 L2,3.41 L3.42,2 Z M7.67,9.08 L7.35,9.39 L4,9.39 L4,14.64 L7.33,14.64 L10,17.24 L10,11.42 L7.67,9.08 Z M14,2 L14.16,2.05 C18.0323374,2.80251768 21.0528241,5.84282388 21.78,9.72 L21.78,9.72 L21.78,9.84 C21.84,10.1333333 21.89,10.4333333 21.93,10.74 C21.9349025,10.8265973 21.9349025,10.9134027 21.93,11 C22,11.29 22,11.64 22,12 L22,12 L21.94,12 L21.94,12.03 C21.93,12.39 21.87,12.74 21.87,13.09 C21.8748947,13.1732615 21.8748947,13.2567385 21.87,13.34 C21.83,13.65 21.78,13.95 21.72,14.25 L21.72,14.25 L21.72,14.36 L21.6234577,14.748219 C21.4506573,15.3919387 21.2185628,16.0185601 20.93,16.62 L20.93,16.62 L19.4,15.1 C19.5852766,14.6266813 19.7291491,14.1381839 19.83,13.64 C19.87,13.43 19.93,13.22 19.93,13 C19.9250914,12.9334237 19.9250914,12.8665763 19.93,12.8 L19.93,12.8 L19.93,11.13 C19.9250914,11.0634237 19.9250914,10.9965763 19.93,10.93 C19.9,10.72 19.83,10.5 19.83,10.29 C19.3473649,7.2024805 17.0420542,4.7152757 14,4 L14,4 L14,2 Z M14,6.2 C16.1655483,6.75229087 17.8174145,8.50545082 18.24,10.7 L18.24,10.7 L18.24,11.15 C18.2487405,11.447248 18.2353703,11.7447345 18.2,12.04 L18.2,12.04 L18.1898013,12.3210171 C18.1786153,12.5081254 18.1586645,12.6946582 18.13,12.88 L18.13,12.88 L18.13,13.33 L18.0719014,13.552039 L18.0719014,13.552039 L18,13.77 L16.21,12.02 L16.220391,11.830071 C16.2238547,11.7033333 16.220391,11.5764536 16.21,11.45 C16.2147868,11.3533926 16.2147868,11.2566074 16.21,11.16 C15.987618,9.89921697 15.1621016,8.82716622 14,8.29 L14,8.29 L14,6.2 Z M12.02,2.03 L12.02,7.77 L9.11,4.87 L12.02,2.03 Z" fill="#0053c2"></path></svg>