<svg xmlns="http://www.w3.org/2000/svg" viewBox="0 0 20 20" height="16" width="16"><title>mobile_icons_utilitynav</title><g style="isolation:isolate"><path d="M19.02 8.835c.242 3.941-3.6 7.4-8.569 7.72a10.965 10.965 0 0 1-4.131-.508l-1.709 1.695-1.157-3.236a6.324 6.324 0 0 1-2.473-4.506c-.25-3.937 3.6-7.392 8.577-7.72s9.207 2.62 9.462 6.555z" fill="#857465" style="mix-blend-mode:multiply"/><path d="M4.615 12.831v-6.865h5.019v1.164h-3.652v1.519h3.4v1.158h-3.4v1.868h3.781v1.155h-5.148zM10.575 10.6l1.328-.132a1.669 1.669 0 0 0 .488 1 1.463 1.463 0 0 0 .99.319 1.5 1.5 0 0 0 1-.285.836.836 0 0 0 .335-.661.635.635 0 0 0-.141-.415 1.138 1.138 0 0 0-.49-.3c-.16-.055-.525-.156-1.1-.3a3.7 3.7 0 0 1-1.541-.682 1.816 1.816 0 0 1-.331-2.361 1.844 1.844 0 0 1 .845-.7 3.379 3.379 0 0 1 1.333-.236 2.814 2.814 0 0 1 1.918.566 2 2 0 0 1 .677 1.509l-1.367.062a1.2 1.2 0 0 0-.377-.761 1.376 1.376 0 0 0-.867-.223 1.573 1.573 0 0 0-.934.247.508.508 0 0 0-.215.428.522.522 0 0 0 .2.413 3.57 3.57 0 0 0 1.257.461 6.526 6.526 0 0 1 1.475.5 1.912 1.912 0 0 1 .747.7 2.2 2.2 0 0 1-.053 2.2 1.948 1.948 0 0 1-.915.763 3.815 3.815 0 0 1-1.472.251 2.911 2.911 0 0 1-1.973-.6 2.656 2.656 0 0 1-.817-1.763z" fill="#fff"/></g></svg>
