<svg xmlns="http://www.w3.org/2000/svg" viewBox="0 0 24.610001 23.73" width="24.61" height="23.73"><path d="M0 0h24.61v23.73H0z" fill="#d91e35"/><circle cx="12.305" cy="3.174" r="1.426" fill="#fff"/><circle cx="12.305" cy="3.174" r="1.426" fill="#fff"/><path d="M1.614 6.346h21.38v15.766H1.614z" fill="#fff"/><path d="M10.8 13.654c1.313.285 1.783 1.264 1.783 2.203 0 1.48-1.225 2.692-3.275 2.692-.893 0-2.047-.15-2.875-.657l.496-1.286c1.207.52 1.8.546 2.156.546 1.213 0 1.658-.683 1.67-1.2.023-1.1-.832-1.486-2.414-1.525v-1.172c1.635-.05 2.08-.704 2.08-1.286 0-.423-.31-.79-.986-.79-.373 0-1.066.025-2.29.68l-.483-1.25c1-.57 2.054-.84 2.82-.84 1.92 0 2.733.99 2.733 2.053 0 .557-.332 1.41-1.41 1.795v.034zm5.643-2.15l-1.732.158v-1.174l1.896-.557h1.572v8.513h-1.734v-6.94z" fill="#d91e35"/></svg>
