<?xml version="1.0" encoding="utf-8"?>
<!-- Generator: Adobe Illustrator 22.1.0, SVG Export Plug-In . SVG Version: 6.00 Build 0)  -->
<svg version="1.2" baseProfile="tiny" id="Layer_1" xmlns="http://www.w3.org/2000/svg" xmlns:xlink="http://www.w3.org/1999/xlink"
	 x="0px" y="0px" viewBox="0 0 36 36" xml:space="preserve">
<g>
	<path fill="#231F20" d="M10,8v20l8-5.5l8,5.5V8H10z M25,26.1l-7-4.8l-7,4.8V9h14V26.1z"/>
	<path fill="#231F20" d="M14.6,20.9l3.4-2.5l3.4,2.5l-1.3-4l3.4-2.5h-4.2l-1.3-4l-1.3,4h-4.2l3.4,2.5L14.6,20.9z M15.6,15.4h1.9
		l0.6-1.8l0.6,1.8h1.9l-1.5,1.1l0.6,1.8L18,17.2l-1.5,1.1l0.6-1.8L15.6,15.4z"/>
</g>
<rect x="6" y="6" fill="none" width="24" height="24"/>
</svg>
