<?xml version="1.0" encoding="UTF-8"?>
<svg width="270px" height="270px" viewBox="0 0 270 270" version="1.1" xmlns="http://www.w3.org/2000/svg" xmlns:xlink="http://www.w3.org/1999/xlink">
    <title>purchase-hand-and-key-large</title>
    <defs>
        <path d="M27.55584,0.267771255 L24.34688,1.68871457 L23.2448,3.72486437 L19.31392,5.46488866 L20.1152,6.92026518 L17.61408,8.0278664 L16.81536,6.5759332 L11.81184,8.79113563 L12.30592,9.68639879 L1.28256,14.5667308 L0.096,18.893836 L4.45824,20.3342915 L31.91168,8.18166802 C31.91168,8.18166802 27.44832,0.0726497976 27.55584,0.267771255" id="path-1"></path>
        <path d="M46.4428333,0.803170175 C43.5542917,-0.367285088 37.3138125,-0.439581579 19.4650833,11.3584579 C1.61635417,23.1577439 -2.32927083,27.4793289 2.81110417,35.7585237 C7.95147917,44.0352254 9.81735417,52.1448974 24.743125,46.0296114 C39.6676667,39.9143254 58.7750625,31.5541088 58.1629375,24.0228088 C57.5495833,16.4927553 50.9366667,2.62304737 46.4428333,0.803170175" id="path-3"></path>
        <path d="M5.0325,6.44583333 C3.35625,7.21816667 1.32625,6.57533333 0.49875,5.012 C-0.32875,3.4475 0.36,1.55283333 2.03625,0.7805 C3.7125,0.00816666667 5.7425,0.649833333 6.56875,2.21433333 C7.3975,3.77883333 6.70875,5.6735 5.0325,6.44583333" id="path-5"></path>
        <path d="M17.8714,18.7786933 C19.285,21.89072 21.3243333,25.3561867 23.6030667,27.9192533 C25.7526,30.3369333 32.224,31.8873067 35.1550667,33.29104 C49.482536,38.2004219 65.7114053,26.173726 66.354829,25.6906944 L66.3746,25.6757867 L66.3746,25.6757867 C66.3746,25.6757867 59.9693673,21.9029351 53.6288826,18.6016422 L52.8687493,18.2080221 C51.3507607,17.4263956 49.8514083,16.68171 48.4601333,16.03264 C48.3260094,15.9700969 48.1788414,15.9000577 48.020263,15.8227081 L47.6883764,15.6583169 C43.8809208,13.7440061 35.0779784,8.35143662 38.6751333,1.45888 C40.4690567,-0.38528 45.2303449,0.779485957 49.9723272,1.87065742 L50.7619667,2.05130935 C51.9446215,2.31967943 53.1156993,2.57274667 54.2285333,2.76234667 C60.04,3.75248 65.2016667,4.79776 71.0042667,5.83301333 C79.8025333,7.40344 88.4956667,7.12896 97.4282,7.48616 C106.932,7.86592 115.335067,13.75408 121.966067,20.5007733 C122.894584,21.4453104 124.380659,22.9301128 126.269937,24.802032 L127.538497,26.057229 C139.721663,38.0969364 164.914059,62.5895365 170.951867,67.6223467 L141.3524,93.1853333 C140.227983,90.7737451 135.069302,83.7786969 129.541397,76.6977159 L128.730225,75.6613833 C122.904033,68.23742 116.868367,60.9602533 114.8512,59.0182133 C110.8156,55.13288 104.778667,52.7703467 99.4485333,54.5663733 C97.0938,55.3597333 58.729,67.42056 46.3777333,65.98048 C34.0277333,64.5416533 23.9273333,45.6677067 13.1936,39.2556533 L11.4063333,37.2265067 C7.44622667,32.8949867 5.96757067,27.0851349 4.5727376,21.3203631 L4.27425403,20.0863 C4.02513061,19.0594144 3.77321905,18.0374362 3.50486667,17.02904 C2.21954104,12.1969529 0.459959178,8.09998839 0.0761112498,5.06547083 L0.0761112498,2.98694566 C0.266236993,1.87305468 0.827187494,0.989937122 1.9266,0.367226667 C11.2264667,-0.77832 15.1582,12.8028 17.8714,18.7786933 Z" id="path-7"></path>
        <polygon id="path-9" points="0.0448955723 0.266558378 122.15324 0.266558378 122.15324 198.980198 0.0448955723 198.980198"></polygon>
    </defs>
    <g id="purchase-hand-and-key-large" stroke="none" stroke-width="1" fill="none" fill-rule="evenodd">
        <g id="hands-+-key" transform="translate(21.000000, 36.000000)">
            <path d="M130.694418,32.9622066 C130.313778,35.0149731 129.609416,36.8826331 128.678566,38.4732718 C127.533088,40.4277404 126.046101,41.9647621 124.393102,42.9158261 C122.74129,43.8668902 120.924651,44.2345498 119.119871,43.8490178 C114.042296,42.7651878 110.991245,36.1332712 112.305106,29.0366737 C113.620153,21.9400762 118.802078,17.0660325 123.880839,18.1511391 C128.958414,19.2336926 132.009465,25.8656091 130.694418,32.9622066 Z" id="Stroke-1" stroke="#012169" stroke-width="2.363"></path>
            <path d="M116,45 C110.294756,43.902439 106.866547,37.1865035 108.342822,30" id="Stroke-2" stroke="#012169" stroke-width="2.363" stroke-linecap="round"></path>
            <path d="M133.268618,31.8468648 C133.020649,32.1368847 132.740536,32.3794715 132.448178,32.5651385 C132.090001,32.7941729 131.714986,32.9391828 131.369054,32.9839055 C131.021591,33.0299835 130.701681,32.9784846 130.453712,32.8117909 C129.752664,32.3455907 129.878179,31.1543406 130.732294,30.1528233 C131.586409,29.1526612 132.846153,28.721697 133.54567,29.1878972 C134.246718,29.6568079 134.122733,30.8467027 133.268618,31.8468648 Z" id="Stroke-3" stroke="#012169" stroke-width="0.346"></path>
            <path d="M130.557207,32 C130.099207,31.4740061 130.181207,30.1299694 130.739207,29" id="Stroke-4" stroke="#012169" stroke-width="0.346" stroke-linecap="round"></path>
            <path d="M133.547754,31.8783049 C133.07317,31.783722 132.642692,31.6439039 132.275727,31.4725582 C131.824078,31.2628311 131.469464,31.0064979 131.250696,30.7364571 C131.030165,30.4650455 130.94548,30.1799262 131.035457,29.9085146 C131.284217,29.1477397 132.815589,28.7954529 134.452816,29.1216951 C136.090043,29.4479374 137.215636,30.3293397 136.965112,31.0914854 C136.716352,31.8522603 135.184981,32.2045471 133.547754,31.8783049 Z" id="Stroke-5" stroke="#012169" stroke-width="0.352"></path>
            <path d="M131,29.8313895 C131.218379,29.2763895 132.562726,29.0193895 134,29.2573895" id="Stroke-6" stroke="#012169" stroke-width="0.352" stroke-linecap="round"></path>
            <path d="M136.268262,31.9543137 C135.791209,32.0124381 135.329825,32.0138557 134.911968,31.9656551 C134.398353,31.9061131 133.949156,31.7728525 133.614871,31.5857205 C133.282327,31.3957533 133.064693,31.150497 133.012461,30.8641285 C132.862729,30.0603118 134.079737,29.2465714 135.730271,29.0452628 C137.380806,28.8439542 138.838082,29.333049 138.987814,30.1368657 C139.135805,30.9392648 137.918797,31.7544228 136.268262,31.9543137 Z" id="Stroke-7" stroke="#012169" stroke-width="0.352"></path>
            <path d="M134.009128,31 C133.899445,30.1161341 134.790937,29.2213562 136,29" id="Stroke-8" stroke="#012169" stroke-width="0.352" stroke-linecap="round"></path>
            <path d="M140.492157,27.9130355 C140.278806,28.3705052 140.021481,28.7663565 139.742984,29.0875189 C139.402599,29.4833702 139.029642,29.7653209 138.668084,29.9034954 C138.308156,30.0416699 137.959628,30.0360683 137.668102,29.8568148 C136.844012,29.3545318 136.772352,27.6665621 137.508495,26.0887585 C138.244639,24.5090877 139.510089,23.6389618 140.332551,24.143112 C141.156641,24.645395 141.226672,26.335232 140.492157,27.9130355 Z" id="Stroke-9" stroke="#012169" stroke-width="0.352"></path>
            <path d="M136.705111,30 C136.199111,29.6000991 136.155111,28.2561943 136.607111,27" id="Stroke-10" stroke="#012169" stroke-width="0.352" stroke-linecap="round"></path>
            <g id="Group-13" transform="translate(41.000000, 67.000000)">
                <mask id="mask-2" fill="white">
                    <use xlink:href="#path-1"></use>
                </mask>
                <g id="Clip-12"></g>
                <path d="M27.55584,0.267771255 L24.34688,1.68871457 L23.2448,3.72486437 L19.31392,5.46488866 L20.1152,6.92026518 L17.61408,8.0278664 L16.81536,6.5759332 L11.81184,8.79113563 L12.30592,9.68639879 L1.28256,14.5667308 L0.096,18.893836 L4.45824,20.3342915 L31.91168,8.18166802 C31.91168,8.18166802 27.44832,0.0726497976 27.55584,0.267771255" id="Fill-11" mask="url(#mask-2)"></path>
                <rect id="Rectangle" stroke="#979797" fill="#D8D8D8" mask="url(#mask-2)" x="-7.02941176" y="-8.25" width="77.1176471" height="52.375"></rect>
            </g>
            <g id="Group-16" transform="translate(65.000000, 31.000000)">
                <mask id="mask-4" fill="white">
                    <use xlink:href="#path-3"></use>
                </mask>
                <g id="Clip-15"></g>
                <path d="M46.4428333,0.803170175 C43.5542917,-0.367285088 37.3138125,-0.439581579 19.4650833,11.3584579 C1.61635417,23.1577439 -2.32927083,27.4793289 2.81110417,35.7585237 C7.95147917,44.0352254 9.81735417,52.1448974 24.743125,46.0296114 C39.6676667,39.9143254 58.7750625,31.5541088 58.1629375,24.0228088 C57.5495833,16.4927553 50.9366667,2.62304737 46.4428333,0.803170175" id="Fill-14" mask="url(#mask-4)"></path>
                <rect id="Rectangle" stroke="#979797" fill="#0072D6" mask="url(#mask-4)" x="-31.765625" y="-9.66981132" width="134.515625" height="77.5849057"></rect>
            </g>
            <path d="M103.554114,43.6939397 C101.456701,42.2325149 98.5099931,42.6120897 87.9628682,49.4666915 C77.4157433,56.3200569 73.9669056,58.9214425 77.126238,65.7933539 C80.5210187,73.1771349 82.63645,75.5621505 89.4176027,73.0139301 C96.197554,70.4657096 113.322817,64.1093771 111.918536,59.4469125 C110.10222,53.418226 106.407123,45.6845438 103.554114,43.6939397" id="Fill-17" fill="#012169"></path>
            <path d="M92,45 C92,45 95.5267009,51.6887999 103,68" id="Stroke-18" stroke="#000000" stroke-width="0.382"></path>
            <path d="M82,51 C82,51 89.2925616,65.1237761 92,72" id="Stroke-19" stroke="#000000" stroke-width="0.382"></path>
            <g id="Group-22" transform="translate(105.000000, 35.000000)">
                <mask id="mask-6" fill="white">
                    <use xlink:href="#path-5"></use>
                </mask>
                <g id="Clip-21"></g>
                <path d="M5.0325,6.44583333 C3.35625,7.21816667 1.32625,6.57533333 0.49875,5.012 C-0.32875,3.4475 0.36,1.55283333 2.03625,0.7805 C3.7125,0.00816666667 5.7425,0.649833333 6.56875,2.21433333 C7.3975,3.77883333 6.70875,5.6735 5.0325,6.44583333" id="Fill-20" mask="url(#mask-6)"></path>
            </g>
            <path d="M37.782106,139.118023 C36.1905063,136.356799 31.792566,131.514778 31.4144511,128.362092 C31.014981,125.022937 31.324005,121.084859 31.9433094,117.777812 C33.1316703,111.430454 37.6589988,98.2417817 29.4171003,94.0159729 C24.6774748,93.6232765 24.1109306,100.528806 21.2154,108.400023 C18.728133,115.164775 15.2045047,122.022144 16.1604694,129.153659 L16.4644687,131.787689 L48,155 C48,155 46.8593745,151.279263 37.782106,139.118023" id="Fill-23" fill="#98452E"></path>
            <path d="M45.7750733,147.775001 C45.4357829,145.298875 43.7223057,140.501933 44.3340013,138.082628 C44.9821797,135.518114 46.2894813,132.717478 47.635698,130.464848 C50.221115,126.146464 57.0215158,117.749606 52.4684578,112.318797 C49.2859383,110.68867 46.9777908,115.595465 42.7846968,120.550242 C39.1814086,124.80928 34.8326545,128.842297 33.5192724,134.34508 L33,136.362851 C33,136.362851 48.7095095,159.264175 45.7750733,147.775001" id="Fill-24" fill="#98452E"></path>
            <g id="Group-27" transform="translate(0.000000, 96.000000)">
                <mask id="mask-8" fill="white">
                    <use xlink:href="#path-7"></use>
                </mask>
                <g id="Clip-26"></g>
                <polygon id="Fill-25" mask="url(#mask-8)" points="0.076 105.28 229.693533 105.28 229.693533 -93.73304 0.076 -93.73304"></polygon>
                <rect id="Rectangle" fill="#A26D60" mask="url(#mask-8)" x="-15.2" y="-61.4133333" width="195.066667" height="196.773333"></rect>
            </g>
            <g id="Group-31" transform="translate(106.000000, 0.000000)">
                <mask id="mask-10" fill="white">
                    <use xlink:href="#path-9"></use>
                </mask>
                <g id="Clip-29"></g>
                <path d="M122.044681,198.764949 C118.925847,191.870723 69.9772662,147.75844 64.3424193,142.621247 C57.2988608,136.202571 50.2553022,129.782644 43.2117437,123.362717 C43.2117437,123.362717 36.5168508,118.545894 31.575504,120.559474 C26.6341571,122.570551 24.6622161,138.178607 1.57492546,155.365991 C0.687296596,156.025504 0.185371208,157.15431 0.0640406438,158.239315 C-0.0572899206,159.326823 0.41909219,160.384297 0.899305792,161.371689 C4.73718312,169.257062 17.520316,185.204261 28.2931929,198.980198 L122.15324,198.980198 C122.107262,198.890094 122.065116,198.807498 122.044681,198.764949" id="Fill-28" fill="#8090B4" mask="url(#mask-10)"></path>
                <path d="M78.3810042,30.1498801 L61.6373863,46.0883191 C58.1481747,49.4084101 52.522268,49.3283174 49.1339524,45.909362 L34.2473307,30.8932401 C30.8590151,27.4755361 30.9407535,21.9616572 34.428688,18.6428177 L51.1723059,2.70563011 C54.6615175,-0.615712311 60.2874242,-0.534368205 63.6757398,2.8833357 L78.5623615,17.8994577 C81.9506771,21.318413 81.8689387,26.8310405 78.3810042,30.1498801" id="Fill-30" fill="#012169" mask="url(#mask-10)"></path>
            </g>
            <path d="M168.112611,28.8696365 C163.727555,30.2727718 156.514752,30.8885531 153.2163,27.57109 C149.558379,23.8940294 151.161354,20.5530632 152.824045,18.931349 C154.533573,17.264979 156.281741,17.5164622 157.695029,17.5611181 C157.691516,16.1415306 157.492461,14.3811482 159.200818,12.7147781 C160.864681,11.0930639 164.238071,9.58298952 167.795294,13.3587631 C171.002415,16.7631877 170.180437,23.982166 168.655913,28.3396415 C168.602051,28.494762 168.543505,28.6017011 168.460371,28.683962 C168.376065,28.7638725 168.268342,28.82028 168.112611,28.8696365" id="Fill-32" fill="#E7534F"></path>
        </g>
    </g>
</svg>