<?xml version="1.0" encoding="UTF-8"?>
<svg width="120px" height="120px" viewBox="0 0 120 120" version="1.1" xmlns="http://www.w3.org/2000/svg" xmlns:xlink="http://www.w3.org/1999/xlink">
    <title>purchase-hand-and-key-small</title>
    <defs>
        <path d="M14.3260427,0.142781495 L12.6577322,0.900459582 L12.0847703,1.98617923 L10.0411399,2.91399828 L10.4577184,3.6900369 L9.15740775,4.28063412 L8.74216013,3.50643155 L6.14087339,4.68762598 L6.39774131,5.16499989 L0.666791844,7.76729975 L0.0499095692,10.074607 L2.31780039,10.8426894 L16.5906063,4.36264451 C16.5906063,4.36264451 14.270144,0.0387384626 14.3260427,0.142781495" id="path-1"></path>
        <path d="M24.5923609,0.417561223 C23.0628234,-0.190948338 19.7583713,-0.228534659 10.3071307,5.90516396 C0.855890182,12.0395106 -1.23339308,14.2862653 1.48853296,18.590547 C4.210459,22.8935326 5.1984752,27.1096809 13.1019539,23.9303966 C21.0047817,20.7511124 31.1225101,16.4047081 30.7983783,12.4892504 C30.4735957,8.57444072 26.9719309,1.36369963 24.5923609,0.417561223" id="path-3"></path>
        <path d="M2.90705911,3.72348107 C1.93876148,4.16962487 0.766117663,3.79828766 0.288106454,2.89521714 C-0.189904755,1.99147268 0.207956538,0.897005123 1.17625417,0.450861328 C2.1445518,0.00471753258 3.31719561,0.375380807 3.79448475,1.27912526 C4.27321803,2.18286972 3.87535674,3.27733728 2.90705911,3.72348107" id="path-5"></path>
        <path d="M9.34034591,9.89609683 C10.0791528,11.5360894 11.1449942,13.3623397 12.3359562,14.7130383 C13.4593928,15.9871203 16.8416188,16.8041444 18.3735176,17.5438913 C25.8616562,20.1310638 34.3435464,13.7931709 34.6798267,13.5386203 L34.6901599,13.5307642 L34.6901599,13.5307642 C34.6901599,13.5307642 31.3425156,11.5425266 28.0287115,9.80279346 L27.6314338,9.59536146 C26.8380691,9.18345571 26.0544444,8.79101727 25.3273055,8.44896687 C25.2572067,8.41600757 25.1802905,8.37909792 25.0974108,8.33833583 L24.9239528,8.25170406 C22.9340163,7.24289027 18.3332281,4.401085 20.2132526,0.76880843 C21.1508325,-0.203036927 23.6392822,0.410777703 26.1176417,0.98580911 L26.5303406,1.08101003 C27.1484457,1.22243715 27.7605003,1.35579988 28.3421142,1.45571631 C31.3794313,1.9775021 34.0771356,2.52834937 37.1098186,3.07391274 C41.7081631,3.90150464 46.2515605,3.75685769 50.9200784,3.94509687 C55.8871643,4.14522484 60.2789607,7.24819907 63.7446004,10.8036078 C64.2298826,11.301365 65.0065678,12.0838342 65.993984,13.0703083 L66.6569871,13.7317787 C73.0244225,20.0765285 86.1910292,32.9837707 89.3466415,35.635988 L73.8767142,49.1073082 C73.2890465,47.8364365 70.5929029,44.1501484 67.7037869,40.4185749 L67.2798343,39.8724428 C64.2348213,35.9601227 61.0803278,32.1251622 60.0260716,31.1017355 C57.9168972,29.0542217 54.7617417,27.8092012 51.9759896,28.755681 C50.7453069,29.1737701 30.6942475,35.5296494 24.2389556,34.7707483 C17.7843258,34.0125077 12.5054316,24.0662137 6.89553072,20.6871554 L5.96142993,19.6178247 C3.89171149,17.335177 3.11890363,14.2734701 2.38990515,11.2355196 L2.23390508,10.5851864 C2.10370269,10.0440327 1.9720431,9.50546515 1.83179085,8.97405511 C1.16002558,6.42761586 0.240394028,4.26857546 0.0397789429,2.66942907 L0.0397789429,1.57407669 C0.139146659,0.987072432 0.432323004,0.52168239 1.00692226,0.193523084 C5.86742404,-0.410163261 7.92231338,6.74688842 9.34034591,9.89609683 Z" id="path-7"></path>
        <polygon id="path-9" points="0.0235137144 0.140095945 63.9768304 0.140095945 63.9768304 104.578663 0.0235137144 104.578663"></polygon>
    </defs>
    <g id="purchase-hand-and-key-small" stroke="none" stroke-width="1" fill="none" fill-rule="evenodd">
        <g id="hands-+-key" transform="translate(0.000000, 8.000000)">
            <path d="M68.8092135,17.0613286 C68.6009892,18.1057404 68.215677,19.0559732 67.7064681,19.8652625 C67.0798493,20.859662 66.2664125,21.6416718 65.3621613,22.1255566 C64.4585588,22.6094414 63.4647907,22.7965002 62.4775092,22.6003483 C59.6998883,22.0489144 58.0308509,18.674711 58.7495813,15.064086 C59.4689605,11.453461 62.3036647,8.97363251 65.0819343,9.52571585 C67.8595551,10.0765002 69.5285926,13.4507036 68.8092135,17.0613286 Z" id="Stroke-1" stroke="#012169" stroke-width="1.36500361"></path>
            <path d="M61.4173228,23.6220472 C58.0480843,22.999808 56.0235512,19.1923484 56.8953672,15.1181102" id="Stroke-2" stroke="#012169" stroke-width="1.36500361" stroke-linecap="round"></path>
            <path d="M69.5757251,16.4630857 C69.4585744,16.600103 69.3262376,16.7147109 69.1881155,16.8024276 C69.0188979,16.9106329 68.8417256,16.9791415 68.6782932,17.0002703 C68.5141377,17.0220394 68.3629989,16.9977093 68.2458482,16.9189563 C67.9146446,16.6987043 67.973943,16.135909 68.3774619,15.6627512 C68.7809808,15.1902336 69.3761351,14.9866285 69.7066156,15.2068806 C70.0378193,15.4284132 69.979244,15.9905682 69.5757251,16.4630857 Z" id="Stroke-3" stroke="#012169" stroke-width="0.5"></path>
            <path d="M68.5579907,17.007874 C68.1252348,16.6765393 68.2027151,15.829902 68.7299592,15.1181102" id="Stroke-4" stroke="#012169" stroke-width="0.5" stroke-linecap="round"></path>
            <path d="M70.1800412,16.9312157 C69.9558282,16.8716359 69.7524529,16.7835615 69.5790838,16.6756272 C69.3657064,16.5435156 69.1981718,16.3820459 69.0948171,16.2119415 C68.9906289,16.0409735 68.9506207,15.8613708 68.9931294,15.6904029 C69.1106537,15.2111746 69.8341364,14.9892617 70.6076295,15.1947686 C71.3811225,15.4002755 71.912899,15.9554896 71.7945412,16.4355813 C71.6770169,16.9148097 70.9535342,17.1367226 70.1800412,16.9312157 Z" id="Stroke-5" stroke="#012169" stroke-width="0.5"></path>
            <path d="M68.0314961,15.9036751 C68.1690576,15.3792656 69.0158903,15.136431 69.9212598,15.3613129" id="Stroke-6" stroke="#012169" stroke-width="0.5" stroke-linecap="round"></path>
            <path d="M71.4653206,16.9790953 C71.2399411,17.015709 71.0219646,17.016602 70.8245519,16.9862394 C70.5818988,16.9487327 70.3696802,16.864789 70.2117501,16.7469106 C70.0546425,16.6272462 69.9518234,16.472754 69.9271468,16.2923644 C69.8564072,15.7860232 70.4313717,15.2734308 71.2111518,15.1466222 C71.9909319,15.0198137 72.6794086,15.3279049 72.7501482,15.8342461 C72.8200652,16.3396944 72.2451007,16.8531797 71.4653206,16.9790953 Z" id="Stroke-7" stroke="#012169" stroke-width="0.5"></path>
            <path d="M69.9255722,16.0629921 C69.8737535,15.6454177 70.294931,15.222688 70.8661417,15.1181102" id="Stroke-8" stroke="#012169" stroke-width="0.5" stroke-linecap="round"></path>
            <path d="M73.4608615,14.1321428 C73.3600656,14.3482702 73.238495,14.5352865 73.1069217,14.6870168 C72.9461099,14.8740332 72.7699094,15.0072382 72.599095,15.0725175 C72.4290499,15.1377968 72.264391,15.1351504 72.1266622,15.0504637 C71.7373284,14.8131646 71.7034732,14.0156986 72.0512576,13.2702796 C72.399042,12.5239785 72.9968926,12.1128953 73.385457,12.3510765 C73.7747908,12.5883756 73.8078765,13.3867238 73.4608615,14.1321428 Z" id="Stroke-9" stroke="#012169" stroke-width="0.5"></path>
            <path d="M71.5323881,15.1181102 C71.0542779,14.8662042 71.0127031,14.0196499 71.4397897,13.2283465" id="Stroke-10" stroke="#012169" stroke-width="0.5" stroke-linecap="round"></path>
            <g id="Group-13" transform="translate(21.732283, 34.960630)">
                <mask id="mask-2" fill="white">
                    <use xlink:href="#path-1"></use>
                </mask>
                <g id="Clip-12"></g>
                <path d="M14.3260427,0.142781495 L12.6577322,0.900459582 L12.0847703,1.98617923 L10.0411399,2.91399828 L10.4577184,3.6900369 L9.15740775,4.28063412 L8.74216013,3.50643155 L6.14087339,4.68762598 L6.39774131,5.16499989 L0.666791844,7.76729975 L0.0499095692,10.074607 L2.31780039,10.8426894 L16.5906063,4.36264451 C16.5906063,4.36264451 14.270144,0.0387384626 14.3260427,0.142781495" id="Fill-11" mask="url(#mask-2)"></path>
                <rect id="Rectangle" stroke="#979797" stroke-width="0.577657051" fill="#D8D8D8" mask="url(#mask-2)" x="-3.62564749" y="-4.37686304" width="40.0350316" height="27.8830615"></rect>
            </g>
            <g id="Group-16" transform="translate(33.070866, 16.062992)">
                <mask id="mask-4" fill="white">
                    <use xlink:href="#path-3"></use>
                </mask>
                <g id="Clip-15"></g>
                <path d="M24.5923609,0.417561223 C23.0628234,-0.190948338 19.7583713,-0.228534659 10.3071307,5.90516396 C0.855890182,12.0395106 -1.23339308,14.2862653 1.48853296,18.590547 C4.210459,22.8935326 5.1984752,27.1096809 13.1019539,23.9303966 C21.0047817,20.7511124 31.1225101,16.4047081 30.7983783,12.4892504 C30.4735957,8.57444072 26.9719309,1.36369963 24.5923609,0.417561223" id="Fill-14" mask="url(#mask-4)"></path>
                <rect id="Rectangle" stroke="#979797" stroke-width="0.577657051" fill="#0072D6" mask="url(#mask-4)" x="-16.7964318" y="-4.99836837" width="71.1804362" height="40.2779553"></rect>
            </g>
            <path d="M53.4641016,22.3595725 C52.3630978,21.6023191 50.8162694,21.799 45.2797209,25.3507876 C39.7431724,28.9019345 37.9327588,30.2498712 39.591201,33.8106279 C41.3732382,37.6366155 42.4837008,38.8724377 46.043361,37.5520491 C49.6023906,36.2316606 58.5920301,32.9380567 57.8548747,30.5221492 C56.901428,27.3983188 54.9617443,23.391026 53.4641016,22.3595725" id="Fill-17" fill="#012169"></path>
            <path d="M48,22 C48,22 49.8176268,25.5722451 53.6692913,34.2834646" id="Stroke-18" stroke="#000000" stroke-width="0.5"></path>
            <path d="M42,26 C42,26 46.1343656,33.6258858 47.6692913,37.3385827" id="Stroke-19" stroke="#000000" stroke-width="0.5"></path>
            <g id="Group-22" transform="translate(54.803150, 17.952756)">
                <mask id="mask-6" fill="white">
                    <use xlink:href="#path-5"></use>
                </mask>
                <g id="Clip-21"></g>
                <path d="M2.90705911,3.72348107 C1.93876148,4.16962487 0.766117663,3.79828766 0.288106454,2.89521714 C-0.189904755,1.99147268 0.207956538,0.897005123 1.17625417,0.450861328 C2.1445518,0.00471753258 3.31719561,0.375380807 3.79448475,1.27912526 C4.27321803,2.18286972 3.87535674,3.27733728 2.90705911,3.72348107" id="Fill-20" mask="url(#mask-6)"></path>
            </g>
            <path d="M19.4378682,72.8955121 C18.6389353,71.4412984 16.4313077,68.8912214 16.241506,67.2308423 C16.0409845,65.4722583 16.1961049,63.3982477 16.5069762,61.6565731 C17.1034959,58.3137025 19.3760722,51.3678158 15.2388988,49.1422705 C12.859756,48.9354548 12.5753687,52.5722898 11.1219036,56.7177095 C9.87337385,60.2804031 8.10462341,63.8918739 8.58448761,67.6477256 L8.73708569,69.0349518 L24.5669291,81.2598425 C24.5669291,81.2598425 23.9943711,79.300296 19.4378682,72.8955121" id="Fill-23" fill="#98452E"></path>
            <path d="M23.9055514,77.7292555 C23.7223575,76.4694458 22.7971954,74.0288456 23.1274697,72.7979454 C23.4774423,71.4931654 24.183297,70.0682506 24.9101631,68.9221515 C26.3061138,66.7250331 29.9778713,62.4528585 27.5195272,59.6897573 C25.8011815,58.8603772 24.5549377,61.356869 22.2909499,63.8777733 C20.3454175,66.0446973 17.9973838,68.096626 17.2882461,70.8963458 L17.007874,71.9229526 C17.007874,71.9229526 25.4899489,83.5747467 23.9055514,77.7292555" id="Fill-24" fill="#98452E"></path>
            <g id="Group-27" transform="translate(0.000000, 50.078740)">
                <mask id="mask-8" fill="white">
                    <use xlink:href="#path-7"></use>
                </mask>
                <g id="Clip-26"></g>
                <polygon id="Fill-25" mask="url(#mask-8)" points="0.0397207991 55.4810207 120.047509 55.4810207 120.047509 -49.3959416 0.0397207991 -49.3959416"></polygon>
                <rect id="Rectangle" fill="#A26D60" mask="url(#mask-8)" x="-7.94415982" y="-32.3639288" width="101.950051" height="103.69667"></rect>
            </g>
            <g id="Group-31" transform="translate(55.748031, 0.000000)">
                <mask id="mask-10" fill="white">
                    <use xlink:href="#path-9"></use>
                </mask>
                <g id="Clip-29"></g>
                <path d="M63.9199735,104.465534 C62.2865078,100.842113 36.6500608,77.6578789 33.6988526,74.9579077 C30.0098424,71.5844237 26.3208322,68.2102819 22.631822,64.8361402 C22.631822,64.8361402 19.1254228,62.3045472 16.53743,63.3628307 C13.9494372,64.4197987 12.9166481,72.6229753 0.824855229,81.656204 C0.359966363,82.0028263 0.0970867601,82.5960965 0.0335408,83.1663462 C-0.0300051601,83.7379113 0.219496346,84.293691 0.471004567,84.812638 C2.48106362,88.9569786 9.17613219,97.3383993 14.8183445,104.578663 L63.9768304,104.578663 C63.9527498,104.531307 63.9306759,104.487897 63.9199735,104.465534" id="Fill-28" fill="#8090B4" mask="url(#mask-10)"></path>
                <path d="M41.0514547,15.8459695 L32.2821122,24.2227862 C30.4546642,25.9677371 27.5081383,25.9256425 25.7335338,24.1287311 L17.9367789,16.2366596 C16.1621744,14.440406 16.2049843,11.5424588 18.0317634,9.79816568 L26.8011059,1.42200673 C28.6285539,-0.323601901 31.5750798,-0.280849617 33.3496843,1.51540402 L41.1464392,9.40747558 C42.9210437,11.2043869 42.8782338,14.1016763 41.0514547,15.8459695" id="Fill-30" fill="#012169" mask="url(#mask-10)"></path>
            </g>
            <path d="M87.786426,15.4446416 C85.3876386,16.2122083 81.4419696,16.5490634 79.6375947,14.7342888 C77.6365768,12.722801 78.5134633,10.8951693 79.4230169,10.0080318 C80.3581917,9.09646592 81.314504,9.23403651 82.0876245,9.25846493 C82.085703,8.48189823 81.9768127,7.51890409 82.911347,6.60733821 C83.8215411,5.72020075 85.66691,4.89413434 87.6128422,6.95962178 C89.3672558,8.82196759 88.9176032,12.771015 88.0836323,15.1547148 C88.0541679,15.2395714 88.0221413,15.298071 87.9766637,15.3430708 C87.9305454,15.3867848 87.8716166,15.4176417 87.786426,15.4446416" id="Fill-32" fill="#E7534F"></path>
        </g>
    </g>
</svg>