<svg xmlns="http://www.w3.org/2000/svg" viewBox="0 0 24 24"><defs><style>.cls-1{fill:none;}.cls-2{fill:#e31837;}</style></defs><title>bofa_icon_location2_186rgb</title><g id="ICON_ART" data-name="ICON ART"><rect class="cls-1" width="24" height="24"/><path class="cls-2" d="M12,3.89a4.287,4.287,0,1,0,4.287,4.285A4.291,4.291,0,0,0,12,3.89Zm0,7.573a3.287,3.287,0,1,1,3.287-3.288A3.287,3.287,0,0,1,12,11.463Z"/><path class="cls-2" d="M12.007,2A6.952,6.952,0,0,0,5.056,8.945c0,3.3,6.951,13.055,6.951,13.055s6.937-8.583,6.937-13.055A6.94,6.94,0,0,0,12.007,2ZM6.056,8.945a5.944,5.944,0,1,1,11.888,0c0,2.955-3.715,8.488-5.893,11.372C9.465,16.546,6.056,10.914,6.056,8.945Z"/></g></svg>