<svg width="24" height="24" xmlns="http://www.w3.org/2000/svg"><path d="M19 2a2 2 0 012 2v16a2 2 0 01-2 2H5a2 2 0 01-2-2V4a2 2 0 012-2h14zm-1 2H6a1 1 0 00-1 1v14a1 1 0 001 1h12a1 1 0 001-1V5a1 1 0 00-1-1zm-1.5 12a.5.5 0 01.5.5v1a.5.5 0 01-.5.5h-1a.5.5 0 01-.5-.5v-1a.5.5 0 01.5-.5h1zm-4 0a.5.5 0 01.5.5v1a.5.5 0 01-.5.5h-1a.5.5 0 01-.5-.5v-1a.5.5 0 01.5-.5h1zm-4 0a.5.5 0 01.5.5v1a.5.5 0 01-.5.5h-1a.5.5 0 01-.5-.5v-1a.5.5 0 01.5-.5h1zm8-3a.5.5 0 01.5.5v1a.5.5 0 01-.5.5h-1a.5.5 0 01-.5-.5v-1a.5.5 0 01.5-.5h1zm-4 0a.5.5 0 01.5.5v1a.5.5 0 01-.5.5h-1a.5.5 0 01-.5-.5v-1a.5.5 0 01.5-.5h1zm-4 0a.5.5 0 01.5.5v1a.5.5 0 01-.5.5h-1a.5.5 0 01-.5-.5v-1a.5.5 0 01.5-.5h1zm8-7a.5.5 0 01.5.5v1a.5.5 0 01-.5.5h-9a.5.5 0 01-.5-.5v-1a.5.5 0 01.5-.5h9z" fill="#646464"/></svg>