<svg width="24" height="24" xmlns="http://www.w3.org/2000/svg"><path d="M21.419 3C22.842 3 24 4.22 24 5.718v11.564C24 18.781 22.842 20 21.419 20H2.58C1.158 20 0 18.78 0 17.282V5.718C0 4.219 1.158 3 2.581 3zm0 1.214H2.58c-.76 0-1.381.675-1.381 1.504v11.564c0 .829.62 1.504 1.381 1.504H21.42c.76 0 1.381-.675 1.381-1.504V5.718c0-.829-.62-1.504-1.381-1.504zM9 14v1H4v-1h5zm6 0v1h-5v-1h5zm6 0v1h-5v-1h5zM5.797 5C6.46 5 7 5.54 7 6.203v2.594C7 9.46 6.46 10 5.797 10H3.203C2.54 10 2 9.46 2 8.797V6.203C2 5.54 2.54 5 3.203 5zm0 1.111H3.203a.095.095 0 00-.092.092v2.594c0 .049.043.092.092.092h2.594a.095.095 0 00.092-.092V6.203a.095.095 0 00-.092-.092z" fill="#d5d5d5"/></svg>