<svg width="24" height="24" xmlns="http://www.w3.org/2000/svg"><path d="M24 4v17H0V4h24zm-1.2 1.214h-6.496A8.517 8.517 0 0120.4 12.5a8.517 8.517 0 01-4.096 7.286H22.8V5.214zm-10.8 0c-3.97 0-7.2 3.268-7.2 7.286s3.23 7.286 7.2 7.286 7.2-3.268 7.2-7.286-3.23-7.286-7.2-7.286zm-4.304 0H1.2v14.572h6.496A8.517 8.517 0 013.6 12.5a8.517 8.517 0 014.096-7.286zM12.6 6.95v1.669c1.253.225 2.194 1.132 2.194 2.217v.277h-1.2v-.277c0-.574-.73-1.059-1.595-1.059-.864 0-1.593.485-1.593 1.06 0 .231 0 .85 1.666 1.06 1.806.229 2.722.993 2.722 2.269 0 1.085-.941 1.992-2.194 2.217v1.668h-1.2v-1.668c-1.253-.223-2.194-1.13-2.194-2.217v-.277h1.2v.277c0 .574.729 1.059 1.593 1.059.865 0 1.595-.485 1.595-1.06 0-.231 0-.85-1.672-1.064-1.776-.224-2.716-1.007-2.716-2.265 0-1.085.941-1.994 2.194-2.217V6.949h1.2z" fill="#012169"/></svg>