<svg width="24px" height="24px" viewBox="0 0 24 24" version="1.1" xmlns="http://www.w3.org/2000/svg" xmlns:xlink="http://www.w3.org/1999/xlink">
    <title>icon/control/chat</title>
    <g id="icon/control/chat" stroke="none" stroke-width="1" fill="none" fill-rule="evenodd">
        <rect id="bounding-box" fill="#000000" x="0" y="0" width="24" height="24"></rect>
        <path fill="#FFFFFF" d="M5.934,21 L6.218,16.811 C3.57,15.382 2,13.082 2,10.6 C2,6.411 6.487,3 12,3 C17.513,3 22,6.411 22,10.6 C22,14.789 17.515,18.2 12,18.2 C11.4731289,18.1985359 10.9468307,18.1651414 10.424,18.1 L5.934,21 Z M12,5 C7.58933333,5 4,7.5548186 4,10.6907873 C4,12.5730583 5.31644444,14.3346156 7.52266667,15.4046561 L7.78933333,15.5331299 L7.61155556,18 L10.3893333,16.2643099 L10.5511111,16.2858659 C11.0311899,16.3512348 11.5152242,16.3855129 12,16.3884725 C16.4106667,16.3884725 20,13.8336539 20,10.6976852 C20,7.56171652 16.4115556,5 12,5 Z" id="icon"></path>
    </g>
</svg>