<svg width="24px" height="24px" xmlns="http://www.w3.org/2000/svg"><path d="M14.3552124,2 C15.4213991,2 16.2857143,2.78790468 16.2857143,3.75983437 L16.285,5.809 L20.0694981,5.80952381 C21.084914,5.80952381 21.9172265,6.52417658 21.9941918,7.43182816 L22,7.56935818 L22,20.2401656 C22,21.2120953 21.1356848,22 20.0694981,22 L9.64478764,22 C8.57860087,22 7.71428571,21.2120953 7.71428571,20.2401656 L7.714,18.19 L3.93050193,18.1904762 C2.91508595,18.1904762 2.08277349,17.4758234 2.00580816,16.5681718 L2,16.4306418 L2,3.75983437 C2,2.78790468 2.86431515,2 3.93050193,2 L14.3552124,2 Z M9.61904762,20.0952381 L20.0952381,20.0952381 L20.0952381,7.71428571 L9.61904762,7.71428571 L9.61904762,20.0952381 Z M14.3809524,3.9047619 L3.9047619,3.9047619 L3.9047619,16.2857143 L7.714,16.285 L7.71428571,7.56935818 C7.71428571,6.64371086 8.49824504,5.88497964 9.49392006,5.8148185 L9.64478764,5.80952381 L14.38,5.809 L14.3809524,3.9047619 Z" fill="#646464"></path></svg>