<?xml version="1.0" encoding="UTF-8"?>
<svg width="24px" height="24px"  viewBox="0 0 24 24" version="1.1" xmlns="http://www.w3.org/2000/svg" xmlns:xlink="http://www.w3.org/1999/xlink">
    <title>355952DA-7F59-43AB-9BF4-6ACB27275279</title>
    <defs>
        <path d="M20.0330001,7.06591888 C21.1172885,7.06591888 22,7.94863042 22,9.0329188 L22,18.4858977 C22,19.5701861 21.1172885,20.4528977 20.0330001,20.4528977 L6.96139153,20.4528977 C5.87710315,20.4528977 4.99439161,19.5701861 4.99439161,18.4858977 L4.99439161,9.0329188 C4.99439161,7.94863042 5.87710315,7.06591888 6.96139153,7.06591888 L20.0330001,7.06591888 Z M20.0330001,8.69153865 L6.96139153,8.69153865 C6.77607088,8.69153865 6.62001138,8.84759815 6.62001138,9.0329188 L6.62001138,18.4858977 C6.62001138,18.6712184 6.77607088,18.8272779 6.96139153,18.8272779 L20.0330001,18.8272779 C20.2199464,18.8272779 20.3743802,18.6712184 20.3743802,18.4858977 L20.3743802,9.0329188 C20.3743802,8.84759815 20.2199464,8.69153865 20.0330001,8.69153865 Z M17.0386085,4 C17.8140291,4 18.5195481,4.46005039 18.8365439,5.17044623 L17.3539787,5.8336991 C17.297082,5.70852638 17.1719093,5.62561977 17.0386085,5.62561977 L3.96699992,5.62561977 C3.78167927,5.62561977 3.62561977,5.78330488 3.62561977,5.96699992 L3.62561977,15.4199789 C3.62561977,15.6052995 3.78167927,15.761359 3.96699992,15.761359 L3.96699992,17.3869788 C2.88271153,17.3869788 2,16.5042673 2,15.4199789 L2,5.96699992 C2,4.88271153 2.88271153,4 3.96699992,4 L17.0386085,4 Z M18.0952613,14.5714053 L18.0952613,16.1970251 L8.79509063,16.1970251 L8.79509063,14.5714053 L18.0952613,14.5714053 Z M18.0952613,10.8341055 L18.0952613,12.4597253 L8.79509063,12.4597253 L8.79509063,10.8341055 L18.0952613,10.8341055 Z" id="path-1"></path>
    </defs>
    <g id="Icons" stroke="none" stroke-width="1" fill="none" fill-rule="evenodd">
        <g id="icon/control/dashboard">
            <rect id="bounding-box" fill-opacity="0" fill="#FFFFFF" x="0" y="0" width="24" height="24"></rect>
            <mask id="mask-2" fill="white">
                <use xlink:href="#path-1"></use>
            </mask>
            <use id="icon" fill="#0053c2" xlink:href="#path-1"></use>
        </g>
    </g>
</svg>