<svg width="24" height="24" viewBox="0 0 24 24"  xmlns="http://www.w3.org/2000/svg">
<path fill="#646464" d="M12 0C18.6274 0 24 5.37258 24 12C24 18.6274 18.6274 24 12 24C5.37258 24 0 18.6274 0 12C0 5.37258 5.37258 0 12 0ZM19.8447 12.9404C16.7451 13.0137 11.8944 13.9289 8.41016 15.4893C8.71443 16.2628 8.96847 16.9446 9.26562 17.8438C14.7102 15.7403 18.0696 15.0223 20.876 14.626C20.8389 14.5562 20.8012 14.4869 20.7637 14.4189C20.6053 14.1464 20.448 13.8799 20.293 13.6221C20.0628 13.2547 19.8837 12.996 19.8447 12.9404ZM17.3438 9.2793C14.5236 9.16008 10.0314 9.59672 6.38184 11.0322C6.64156 11.5248 6.97452 12.187 7.3457 12.9922C12.4233 11.366 15.2798 10.8999 18.458 10.791C17.8336 9.87043 17.4556 9.41024 17.3438 9.2793ZM14.7256 6.30078C12.2366 6.12971 8.00145 6.26342 4.32031 7.44043C4.84292 8.2305 4.82061 8.24406 5.28125 8.99805C9.16151 7.78679 12.7608 7.49239 15.8906 7.50098C15.4574 7.01973 15.0667 6.62311 14.7256 6.30078Z" />
</svg>
