<svg width="24" height="23" viewBox="0 0 24 23"  xmlns="http://www.w3.org/2000/svg">
<path fill="#d5d5d5" d="M11.3984 0C17.6833 9.539e-05 22.7969 5.13641 22.7969 11.4492C22.7968 13.1169 22.4302 14.779 21.7334 16.2822C22.102 17.3644 22.6133 18.3895 23.2568 19.334L23.2715 19.3564L23.2803 19.3701L24 20.5049L22.7178 20.8945C21.6796 21.209 20.5996 21.3682 19.5098 21.3682C18.8085 21.3681 18.1082 21.3017 17.4219 21.1699C15.6158 22.3019 13.5428 22.8974 11.3984 22.8975C5.11359 22.8975 0.000178102 17.7619 0 11.4492C0 5.13635 5.11348 0 11.3984 0ZM6 10.0176C5.07237 10.0177 4.32043 10.7656 4.32031 11.6875C4.32047 12.6094 5.0724 13.3563 6 13.3564C6.92759 13.3563 7.68051 12.6094 7.68066 11.6875C7.68055 10.7656 6.92762 10.0178 6 10.0176ZM11.7607 10.0176C10.833 10.0176 10.0802 10.7655 10.0801 11.6875C10.0802 12.6095 10.833 13.3564 11.7607 13.3564C12.6881 13.356 13.4403 12.6092 13.4404 11.6875C13.4403 10.7657 12.6882 10.018 11.7607 10.0176ZM17.5205 10.0176C16.5927 10.0176 15.84 10.7655 15.8398 11.6875C15.84 12.6095 16.5928 13.3564 17.5205 13.3564C18.448 13.3562 19.2 12.6093 19.2002 11.6875C19.2001 10.7657 18.448 10.0179 17.5205 10.0176Z" />
</svg>
