<svg width="24" height="24" xmlns="http://www.w3.org/2000/svg"><path d="M12 2c5.523 0 10 4.477 10 10s-4.477 10-10 10S2 17.523 2 12 6.477 2 12 2zm3.107 5.047H9.529l-.574 5.058 1.572.39c.068-.068.142-.135.222-.202.08-.066.172-.124.277-.174.105-.05.224-.091.359-.123.134-.032.293-.048.475-.048.273 0 .51.042.71.127.201.084.368.203.5.355.132.153.23.337.294.554.064.216.095.454.095.714 0 .26-.026.503-.078.728a1.72 1.72 0 01-.246.585 1.22 1.22 0 01-.43.39 1.318 1.318 0 01-.64.143c-.401 0-.726-.115-.974-.345-.213-.198-.35-.463-.41-.795l-.024-.173H8.702c.013.46.116.87.307 1.23a2.9 2.9 0 00.752.914c.31.248.666.437 1.067.567.4.13.815.195 1.244.195.57 0 1.065-.091 1.487-.274a3.012 3.012 0 001.049-.731c.278-.306.485-.659.622-1.06.137-.4.205-.822.205-1.264 0-.524-.068-.994-.205-1.409a2.897 2.897 0 00-.595-1.052 2.57 2.57 0 00-.953-.66 3.383 3.383 0 00-1.282-.229c-.164 0-.323.013-.475.038a3.428 3.428 0 00-.77.218 4.118 4.118 0 00-.178.082l-.074.038.246-2.14h3.958V7.047z" fill="#c41230"/></svg>