<svg width="24px" height="24px" viewBox="0 0 24 24" version="1.1" xmlns="http://www.w3.org/2000/svg" xmlns:xlink="http://www.w3.org/1999/xlink">
    <title>ED5402B8-6125-4710-8D47-E486B4C02B91</title>
    <g id="Tokens" stroke="none" stroke-width="1" fill="none" fill-rule="evenodd">
        <g id="design-tokens---iconography" transform="translate(-428.000000, -3947.000000)">
            <rect fill="#FFFFFF" x="0" y="0" width="1600" height="6270"></rect>
            <g id="control-icons" transform="translate(0.000000, 2770.000000)">
                <g id="icons" transform="translate(43.000000, 673.000000)">
                    <g id="Group-6" transform="translate(0.000000, 229.000000)">
                        <g id="web/icon/control/flag-inactive" transform="translate(385.000000, 275.000000)">
                            <rect id="bounding-box" fill-opacity="0" fill="#FFFFFF" x="0" y="0" width="24" height="24"></rect>
                            <path d="M4.90909091,2 C5.37530531,2 5.75955196,2.35094563 5.8120657,2.8030717 L5.81818182,2.90909091 L5.818,3.961 L20.2841708,3.96178089 L15.6752396,8.96181818 L20.2841708,13.9617809 L5.818,13.961 L5.81818182,21.0909091 C5.81818182,21.5929861 5.41116795,22 4.90909091,22 C4.44287651,22 4.05862985,21.6490544 4.00611612,21.1969283 L4,21.0909091 L4,2.90909091 C4,2.40701386 4.40701386,2 4.90909091,2 Z M5.818,12.143 L16.1361486,12.1427273 L13.2039278,8.96178089 L16.1370577,5.77909091 L5.818,5.779 L5.818,12.143 Z" id="icon" fill="#012169"></path>
                        </g>
                    </g>
                </g>
            </g>
        </g>
    </g>
</svg>