<svg width="24" height="24" xmlns="http://www.w3.org/2000/svg"><path d="M12 2C6.477 2 2 6.477 2 12s4.477 10 10 10 10-4.477 10-10A10 10 0 0012 2zm.723 13.285c.187.186.288.45.276.722a1 1 0 01-.268.715.99.99 0 01-.727.277.976.976 0 01-.727-.277.998.998 0 01-.277-.715.971.971 0 01.285-.722 1.05 1.05 0 011.438 0zM12 7c2.5 0 3 1.75 3 2.5 0 1.5-.834 1.886-1.531 2.503-.698.616-.969.683-.969 1.997H11c0-4 2.5-2.748 2.5-4 0-.5-.104-1.5-1.496-1.5-1.393 0-1.504 1-1.504 1.5H9c0-1.471.5-3 3-3z" fill="#0053c2"/></svg>