<svg xmlns="http://www.w3.org/2000/svg" xmlns:xlink="http://www.w3.org/1999/xlink" width="24px" height="24px" viewBox="0 0 24 24" version="1.1"><path xmlns="http://www.w3.org/2000/svg" d="M15.135378,19.3627841 L15.9193573,21.2027235 C14.7158,21.7159637 13.3910701,22 12,22 L12,20 C13.0940099,20 14.1538762,19.7814175 15.135378,19.3627841 Z M7.18848745,18.3920648 C8.04736594,19.0398472 9.02721022,19.5087045 10.074563,19.7672546 L9.59558947,21.7090539 C8.26738818,21.3812257 7.04373848,20.7879731 5.98413727,19.9887929 L7.18848745,18.3920648 Z M19.1545449,15.5843244 L20.9419042,16.4817355 C20.3349537,17.6903521 19.4901742,18.7589227 18.4689782,19.6260351 L17.1746125,18.1013655 C17.9964467,17.4035002 18.6713023,16.5465548 19.1545449,15.5843244 Z M4.18717135,13.7302563 C4.419358,14.7846122 4.86326,15.7753699 5.48901116,16.6496662 L3.86298177,17.8141526 C3.09140374,16.7362379 2.52868888,15.4986285 2.23399237,14.1604794 L4.18717135,13.7302563 Z M21.7166263,9.62648194 C21.9018282,10.3872975 22,11.1821841 22,12 C22,12.5550338 21.9547817,13.0995063 21.8678279,13.6299346 L19.8941786,13.306348 C19.9632911,12.8847392 19.9988606,12.4554896 19.9999665,12.0260816 C19.9999932,11.3546381 19.9239502,10.7179983 19.7733031,10.0992344 L21.7166263,9.62648194 Z M4.8985414,8.31187163 C4.40426016,9.26118075 4.10510625,10.3018439 4.02311327,11.3860432 L2.02883247,11.2349002 C2.13317968,9.85569889 2.51729273,8.55462569 3.12456521,7.38828704 L4.8985414,8.31187163 Z M17.8302294,3.87451364 C18.9212089,4.65870269 19.8478128,5.65717909 20.5484365,6.80833819 L18.8401115,7.84835065 C18.2800435,6.92806849 17.5380654,6.12755099 16.6628347,5.49845628 L17.8302294,3.87451364 Z M9.02906678,4.56924485 C8.02935469,4.96939745 7.12010189,5.56967375 6.35607995,6.33024083 L4.94495292,4.91294745 C5.89131321,3.97083435 7.0252827,3.21701892 8.28592814,2.71243442 L9.02906678,4.56924485 Z M12,2 C13.123291,2 14.2033243,2.18520826 15.2112286,2.52675349 L14.5694644,4.42099176 C13.7592814,4.14643368 12.9052672,4.0031818 12.0360592,4.00006514 C11.7934852,4.0000123 11.5841755,4.00780098 11.3731941,4.02409531 L11.2189335,2.03005325 C11.4766738,2.01014105 11.7371526,2 12,2 Z" id="dot" fill="#c41230"></path></svg>