<svg width="24" height="24" xmlns="http://www.w3.org/2000/svg"><path d="M13.245 2c1.615.005 2.002.02 2.878.06 1.064.048 1.791.217 2.427.464a4.902 4.902 0 011.772 1.154 4.902 4.902 0 011.153 1.771c.247.636.416 1.363.465 2.428.049 1.066.06 1.407.06 4.123v.282c0 2.459-.013 2.812-.06 3.84-.049 1.065-.218 1.792-.465 2.428a4.902 4.902 0 01-1.153 1.772 4.902 4.902 0 01-1.772 1.153c-.636.247-1.363.416-2.427.465-1.067.049-1.407.06-4.123.06h-.282c-2.46 0-2.813-.013-3.841-.06-1.065-.049-1.792-.218-2.428-.465a4.902 4.902 0 01-1.771-1.153 4.902 4.902 0 01-1.154-1.772c-.247-.636-.416-1.363-.464-2.427-.04-.876-.055-1.263-.06-2.878v-2.49c.005-1.616.02-2.002.06-2.878.048-1.065.217-1.792.464-2.428a4.902 4.902 0 011.154-1.771 4.902 4.902 0 011.771-1.154c.636-.247 1.363-.416 2.428-.464.876-.04 1.262-.055 2.877-.06zm-.203 1.802h-2.084c-1.738.003-2.101.017-3 .058-.974.044-1.504.207-1.856.344-.467.181-.8.398-1.15.748-.35.35-.567.683-.748 1.15-.137.352-.3.882-.344 1.857-.041.898-.055 1.26-.058 2.999v2.084c.003 1.738.017 2.1.058 2.999.044.975.207 1.504.344 1.857.181.466.398.8.748 1.15.35.35.683.566 1.15.748.352.137.882.3 1.857.344.976.045 1.32.057 3.485.058h1.112c2.165-.001 2.509-.013 3.485-.058.975-.044 1.504-.207 1.857-.344.466-.182.8-.398 1.15-.748.35-.35.566-.684.748-1.15.137-.353.3-.882.344-1.857.045-.977.057-1.32.058-3.485v-1.112c-.001-2.165-.013-2.509-.058-3.485-.044-.975-.207-1.505-.344-1.857a3.098 3.098 0 00-.748-1.15 3.098 3.098 0 00-1.15-.748c-.353-.137-.882-.3-1.857-.344-.899-.041-1.261-.055-3-.058zM12 6.864a5.135 5.135 0 110 10.271 5.135 5.135 0 010-10.27zm0 1.802a3.333 3.333 0 100 6.667 3.333 3.333 0 000-6.667zm5.338-3.205a1.2 1.2 0 110 2.4 1.2 1.2 0 010-2.4z" fill="#0053c2"/></svg>