<svg width="24" height="24" xmlns="http://www.w3.org/2000/svg"><path d="M12 2c5.523 0 10 4.477 10 10s-4.477 10-10 10S2 17.523 2 12 6.477 2 12 2zm0 2a8 8 0 100 16 8 8 0 000-16zm-.085 2.91c.51 0 .974.098 1.39.294a3.02 3.02 0 011.064.827c.291.356.517.783.676 1.282.16.499.24 1.052.24 1.658v.69l-.007.345a7.158 7.158 0 01-.308 1.88 4.654 4.654 0 01-.947 1.716c-.421.476-.949.844-1.582 1.104-.634.26-1.376.39-2.229.39h-.157v-1.648h.137l.293-.006a4.35 4.35 0 001.013-.154c.369-.107.68-.264.933-.469.253-.205.449-.458.588-.758.139-.301.226-.648.263-1.04-.237.233-.51.417-.817.554a2.405 2.405 0 01-.988.205c-.47 0-.885-.085-1.248-.256a2.607 2.607 0 01-.912-.704 3.055 3.055 0 01-.557-1.06 4.507 4.507 0 01-.188-1.33c0-.482.078-.937.236-1.363.157-.426.38-.799.67-1.118.289-.319.64-.572 1.052-.759.413-.186.874-.28 1.385-.28zM11.9 8.503a1.06 1.06 0 00-.581.16c-.169.108-.311.25-.427.428-.117.178-.204.38-.264.608-.059.228-.088.465-.088.711 0 .255.03.495.088.718.06.223.147.42.264.591.116.171.263.306.44.404.178.098.388.147.63.147.318 0 .593-.082.823-.247.23-.164.405-.362.523-.594v-.814l-.004-.208a3.349 3.349 0 00-.102-.721 1.983 1.983 0 00-.297-.66 1.258 1.258 0 00-.448-.393 1.215 1.215 0 00-.557-.13z" fill="#c41230"/></svg>