<svg width="24" height="24" xmlns="http://www.w3.org/2000/svg"><path d="M12 2c5.523 0 10 4.477 10 10s-4.477 10-10 10S2 17.523 2 12 6.477 2 12 2zm-.085 4.91c-.51 0-.972.094-1.385.28-.412.187-.763.44-1.052.76-.29.318-.513.69-.67 1.117-.158.426-.236.88-.236 1.364 0 .478.062.921.188 1.33.125.407.31.76.557 1.059.246.298.55.533.912.704.363.17.779.256 1.248.256.351 0 .68-.068.988-.205.307-.137.58-.321.817-.554a3.162 3.162 0 01-.263 1.04c-.14.3-.335.553-.588.758a2.622 2.622 0 01-.933.469 4.35 4.35 0 01-1.013.154l-.293.006h-.137v1.648h.157c.853 0 1.595-.13 2.229-.39a4.208 4.208 0 001.582-1.104 4.654 4.654 0 00.947-1.716c.18-.572.283-1.199.308-1.88l.007-.345v-.69c0-.606-.08-1.159-.24-1.658a3.838 3.838 0 00-.676-1.282 3.02 3.02 0 00-1.063-.827 3.23 3.23 0 00-1.391-.294zM11.9 8.503c.2 0 .386.043.557.13.17.086.32.217.448.393.127.175.226.395.297.66.057.211.09.452.102.721l.004.208v.814c-.118.232-.293.43-.523.594-.23.165-.505.247-.824.247-.241 0-.45-.05-.629-.147a1.266 1.266 0 01-.44-.404 1.916 1.916 0 01-.264-.591 2.79 2.79 0 01-.088-.718c0-.246.03-.483.088-.71.06-.229.147-.431.264-.61.116-.177.258-.32.427-.426a1.06 1.06 0 01.58-.161z" fill="#012169"/></svg>