<svg width="24" height="24" xmlns="http://www.w3.org/2000/svg"><path d="M18.08 13.716a1.61 1.61 0 00-1.08-.47h-.05a1.59 1.59 0 00-1.15.48l-1.53 1.54a7 7 0 01-1.69-1.18 22.12 22.12 0 01-3-3 3.55 3.55 0 01-.75-1.16l1.5-1.6a1.65 1.65 0 00.21-2.05l-.21-.27-3.54-3.53a1.64 1.64 0 00-2.31 0l-1.66 1.69C1.6 5.706.91 10.276 7 16.536c4.47 4.52 7.88 5.47 10 5.47a4.24 4.24 0 002.93-1l1.58-1.58a1.64 1.64 0 00.19-2.09l-.18-.21-3.44-3.41zm.5 6a2.72 2.72 0 01-1.58.39c-1.41 0-4.39-.64-8.57-4.91-5.43-5.47-4.79-9.01-4.19-9.77l1.4-1.42 3.15 3.15c-.89.9-1.25 1.25-1.4 1.42-1.31 1.31 0 3 .62 3.7a24.1 24.1 0 003.32 3.3c1.43 1.16 2.91 2.36 4.18 1.09l1.38-1.4 3.11 3.04-1.42 1.41z" fill="#fff"/></svg>