<svg width="24" height="24" xmlns="http://www.w3.org/2000/svg"><path d="M19.62 2.786l-.32 4.556c1.266 1.008 2.17 2.246 2.637 3.612l2.063.46-.025 4.335-2.436.442c-.691 1.339-1.842 2.524-3.298 3.401l1.283 2.158L15.516 24l-1.714-2.878c-.616.084-1.254.11-1.858.124a13.184 13.184 0 01-1.858-.146L8.34 23.958l-3.982-2.297 1.308-2.14c-2.31-1.426-3.73-3.552-3.942-5.86-.337-.017-.735-.1-1.077-.37-.298-.232-.652-.688-.647-1.537l1.2.007c-.001.296.062.496.19.597.09.07.216.096.338.108.235-2.545 1.927-4.852 4.658-6.246l.548 1.057c-2.523 1.29-4.04 3.44-4.053 5.755-.012 2.283 1.445 4.434 3.899 5.755l.553.298-1.316 2.157 1.908 1.1 1.56-2.555.408.075c.678.124 1.369.19 2.058.194a12.528 12.528 0 002.06-.17l.408-.07 1.53 2.572 1.92-1.077-1.29-2.172.556-.292c1.587-.831 2.814-2.05 3.451-3.434l.13-.282 2.064-.374.015-2.392-1.808-.404-.097-.341c-.382-1.342-1.271-2.562-2.57-3.527l-.261-.194.204-2.916-2.793 1.664-.253-.074a10.83 10.83 0 00-.905-.225l.242-1.165c.253.052.502.11.746.177l4.32-2.574zm-3.143 6.962l1.2.007-.008 1.681-1.2-.007.008-1.681zM10.61 0c2.066.05 3.707 1.763 3.657 3.819a3.682 3.682 0 01-1.277 2.7l-.186.163-.247-.016a10.55 10.55 0 00-3.397.364l-.237.065-.215-.12a3.706 3.706 0 01-.776-5.946A3.782 3.782 0 0110.61 0zm-.062 1.19h-.031c-.657 0-1.278.247-1.755.7a2.517 2.517 0 00.333 3.927 11.998 11.998 0 013.27-.35c.439-.459.686-1.046.702-1.677a2.546 2.546 0 00-2.487-2.6h-.063z"/></svg>