<svg width="24" height="24" xmlns="http://www.w3.org/2000/svg"><path d="M12 2a10 10 0 00-4.014 19.16c-.028-.699-.005-1.537.174-2.297l1.287-5.449s-.32-.638-.32-1.582c0-1.482.86-2.589 1.929-2.589.91 0 1.349.683 1.349 1.501 0 .915-.583 2.283-.883 3.55-.25 1.06.532 1.925 1.578 1.925 1.895 0 3.17-2.433 3.17-5.316 0-2.192-1.475-3.833-4.16-3.833-3.034 0-4.923 2.263-4.923 4.79 0 .87.256 1.485.659 1.96.185.22.21.307.143.558l-.203.803c-.067.253-.272.343-.5.25-1.398-.57-2.049-2.1-2.049-3.82 0-2.841 2.396-6.247 7.147-6.247 3.818 0 6.331 2.762 6.331 5.728 0 3.923-2.18 6.854-5.396 6.854-1.08 0-2.095-.584-2.443-1.247 0 0-.58 2.304-.703 2.75-.212.77-.627 1.54-1.007 2.141.9.266 1.85.41 2.834.41 5.523 0 10-4.477 10-10S17.523 2 12 2" fill="#919191"/></svg>