<svg width="24" height="24" xmlns="http://www.w3.org/2000/svg"><path d="M12 2c5.523 0 10 4.477 10 10s-4.477 10-10 10S2 17.523 2 12 6.477 2 12 2zm0 2a8 8 0 100 16 8 8 0 000-16zm2.023 2.944v1.627h-.116l-.276.008c-.36.019-.69.077-.988.173-.374.121-.697.293-.968.517-.27.223-.49.494-.656.813a3.269 3.269 0 00-.332 1.073c.242-.246.53-.443.865-.591a2.805 2.805 0 011.145-.222c.47 0 .881.09 1.234.27.353.18.648.424.885.731.237.308.415.666.534 1.074.118.407.177.841.177 1.302 0 .483-.078.933-.235 1.35a3.165 3.165 0 01-.674 1.083 3.141 3.141 0 01-1.056.722 3.503 3.503 0 01-1.384.263 3.51 3.51 0 01-1.45-.29 3.144 3.144 0 01-1.103-.814 3.721 3.721 0 01-.705-1.251 4.918 4.918 0 01-.25-1.603v-.766l.008-.34c.028-.67.14-1.294.335-1.868.228-.67.558-1.246.99-1.73a4.461 4.461 0 011.594-1.127c.629-.27 1.344-.404 2.146-.404h.28zm-1.927 4.984a1.555 1.555 0 00-1.227.564 1.494 1.494 0 00-.223.352v.594l.005.206c.012.267.047.506.105.717.073.265.174.485.304.66.13.175.287.306.472.393.184.087.386.13.605.13.214 0 .409-.046.584-.137a1.34 1.34 0 00.448-.376c.123-.16.219-.35.287-.57a2.43 2.43 0 00.103-.722c0-.264-.033-.507-.1-.728a1.705 1.705 0 00-.29-.574 1.334 1.334 0 00-.461-.376 1.364 1.364 0 00-.612-.133z" fill="#919191"/></svg>