<svg width="24" height="24" xmlns="http://www.w3.org/2000/svg"><path d="M12 2c5.523 0 10 4.477 10 10s-4.477 10-10 10S2 17.523 2 12 6.477 2 12 2zm0 2a8 8 0 100 16 8 8 0 000-16zm-.079 2.91c.524 0 .988.065 1.392.195.403.13.741.316 1.015.557.273.242.48.538.622.889.141.35.212.745.212 1.182 0 .333-.053.654-.158.964-.104.31-.253.62-.444.93-.191.31-.423.623-.694.94-.27.317-.573.646-.906.988l-1.756 1.852h4.279V17H8.66v-1.354l3.22-3.431.173-.194c.168-.19.313-.367.438-.53.167-.22.301-.42.404-.602.102-.183.175-.352.218-.51a1.71 1.71 0 00.065-.454c0-.442-.111-.79-.335-1.043-.223-.253-.542-.38-.957-.38-.232 0-.438.043-.618.127-.18.085-.33.2-.452.349-.12.148-.213.325-.276.53a2.245 2.245 0 00-.096.67H8.462l.01-.265c.025-.35.102-.683.23-1 .16-.396.39-.743.69-1.039.3-.296.664-.53 1.09-.704.427-.173.906-.26 1.44-.26z" fill="#012169"/></svg>