<svg width="24px" height="24px" xmlns="http://www.w3.org/2000/svg"><path d="M12,2 L12,22 L6.52,16.64 L2,16.64 L2,7.36 L6.52,7.37 L12,2 Z M14.14,2 C17.9970744,2.7404631 21.0193001,5.74686562 21.78,9.6 L21.78,9.6 L21.78,9.72 C21.8486974,10.0170647 21.902101,10.31746 21.94,10.62 L21.94,10.62 L21.94,10.88 C22,11.23 22,11.58 22,11.94 L22,11.94 L22,12 L21.94,12 L21.94,12.08 C21.94,12.44 21.88,12.79 21.88,13.14 L21.88,13.14 L21.88,13.4 C21.842101,13.70254 21.7886974,14.0029353 21.72,14.3 L21.72,14.3 L21.72,14.42 L21.6593565,14.7055053 C20.8170278,18.3961821 17.8812037,21.2609571 14.15,22 L14.15,22 L14,22 L14,20 C17.0797838,19.3080933 19.4211799,16.8000216 19.9,13.68 C19.94,13.47 20,13.25 20,13.04 C20.0049086,12.9734237 20.0049086,12.9065763 20,12.84 C20.0151977,12.5868946 20.0151977,12.3331054 20,12.08 L20,12.08 L20,12 C20,12 19.93,11.9 19.93,11.9 C19.9451977,11.6468946 19.9451977,11.3931054 19.93,11.14 C19.9349086,11.0734237 19.9349086,11.0065763 19.93,10.94 C19.9,10.73 19.83,10.51 19.83,10.3 C19.3536841,7.20738729 17.0464844,4.71418693 14,4 L14,4 L14,2 L14.14,2 Z M14,6.17 C16.1462422,6.76366653 17.7605691,8.53748114 18.15,10.73 L18.15,10.73 L18.15,10.88 C18.1547868,10.9766074 18.1547868,11.0733926 18.15,11.17 C18.1934667,11.4513141 18.2168591,11.7353649 18.22,12.02 L18.22,12.02 L18.2101152,12.3043606 C18.1990337,12.4936982 18.1789778,12.6824572 18.15,12.87 C18.1547868,12.9666074 18.1547868,13.0633926 18.15,13.16 L18.15,13.16 L18.15,13.31 L18.1021902,13.5416232 C17.6308492,15.611095 16.0586699,17.2635942 14,17.83 L14,17.83 L14,15.73 C15.1614403,15.1913454 15.9813191,14.1131487 16.19,12.85 C16.2190971,12.7582029 16.2424752,12.6646902 16.26,12.57 C16.3133498,12.1918725 16.3133498,11.8081275 16.26,11.43 C16.2490509,11.3357355 16.2323532,11.242228 16.21,11.15 C15.9972175,9.88260435 15.1691609,8.80350804 14,8.27 L14,8.27 L14,6.17 Z M10,6.77 L7.33,9.37 L4,9.37 L4,14.63 L7.33,14.63 L10,17.23 L10,6.77 Z" fill="#646464"></path></svg>