<?xml version="1.0" encoding="utf-8"?>
<svg width="24" height="24" viewBox="0 0 24 24" xmlns="http://www.w3.org/2000/svg">
  <g fill="none" fill-rule="evenodd">
    <path d="M0 0h24v24H0z"/>
    <path d="M13.929 22.8c.335 0 .607.269.607.6 0 .331-.272.6-.607.6H9.07a.604.604 0 0 1-.607-.6c0-.331.272-.6.607-.6h4.858zm.91-2.4c.335 0 .607.269.607.6 0 .331-.272.6-.607.6H8.161a.604.604 0 0 1-.607-.6c0-.331.272-.6.607-.6h6.678zM11.5 0C16.425 0 20 3.26 20 7.753c0 2.37-1.047 3.564-1.97 4.617-.897 1.023-1.673 1.908-1.673 3.83 0 1.268-.197 1.975-.679 2.442-.513.497-1.219.586-2.21.586-.252 0-.523-.006-.813-.012a64.366 64.366 0 0 0-2.358 0c-1.428.028-2.37.049-2.994-.557-.58-.562-.66-1.513-.66-2.459 0-1.922-.776-2.807-1.673-3.83C4.047 11.317 3 10.123 3 7.753 3 3.26 6.575 0 11.5 0zm0 1.2c-4.222 0-7.286 2.756-7.286 6.553 0 1.923.776 2.807 1.674 3.83.922 1.054 1.97 2.247 1.97 4.617 0 .886.096 1.409.295 1.602.26.252 1.042.236 2.118.214.368-.008.776-.016 1.229-.016.431 0 .823.008 1.18.016 1.082.02 1.868.038 2.148-.232.213-.204.315-.722.315-1.584 0-2.37 1.047-3.563 1.97-4.616.897-1.024 1.673-1.908 1.673-3.83 0-3.798-3.064-6.554-7.286-6.554z" fill="#E31837"/>
  </g>
</svg>