<?xml version="1.0" encoding="utf-8"?>
<svg width="24" height="24" viewBox="5 0 14 24" xmlns="http://www.w3.org/2000/svg">
  <path d="M16.551 0a2.446 2.446 0 0 1 2.447 2.44L19 21.557A2.448 2.448 0 0 1 16.553 24H7.445A2.445 2.445 0 0 1 5 21.56V2.445A2.448 2.448 0 0 1 7.445 0zm0 1.2H7.445c-.706 0-1.278.558-1.278 1.246v19.113c0 .684.572 1.241 1.278 1.241h9.108c.706 0 1.28-.558 1.28-1.244L17.831 2.44c0-.684-.574-1.241-1.28-1.241zm.116 1.2l.003 16.8H7.333V2.4h9.334zM15.5 3.6h-7V18h7.004L15.5 3.6z" fill="#E31837" fill-rule="evenodd"/>
</svg>