<svg xmlns="http://www.w3.org/2000/svg" viewBox="0 0 24 24"><defs><style>.cls-1{fill:none;}.cls-2{fill:#e31837;}</style></defs><title>bofa_icon_calendar2_186rgb</title><g id="ICON_ART" data-name="ICON ART"><rect class="cls-1" width="24" height="24"/><path class="cls-2" d="M15.132,9.315h-1v2.132H9.868V9.315h-1v2.132H4.632v1H8.868v3.211H4.632v1H8.868v2.131h1V16.658h4.264v2.131h1V16.658h4.236v-1H15.132V12.447h4.236v-1H15.132Zm-1,6.343H9.868V12.447h4.264Z"/><path class="cls-2" d="M17.236,3.021V1.947h-1V3.021l-8.472,0V1.947h-1V3.024l-5.264,0V20.868h21V3.019Zm-10.472,1v1.08h1V4.024l8.472,0V5.105h1V4.02H21.5V7.236H2.5V4.026ZM2.5,19.868V8.236h19V19.868Z"/></g></svg>