<svg xmlns="http://www.w3.org/2000/svg" viewBox="0 0 20 20" height="16" width="16">
    <title>icon</title>
    <path d="M1.947,2.236V17.764H18.053V2.236H1.947Zm13.22,1.144a0.934,0.934,0,1,1-.935.934A0.933,0.933,0,0,1,15.167,3.379Zm-10.333,0a0.934,0.934,0,1,1-.934.934A0.934,0.934,0,0,1,4.834,3.379ZM17,16.708H3.005V6.388H17V16.708Z" style="fill:#857465"/>
    <path d="M8.712,11.172A1.392,1.392,0,0,1,9.88,12.614a1.891,1.891,0,0,1-2.146,1.765,3.787,3.787,0,0,1-1.879-.429l0.324-.842a3.306,3.306,0,0,0,1.408.355,0.926,0.926,0,0,0,1.094-.785c0.016-.721-0.543-0.971-1.579-1v-0.77c1.068-.032,1.36-0.461,1.36-0.842a0.55,0.55,0,0,0-.648-0.518,2.974,2.974,0,0,0-1.5.445L6,9.181a3.955,3.955,0,0,1,1.845-.552c1.256,0,1.79.648,1.79,1.345a1.28,1.28,0,0,1-.924,1.175v0.023Z" style="fill:#857465"/>
    <path d="M12.407,9.764l-1.134.105V9.1l1.238-.364h1.029v5.57H12.407V9.764Z" style="fill:#857465"/>
</svg>
