<svg xmlns="http://www.w3.org/2000/svg" viewBox="0 0 319 363" width="319" height="363"><path fill="#aec076" d="M-.05 0h319v182h-319z"/><path fill="#8c9a3f" d="M0 182h319v181H0z"/><path fill="#73a0a1" d="M109.6 156.53h102.59v8.66H109.6z"/><path fill="#73a0a1" d="M209.87 156.74h-97.93V95.71l50.24-47.98 47.69 47.98v61.03z"/><path fill="#94bdc1" d="M148.13 71.78h11.08v12.21h-11.08zm14.48 0h11.08v12.21h-11.08zm-14.48 14.48h11.08v12.21h-11.08zm14.48 0h11.08v12.21h-11.08zm5.53 30.66h11.06v12.21h-11.06zm14.48 0h11.08v12.21h-11.08zm-14.48 14.47h11.06v12.21h-11.06zm14.48 0h11.08v12.21h-11.08zm-54.82-18.93h24.12v52.75H127.8z"/><path fill="#73a0a1" d="M182.93 63.13V48.65h19.3V81.5l-19.3-18.37z"/><path fill="#73a0a1" d="M218.25 106.22h11.92l-65.86-67h-5.1l-67.57 67h12.49l55.36-55.37h3.97l54.79 55.37z"/><path d="M153.62 200.89l-4.08-7.12-4-7-.22-.39-7.83-2.38-11.84-3.64a10.2 10.2 0 0 1-2.2-.74c-1.76-1.06-3.44-2.3-5.13-3.46l-.13-.1-3 3.17-1.19 1.18-17-17.17a7.82 7.82 0 0 1-.16-10.71 7.42 7.42 0 0 1 1.82-1.43c-.26-1.38-.46-2.77-.69-4.15l-2.1-12.72c-.41-2.43-.78-5-1.21-7.43a3.33 3.33 0 0 0-6.07-1.21 5.79 5.79 0 0 0-.52 3.16l-.11 11.43-.1 10.46a27.17 27.17 0 0 0 2.33 11.31l4.49 10c1.21 2.61 2.31 5.23 3.51 7.83a20.67 20.67 0 0 0 6.85 7.81c.6.38 1.21.73 1.8 1.09l9.62 5.85 10.29 6.27 2.43 1.48a5.67 5.67 0 0 1 2.55 4.37c.09 3.26.15 76.12.22 79.36s.13 6.55.22 9.83a3.46 3.46 0 0 0 .89 2.32 3.35 3.35 0 0 0 4.32.47c.06 1.3.12 2.59.17 3.89a2.06 2.06 0 0 0 .16 1.21 2.13 2.13 0 0 0 1 .55 10.93 10.93 0 0 0 1.7.41 61.43 61.43 0 0 0 9.62.64h3.23c.39 0 .43.09.43-.29v-5.26l.07-9.29c0-3.35 0-76.3.09-79.64v-9.28a1.21 1.21 0 0 0-.23-.68z" fill="#d0c8bf"/><path d="M152.59 301.21a5.83 5.83 0 0 1-5.57-6.07l.53-94.1a8.1 8.1 0 0 0-1.43-4l-7.29-8.42a9.43 9.43 0 0 0-4.13-2.33l-8.7-1.44a21.86 21.86 0 0 1-10.69-5.59l-17-17.17a6.13 6.13 0 0 1-.12-8.42 5.53 5.53 0 0 1 7.81-.37l.25.24 17 17.17a11.1 11.1 0 0 0 4.57 2.43l8.73 1.46a20.31 20.31 0 0 1 10.74 6.07l7.35 8.42a19.89 19.89 0 0 1 4.4 12.27l-.52 94.1a5.82 5.82 0 0 1-5.88 5.76zm15.6-100.32l4.08-7.12 4-7 .22-.39 7.82-2.43 11.84-3.64a10.2 10.2 0 0 0 2.2-.74c1.76-1.06 3.44-2.3 5.13-3.46l.13-.1 3 3.17 1.21 1.21 17-17.17a7.82 7.82 0 0 0 .16-10.71 7.42 7.42 0 0 0-1.82-1.43c.26-1.38.46-2.77.69-4.15l2.15-12.71c.41-2.43.78-5 1.21-7.43a3.33 3.33 0 0 1 6.07-1.21 5.79 5.79 0 0 1 .52 3.16l.11 11.43.1 10.46a27.17 27.17 0 0 1-2.33 11.31l-4.49 10c-1.21 2.61-2.31 5.23-3.51 7.83a20.65 20.65 0 0 1-6.84 7.81c-.6.38-1.21.73-1.8 1.09l-9.62 5.85-10.29 6.27-2.43 1.48a5.67 5.67 0 0 0-2.55 4.37c-.09 3.26-.15 76.12-.22 79.36s-.13 6.55-.22 9.83a3.46 3.46 0 0 1-.89 2.32 3.35 3.35 0 0 1-4.32.47c-.06 1.3-.12 2.59-.17 3.89a2.06 2.06 0 0 1-.16 1.21 2.13 2.13 0 0 1-1 .55 10.93 10.93 0 0 1-1.7.41 61.43 61.43 0 0 1-9.62.64h-3.23c-.39 0-.43.09-.43-.29v-5.26l-.07-9.29c0-3.35 0-76.3-.09-79.64v-9.28a1.21 1.21 0 0 1 .16-.67z" fill="#d0c8bf"/><path d="M169.23 301.21a5.83 5.83 0 0 0 5.57-6.07l-.53-94.1a8.1 8.1 0 0 1 1.43-4l7.29-8.42a9.42 9.42 0 0 1 4.13-2.33l8.73-1.46a21.86 21.86 0 0 0 10.69-5.59l17-17.17a6.13 6.13 0 0 0 .12-8.42 5.53 5.53 0 0 0-7.81-.37l-.25.24-17 17.17a11.1 11.1 0 0 1-4.57 2.43l-8.73 1.46a20.31 20.31 0 0 0-10.74 6.07l-7.35 8.42a19.89 19.89 0 0 0-4.4 12.27l.52 94.1a5.82 5.82 0 0 0 5.88 5.76z" fill="#d0c8bf"/></svg>