<svg id="Layer_1" xmlns="http://www.w3.org/2000/svg" viewBox="0 0 397 360" width="397" height="360"><defs><style>.cls-1{fill:#8c9a3f}.cls-2{fill:#768034}.cls-3{fill:#73a0a1}.cls-4{fill:#94bdc1}.cls-5{fill:#f9f7f4}.cls-6{fill:#bc3845}.cls-7{fill:#376479}</style></defs><path class="cls-1" d="M0 0h397v212H0z"/><path class="cls-2" d="M0 212h397v148H0z"/><path class="cls-3" transform="matrix(.08 -1 1 .08 69.48 321.19)" d="M149.7 5.58h117.43v234.89H149.7z"/><path class="cls-4" d="M250.49 126.3c-2.2 29.47-23 51.88-46.29 50.08s-40.2-27.2-37.9-56.67 23.05-51.88 46.29-50.16 40.22 27.29 37.91 56.75"/><path class="cls-3" d="M209.48 165.55l-7.56-.51.66-10.14a37.07 37.07 0 0 1-16.84-6l4.06-9.81c7.6 4.17 11.64 4.85 15.12 5.07 7 .46 10.34-2.2 10.67-7.19.88-13.09-27.24-10.34-25.85-30.86.6-9.28 6.24-17 17.26-17.94l.62-9.26 7.56.51-.6 8.95a39.36 39.36 0 0 1 13.67 4.41l-3.61 9.61a30.55 30.55 0 0 0-11.92-3.48c-5.47-.37-9.26 1.37-9.61 6.37-.79 11.73 27.93 9 26.45 31.34-.66 9.74-7.05 17.63-19.29 18.49l-.71 10.43"/><path class="cls-5" d="M199 185.6a36.26 36.26 0 1 1-13.87-28.55A36.26 36.26 0 0 1 199 185.6z"/><path class="cls-5" d="M193.07 185.6a30.33 30.33 0 1 1-11.6-23.86 30.33 30.33 0 0 1 11.6 23.86z"/><path class="cls-5" d="M183.46 185.6a20.72 20.72 0 1 1-7.93-16.31 20.72 20.72 0 0 1 7.93 16.31z"/><path class="cls-2" d="M162.74 164.88l-1.19 1.11v17.03l-20.24-17.5-1.61.17.07 1.62 22.2 19.18 1.95-.89v-19.61l-1.18-1.11z"/><path class="cls-2" d="M161.77 187.89l-23.16-20-.13-3.24 3.22-.34 18.67 16.14v-14.97l2.37-2.22 2.37 2.22v20.87zm1-21.38"/><path class="cls-5" d="M140.89 108.09A36.26 36.26 0 1 1 127 79.54a36.26 36.26 0 0 1 13.89 28.55z"/><path class="cls-5" d="M135 108.09a30.33 30.33 0 1 1-11.6-23.86 30.33 30.33 0 0 1 11.6 23.86z"/><path class="cls-5" d="M125.36 108.09a20.72 20.72 0 1 1-7.93-16.31 20.72 20.72 0 0 1 7.93 16.31z"/><path class="cls-6" d="M123.36 84.23l-1.61.15-15.94 20.3V88.5l-1.17-1.11-1.18 1.11v19.59l2.1.74 18.05-22.99-.25-1.61z"/><path class="cls-6" d="M105.98 110.23l-3.71-1.28V87.97l2.37-2.21 2.36 2.21v13.29l14.13-18.01 3.24-.3.49 3.21-18.88 24.07z"/><path class="cls-5" d="M340 84.7a36.26 36.26 0 1 1-13.87-28.55A36.26 36.26 0 0 1 340 84.7z"/><path class="cls-5" d="M334.1 84.7a30.33 30.33 0 1 1-11.6-23.86 30.33 30.33 0 0 1 11.6 23.86z"/><path class="cls-7" d="M313.69 114.88l-2.94-1.38-9.27-28.25-.08-.55V64.56l2.37-2.21 2.36 2.21v19.75l9.12 27.73-1.56 2.84z"/></svg>