<svg width="231" height="24" viewBox="0 0 231 24" fill="none" xmlns="http://www.w3.org/2000/svg">
<path fill-rule="evenodd" clip-rule="evenodd" d="M214.19 22.9166C213.752 22.9166 213.402 22.5839 213.402 22.1524C213.402 21.7404 213.752 21.4035 214.19 21.4035C214.621 21.4035 214.965 21.7404 214.965 22.1524C214.965 22.5839 214.621 22.9166 214.19 22.9166ZM214.19 21.2188C213.652 21.2188 213.219 21.6406 213.219 22.1524C213.219 22.6814 213.652 23.1014 214.19 23.1014C214.722 23.1014 215.153 22.6814 215.153 22.1524C215.153 21.6406 214.722 21.2188 214.19 21.2188ZM214.216 22.0712C214.198 22.0709 214.18 22.0706 214.163 22.0706H213.988V21.7542H214.264C214.405 21.7542 214.527 21.769 214.527 21.9057C214.527 22.0772 214.361 22.074 214.216 22.0712ZM214.487 22.6875H214.668L214.338 22.1995C214.533 22.1928 214.681 22.1171 214.681 21.9092C214.681 21.8222 214.642 21.7279 214.561 21.6852C214.479 21.6384 214.392 21.6326 214.297 21.6326H213.832V22.6875H213.988V22.1995H214.176L214.487 22.6875Z" fill="#E31837"/>
<path fill-rule="evenodd" clip-rule="evenodd" d="M215.336 3.66841C216.057 3.43503 216.898 3.20049 217.661 2.98773C217.8 2.94895 217.936 2.9109 218.069 2.8737C215.552 1.81431 212.412 0.703587 209.61 0C209.172 0.119671 207.827 0.490233 206.87 0.780908L207.003 0.813038C208.106 1.08082 211.205 1.83289 215.336 3.66841ZM204.134 1.72865C207.051 2.40689 211.307 3.94785 212.517 4.63732C211.673 4.99666 210.484 5.51769 209.588 5.92387C206.452 4.33638 202.805 3.32085 201.475 2.95029L201.475 2.95027C201.376 2.9228 201.29 2.89887 201.218 2.87852C201.998 2.55019 203.114 2.12116 203.959 1.79619L203.959 1.79617L204.134 1.72865ZM231.003 9.69911C225.812 11.7101 216.347 17.3314 209.61 23.0997C208.442 22.1471 207.212 21.1955 206.019 20.3302C213.023 14.7718 220.848 9.8499 227.541 7.64193C228.942 8.44465 230.195 9.18385 231.003 9.69911ZM201.398 16.9726C200.758 16.5252 200.12 16.0793 199.516 15.7119C208.752 8.51267 216.528 5.39192 221.109 4.22794C221.966 4.64758 222.693 5.01634 223.435 5.39263C223.71 5.53218 223.987 5.67276 224.273 5.81735C216.648 8.19793 209.722 12.4201 202.698 17.864C202.27 17.5823 201.834 17.2771 201.398 16.9726Z" fill="#E31837"/>
<path fill-rule="evenodd" clip-rule="evenodd" d="M188.336 9.69602C190.483 8.336 194.407 5.95157 198.175 4.21875C198.325 4.26397 198.496 4.31433 198.684 4.36954C199.292 4.54861 200.073 4.77866 200.88 5.04939C199.39 5.70164 195.672 7.6475 190.932 10.859C190.213 10.5059 189.628 10.255 189.089 10.0238C188.831 9.91305 188.583 9.80681 188.336 9.69602ZM204.306 6.41959C205.007 6.72913 205.782 7.07135 206.519 7.41393C202.931 9.22728 199.687 11.4824 196.475 13.8627C196.132 13.6693 195.797 13.4768 195.469 13.2883C194.812 12.9107 194.182 12.5493 193.575 12.23C197.751 9.26065 201.044 7.35201 203.585 6.10044C203.812 6.20161 204.055 6.3085 204.306 6.41959Z" fill="#012169"/>
<path fill-rule="evenodd" clip-rule="evenodd" d="M177.801 12.498L179.193 16.8248H176.376L177.801 12.498ZM179.243 9.69717H176.342L171.948 21.4365H174.866L175.655 19.0049H179.898L180.686 21.4365H183.637L179.243 9.69717ZM168.795 18.2836C167.689 19.0379 166.733 19.3064 165.76 19.3064C163.563 19.3064 162.054 17.8139 162.054 15.5668C162.054 13.3197 163.563 11.8269 165.693 11.8269C166.666 11.8269 167.605 12.0954 168.661 12.8497V10.2002C167.689 9.66348 166.582 9.44531 165.324 9.44531C161.433 9.44531 159.001 12.1288 158.984 15.5668C159.001 19.0379 161.399 21.688 165.341 21.688C166.649 21.688 167.789 21.4705 168.795 20.9337V18.2836ZM151.874 21.4365H154.725V9.69717H151.874V21.4365ZM142.365 11.8605C143.539 11.8605 144.159 12.3803 144.159 13.3531C144.159 14.3592 143.539 14.8626 142.365 14.8626H141.158V11.8605H142.365ZM144.495 21.4365H147.597L144.662 16.4558C146.256 16.0195 147.027 14.8959 147.027 13.236C147.027 11.1059 145.753 9.69717 142.868 9.69717H138.357V21.4365H141.158V16.8078H141.912L144.495 21.4365ZM125.595 21.4365H133.611V19.1893H128.446V16.5733H132.521V14.3932H128.446V11.9443H133.175L133.678 9.69717H125.595V21.4365ZM120.06 9.69717H116.723L113.671 16.0365L110.635 9.69717H107.298V21.4365H109.864V13.5876L113.637 21.4365L117.41 13.5876V21.4365H120.06V9.69717ZM97.2314 12.498L98.6232 16.8248H95.806L97.2314 12.498ZM98.6739 9.69717H95.7723L91.3785 21.4365H94.2968L95.0847 19.0049H99.3278L100.116 21.4365H103.068L98.6739 9.69717ZM77.5249 21.4365H80.3758V16.8078H84.0821V14.5607H80.3758V11.9443H84.8704L85.3734 9.69717H77.5249V21.4365ZM61.0918 15.5668C61.1082 12.1288 63.5401 9.44531 67.3468 9.44531C71.1538 9.44531 73.5857 12.1288 73.6024 15.5668C73.5857 19.0049 71.1538 21.688 67.3468 21.688C63.5401 21.688 61.1082 19.0049 61.0918 15.5668ZM64.1102 15.5668C64.1102 17.9147 65.519 19.3568 67.3468 19.3568C69.1749 19.3568 70.5837 17.9147 70.5837 15.5668C70.5837 13.219 69.1749 11.7768 67.3468 11.7768C65.519 11.7768 64.1102 13.219 64.1102 15.5668ZM50.6638 21.4365L46.8064 15.4661V21.4365H43.9554V9.69717H46.8064V15.3486L50.4793 9.69717H53.6658L49.8254 15.3323L54.0344 21.4365H50.6638ZM38.3559 9.69717H35.7062V17.546L30.7086 9.69717H27.7235V21.4365H30.3733V13.6049L35.3709 21.4365H38.3559V9.69717ZM17.8627 12.498L19.2545 16.8248H16.4369L17.8627 12.498ZM19.3049 9.69717H16.4036L12.0098 21.4365H14.9277L15.7157 19.0049H19.959L20.747 21.4365H23.6987L19.3049 9.69717ZM4.1426 11.7601C5.11505 11.7601 5.7689 12.1791 5.7689 13.1352C5.7689 14.0913 5.11505 14.5103 4.1426 14.5103H2.80055V11.7601H4.1426ZM4.46087 16.4558C5.43331 16.4558 6.08781 16.9252 6.08781 17.9147C6.08781 18.9545 5.43331 19.3738 4.46087 19.3738H2.80055V16.4558H4.46087ZM0 21.4365H5.13173C7.73112 21.4365 8.95542 20.0951 8.95542 18.1999C8.95542 16.6734 8.15045 15.6339 6.47345 15.2983C7.94929 14.93 8.62015 14.0403 8.62015 12.7159C8.62015 11.0386 7.39585 9.69717 4.79646 9.69717H0V21.4365Z" fill="#012169"/>
</svg>
