<svg xmlns="http://www.w3.org/2000/svg" viewBox="0 0 397 360" width="397" height="360"><defs><clipPath id="a"><path fill="none" d="M0 0h397v360H0z"/></clipPath></defs><g clip-path="url(#a)"><path fill="#ebe5dc" d="M0 0h397v182H0z"/><path fill="#d0c8bf" d="M0 182h397v178H0z"/><path d="M231.4 34.3a41.6 41.6 0 0 0-15.1-18.9 22.5 22.5 0 0 0-23.4 2c-12.4 8.5-25.1 12.9-27.7 26.9s-.7 23 4.8 22.4c11.3-1.2 12.7-10.7 11.2-16.5-.3-1.3 7.3-.7 10.8-5.8 2-2.8 4.3 2.1 3.9 3.3-1.5 4.8 40.6-.7 35.4-13.4" fill="#f5d0b1"/><path d="M173.7 66c-4.5-.6-.5-15.7 1.2-18.1a39.6 39.6 0 0 1 9.9-7.9c5.4-3.6 6.5-4.2 10.8-4.5s21.3-2.8 23.1-2.9-10.4 5.1-14.3 6.3-9.5 13-8.4 9-2.8-4.6-2.8-4.6c-1.2 3.4-8.4 6.2-12 6.8.5 4.5.9 9.4-2.6 13.1a8 8 0 0 1-4.9 3" fill="#d1a88c"/><path d="M199.4 80.7s-21.1-3-23.6-1-3 3-1.7 3 22.3-1 25.1-.4.2-1.6.2-1.6" fill="#bab9af"/><path d="M198.6 81s-21.3-.5-23.5 1.8-2.6 3.4-1.3 3.2 22-3.6 24.8-3.4 0-1.6 0-1.6" fill="#bab9af"/><path d="M218.8 43.3s-5-9-12-8.7-15.9 41-15.9 41zM208.8 28.5a35.4 35.4 0 0 0-15.9-3.2c-7.1 3.1-2.1 50.2-2.1 50.2z" fill="#ced0c2"/><path d="M195 15.5a31.5 31.5 0 0 0-20.3 6.1c-11.5 10.1 6.3 55.1 6.3 55.1z" fill="#ced0c2"/><path d="M200 20.6s-7.3-6.6-18 .9c-9.5 12 5.1 57.4 5.1 57.4z" fill="#ced0c2"/><path d="M178.2 31.1s-7.5-1.6-15.2 7.6 19.8 39.4 19.8 39.4z" fill="#ced0c2"/><path d="M218.8 43.3a15.4 15.4 0 0 1-10.9 5.4c-6.2 6.4-17 26.9-17 26.9zM205.3 37.3a55.4 55.4 0 0 0-15-.8c-7.1 3.1.5 39 .5 39z" fill="#bab9af"/><path d="M196.9 34.6s-5.5-4.2-16.2 3.3c-9.5 12 6.4 41 6.4 41z" fill="#bab9af"/><path d="M177.4 47s.2-7.5-7.6 1.7 13 29.4 13 29.4z" fill="#bab9af"/><path d="M195 15.5a58.6 58.6 0 0 1-13.4 12.4c-11.5 10.1-.6 48.8-.6 48.8z" fill="#bab9af"/><path d="M203.6 76.7l-25.1.2s-1.2-2.6-17.7 9.4a57.1 57.1 0 0 0-15.9 19.2c.1-.2-9.2 53.3-10 48.9 2 11.4-3.4 26.4-5.8 41.1 14.3-.1 18.9 2 23.8.8s17.1-1 39.6-5.9c11.4-2.5 27.2 1.8 41.1 6a51.9 51.9 0 0 0 20.6-4.3c6.3-3.9-6.4-12.5-.1-28.3-.2-.7-2.8-21-2.9-30.3-3.9-25.7-17-40.3-18.5-41.5a175.1 175.1 0 0 0-29-15.5" fill="#ced0c2"/><path d="M197.9 66.9s-22.1-7.4-23.5 6.4-2.3 30.4-1 29.5 22.3-19.5 25.2-18.6-.7-17.4-.7-17.4" fill="#ced0c2"/><path fill="#bab9af" d="M184.7 82.3l-15.3 5.6-7.8 10.5 7.7-2.7 4.5-5.1 10.9-8.3zM185 83l-3.4 9.3-5 3.5-1.2 8.2 4.4-6.3 6.7-4.9L185 83zM185.5 82.6l6.9 12.7-1.4 6.8 3.6-6.2-1.4-4-7.7-9.3zM222.3 97.8l-11.4-10.1-11.2-5.1 3.8-.4 12.9 6 5.9 9.6zM153.1 97.9l-2.5 6.1 3.2 13.9 3.1 11.6.6-12.5-2.3-7.2-2.1-11.9z"/><path d="M153.1 98.5s-10.7 10.1-15.7 32a27.7 27.7 0 0 0 .3 6.8l6.5 5.9.8 8 6.1 3.8-2.2-6.1-3.6-7.4-.3-7.1-.9-13.8z" fill="#bab9af"/><path d="M137.4 130.7c3.5-10.7-1.2 34.6-.9 35.6s5.2 2.8 5.2 2.8l8.9 8.5-5.5-10.9-6.6-12.1z" fill="#bab9af"/><path fill="#bab9af" d="M136.4 165.8l3.2 12.2 7.2 3.6-3.6-3.8-6.8-12z"/><path d="M135.6 156.5a212.3 212.3 0 0 1-6.5 38.2c-.6 1.9 9 .3 12.5 1.9 4.2-.9 8.7.5 11.2-.2 4.5-1.3 25.9-2.2 43.2-6.4 7.4.5 14.4-.5 37.7 6.7a54.6 54.6 0 0 0 20.9-4.6c2.6-1.6.5-5-1.1-10.6a162.1 162.1 0 0 1-20.7-9.4s-8.8 6.4-13.2 9.1c-13.7.4-28.3 2.5-32.4 1.6-8.3-1.8-19.5-4.7-19.5-4.7l-9.1 5.8-11 2.4-10.4 5.6zM251.1 136.2l-9.1 29.4a20.9 20.9 0 0 0 1.9 7.9l9.2 7.8s-2.3-10.8.9-15.5c-.4-6.9-2.3-18.5-2.3-18.5z" fill="#bab9af"/><path d="M234.7 110.3l-3.3 4.2-3.2 8.1L218 128l15.8-3.8 4.7-4.3-2.2 14.3-8.3 15.2 15.1-9.4 2.9-7.2 5.2 3.6a131.3 131.3 0 0 0-3.3-13.1c-3.4-9.3-9.4-20.6-15.4-26l-4.8-3.1zM201.4 91.4l-10-7-5.5-1.6 5.9-1.2 4.2 2.9 5.4 6.9zM201.7 137l3.3-2.8 5.8-7.9-1.7 7.5-9.6 7.7 2.2-4.5z" fill="#bab9af"/><path fill="#bab9af" d="M204 153.9l12.3-8.9 7.4-9.8-.5 3.7-8.6 11.4-10.6 3.6zM232.9 160.1l-8.5 5.9-2.3 3.6 1-7 4.9-3.3 4.9.8z"/><path d="M189 159.5a25.8 25.8 0 0 1-12.3-3.6l1.6-3.9a26.6 26.6 0 0 0 12 3.1c6.2.1 10.1-1.9 10.2-7.9s-3.7-6.8-8.8-8.3c-7.2-2.2-13.9-4.2-13.8-12.3a11.9 11.9 0 0 1 11.8-12h.2v-6.1h4.1v6a24.4 24.4 0 0 1 9.9 2.8l-1.6 3.8a24.8 24.8 0 0 0-10-2.3 7.7 7.7 0 0 0-8.7 6.4 6.3 6.3 0 0 0-.1 1.2c-.1 4.8 4.8 6.2 9.5 7.6s13.3 4 13.1 13.2-5.7 11.6-13.1 12.1v6.1h-3.8z" fill="#819b84"/><path d="M304.7 58s-40.4 10.2-50.7 1.2S226 25 226 25s-29.9 16.7-30.9 17.6c-3.8 3.3-14.5 3.7-20.7 4.8s-23.8-5.1-23.5 7.9c.4 15.9 35.5 4.2 44 13.9s11 25.2 23.9 30.6S304.7 58 304.7 58" fill="#f5d0b1"/><path d="M304.7 58s-40.4 10.2-50.7 1.2-73.4-12.9-79.6-11.9-23.8-5.1-23.5 7.9c.4 15.9 35.5 4.2 44 13.9s11 25.2 23.9 30.6a114 114 0 0 0 46.5 9.7l20.5.3z" fill="#f5d0b1"/><path d="M169.2 64.4a22.9 22.9 0 0 1 2 6.5 17.1 17.1 0 0 0 6.9 10l5.3 3.9a4.6 4.6 0 0 0 2 4.8c2.9 2.5 18.5 10.8 25.4 4.4S196 65 196 65z" fill="#f5d0b1"/><path d="M151 56.3a35 35 0 0 0 14 2.6 173 173 0 0 1 23.6-.7c3.3.3 11.4.6 15.4 5.3s12.1 20.6 18.8 23.7 39.5 8.8 45.6 8.7c8.8-.2 22.9-1.6 22.9-1.6l-5.6 15.3s-31.8.9-48.5-3.5c-10.5-2.8-24.3-5.4-30.2-17.4s-9.3-23.1-21.4-23.6c-10.4-.4-34.8 2.2-34.8-8.9" fill="#d1a88c"/><path d="M171.1 69.8a8.1 8.1 0 0 0 1.2 4.4c1.2 1.4 7.3 3.5 14.1 5.2a51.6 51.6 0 0 0 16.2-.3l-1-1.9s-26.2-3.6-30.5-7.3M183.4 84.8a27.6 27.6 0 0 0 11 3.3c5 0 12.4-.3 12.4-.3l.8 1.8s-10.6 2.7-14.9 1.6-9.8-3.5-9.3-6.4" fill="#d1a88c"/><path d="M314.6 48.7c-14.8 2.5-44.9 3.3-53.6 17.1-5.2 8.4-10.2 17.6-8.5 27.3 2.6 15-2.1 21.8 16.6 22.5 5.9.2 162.8 3.7 162.8.1V48.2c-4.5.2-113.1.3-117.4.5" fill="#4c7b96"/><path d="M268.9 100.1c-16.8-.6-14.3-6.1-15.4-18.2a26.8 26.8 0 0 0-1 11.2c2.6 15-2.1 21.8 16.6 22.5 5.9.2 162.8 3.7 162.8.1v-15.5c0 3.6-157.1.1-163.1-.1" fill="#376479"/></g></svg>