<svg xmlns="http://www.w3.org/2000/svg" viewBox="0 0 397 360" width="397" height="360"><defs><clipPath id="a"><path fill="none" d="M0 0h397v360H0z"/></clipPath></defs><g clip-path="url(#a)"><path fill="#6e83b7" d="M0 0h397v182H0z"/><path fill="#516999" d="M0 182h397v178H0z"/><path d="M247.8 281.5s24.1 64.1-20.7 278.9l-17.3 4.2-2.4-239.1zM152.5 277.9s-30.8 114 3.5 267.7l21.7 8.3-8.9-114.8s16.8-61 25.2-117z" fill="#414d62"/><path d="M249.7 287.3c0 27-22.4 42.2-50 42.2s-50-15.2-50-42.2z" fill="#414d62"/><path d="M153.4 422.2c11.9-33.6-13.8-64.4 6.7-102.5 15.8-29.2 34.4-24.9 52.3-20.6 13.5 3.3 26.5 6.5 37.5-4.5-.4-2.2-.7-4.2-1.1-5.8v-1.6h-.5a51.7 51.7 0 0 0-1.6-5.8l-5.3 5.8h-81l-8.8-9.5s-.9 3.3-2.2 9.5h-.6a12.5 12.5 0 0 0 .1 2.4c-6.7 33.2-21.7 131.6 6.2 256l21.7 8.3-1.2-15.4c-12.1-25.4-34.2-79.9-22.3-116.3" fill="#2c3341"/><path d="M114.6 223.2s25.2-15.3 44.8-45.6-3.5-43.3-3.5-43.3-18.6-3.6-39.9 31.6-26.1 48.1-27.8 59.6c-2.7 18.4 26.4-2.3 26.4-2.3M281.8 210.6s-27.9-9.7-53.3-35.3-5.6-43.1-5.6-43.1 17.4-7.4 45.6 22.6 35.6 41.6 39.6 52.6c6.4 17.4-26.3 3.2-26.3 3.2" fill="#deb887"/><path d="M244.4 136c17.5-17.2-1.3-19.4-1.3-69.3S201.3 17 201.3 17s-39.2-.2-42.5 38 8.1 36-1.2 53.2-4.9 27.7 4.4 36.6 82.4-8.9 82.4-8.9" fill="#766241"/><path d="M176.9 122.5a111.6 111.6 0 0 1 45.2 0s1 32.6-21.5 32.6-23.7-32.6-23.7-32.6" fill="#deb887"/><path d="M217.3 89.1h-32.5v32.6c.3 7.8 7.4 14.1 16.2 14.1s15.8-5.8 16.2-13.6z" fill="#deb887"/><path d="M192.7 123a29.8 29.8 0 0 1-7.8-3.7V112a25.9 25.9 0 0 0 6.4 3.5c0 .4 0 .8.1 1.2a21.5 21.5 0 0 0 1.4 6.3" fill="#c49e6e"/><path d="M232.6 76.7s-5.4 39.3-31.1 40.3c-16.5.7-30.2-12.9-32-40.3-1.9-29.9 6.9-50 31.5-50 22.5 0 31.6 23.4 31.6 50" fill="#deb887"/><path d="M201 94.2c-2.6 0-4.7-1.7-4.7-2.6s1-.7 2.4-.7h4.5c1.5 0 2.4.1 2.4.7s-2.1 2.6-4.7 2.6" fill="#c49e6e"/><path d="M117.2 169.9l-9.1-6.4s27.9-38.4 71.7-42.5l.3.7 1 2.4c-10.3 1.4-49.5 4.1-64 45.7" fill="#82484b"/><path d="M176.8 102.8c-3.8-6.4-6.4-14.9-7.2-25.5a.4.4 0 0 0 0-.1V77q-.3-3.9-.3-7.6c0-25.6 9.3-42.4 31.8-42.4h.4c11.9.1 20 6.9 25 17.2-.9 1.9-2.9 2.5-5.7 2.5a72.9 72.9 0 0 1-10.6-1.3 78.4 78.4 0 0 0-12.6-1.3c-8.9 0-17.3 3-20.7 15.2 0 0-7 26.1 0 43.8" fill="#c49e6e"/><path d="M172.4 43.6S181 57.3 212 62.3c0 0-13.1-7.1-18.4-14.5 0 0 9.8 9.5 37.6 9.5 0 0-.8-32-31-32-23.3-.8-27.8 18.3-27.8 18.3" fill="#766241"/><path d="M188.9 100.9h23.6a13.5 13.5 0 0 1-23.6 0M190.4 75.9c0 2.1-1.2 3.9-2.7 3.9s-2.7-1.7-2.7-3.9 1.2-3.9 2.7-3.9 2.7 1.7 2.7 3.9M216.3 75.9c0 2.1-1.2 3.9-2.7 3.9s-2.7-1.7-2.7-3.9 1.2-3.9 2.7-3.9 2.7 1.7 2.7 3.9M207.1 69.4c1.3-2.1 5.9-2.6 8.8-2.1a7.8 7.8 0 0 1 4.5 2.9 13.4 13.4 0 0 0-4.8-1.7 12.6 12.6 0 0 0-7.3 1.9.8.8 0 0 1-1.2-1M194.2 69.4c-1.3-2.1-5.9-2.6-8.8-2.1a7.9 7.9 0 0 0-4.5 2.9 13.5 13.5 0 0 1 4.8-1.7 12.6 12.6 0 0 1 7.3 1.9.8.8 0 0 0 1.2-1" fill="#c49e6e"/><path d="M148.2 212.6c8.8 8.2 3.2 58.2-2.4 77.7h109.1c-5.5-19.3-11-69.5-2.3-77.7 10.2-9.6 9.3-27.2 9.3-27.2L289 164s-24.2-38.8-68.1-42.9a82.1 82.1 0 0 1-20.4 29.7h-.1a82.1 82.1 0 0 1-20.4-29.7c-43.9 4.1-71.7 42.5-71.7 42.5l30.8 21.7s-1.2 17.7 9.1 27.3z" fill="#a65955"/><path d="M261.6 183.9l-3.1 20.2a45.3 45.3 0 0 0 3.4-16.5c-.1-1.4-.2-2.6-.3-3.7zM148.2 212.6c3.3 3.1 4.6 7.1 4.6 12 0 8-3.5 53.6-7 65.7h7.1l.7-2.1c7-19.3 20.3-58.7 36.7-60.2l.6-21.4a126 126 0 0 0-17.9 5.1 24.7 24.7 0 0 1-9.1 2c-14.6 0-16.8-18.4-16.8-18.4s-2.1-15 4.8-27.6c0 0-9.9 7.5-13 17.7v1.2a47.9 47.9 0 0 0 2.2 14.3 27.6 27.6 0 0 0 7.1 11.7z" fill="#82484b"/><path d="M219.7 147.1c0 .4-1.7.9-3.8 1s-3.9 0-3.9-.4 1.7-.9 3.8-1 3.9 0 3.9.4" fill="#111"/><path d="M217.9 142.7l-4.5.3-.3-4.3s.3.4 2.2.3 2.2-.6 2.2-.6z" fill="#9c9996"/><path d="M214.6 142.5h-1.1v-.5a1.3 1.3 0 0 0 .9.1h1.7v.3h-1.5" fill="#6f6c69"/><path d="M217.9 142.1v-.3z" fill="#6f6762"/><path d="M217.2 142.3v-.3l.7-.2v.3l-.7.2m-3.8-.2" fill="#6f6c69"/><path d="M218.5 145.6l-5.2.4-.3-3.7s.4.3 2.6.2 2.6-.6 2.6-.6z" fill="#9c9996"/><path d="M218.5 145.1z" fill="#6f6762"/><path d="M214.5 145.8h-1.2v-.3h3v.3h-1.8m2.9-.2v-.3l1.1-.3v.2l-1.1.2" fill="#6f6c69"/><path d="M219 148.6l-5.9.4-.2-3.4s.4.3 2.9.1 2.9-.5 2.9-.5z" fill="#9c9996"/><path d="M214.3 147.9h-1.2v-.3h3.4v.3h-2.2" fill="#6f6c69"/><path d="M218.9 147.4v-.3h.1v.4" fill="#0c0c0c"/><path d="M217.6 147.7v-.3l1.4-.3v.3l-1.4.3" fill="#6f6c69"/><path d="M214.6 183.4l-2.6-35.7a15.9 15.9 0 0 0 4 .1 11.8 11.8 0 0 0 3.7-.7l2.7 35.6s-.7 1-3.9 1.2-3.9-.7-3.9-.7" fill="#6a6764"/><path d="M215.8 138.9v-.3h1.1l-1.1.2" fill="#a39c91"/><path d="M216.1 142.1l-.2-3.2 1.1-.2.2 3.3H216" fill="#a5a3a1"/><path d="M216.1 142.4v-.3h1.1v.3h-1.1" fill="#7b7876"/><path d="M216.3 145.3l-.2-2.9 1.1-.2.2 3h-1.1" fill="#a5a3a1"/><path d="M216.3 145.7v-.3h1.1v.3h-1.1" fill="#7b7876"/><path d="M216.4 147.5v-1.8h1.1v1.8h-1.1" fill="#a5a3a1"/><path d="M216.5 147.8v-.3h1.1v.3h-1.1" fill="#7b7876"/><path d="M217.8 167l-1.4-19.2h1.1l1.4 19.3z" fill="#797474"/><path d="M232.2 183.7s-26.9-3.1-23.4-11.1-3.6-19.3-1.8-22.3 11.1 1.8 11.1 1.8c5.7-7 5.4-3.8 17.7 2.1s6.4 17.8 6.4 17.8 45.6 20.5 59.1 29.7c0 0 13.4 6.7 4.8 19.1s-24.8 1.8-37.2-6.8-36.7-30.5-36.7-30.5" fill="#deb887"/><path fill="#edeadf" d="M252.1 244.4l-62.3 37.5L192 168l72.4-2.6-12.3 79z"/><path fill="#e6e3d4" d="M189.8 281.9L192 168l60.1 76.4-62.3 37.5z"/><path d="M214.3 213.1c-6.3 3.5-22.9 2.9-24.5.4-.2-.3-1.1-1.4 1-1.9l.2-6.5c-6.4.1-11.7 1.7-15.3 4.5-6 4.6-17.1 3.8-17.1 3.8s-36.1 0-58.2 3.8c0 0-15 1-11.8 15.8s22.2 11.3 37 8.1a279.5 279.5 0 0 0 33.6-9.8s16.1-4.5 22.7-1.6 16.4 5.8 28.9 0 9.9-20 3.6-16.5" fill="#deb887"/><path d="M201.6 117h-1.2a26.1 26.1 0 0 1-9.1-1.6c0 .4 0 .8.1 1.2a21.6 21.6 0 0 0 1.4 6.3 23.2 23.2 0 0 0 6.5 1h2.4c7.4-.8 11.1-2.8 15.7-8.4v-5.2a24 24 0 0 1-15.8 6.8" fill="#c6a27b"/><path d="M190.2 116.9c-.9-12.9 9.1-24.1 22.2-25a24.2 24.2 0 0 1 14 3.4 24.1 24.1 0 1 0-11.6 44.1 23.6 23.6 0 0 0 14.2-6.2 23.6 23.6 0 0 1-13.3 5.1c-13.2.9-24.6-8.5-25.5-21.3" fill="#6a6764"/><path d="M227.9 132.1a22.8 22.8 0 0 1-12.6 4.9c-12.4.9-23.1-8.2-24-20.3s8.5-22.6 20.9-23.5a22.2 22.2 0 0 1 15.7 38.8m-1.7-37a24.2 24.2 0 0 0-14.1-3.3c-13.2.9-23.2 12.1-22.2 25s12.3 22.5 25.5 21.6A23.6 23.6 0 0 0 226.2 95" fill="#bab6b3"/><path d="M191.9 116.6c-.8-11.9 8.3-22.3 20.4-23.4h-.6c-12.4.9-21.7 11.4-20.9 23.5s11.6 21.2 24 20.3h.6c-12.2.6-22.7-8.4-23.5-20.3" fill="#ebe8e8"/><path d="M226.1 96.1a22.7 22.7 0 0 0-13.2-3.1h-.4a21.9 21.9 0 0 1 3.1 43.7h.4A22.2 22.2 0 0 0 226.1 96" fill="#6a6764"/></g></svg>