<svg id="Layer_1" xmlns="http://www.w3.org/2000/svg" viewBox="0 0 397 360" width="397" height="360"><defs><style>.cls-1{fill:none}.cls-2{clip-path:url(#clip-path)}.cls-3{fill:#6e83b7}.cls-4{fill:#516999}.cls-5{fill:#d1c9c0}.cls-6{fill:#009cde}.cls-7{clip-path:url(#clip-path-2)}.cls-8{fill:#fff;opacity:0}.cls-9{clip-path:url(#clip-path-3)}</style><clipPath id="clip-path"><path class="cls-1" d="M0 0h397v360H0z"/></clipPath><clipPath id="clip-path-2"><path class="cls-1" d="M-145 0h337.66v360H-145z"/></clipPath><clipPath id="clip-path-3"><path class="cls-1" d="M-313.83 0H23.83v360h-337.66z"/></clipPath></defs><g class="cls-2"><path class="cls-3" d="M0 0h397v215.96H0z"/><path class="cls-4" d="M0 213h397v178H0z"/><path id="arrow" class="cls-4" d="M336 30h-97.55l30.31 30.17-40.9 39.73L161 30 41.49 158.62-.12 122.88-35 162.6 45.87 232l9.9-10.65 105.82-113.8 64.85 67.75 79.88-77.71 29.68 29.5V30z"/><path class="cls-5" d="M295.54 153.93a7 7 0 0 0-8.5-5.36 384.56 384.56 0 0 1-44.63 7.43 414.14 414.14 0 0 1-43 2.13A435.17 435.17 0 0 1 114 150a7.19 7.19 0 0 0-8.39 5.53 7.09 7.09 0 0 0 5.42 8.39 451.2 451.2 0 0 0 88.42 8.37 426.82 426.82 0 0 0 44.4-2.13l5.74-.66a262.57 262.57 0 0 1-49.1 21 .79.79 0 0 0-.56.77.77.77 0 0 0 .62.75c7.81 1.84 16.05 3.44 24.49 4.76h.43a277.52 277.52 0 0 0 47.71-24.7 7.15 7.15 0 0 0 3.18-6.68c5.19-1 9.71-1.9 13.83-2.84a7.11 7.11 0 0 0 5.37-8.5M220.37 147.41c6.23-9.54 9.93-22.78 8.5-40.69h.13a99 99 0 0 0-8.67-32.34c-7.79-17.08-20.71-32-38.68-32-27.24 0-45.85 40.75-47.35 64.26-1 15.84 1.57 27.87 6.14 37a395.89 395.89 0 0 0 59 4.36c2.85 0 5.66 0 8.46-.1q6.25-.17 12.47-.49z"/><path class="cls-6" d="M252.1 66.52v.09c-10.55-3.29-21.75.6-31.79 7.77a89.66 89.66 0 0 0-29.27 37c-5.61 14.6-6.64 26.64-4.74 36.29 4.27.13 8.73.19 13.09.19q10.69 0 20.94-.49 5.53-.26 10.87-.66l1.79-.15c1.56-.12 3.08-.27 4.62-.41a377 377 0 0 0 38.52-5.67c.22-.79.42-1.57.61-2.4 5.09-21.8 2.15-63.15-24.64-71.56z"/><path class="cls-5" d="M284 206.34c-4.8 0-9.67 0-14.52-.26a100 100 0 0 0 8.88-5.19 6.55 6.55 0 0 0-7.29-10.89 85.77 85.77 0 0 1-9.41 5.44 87.52 87.52 0 0 1-24 7.9 3.71 3.71 0 0 0-.66.19c-7.75-1-15.48-2.13-23.12-3.61-8.54-1.64-17.23-3.63-25.72-5.89a364.55 364.55 0 0 1-55.5-19.62 6.55 6.55 0 1 0-5.75 11.78l.39.17c11.08 5 22.35 9.31 33.77 13.19-4.78.7-9.56 1.34-14.37 1.81s-9.5.75-14.26 1a6.4 6.4 0 0 0-3.22.15c-6.94.23-13.92.19-20.88-.15a6.55 6.55 0 1 0-1 13.07h.39c4.53.23 9 .32 13.56.32 2.88 0 5.79 0 8.69-.19a186.3 186.3 0 0 0 47.58 18.53 189.05 189.05 0 0 0 22.58 3.91h.73a6.55 6.55 0 0 0 .7-13 173 173 0 0 1-45.68-11.53c6.17-.79 12.34-1.69 18.44-2.88 4.59-.9 9.14-1.92 13.68-3a376.78 376.78 0 0 0 51.73 9.56 373.37 373.37 0 0 0 41.93 2.35H284a6.55 6.55 0 0 0 0-13.11"/></g><g class="cls-7"><path class="cls-8" d="M-145 0h337.66v360H-145z"/></g></svg>