<svg xmlns="http://www.w3.org/2000/svg" viewBox="0 0 319 363" width="319" height="363"><defs><clipPath id="a"><path fill="none" d="M0 0h319v363H0z"/></clipPath></defs><g clip-path="url(#a)"><path fill="#ebe5dc" d="M-.05 0h319v182h-319z"/><path fill="#d0c8bf" d="M0 182h319v181H0z"/><path d="M188.91 34.3a41.56 41.56 0 0 0-15.06-18.9 22.45 22.45 0 0 0-23.44 2C138 25.9 125.3 30.27 122.76 44.28s-.7 23 4.82 22.43c11.27-1.2 12.65-10.67 11.16-16.54-.34-1.26 7.32-.73 10.84-5.77 2-2.81 4.3 2.08 3.91 3.31C152 52.5 194.14 47 188.91 34.3" fill="#f5d0b1"/><path d="M131.18 66c-4.51-.57-.45-15.68 1.25-18.13a39.61 39.61 0 0 1 9.89-7.95c5.43-3.61 6.46-4.25 10.79-4.53s21.27-2.82 23.07-2.85-10.44 5.07-14.29 6.26-9.46 13-8.42 9c.68-2.56-2.84-4.63-2.84-4.63-1.24 3.42-8.39 6.16-12 6.79.55 4.51.92 9.43-2.62 13.06a8 8 0 0 1-4.9 3" fill="#d1a88c"/><path d="M156.93 80.66s-21.14-3-23.62-1-3 3-1.69 3 22.25-1 25.07-.43.23-1.59.23-1.59" fill="#bab9af"/><path d="M156.14 81s-21.34-.47-23.54 1.81-2.6 3.35-1.33 3.2 22-3.64 24.84-3.4 0-1.62 0-1.62" fill="#bab9af"/><path d="M176.33 43.28s-5-9-12-8.72c-8.43-.69-15.94 41-15.94 41z" fill="#ced0c2"/><path d="M166.33 28.49a35.37 35.37 0 0 0-15.89-3.18c-7.13 3.12-2.08 50.23-2.08 50.23z" fill="#ced0c2"/><path d="M152.53 15.5a31.55 31.55 0 0 0-20.34 6.1c-11.5 10.08 6.28 55.1 6.28 55.1z" fill="#ced0c2"/><path d="M157.55 20.61s-7.34-6.58-18 .94c-9.51 12 5.15 57.44 5.15 57.44z" fill="#ced0c2"/><path d="M135.74 31.09s-7.47-1.58-15.2 7.64 19.77 39.43 19.77 39.43z" fill="#ced0c2"/><path d="M176.33 43.28a15.38 15.38 0 0 1-10.93 5.39c-6.25 6.45-17 26.86-17 26.86zM162.84 37.32a55.39 55.39 0 0 0-15-.8c-7.13 3.12.54 39 .54 39z" fill="#bab9af"/><path d="M154.43 34.64s-5.51-4.19-16.17 3.33c-9.51 12 6.45 41 6.45 41z" fill="#bab9af"/><path d="M134.91 47s.17-7.51-7.56 1.7 13 29.42 13 29.42z" fill="#bab9af"/><path d="M152.53 15.5a58.6 58.6 0 0 1-13.44 12.39c-11.5 10.06-.62 48.83-.62 48.83z" fill="#bab9af"/><path d="M161.09 76.67l-25.09.19s-1.23-2.59-17.74 9.44a57.05 57.05 0 0 0-15.94 19.24c.09-.18-9.25 53.28-10 48.93 2 11.38-3.4 26.36-5.77 41.1 14.26-.13 18.93 2 23.78.75s17.06-1 39.62-5.91c11.39-2.46 27.17 1.83 41.12 6a51.93 51.93 0 0 0 20.61-4.28c6.34-3.92-6.39-12.51-.11-28.26-.18-.73-2.8-21-2.89-30.32-3.94-25.66-17-40.34-18.54-41.46a175.11 175.11 0 0 0-29-15.47" fill="#ced0c2"/><path d="M155.38 66.92s-22.09-7.44-23.49 6.44-2.28 30.36-1 29.52 22.34-19.49 25.19-18.55-.68-17.39-.68-17.39" fill="#ced0c2"/><path fill="#bab9af" d="M142.26 82.27l-15.33 5.64-7.8 10.52 7.63-2.77 4.52-5.08 10.98-8.31zM142.51 83.03l-3.38 9.3-5.05 3.45-1.16 8.19 4.38-6.3 6.71-4.87-1.5-9.77zM142.98 82.61l6.91 12.73-1.34 6.8 3.57-6.26-1.46-3.99-7.68-9.28zM179.78 97.75l-11.33-10.01-11.24-5.16 3.76-.33 12.92 5.98 5.89 9.52zM110.6 97.93l-2.54 6.08 3.22 13.92 3.08 11.6.63-12.56-2.31-7.15-2.08-11.89z"/><path d="M110.58 98.46s-10.73 10.14-15.68 32a27.72 27.72 0 0 0 .32 6.84l6.51 5.92.76 8 6.1 3.85-2.2-6.07-3.55-7.43-.27-7.06-.91-13.75z" fill="#bab9af"/><path d="M95 130.69c3.46-10.72-1.18 34.62-.9 35.63.54 1.93 5.24 2.84 5.24 2.84l8.9 8.53-5.51-10.93-6.56-12.12z" fill="#bab9af"/><path fill="#bab9af" d="M93.93 165.79l3.14 12.2 7.25 3.6-3.57-3.83-6.82-11.97z"/><path d="M93.12 156.49a212.25 212.25 0 0 1-6.53 38.2c-.58 1.92 9 .35 12.47 1.92 4.22-.86 8.69.5 11.22-.21 4.54-1.28 25.89-2.24 43.17-6.39 7.42.51 14.41-.54 37.74 6.67a54.65 54.65 0 0 0 20.94-4.57c2.57-1.58.49-5-1.08-10.64a162.13 162.13 0 0 1-20.7-9.43s-8.83 6.45-13.23 9.07c-13.67.4-28.34 2.52-32.41 1.65-8.26-1.76-19.52-4.76-19.52-4.76l-9.07 5.78-11 2.41-10.37 5.57zM208.64 136.21s-5.3 17.08-9.09 29.39a20.93 20.93 0 0 0 1.9 7.85l9.19 7.78s-2.31-10.79.87-15.53c-.41-6.86-2.34-18.5-2.34-18.5z" fill="#bab9af"/><path d="M192.17 110.33l-3.3 4.16-3.22 8.1-10.19 5.41 15.75-3.81 4.69-4.19-2.18 14.34-8.27 15.21 15.09-9.41 2.87-7.2 5.24 3.61a131.29 131.29 0 0 0-3.32-13.15c-3.42-9.31-9.4-20.58-15.4-26-.08 0-4.8-3.14-4.8-3.14zM158.92 91.37l-9.96-6.94-5.57-1.62 5.91-1.19 4.23 2.92 5.39 6.83zM159.22 136.99l3.28-2.77 5.81-7.93-1.66 7.53-9.63 7.69 2.2-4.52z" fill="#bab9af"/><path fill="#bab9af" d="M161.54 153.94l12.22-8.9 7.47-9.86-.48 3.73-8.65 11.35-10.56 3.68zM190.44 160.06l-8.55 5.95-2.3 3.58.98-6.99 4.96-3.31 4.91.77z"/><path d="M146.53 159.47a25.85 25.85 0 0 1-12.27-3.55l1.62-3.9a26.63 26.63 0 0 0 12 3.14c6.21.12 10.06-1.92 10.18-7.86.11-5.08-3.66-6.76-8.76-8.28-7.23-2.16-13.94-4.18-13.75-12.26a11.9 11.9 0 0 1 11.84-12h.18l.14-6.14 3.81.08-.14 6a24.36 24.36 0 0 1 9.89 2.77l-1.62 3.83a24.79 24.79 0 0 0-10-2.29 7.65 7.65 0 0 0-8.7 6.44 6.33 6.33 0 0 0-.08 1.17c-.12 4.76 4.8 6.19 9.5 7.57 6.11 1.87 13.27 4 13.07 13.19-.18 7.8-5.67 11.56-13.09 12.07l-.15 6.14-3.81-.1z" fill="#819b84"/><path d="M262.22 58s-40.39 10.23-50.71 1.18-28-34.23-28-34.23-29.94 16.74-30.91 17.6c-3.77 3.29-14.51 3.7-20.7 4.76s-23.83-5.13-23.49 7.91c.42 15.86 35.5 4.2 44 13.86s11 25.2 23.86 30.62S262.21 58 262.21 58" fill="#f5d0b1"/><path d="M262.22 58s-40.39 10.23-50.71 1.18-73.4-12.93-79.58-11.88-23.82-5.13-23.48 7.9c.42 15.87 35.5 4.21 44 13.87s11 25.19 23.87 30.62a114 114 0 0 0 46.49 9.73l20.55.27z" fill="#f5d0b1"/><path d="M126.69 64.43a22.85 22.85 0 0 1 2 6.46 17.14 17.14 0 0 0 6.89 10c4.37 3.27 5.28 3.91 5.28 3.91a4.64 4.64 0 0 0 2 4.79c2.87 2.52 18.51 10.84 25.39 4.35S153.48 65 153.48 65z" fill="#f5d0b1"/><path d="M108.55 56.32a35 35 0 0 0 14 2.6 173 173 0 0 1 23.55-.67c3.27.33 11.39.59 15.43 5.3s12.1 20.64 18.79 23.71S219.85 96.09 226 96c8.84-.18 22.93-1.57 22.93-1.57l-5.55 15.3s-31.76.9-48.47-3.5c-10.52-2.79-24.29-5.38-30.2-17.41s-9.27-23.13-21.38-23.55c-10.41-.36-34.76 2.19-34.77-8.89" fill="#d1a88c"/><path d="M128.63 69.8a8.07 8.07 0 0 0 1.16 4.41c1.23 1.44 7.29 3.51 14.13 5.17a51.58 51.58 0 0 0 16.15-.31l-1-1.93s-26.15-3.59-30.46-7.35M140.89 84.78a27.64 27.64 0 0 0 11 3.3c5 0 12.44-.29 12.44-.29l.78 1.76s-10.6 2.65-14.87 1.64-9.79-3.47-9.33-6.4" fill="#d1a88c"/><path d="M272.14 48.69c-14.83 2.47-44.94 3.31-53.59 17.14-5.21 8.36-10.19 17.57-8.49 27.27 2.61 15-2.11 21.78 16.61 22.45 5.92.21 162.84 3.71 162.84.11V48.2c-4.46.17-113.05.34-117.37.48" fill="#4c7b96"/><path d="M226.45 100.12c-16.84-.6-14.34-6.12-15.39-18.12a26.75 26.75 0 0 0-1 11.15c2.61 15-2.11 21.79 16.6 22.45 5.92.21 162.84 3.71 162.84.11v-15.49c0 3.61-157.14.12-163.06-.1" fill="#376479"/></g></svg>