<svg xmlns="http://www.w3.org/2000/svg" viewBox="0 0 319 363" width="319" height="363"><defs><clipPath id="a"><path d="M244.57 69.68s2.76 7.17-1.45 13-6 8-6.6 8.41a11.28 11.28 0 0 0-2.21 3.45 6.6 6.6 0 0 1-4.49 4.21c-3 1-12.69 3.17-12.69 3.17l17 1.58 13-20.77s1.65-9.59 1.32-10.35-3.88-2.7-3.88-2.7z" fill="none"/></clipPath></defs><path fill="#8c9a3f" d="M-.05 0h319v182h-319z"/><path d="M119.73-.49H29.09a73.28 73.28 0 0 0-15.32 45.42c0 35.17 23.55 64.13 53.83 67.89L65.48 192h17.87v-12.52l-2.19-66.66c19.38-2.43 36-15.21 45.47-33.27A74.86 74.86 0 0 0 135 44.87 73.26 73.26 0 0 0 119.73-.49" fill="#728236"/><path fill="#768034" d="M0 182h319v181H0z"/><path d="M225.22 187.81l6.74.82.57-5.47-6.91-1.57a44.39 44.39 0 0 1-.4 6.22zM264.68 183.16l5.83-4.44-3.46-4.27-6 3.77c1.49 1.46 2.37 3.29 3.63 4.94z" fill="#ede6db"/><path d="M233.88 184.65a1.32 1.32 0 0 0-1.08-.91c-.54-.11-.94 1.57-2.64 1.82a3.05 3.05 0 0 1-3-1.12 11.57 11.57 0 0 0-2.47-3.35 1.16 1.16 0 0 0-1.19.66 8.35 8.35 0 0 1-3.7 5.22 13.91 13.91 0 0 1-6.39 1.8 5.44 5.44 0 0 0-2.58.3 1 1 0 0 0-.3.58 1.78 1.78 0 0 0-.09 1.32c.29 1 1.84 1.62 3.26 2.09a42 42 0 0 0 7.92.66 47.61 47.61 0 0 1 4.81.2 67.36 67.36 0 0 0 7 0c2.75-.18.7-8.47.45-9.27z" fill="#66605b"/><path d="M233 156.79c-5.28-1.16-7.55 1.47-7.61 9.71 0 1.91.11 3.58.18 4.64 0 .32-.07 10.12 0 10.57l7 1.51 2.92-28.41-.58.74a1.65 1.65 0 0 1-1.91 1.24z" fill="#d5a158"/><path fill="#a87f41" d="M235.56 153.53l-.12 1.23.78-1.01-.66-.22zM226.42 150.48a1.91 1.91 0 0 0-.9 1.15c-.22 1.73-.22 9.38-.09 14.87 0-8.24 2.36-10.87 7.61-9.71a1.65 1.65 0 0 0 1.81-1.32l.58-.74.12-1.23z"/><path d="M274.36 179.14a31.92 31.92 0 0 0-4-2.55 1.07 1.07 0 0 0-1.81.33c-.2.81.29 1.52-.79 2.64a5.11 5.11 0 0 1-2.84 1.56c-.49.07-1.61.11-1.61.11s-.62-1.66-1.19-1c-.37.46.49 2.75.49 2.75a7.13 7.13 0 0 1 .21 3.47c-.7 2.81-1.24 4-2.64 4.75-.7.42-2.8 1-3.1 1.32a.87.87 0 0 0-.18 1.07c-.08.24.11.54.71.9a3.29 3.29 0 0 0 .45.21 7.45 7.45 0 0 0 2.51.46 11.66 11.66 0 0 0 6.25-1.18c1.78-.9 8.81-8.84 9.89-10.26a1.78 1.78 0 0 0 .44-1c.23-.35-1.35-2.45-2.79-3.58z" fill="#66605b"/><path d="M245.66 156.13s9.92 14.66 10.57 15.28c.18.18 6.5 8.7 6.6 9l5.45-4.44c-.7-1.06-7.14-10.57-7.33-11-2-4-11-12.51-11-12.51l-7.58-1s0 .77.07 1.78a11.44 11.44 0 0 1 3 1.72z" fill="#d5a158"/><path d="M256.21 172.59l6.6 7.83c-.15-.29-6.46-8.81-6.6-9-.63-.62-10.57-15.28-10.57-15.28l-.22-1.23a11.44 11.44 0 0 0-3-1.72 31.43 31.43 0 0 0 .42 4.62c.42 1.19 8.54 9.76 13.37 14.78z" fill="#a87f41"/><path d="M253.35 150.4a4.61 4.61 0 0 1-.75-2.51c.18-.77-.59-22.36-.59-22.62a32.74 32.74 0 0 1-3 3.16 29.24 29.24 0 0 0-4.05 5.14h.32l-6.09 2.77.09 17.92a15.23 15.23 0 0 0 8.16 1.84 16.26 16.26 0 0 0 6.76-2c.6-.42-.61-3.1-.85-3.7z" fill="#366378"/><path d="M129 164.32s-14.84-1-27.43-1c-19.66 0-50.53 9.8-50.53 18 0 2.72 5.57 5.43 8.47 7.41s6.25 3.2 16.31 3.05 49.44 0 49.44 0z" fill="#ba3642"/><path d="M207.76 104.76l-87.89 55c0 1.32-2.77 4.31-2.77 4.31 2-.77 93.42-58.64 93.42-58.64z" fill="#ede6db"/><path d="M181.87 128.23s-7.17 38.4-10.21 41.15a61.75 61.75 0 0 1-21.79 11c-9.44 2.44-19.51 3.35-21.79 4.11s-6.71-6.25-7.77-8.53-3.84-8.69-4.9-10.21.28-3.88 2.56-5.56 11.23-8.49 14.06-9.92 24.64-13.48 33.43-16.38 16.41-5.66 16.41-5.66z" fill="#857363"/><ellipse cx="52.25" cy="185.82" rx="10.06" ry="10.12" fill="#303031"/><ellipse cx="117.81" cy="185.82" rx="10.06" ry="10.12" fill="#303031"/><ellipse cx="117.81" cy="185.82" rx="6.35" ry="6.38" fill="#f1eff0"/><path d="M110.08 176.31a9.24 9.24 0 0 0-7.45 8.94v.41a7.2 7.2 0 0 1-1.1.4c-3.83 1-24.39 1-26.31 1.56a6.6 6.6 0 0 0-3 1.9c3.21-.54 17.27-.65 27.21-.65h6.7a8.9 8.9 0 0 1-1.15-4.37 9.11 9.11 0 0 1 5.1-8.19zM59.86 175.84a9.24 9.24 0 0 1 7.45 8.94c0 .13-.22 3.57-1.66 3.58h-1.79A8.9 8.9 0 0 0 65 184a9.11 9.11 0 0 0-5.14-8.16z" fill="#a12933"/><path d="M66.6 174.23h41.31a18.65 18.65 0 0 0 3.34-3.82v-3.33s-.17-4.42-.44-5.56a2.64 2.64 0 0 0-2.43-2.21c-1.21 0-8.69-.16-8.69-.16a7.33 7.33 0 0 0-2.87-2.51 66.2 66.2 0 0 0-11.65 0 9.24 9.24 0 0 0-4.25 2.64s-7.63 1.32-11.89 4.23c-3.21 2.24-2.49 10.35-2.43 10.72z" fill="#303031"/><path d="M210.82 102.69c-2.85-3.3-7.28-8.35-8.44-9.5-1.76-1.76-2.14-2.75-3.35-2.89-1-.12-3.88 1.52-2.06 3.74s6.93 7.92 8.45 9.6c.92 1 2.36 2.51 3.34 3.53.71 1.2-.21 2.73-1 3.41-1.8 1.52-81.81 50.9-86.08 52.83s-7.92 4.87-11.28 7c-2 1.32-.77 2.89 0 3.5s2 .2 3.72-1.07c1.44-1 10.29-7.16 16.53-11.28s74.62-46.94 77.09-48.47 3.87-2.72 4.46-5.53a5 5 0 0 0-1.38-4.87z" fill="#ede6db"/><circle cx="111.46" cy="172.1" r="1.04" fill="#ccc4ba"/><path d="M98.83 168.65a.44.44 0 0 0-.45-.42h-28.6a3.11 3.11 0 0 1-.08.85h28.7a.44.44 0 0 0 .43-.43zM98.83 170.09a.44.44 0 0 0-.45-.42H69.62v.85H98.4a.44.44 0 0 0 .43-.43zM98.83 171.53a.44.44 0 0 0-.45-.42H69.55v.89H98.4a.44.44 0 0 0 .43-.47zM98.83 167.21a.44.44 0 0 0-.45-.42H70a6.6 6.6 0 0 0-.2.85h28.6a.44.44 0 0 0 .43-.43zM98.83 165.75a.44.44 0 0 0-.45-.42H71.19l-.67.49a1.43 1.43 0 0 0-.26.36h28.12a.44.44 0 0 0 .45-.42zM98.83 164.33a.44.44 0 0 0-.45-.42H74a15.43 15.43 0 0 0-1.81.85H98.4a.44.44 0 0 0 .43-.43z" fill="#030506"/><ellipse cx="117.81" cy="185.82" rx="2.06" ry="2.07" fill="#303031"/><ellipse cx="52.25" cy="185.82" rx="6.35" ry="6.38" fill="#f1eff0"/><ellipse cx="52.25" cy="185.82" rx="2.06" ry="2.07" fill="#303031"/><path d="M254.09 113.09c-1.43-2.42-23.36-.57-23.68.24s-3.76 15.19-4.13 16.06-1.12 5.88-1.41 6.93c-.16.62-.9 3.55-1.52 6.27 0 0-.57 5.2 1.88 7.47 1.94 1.81-.92 1.66-2.88-2a23.1 23.1 0 0 0-.28 5.28c.28.87 7.92 1.93 9.57 2.31s6.76 1.84 7.7 1.93 2.15-1.73 3.28-4.71 3.2-9.64 3.57-11 2.72-6.84 4-9.83 4.13-10.37 4.48-11.89a39 39 0 0 0-.58-7.06z" fill="#4a7a96"/><path d="M225.22 150.07c-2.44-2.27-1.88-7.46-1.88-7.47-.45 2-.83 3.8-.91 4.61a3.1 3.1 0 0 1-.09.9c1.95 3.64 4.83 3.78 2.88 1.96zM245.81 115.17a8.21 8.21 0 0 0-3.26.37l-11.81 1.32s-1.44 4.05 2.31 4.83c3.5.73 4.73-2.1 9.48-2.54 4.56.16 6.38 1.32 6.27 2.06-.2 1.49-4.36 15.77-7.62 26l.44.15c4.4-9.9 12-28 12-31.59a54.9 54.9 0 0 1-7.81-.6z" fill="#366378"/><path d="M240.93 121.14s-.41 2.34 3.88 5.89" fill="none" stroke="#366378" stroke-miterlimit="10" stroke-width=".71"/><path d="M224.43 89c-1 1.15-16.48 3.34-19.94 3.35-.59-.15-2.64-.78-4-1.21l-1-.36a1.32 1.32 0 0 0-1.66.7 11.13 11.13 0 0 0-1.32 3 1.32 1.32 0 0 0 .92 1.48 7.2 7.2 0 0 0 1.23 1s2.27-6.6 7.22-.92c1 0 2.31.13 3.79.22l16.93-1.86s2.07-9.24 2.07-12.89c-1.14 1.6-3.67 6.86-4.24 7.49z" fill="#d5a158"/><path d="M229.29 82.8c-.61-.44-1.11-.59-1.32-.18a16.84 16.84 0 0 0-.77 2.64c-.46 2-.5 4.69-1.4 6.52-.79 1.62-6.23 2.8-7.38 3.2a17.17 17.17 0 0 1-3.66.7c-.3 0-5.1.5-5.1.59 6.6.46 16.3 1.32 16.49 1.32a12.19 12.19 0 0 0 3-2.43c.54-.53 1.55-1.4 2.64-2.34l1.4-5.92a27.26 27.26 0 0 0-3.9-4.1z" fill="#a87f41"/><path d="M203.16 101.1h6.48c-1.56-1.72-3.1-3.54-3.67-4.09-1.8-1.76-2-2.36-3.25-2.51-1-.12-4.65.85-3.12 2.64.62.65 2.53 2.86 3.56 3.96z" fill="#ede6db"/><path d="M202.74 94.43c1 .12 1.32.53 2.3 1.56h.82c-2-2.28-2.89-2.72-4.61-2.43a3.2 3.2 0 0 0-2.64 3.35 1.06 1.06 0 0 0 .39.09 2.09 2.09 0 0 0 .54 0c-1.36-1.68 2.2-2.57 3.2-2.57z" fill="#a87f41"/><path d="M255.09 114.68c.73-1.32-.09-4.37-1-6.19-1.66-3.49-3.06-10-2.79-11.54s.65-7.14 1-9.93a44.56 44.56 0 0 0-.44-9.67h-22.2c-.44 1-.87 2.14-1.32 3.42a14 14 0 0 0-.54 5.16 49.25 49.25 0 0 1 0 5.51c-.07 2.25.42 10.57.49 13.56s.63 6.7.44 8.25-1.15 3-.82 3.76a2 2 0 0 1-.07 1.56c-.07.54.21 1.32.66 1.24 1.06-.25 2.51.17 4.34 0 4.5-.55 11.89-2.64 13.68-2.77a19.37 19.37 0 0 1 7.48.96 1.62 1.62 0 0 1 .65.52.61.61 0 0 0 .65-.34c.7-1.71-.63-2.75-.21-3.5z" fill="#5c7d6b"/><path d="M240.56 88.85s-3.78 5.44-5.06 7.22a18.37 18.37 0 0 1-3.21 3.64c-.29.08-20.83 2.71-22.2 2.64-2.26-.18-3.05 1.91-4.24 1.78-2.71-.28-4.45-3.82-3.5-5a7.77 7.77 0 0 1 1.32-1.64 5 5 0 0 1 2.89-.25c.67.09 2 1.61 3.79 1.64 2.09 0 17.87-5.28 18.69-6.71s2.34-7.42 3.9-8.81 10.65-2.13 7.62 5.49zM229.1 60.39l-3.24.13a9.64 9.64 0 0 0-.17-1.86c-.29-.34-1.65-.09-1.64-1.85s2-3.53 1.32-5.1a8.58 8.58 0 0 1-.07-6.6c1.12-3 6.6-1.93 11.28-.86s7.46 2.31 8.35 4.74 1.1 5.4.49 6.6a18.57 18.57 0 0 1-2.42 3.18 63.39 63.39 0 0 1-10.2 5.28c-1.49.4-4.53 1.49-5.49.86a3.38 3.38 0 0 1-1.19-3.18 4 4 0 0 0 2.98-1.34z" fill="#d5a158"/><path d="M233.29 72.83a39 39 0 0 0 1.7-5.92c-.13-.71-2.42-2.81-4.56-3.21-.07 0-1.62-4.45-1.24-5.28.66-1.55 7.71-3.46 9.24-4.54s7.75-6 7.21-4.15S243 60.11 243.17 62a62.37 62.37 0 0 0 2.25 8c.22.89-12.13 2.83-12.13 2.83z" fill="#d5a158"/><path d="M252 87.6c0 1.64.26 3.26.29 4.89 0 4.4.9 8.81 1.32 13.21.36 3.22.46 6.48.66 9.73-3.58-.42-8.15-.16-8.65-4.66-.26-2.4.53-4.83.53-7.25a79.1 79.1 0 0 0-1-8.77 62.28 62.28 0 0 0-3.46-13.21c-1.49-4.16-3.13-3.42-7.12-3.28-2 .07-5.61 1.32-5.08-.83s3-4.52 4.78-5.63c2.5-1.55 7.11-5.52 9.44-4.11 1.18.71 6.26 3.09 7.46 7.79a35.81 35.81 0 0 1 1.24 6.07 50.54 50.54 0 0 1-.41 5.6z" fill="#5c7d6b"/><path d="M228.18 53.85a1.19 1.19 0 0 0 1.32 1 1.1 1.1 0 0 0 .55-1.44 1.19 1.19 0 0 0-1.32-1 1.1 1.1 0 0 0-.55 1.44M233.14 51.33l-6.72-.36 1.68-.91 4.2.7.84.57z" fill="#3f3220"/><path d="M239.36 56.13A18 18 0 0 1 240 53a18.3 18.3 0 0 1 .87-2.32s3.63 1 2.58 3.55-2.32 2.88-2.32 2.88l-.87 3s1.77.41 1.89-.4.57 2 .16 2.55 1.85-1 2.3-2.64 1.55-3.22 1.48-2.36.45 1.19 1-1.44 2.18-7.13-.71-11.6-6.6-5.92-13.46-4.68c-6 1.1-8.35 2.26-9.44 6.43a4.82 4.82 0 0 0 1.06 4.85s2.42-5 6.46-5.28c1.47.69-.69 2.19-1.85 2.58a7.08 7.08 0 0 0-1.76 1.14s3 .15 4.33-.88 2.77-2.38 2.77-2.38a8.65 8.65 0 0 0 1.19 6c.96 1.32 3.68 4.13 3.68 4.13z" fill="#3f3220"/><path d="M239.32 57.76c1.32 3.66-3.62 6.8-4.56 8.72a8.16 8.16 0 0 0-2.76-2.22c7.11-1.97 7.32-6.5 7.32-6.5z" fill="#a87f41"/><g clip-path="url(#a)"><path d="M240.56 88.85s-3.78 5.44-5.06 7.22a18.37 18.37 0 0 1-3.21 3.64c-.29.08-20.83 2.71-22.2 2.64-2.26-.18-3.05 1.91-4.24 1.78-2.71-.28-4.45-3.82-3.5-5a7.77 7.77 0 0 1 1.32-1.64 5 5 0 0 1 2.89-.25c.67.09 2 1.61 3.79 1.64 2.09 0 17.87-5.28 18.69-6.71s2.34-7.42 3.9-8.81 10.65-2.13 7.62 5.49z" fill="#a87f41"/><path d="M240.56 88.85s-3.78 5.44-5.06 7.22a18.37 18.37 0 0 1-3.21 3.64c-.29.08-20.83 2.71-22.2 2.64-2.26-.18-3.05 1.91-4.24 1.78-2.71-.28-4.45-3.82-3.5-5a7.77 7.77 0 0 1 1.32-1.64 5 5 0 0 1 2.89-.25c.67.09 2 1.61 3.79 1.64 2.09 0 17.87-5.28 18.69-6.71s2.34-7.42 3.9-8.81 10.65-2.13 7.62 5.49z" fill="#a87f41"/><path d="M232.52 81.61c-.62 1.32-1.23 2.81-1.48 3.47a3.24 3.24 0 0 0-.55 1.51c.16.28.25-.86 4.9 1.25a13.56 13.56 0 0 1 4 2.79c.13.37.5.26 1.08-.85s4.83-7 5.28-8.16a14.1 14.1 0 0 0 1-5.15c0-2.64.15-6.8-6.22-6.8a5.28 5.28 0 0 0-5 3.5c-.88 2.02-2.53 7.41-3.01 8.44z" fill="#5c7d6b"/><path d="M244.91 70.81c.58 2.25 1.41 7.45-1.8 11.89-2.42 3.33-4 5.47-5.08 6.77a5.48 5.48 0 0 1 1.32 1.2c.13.37.5.26 1.08-.85s4.83-7 5.28-8.16a14.1 14.1 0 0 0 1-5.19c.03-1.75.13-4.24-1.8-5.66z" style="isolation:isolate" fill="#5c7e6a" opacity=".3"/></g></svg>