<svg id="Layer_1" xmlns="http://www.w3.org/2000/svg" viewBox="0 0 397 360" width="397" height="360"><defs><style>.cls-1{fill:#4d7d96}.cls-2{fill:#376479}.cls-3{fill:#e5be7a}.cls-4{fill:#faf7f5}.cls-5{fill:#fad17d}.cls-6{fill:#95bec2}</style></defs><path class="cls-1" d="M0 0h397v212.43H0z"/><path class="cls-2" d="M0 212.43h397V360H0z"/><path class="cls-3" d="M163.89 107.95a4.54 4.54 0 0 1-3.94 2.74H95.83a2.94 2.94 0 0 1-2.92-2.92V69.71a2.94 2.94 0 0 1 2.92-2.92h52.64a9.19 9.19 0 0 1 5.15 2l16.11 15.78a4.5 4.5 0 0 1 1.2 4.63z"/><path class="cls-4" d="M97.82 91.7h170.77v116.89H97.82z"/><path class="cls-5" d="M284.38 82.66h-106a7.89 7.89 0 0 0-4.87 2.09L164 94.4a7.89 7.89 0 0 1-5 2H94.84a2.94 2.94 0 0 0-2.92 2.92v112.1a2.94 2.94 0 0 0 2.92 2.92h189.54a2.94 2.94 0 0 0 2.92-2.92V85.6a2.94 2.94 0 0 0-2.92-2.94z"/><path class="cls-4" d="M97.82 70.3h52.91v18.44H97.82z"/><path class="cls-2" d="M140.57 81.2l-.24-.41-.3-.59-.26-.61a1.32 1.32 0 0 1-.12-.43v-.53a3.16 3.16 0 0 1 .12-.87 2.37 2.37 0 0 1 .37-.79l.24-.22a.34.34 0 0 0 .12-.28 2.17 2.17 0 0 0-.22-.41.43.43 0 0 0-.34-.18h-.26a1.38 1.38 0 0 0-.93.32 2.25 2.25 0 0 0-.57.79 4.06 4.06 0 0 0-.3 1 7 7 0 0 0 0 1.08 3.23 3.23 0 0 0 .28 1.26 13.19 13.19 0 0 0 .63 1.32q.37.69.73 1.5a9.86 9.86 0 0 1 .61 1.79.73.73 0 0 1 0 .22 1.22 1.22 0 0 1-.28.83.85.85 0 0 1-.65.34.75.75 0 0 1-.53-.26.83.83 0 0 0-.34.14 1 1 0 0 0-.16.26 1.26 1.26 0 0 0 .43.83 1.22 1.22 0 0 0 .85.35 2.27 2.27 0 0 0 1-.22 2.45 2.45 0 0 0 .79-.59 2.8 2.8 0 0 0 .51-.85 2.86 2.86 0 0 0 .16-1.08 4.67 4.67 0 0 0-.37-2q-.37-.85-.81-1.68zm-8.76-1.1a3 3 0 0 1 .26-.49 1.12 1.12 0 0 1 .22-.32l.2-.22a.47.47 0 0 1 .32-.22h.43a.55.55 0 0 1 .47.26 1 1 0 0 1 .18.57 1.18 1.18 0 0 1-.39.91 1.66 1.66 0 0 1-1.14.37h-.65a3.83 3.83 0 0 1 .14-.77m-2 3a3.94 3.94 0 0 0 .22.91 3.37 3.37 0 0 0 .47.83 3.94 3.94 0 0 0 .83.79 5.34 5.34 0 0 0 .87.34 3.14 3.14 0 0 0 .87.16 4.77 4.77 0 0 0 1.29-.22 3 3 0 0 0 1.06-.63 2 2 0 0 0 .32-.35 1 1 0 0 0 .24-.63 1 1 0 0 0 0-.24 1.58 1.58 0 0 1 0-.22.59.59 0 0 0-.24-.22l-.24-.1-1 .69a2 2 0 0 1-1.12.32h-.35a1.48 1.48 0 0 1-.55-.3 2.15 2.15 0 0 1-.53-.69 2.94 2.94 0 0 1-.26-1.26v-.12a.87.87 0 0 1 0-.18l.35.06a2 2 0 0 0 .51 0 3.1 3.1 0 0 0 1.18-.26 2.62 2.62 0 0 0 1.4-1.46 2.6 2.6 0 0 0 .18-1 1.92 1.92 0 0 0-.57-1.4 2.19 2.19 0 0 0-.73-.43 2.64 2.64 0 0 0-1-.18 2.54 2.54 0 0 0-1.42.41 3.51 3.51 0 0 0-1 1.06 5 5 0 0 0-.61 1.48 6.61 6.61 0 0 0-.2 1.64v1m-8.74-4.93a.79.79 0 0 0 .26.55 1.81 1.81 0 0 1 .39.51l.51.71.35.69.37.65.43.83a1.16 1.16 0 0 1-.3.71 3.79 3.79 0 0 0-.45.65 9.49 9.49 0 0 1-.71 1.18 5.23 5.23 0 0 0-.63 1.18 2.62 2.62 0 0 0 .14.61 1.44 1.44 0 0 0 .43.55.79.79 0 0 0 .45.16.75.75 0 0 0 .65-.41 4.1 4.1 0 0 0 .37-.79 1.92 1.92 0 0 1 .24-.53l.34-.63.37-.65a6.51 6.51 0 0 1 .39-.59 1.74 1.74 0 0 1 .34.35l.57.67.57.75.39.47.26.12h.65a1.7 1.7 0 0 0 .34-.26.45.45 0 0 0 .16-.34 1.18 1.18 0 0 0-.3-.75c-.18-.22-.35-.45-.51-.69a2.13 2.13 0 0 0-.32-.43l-.51-.59-.47-.53a.83.83 0 0 1-.22-.32.65.65 0 0 1 .16-.34l.37-.51.47-.53a3.29 3.29 0 0 0 .34-.45l.81-.79a11.54 11.54 0 0 0 .83-1 .85.85 0 0 0 0-.26.57.57 0 0 0-.35-.55 1.85 1.85 0 0 0-.77-.16 1.08 1.08 0 0 0-.79.32 6.7 6.7 0 0 0-.57.63 1.2 1.2 0 0 0-.28.3l-.47.59-.49.67a5 5 0 0 0-.32.51l-.37-.49-.3-.47-.3-.55-.39-.73a1.56 1.56 0 0 0-.67-.65 2.52 2.52 0 0 0-.79-.22.3.3 0 0 0-.26.12l-.18.24zM113.16 84a3.94 3.94 0 0 1 .2-1.22 6.71 6.71 0 0 1 .51-1.18 5.46 5.46 0 0 0 .24-.53 6.53 6.53 0 0 1 .45-.89 4.2 4.2 0 0 1 .65-.83 1.16 1.16 0 0 1 .85-.37h.39a1.24 1.24 0 0 1 0 .37 5 5 0 0 1-.2.47l-.32.73-.22.43a6.29 6.29 0 0 1-.47 1 10.1 10.1 0 0 1-.69 1.06 6.76 6.76 0 0 1-.75.87 1.16 1.16 0 0 1-.65.39V84zm6 .79l-.14-.81a13.45 13.45 0 0 1-.34-2 9.32 9.32 0 0 0-.24-2 8.8 8.8 0 0 0-.2-1.1 1.54 1.54 0 0 0-.51-.83l-.41-.28-.51-.24h-1a2.64 2.64 0 0 0-1.74.71 7.43 7.43 0 0 0-1.44 1.74 10.08 10.08 0 0 0-1 2.07 5.74 5.74 0 0 0-.35 1.79 4.38 4.38 0 0 0 0 .71 2.07 2.07 0 0 0 .24.69 1.44 1.44 0 0 0 .51.51 1.66 1.66 0 0 0 .87.2 2.29 2.29 0 0 0 1.38-.51 6.27 6.27 0 0 0 1.2-1.1 7.18 7.18 0 0 0 .91-1.36 3.94 3.94 0 0 0 .43-1.16q.12.65.24 1.48a6.61 6.61 0 0 0 .3 1.56 4.61 4.61 0 0 0 .47 1.22.83.83 0 0 0 .73.49h.28l.32-.14a.73.73 0 0 0 .24-.18.41.41 0 0 0 0-.3 1.1 1.1 0 0 0 0-.35l-.14-.35zm-11.06.87V83q0-1.87.1-4.1t.18-5l2.84-.49L113 73a1.1 1.1 0 0 0 .75-.93c0-.26-.2-.39-.59-.39 0-.16-.12-.24-.34-.24h-.2a3.67 3.67 0 0 0-1 .16l-.59.16-.41.1a7.63 7.63 0 0 1-2 .24 6.25 6.25 0 0 1-1.76-.24 8.62 8.62 0 0 1-2.86.71 10.2 10.2 0 0 0-1.14.16l-.81.22a.45.45 0 0 0-.16.34 4.85 4.85 0 0 0 .26.59 2.7 2.7 0 0 0 1.76.57h2.48v2.23q0 1-.12 2.37-.2 3.14-.18 4.6v1.72a2 2 0 0 0 .45 1.14 1.34 1.34 0 0 0 1 .53.43.43 0 0 0 .43-.34 1.4 1.4 0 0 0 0-.18 2 2 0 0 0 0-.24v-.55zM269.79 89.45h30.45v40.59h-30.45z"/><path class="cls-6" d="M300.71 85.52l7.59-25.24a12.19 12.19 0 0 0-23.35-7l-1.24 4.1a6.81 6.81 0 0 1-13-3.94l1.24-4.1A25.84 25.84 0 1 1 321.4 64.2l-7.59 25.24z"/><path class="cls-6" d="M310.2 140.88a5.44 5.44 0 0 1-6.78 3.65l-60.9-18.28a5.44 5.44 0 0 1-3.65-6.78l13.64-45.37a5.44 5.44 0 0 1 6.78-3.65l60.82 18.28a5.44 5.44 0 0 1 3.65 6.78zM284.38 124l.53-16.13a6.84 6.84 0 1 0-6.69-2l-8.44 13.81z"/></svg>