<svg xmlns="http://www.w3.org/2000/svg" viewBox="0 0 319 363" width="319" height="363"><path fill="#557b99" d="M-.05 0h319v182h-319z"/><path fill="#3e627b" d="M0 182h319v181H0z"/><path fill="#68a0c3" d="M91.71 21.55h58.27v97.49H91.71z"/><path fill="#68a0c3" d="M60.55 84.56h120.59v93.33H60.55z"/><path fill="#68a0c3" d="M206 149.31v56.73H35.69v-56.73h24.86v-1.51h120.59v1.51H206z"/><path d="M150 38.7V46a29.31 29.31 0 0 1-7.41-6.52c-3.83 4.08-11.61 10.68-21.84 10.68A28.2 28.2 0 0 1 99 40a24.07 24.07 0 0 1-7.41 6.45v-7.21a16.11 16.11 0 0 0 4.3-5.68l2.35-6 3.06 5.68a22.73 22.73 0 0 0 19.5 11.07c11.52 0 19.62-11.27 19.77-11.37l2.82-4 2.17 4.3A20.71 20.71 0 0 0 150 38.7zM165 115.75A27.92 27.92 0 0 1 142.71 105c-3.83 4.1-11.61 10.7-21.82 10.7A28.22 28.22 0 0 1 99 105.57c-3.19 4.28-9.88 10.18-22.24 10.18v-5.86c15 0 19.18-10.28 19.35-10.72l2.08-5.91 3 5.56a22.78 22.78 0 0 0 19.5 11.07c11.44 0 19.62-11.27 19.77-11.37l2.79-3.93 2.2 4.3a22.24 22.24 0 0 0 19.47 11zM181.14 103.81v7.56a28.84 28.84 0 0 1-16.14 4.38v-5.86a21.52 21.52 0 0 0 16.14-6.08zM76.69 109.89v5.86a27.75 27.75 0 0 1-16.14-4.94v-7.56a22 22 0 0 0 16.14 6.64zM165 177.9a27.92 27.92 0 0 1-22.24-10.7c-3.83 4.1-11.61 10.7-21.82 10.7A28.22 28.22 0 0 1 99 167.72c-3.14 4.28-9.83 10.18-22.19 10.18V172c15.15 0 19.3-10.6 19.35-10.7l2.08-6.05 3.11 5.76a22.78 22.78 0 0 0 19.5 11.07c11.52 0 19.62-11.27 19.77-11.37l2.79-4 2.13 4.25A22.24 22.24 0 0 0 165 172zM206 171.84v5.88a28.12 28.12 0 0 1-18.66-9.88c-3.19 4.28-9.88 10.18-22.24 10.18v-6c15.15 0 19.3-10.6 19.35-10.72l2.27-6.05 2.94 5.78A22.91 22.91 0 0 0 206 171.84zM35.69 177.68a32.57 32.57 0 0 0 18.63-10.45 28 28 0 0 0 22.24 10.67V172a22.24 22.24 0 0 1-19.35-11L55 156.72l-2.79 3.93s-6.73 9.35-16.52 11.12v5.91zM105.65 84.44h-14V74.18a10.23 10.23 0 0 1 3.11-.47 10.82 10.82 0 0 1 8.67 4.35 10.63 10.63 0 0 1 2.22 6.38z" fill="#ece6dd"/><path d="M122.95 84.56h-21.63a10.63 10.63 0 0 1 2.17-6.5 10.85 10.85 0 0 1 19.45 6.5z" fill="#ece6dd"/><path d="M140.37 84.56H118.7a10.84 10.84 0 1 1 21.67 0z" fill="#ece6dd"/><path d="M136 84.44a10.53 10.53 0 0 1 2.19-6.44 10.77 10.77 0 0 1 8.65-4.35 10.43 10.43 0 0 1 3.11.47v10.32zM71.05 149.31h-10.5v-10.83a10.87 10.87 0 0 1 10.33 9.29 13 13 0 0 1 .17 1.54z" fill="#ece6dd"/><path d="M88.35 149.31h-21.7a10.85 10.85 0 0 1 21.7 0z" fill="#ece6dd"/><path d="M105.65 149.31H84a10.82 10.82 0 1 1 21.65 0z" fill="#ece6dd"/><path d="M122.95 149.31h-21.63a10.63 10.63 0 0 1 2.17-6.5 10.85 10.85 0 0 1 19.45 6.5z" fill="#ece6dd"/><path d="M140.37 149.31H118.7a10.84 10.84 0 1 1 21.67 0z" fill="#ece6dd"/><path d="M157.71 149.31H136a10.63 10.63 0 0 1 2.17-6.5 10.82 10.82 0 0 1 19.52 6.5z" fill="#ece6dd"/><path d="M175 149.31h-21.63a10.84 10.84 0 1 1 21.67 0z" fill="#ece6dd"/><path d="M181.14 138.48v10.82h-10.43a10.89 10.89 0 0 1 10.43-10.82zM35.69 206h18.06a10.85 10.85 0 0 0-10.84-10.8 10.63 10.63 0 0 0-7.12 2.69V206z" fill="#ece6dd"/><path d="M71.05 206H49.31a10.63 10.63 0 0 1 2.17-6.5 10.82 10.82 0 0 1 19.57 6.5z" fill="#ece6dd"/><path d="M88.35 206h-21.7a10.85 10.85 0 0 1 21.7 0z" fill="#ece6dd"/><path d="M105.65 206H84a10.82 10.82 0 1 1 21.65 0z" fill="#ece6dd"/><path d="M122.95 206h-21.63a10.63 10.63 0 0 1 2.17-6.5 10.85 10.85 0 0 1 19.45 6.5z" fill="#ece6dd"/><path d="M140.37 206H118.7a10.84 10.84 0 1 1 21.67 0z" fill="#ece6dd"/><path d="M157.71 206H136a10.63 10.63 0 0 1 2.17-6.5 10.82 10.82 0 0 1 19.52 6.5z" fill="#ece6dd"/><path d="M175 206h-21.63a10.84 10.84 0 1 1 21.63 0z" fill="#ece6dd"/><path d="M192.38 206h-21.67a10.84 10.84 0 1 1 21.67 0z" fill="#ece6dd"/><path d="M206 197.89V206h-18a10.63 10.63 0 0 1 2.17-6.5 10.77 10.77 0 0 1 8.65-4.35 10.63 10.63 0 0 1 7.18 2.74z" fill="#ece6dd"/><g><rect x="205.95" y="21.16" width="81.05" height="98.56" rx="3.23" ry="3.23" fill="#68a0c3"/><path fill="#ece6dd" d="M205.95 29.73H287v8.7h-81.05z"/><circle cx="216.25" cy="26.13" r="2.15" fill="#ece6dd"/><circle cx="276.52" cy="26.13" r="2.15" fill="#ece6dd"/><path fill="#68a0c3" d="M210.18 42.83h72.57v72.57h-72.57z"/><path d="M226.56 66.89l-1.08-3.56h-5.68l-1.11 3.56h-3.34l5.32-15.58h4.21l5.05 15.58h-3.36zM223.63 57l-.91-3.38h-.11l-1 3.49-1.15 4h4.34zM238 60.9h-2.84v6h-3.38V51.29h5.92c3.56 0 5.36 1.87 5.36 4.79a4.69 4.69 0 0 1-4.54 4.83zm-2.84-7.25v5h2.17a2.17 2.17 0 0 0 2.32-2.47 2.17 2.17 0 0 0-2.43-2.49h-2.06zM253.79 60.27l3.32 6.62h-3.54l-3-6.27h-1.93v6.27h-3.32V51.32h6.25a4.47 4.47 0 0 1 5.1 4.58 4.64 4.64 0 0 1-2.88 4.37zm-2.8-2a2.35 2.35 0 0 0 .32-4.67h-2.7v4.7H251zM259.88 66.89v-15.6h3.32v15.6zM266.65 66.89v-15.6H270v13.26h7.92v2.34h-11.27zM231.81 80.88l-7.07.65v-4.79l7.74-2.17H239v34.71h-7.07v-28.4zM249.45 93.53l-3.8-1.87 1.26-17.18h19.89v5.4h-14.3l-.5 7.83a19 19 0 0 1 4.34-.61c6.68 0 12.13 3.58 12.13 11 0 7.79-6.07 11.63-13.41 11.63a26 26 0 0 1-11.48-2.43l1.67-4.95a27.88 27.88 0 0 0 8.55 1.67c4.64 0 7.44-2 7.44-6.07s-3-5.53-6.64-5.53a13.39 13.39 0 0 0-5.15 1.11z" fill="#ece6dd"/></g></svg>