<svg xmlns="http://www.w3.org/2000/svg" viewBox="0 0 397 360" width="397" height="36"><path d="M0 0h397v360H0z"/><path d="M164.1 152.5h-3.8v.2l-6.5 17.8h2.4a2.5 2.5 0 0 0 1.5-.4 2.6 2.6 0 0 0 .8-1.3l1-2.8h5.4l1 2.8a2.5 2.5 0 0 0 .8 1.3 2.6 2.6 0 0 0 1.5.4h2.4l-6.5-18m-1.9 4.9l.4 1.5 1.4 3.9h-3.5l1.4-3.9zM135.9 166.8l-2.2-4.4a3.3 3.3 0 0 0-.9-1.1 4.7 4.7 0 0 0 .8-1.1l4.2-7.6h-4.2l-3.6 6.7-.4.3h-2.3v-5.1a1.7 1.7 0 0 0-2-2h-1.9v18h3.9V163h2.2a.6.6 0 0 1 .4.3l2.8 5.7a2.3 2.3 0 0 0 1.1 1.2 3.7 3.7 0 0 0 1.6.3h2.4l-.2-.5-1.7-3.3M152.4 152.5h-1.5a2 2 0 0 0-1.5.5 2 2 0 0 0-.5 1.5v5.4h-5.8v-5.4a1.8 1.8 0 0 0-2-2h-1.9v18h3.8v-7.3h5.8v7.3h3.8v-18h-.3M185.4 152.5h-1.5a1.7 1.7 0 0 0-2 2v8.8l-.8-1.3-5.7-9.5h-3.7v18h1.9a1.7 1.7 0 0 0 2-2v-7.9-.8l.8 1.3 5.8 9.4h3.7v-18h-.3M193.8 152.6h1.9l6.8 17.9h-.5c-1.3 0-1.6-.3-2.1-1.5l-1.6-4.2h-7.1l-1.6 4.2c-.5 1.2-.8 1.5-2.1 1.5h-.5l6.8-17.9m4 10.6l-2.4-6.4c-.3-.8-.7-2.3-.7-2.3s-.4 1.5-.7 2.3l-2.3 6.4zM224.4 152.6h1.9l6.8 17.9h-.5c-1.3 0-1.6-.3-2.1-1.5l-1.6-4.2h-7.1l-1.6 4.2c-.4 1.2-.8 1.5-2 1.5h-.5l6.8-17.9m4 10.6l-2.4-6.4c-.3-.8-.7-2.3-.7-2.3s-.4 1.5-.7 2.3l-2.4 6.4zM263.7 152.6h1.8l4.7 10.4c.4.9.9 2.1.9 2.1h.1l.9-2.1 4.7-10.4h1.8l1.6 17.9h-.5c-1.1 0-1.5-.5-1.6-1.6l-.8-10.9c-.1-1-.1-2.5-.1-2.5a23.5 23.5 0 0 1-.9 2.5l-4.2 9.1h-1.6l-4.2-9.1c-.4-.9-1-2.5-1-2.5s0 1.6-.1 2.5l-.9 10.9c-.1 1.1-.5 1.6-1.6 1.6h-.4l1.5-17.9M286.3 162.7l-6.2-10.1h.5a2.3 2.3 0 0 1 2.4 1.4l3 5.1c.6.9 1.1 2 1.1 2h.1l1.1-2 3-5.1a2.3 2.3 0 0 1 2.4-1.4h.5l-6.2 10.1v7.8h-1.8v-7.8M215.9 157a6.1 6.1 0 0 0-5.5-3.2c-4 0-7 3.1-7 7.4s3 7.7 7.1 7.7a7.6 7.6 0 0 0 4.5-1.4 2.1 2.1 0 0 1 2.4.1 9.5 9.5 0 0 1-6.9 2.9c-5.2 0-8.9-4.2-8.9-9.4a8.8 8.8 0 0 1 8.8-9.1c2.6 0 5.7 1.1 6.9 3.8a7 7 0 0 1 .6 1.8s-1.5.2-1.9-.8M239.8 152.6h-5.5V169c0 1.1.5 1.6 1.5 1.6h4c5.4 0 9-3.3 9-9s-3.6-8.9-9-8.9m-.2 16.3h-3a.5.5 0 0 1-.6-.6v-14.2h3.6c4.4 0 7.3 2.6 7.3 7.4s-2.9 7.4-7.3 7.4zM258.8 169h-6.3a.5.5 0 0 1-.6-.6v-6.1h6.7v-1.6H252v-6.5h8.3c0-1.1-.5-1.6-1.6-1.6h-8.6V169c0 1.1.5 1.6 1.5 1.6h7.7c1.1 0 1.6-.5 1.6-1.6h-2.2" fill="#fff"/><path d="M103.5 169.4s-2.9-6.8 2.3-11.9 11.6-5.3 12.9-5.4 1.9 6.2-2.8 13.2-11.2 5.1-11.2 5.1 6.4-8.2 5.7-8.1-3.9 3.7-6.8 7.1" fill="#9cb53b"/><path data-name="Buy vs. Lease" d="M136.8 68.5c.1 1.4 1.3 2 2.9 2 4.9 0 12.2-3.5 13-9 0-2.3-2-3.1-4.2-3.1a18 18 0 0 0-4.7.5c4.3-1.5 9.8-5 9.8-9.3s-4-4.2-8.2-4.2a49.2 49.2 0 0 0-7 .5h-.6a1.3 1.3 0 0 0-1.5-1 1.5 1.5 0 0 0-1.7 1.6 12.5 12.5 0 0 1-3.4.4l-.8-.2a.5.5 0 0 0-.4.4c0 1.6 1.1 2 2.4 2.3l2.6-.3c.3 2.7 1.1 7.1 1.3 10.4-.5.4-1.4.5-1.4 1.2a1 1 0 0 0 .9 1h.5zm1.1-20a67.5 67.5 0 0 1 8.5-.7c2.3 0 4.2.7 4.2 2.2s-2.8 4.1-5 5.5a19 19 0 0 1-6.9 3.2zm1.7 12.7a50 50 0 0 1 7.5-.8c1.6 0 3 .1 3 1.1a3.2 3.2 0 0 1-.7 1.8c-2 2.9-6.2 4.8-9.1 5.2-.5-.2-.7-.2-.7-.4s-.2.3-.8-6.7zm19.2 3.7c0 1.7.1 4.8 2.6 4.8s6-5.9 9.1-11c0 2.2.1 8.9 3.1 9.2 1.4 0 2.4-.1 5.2-5.5a3.6 3.6 0 0 0 .4-1.1.7.7 0 0 0-.5-.7 1.1 1.1 0 0 0-.8.5c-1.1 1.6-2.3 4-3.7 4s-1.1-5-1.1-5.8a43 43 0 0 1 .3-5.6 2.9 2.9 0 0 0 .1-.8 1.1 1.1 0 0 0-.9-1.4h-.3a1.8 1.8 0 0 0-1.2.8c-.5.8-2.1 4.3-2.7 5.5a41.8 41.8 0 0 1-5 7.9 2.7 2.7 0 0 1-1.4.9c-.4 0-.6-.3-.6-1.7.1-3.4.1-10.2.1-10.2a7.3 7.3 0 0 0-.5-2.5 2 2 0 0 0-1.7-1.1c-.7 0-1.8.4-1.8 1.4a3.2 3.2 0 0 1 .8 1.1c.5 1 .6 4.4.6 5.5s-.2 4-.2 5.8zm38.5-10.3a26.5 26.5 0 0 1 1.3 7.5c-5.7 3.1-11.8 10-11.8 16.5a6.2 6.2 0 0 0 2.2 4.9 4.7 4.7 0 0 0 3.1 1.1c2.8 0 4.6-1.9 6.1-3.8a21.6 21.6 0 0 0 3.5-11.6c0-.5-.1-2.9-.2-5.8l2.8-.7a1.2 1.2 0 0 0 1.4-1.1v-.2a.9.9 0 0 0-.8-.9h-.1a7.7 7.7 0 0 0-3.4.6c-.5-4.9-1.6-9.9-3.7-9.9s-3.5 4.3-4.3 5.5c-2 3.5-4.7 7.6-5.9 8.2a.2.2 0 0 1-.3-.2c0-2.6.2-5.2.2-7.6 0-.7 0-1.3-.1-2s-.9-3.1-2.3-3.1-1.7.4-1.7 1.3 1.1.4 1.2 2.7.1 2.4.1 3.6-.1 3.4-.1 5 0 1.5.1 2.2a2.5 2.5 0 0 0 1.9 1.7c1.7 0 3.7-2.9 5.9-6.3s3.2-5.1 4.9-7.6zM199 68c0 2.9-.7 7.4-2.6 10.6s-2.3 3.5-4.4 3.5-2.7-1.9-2.7-3.9c0-5.2 5.2-11.1 9.5-13.7.2 1.3.2 2.6.2 3.5zm26.5-4c1.1 2.2 1.9 4.3 2.3 5a1.8 1.8 0 0 0 1.1 1c.9 0 1.3-1.6 1.3-1.6 2.3-6.2 5.2-11.1 8.3-16.9a1.1 1.1 0 0 0 .2-.5 2 2 0 0 0-1.9-1.8c-.7 0-.8.6-1.4 2a96.8 96.8 0 0 1-6.7 13.4l-4.8-9.8c-.5-.9-.7-2.5-1.6-2.5a2.5 2.5 0 0 0-2.3 1.3.9.9 0 0 0-.1.4 3.6 3.6 0 0 0 1 1.8 47.5 47.5 0 0 1 4.6 8.2zm31.8-1.7a3.4 3.4 0 0 0 .5-1.7V60c-.3-1.9-2.6-2.1-2.8-2.1a14.4 14.4 0 0 0-4.7 1.1c-2 .7-4.1 1.7-6.4 1.9a.7.7 0 0 1-.7-.7c.1-1.7 5.9-7.8 8.3-7.8a1.2 1.2 0 0 1 1 .5 1.4 1.4 0 0 0 .9.5c.6 0 .8-.8.8-1.3a2.9 2.9 0 0 0-2.8-2.6c-1.6 0-3.8 1.6-5.6 3.2a18.8 18.8 0 0 0-4.8 6.1 7.3 7.3 0 0 0-.4 2 2.5 2.5 0 0 0 2.6 2.4h.1a14.5 14.5 0 0 0 5.7-1.4 22.3 22.3 0 0 1 5.6-1.6.7.7 0 0 1 .8.7c-.2.9-2.3 2.8-4.7 4.3a18.8 18.8 0 0 1-3.7 1.4c-1.2.5-1.4 1-1.4 1.7a1.4 1.4 0 0 0 1.4 1.3 4.8 4.8 0 0 0 1.9-.5 15.2 15.2 0 0 0 3-1.9l2.6-1.4a34 34 0 0 1 4-2.2c2.4-1.2 2.9-1.5 2.9-2a.8.8 0 0 0-.7-.8h-.2l-1.4.5zm9.8 4.4a1.9 1.9 0 0 0-3.7-.2c0 1.4.7 2.8 1.9 2.8s1.9-1.6 1.9-2.5zM148 102.1c0 1.9-.2 2.8-.2 3.8s1.3 1.4 2 1.4a2.2 2.2 0 0 0 1.7-.8 100.7 100.7 0 0 0 12.4-7.4 2.4 2.4 0 0 0 1.3-1.6.6.6 0 0 0-.5-.6h-.1c-1.2 0-2 .9-2.9 1.4-2.9 1.7-8 4.8-10.8 5.2 0-.5-.1-.8-.1-1.3-.2-3.8-.4-9-1.5-20.8a1.4 1.4 0 0 0-1.6-.8c-.9 0-2 .4-2 1.3a9.8 9.8 0 0 0 .4 1.3 104.2 104.2 0 0 1 1.9 18.7zm22.9-9.2c-1.5 2.1-3 4.8-3 7.4a6.5 6.5 0 0 0 1 3.8 5.7 5.7 0 0 0 4.3 1.7c3.1 0 6.2-1.7 8.8-4a20.2 20.2 0 0 0 3.1-3.4 2.9 2.9 0 0 0 .7-1.7.7.7 0 0 0-.7-.7c-.7-.1-2.9 2.9-4.2 3.9s-4.5 3.7-7.4 3.7a3 3 0 0 1-3-3v-.2a4.1 4.1 0 0 1 .3-1.4c3.9-.8 11-5.3 11-9.9a2.7 2.7 0 0 0-2.5-2.9h-.2c-2.9 0-7.2 5-8.4 6.8zm8.2-2.5c-.9 1.8-3.7 4.5-7.6 5.8 2.1-3.1 4.7-6.1 7.6-7.6a.4.4 0 0 1 .4.4 4.3 4.3 0 0 1-.4 1.3zm27.5 7.1c0-2.9.2-5.3.2-7.9a3.5 3.5 0 0 0-1.3-2.8 3.7 3.7 0 0 0-2.3-.8 6.7 6.7 0 0 0-2.6.7 16.7 16.7 0 0 0-4.4 2.9 39.6 39.6 0 0 0-4.1 4.4c-2.5 3.3-3.5 6.2-3.5 8.3s.9 3 2.5 3a5.3 5.3 0 0 0 2-.5c2.2-1.1 4.6-3.7 7.3-6.8s2.9-4.1 3.6-4.8c.1 2.8-.3 11.3 3.3 11.3 1.3 0 2.5-1 5.6-6a1.7 1.7 0 0 0 .4-1.1.7.7 0 0 0-.7-.5 1.3 1.3 0 0 0-.7.5c-1.1 1.2-3.4 4.6-4.3 4.6s-.9-.2-.9-4.5zm-8.8-5.9c3.7-3.4 5-3.5 5.6-3.5a.4.4 0 0 1 .4.5 2.2 2.2 0 0 1-.1.7 40.6 40.6 0 0 1-5.7 7.8c-2.8 3.1-5.4 5.3-6.5 5.3a.6.6 0 0 1-.5-.7c0-1.7 2.6-6.4 6.8-10.2zm34.9 6.7a3.4 3.4 0 0 0 .5-1.7V96c-.3-1.9-2.6-2.1-2.8-2.1a14.4 14.4 0 0 0-4.7 1.1c-2 .7-4.1 1.7-6.4 1.9a.7.7 0 0 1-.7-.7c.1-1.7 5.9-7.8 8.3-7.8a1.2 1.2 0 0 1 1 .5 1.4 1.4 0 0 0 .9.5c.6 0 .8-.8.8-1.3a2.9 2.9 0 0 0-2.8-2.6c-1.6 0-3.8 1.6-5.6 3.2a18.8 18.8 0 0 0-4.8 6.1 7.3 7.3 0 0 0-.4 2 2.5 2.5 0 0 0 2.6 2.4h.1a14.5 14.5 0 0 0 5.7-1.4 22.3 22.3 0 0 1 5.6-1.6.7.7 0 0 1 .8.7c-.2.9-2.3 2.8-4.7 4.3a18.8 18.8 0 0 1-3.7 1.4c-1.2.5-1.4 1-1.4 1.7a1.4 1.4 0 0 0 1.4 1.3 4.8 4.8 0 0 0 1.9-.5 15.2 15.2 0 0 0 3-1.9l2.6-1.4a34 34 0 0 1 4-2.2c2.4-1.2 2.9-1.5 2.9-2a.8.8 0 0 0-.7-.8h-.2l-1.4.5zm8.8-5.4c-1.5 2.1-3 4.8-3 7.4a6.5 6.5 0 0 0 1 3.8 5.7 5.7 0 0 0 4.3 1.7c3.1 0 6.2-1.7 8.8-4a20.2 20.2 0 0 0 3.1-3.4 2.9 2.9 0 0 0 .7-1.7.7.7 0 0 0-.7-.7c-.7-.1-2.9 2.9-4.2 3.9s-4.5 3.7-7.4 3.7a3 3 0 0 1-3-3v-.2a4.1 4.1 0 0 1 .3-1.4c3.9-.8 11-5.3 11-9.9a2.7 2.7 0 0 0-2.5-2.9h-.2c-2.9 0-7.2 5-8.4 6.8zm8.2-2.5c-.9 1.8-3.7 4.5-7.6 5.8 2.1-3.1 4.7-6.1 7.6-7.6a.4.4 0 0 1 .4.4 4.3 4.3 0 0 1-.4 1.3z" fill="#fff"/></svg>