<svg xmlns="http://www.w3.org/2000/svg" viewBox="0 0 397 360" width="397" height="360"><defs><clipPath id="a"><path fill="none" d="M0 0h397v360H0z"/></clipPath></defs><g clip-path="url(#a)"><path fill="#8c9a3f" d="M0 0h397v182H0z"/><path fill="#768034" d="M0 182h397v178H0z"/><path d="M297.5 4l-63.6 35.8V21.3H206v34.3l-24 13.6 2.6 6.2V196h94.8v-77h37.4v77h93.8V75.4l2.4-6.2zm-63.8 151.3h-19.9v-23.7h19.9v23.7zm0-27.3h-19.9v-23.8h19.9V128zm22.9 27.3h-19.9v-23.7h19.9v23.7zm0-27.3h-19.8v-23.8h19.9V128zm103.8 27.3h-19.8v-23.7h19.9v23.7zm0-27.3h-19.8v-23.8h19.9V128zm22.9 27.3h-19.8v-23.7h19.9v23.7zm0-27.3h-19.8v-23.8h19.9V128z" fill="#768034"/><path fill="#fff" d="M52.8 23.3V252h28.1V61.1h147.9v-14H80.9V23.3l-14-13.5-14.1 13.5z"/><path fill="#fff" d="M196.4 73h4.4v16.23h-4.4zM113.3 73h4.4v16.23h-4.4z"/><path fill="#ba3643" d="M89.7 87h126.9v81.02H89.7z"/><path fill="#ebe5dc" d="M52.8 23.3v224h14.1V121.9l14-3.2V75.2h147.9V61.1H66.9V9.8L52.8 23.3z"/><path d="M123.9 123.8v-22.3h15.2v3.4h-10.4v6h8.1v3.2h-8.1v9.6h-4.8zM152.4 124.2c-7.3 0-10.5-4.6-10.5-11.4s3.1-11.6 10.5-11.6 10.3 5.3 10.3 11.5-3.5 11.5-10.3 11.5zm0-19.6c-4.4 0-5.4 4-5.4 8.2s1.4 7.9 5.4 7.9 5.2-3.4 5.2-7.9-.9-8.3-5.2-8.3zM178.9 114.4l4.8 9.5h-5.2l-4.2-9h-2.8v9h-4.8v-22.3h9c5.1 0 7.3 3.1 7.3 6.6a6.6 6.6 0 0 1-4.1 6.2zm-4-2.8a3.1 3.1 0 0 0 3.3-3.4 3 3 0 0 0-2.7-3.3h-4v6.7zM130.5 132.5l-1.2 3.2a15.8 15.8 0 0 0-6-1.1c-2 0-3.3 1-3.3 2.9s2.1 2.3 4.4 2.8 7.5 1.7 7.5 7-3.1 6.7-9.4 6.7a19 19 0 0 1-8.1-1.8l1.2-3.4a19.5 19.5 0 0 0 7.3 1.5c2.6 0 4-.8 4-3s-1.5-2.4-3.7-3c-4.4-1.1-8.2-2.1-8.2-6.6s2.9-6.8 8.5-6.8a15.1 15.1 0 0 1 7 1.6zM149.7 153.6l-1.6-5.1H140l-1.6 5.1h-4.8l7.6-22.3h6l7.4 22.3h-4.9zm-4.2-14.2l-1.3-4.8h-.2l-1.4 5-1.7 5.7h6.1zM157.2 153.6v-22.3h4.8v19h11.4v3.3zM176 153.6v-22.3h15.4v3.4h-10.5v5.7h8.9v3.2h-8.9v6.7h11v3.4H176z" fill="#fff"/></g></svg>