<svg xmlns="http://www.w3.org/2000/svg" viewBox="0 0 397 360" width="397" height="360"><path fill="#4d7d96" d="M-1 0h397v182H-1z"/><path fill="#376479" d="M-.5 182h397v178H-.5z"/><path d="M233.2 35l-2.7-.3a78.4 78.4 0 0 0-9.6-.3l-.4 1.6a.3.3 0 0 0 0 .1l-.5 1.4-.5 1.4a.1.1 0 0 0 0 .1l-.6 1.3-.7 1.3v.2l-1.6 2.2-1.8 2.4-1 1.1-.5.6-2.3 2.2-1.5 1.2-1.2.9-2.2 1.3h-.2l-1 .5-1.4.7-1 .4-1.1.4-3.8 1.1h-.8l-.8.2h-1.5l-1.8.2h-1.5l-3.5-.2h-3l-2.5-.7-1.2-.4-1.2-.4-1.2-.5-3-1.5-.5-.2-1.2-.8h-.2l-1.1-.8-1.1-.9-1.1-1-1-1-2.3-2.4-.8-1-1.6-2.3-.8-1.4-.3-.6-.7-1.5-.4-1-.2-.4-.3-.9a23.2 23.2 0 0 1-.8-2.8 78.4 78.4 0 0 0-9.6.3l-2.7.3c-22 3-36 15.3-44.1 25.5l21.2 32a70.8 70.8 0 0 1 19.2-17.8l-6.4 67.9-2.2 22.8a44.1 44.1 0 0 1 36.3 25.5h36.2a44.1 44.1 0 0 1 36.4-25.8l-8.6-90.7a71 71 0 0 1 19.2 17.9l21.2-31.9C269.2 50.3 255.1 38 233.2 35z" fill="#cceaff"/><circle cx="178.2" cy="185" r="3" fill="#516899"/><circle cx="203.8" cy="185" r="3" fill="#516899"/><path d="M288.6 119.4l-.4-.2.4-.6a2.3 2.3 0 0 0-.7-3.2l-23.3-15a2.3 2.3 0 0 0-3.2.7l-.4.6-.4-.2a2.6 2.6 0 0 0-3.6.8l-3.2 5a2.6 2.6 0 0 0 .8 3.6l28 18a2.6 2.6 0 0 0 3.6-.8l3.2-5a2.6 2.6 0 0 0-.8-3.7z" fill="#516899"/><path d="M286.9 114.7s3.2-5.6.6-10.4 5.6-12.5 1.6-15.5l-.9-.6c-4.4-2.3-8 8.2-13.4 7.9s-9.2 4.9-9.2 4.9z" fill="#fff"/><rect x="209.8" y="128.1" width="78.4" height="44.58" rx="4.5" ry="4.5" transform="rotate(-57.3 248.915 150.373)" fill="#fff"/><path fill="#516899" d="M267.197 130.221l1.729-2.692 13.405 8.606-1.729 2.693zM262.074 138.235l1.728-2.693 13.406 8.606-1.73 2.693zM256.636 145.74l1.729-2.694 13.388 8.596-1.729 2.692zM251.773 154.247l1.73-2.693 13.404 8.606-1.728 2.693zM246.306 161.612l1.728-2.692 13.389 8.595-1.729 2.693zM241.527 170.174l1.729-2.693 13.405 8.606-1.729 2.693z"/></svg>