<svg xmlns="http://www.w3.org/2000/svg" viewBox="0 0 319 363" width="319" height="363"><defs><clipPath id="a"><path fill="none" d="M0 0h319v363H0z"/></clipPath></defs><g clip-path="url(#a)"><path fill="#6c9e79" d="M0 0h319v182H0z"/><path fill="#6d9f78" d="M41-3.5h267.3v267.32H41z"/><path fill="#6d9f78" d="M29.9-2.9L-43.3 10 1.6 264.6H382L334.8-2.9H29.9z"/><path fill="#5c7e6a" d="M216.666 228.567l137.874-24.31 2.37 13.442-137.873 24.31zM82.6 252.2l2.2 12.4h5.9l114.1-20.1-2.3-13.4-119.9 21.1zM16.9 263.8l.2.8h51.7l-1.7-9.7-50.2 8.9zM349.2 181.1L321.6 24.7-14.3 83.9l28 158.6 335.9-59.2zm-180.5-46.7l-4.1-23.5 162.5-28.7 4.1 23.5zm162.9-26.7l4.1 23.5-162.6 28.6-4.1-23.5zM164.2 109l-3.7-21.7L323 58.6l3.7 21.7zm-5.8-21.4l3.8 21.7L-.1 137.9-4 116.2zm4.2 23.6l4.1 23.5L4.3 163.3.2 139.9zm4.5 25.4l4.1 23.5L8.7 188.8l-4.1-23.5zm4.5 25.4l4.1 23.5-162.4 28.7-4.1-23.4zm1.9-.3L336.1 133l4.1 23.5-162.6 28.7zm167-3.2l3.7 21.1-162.5 28.7-3.7-21.1zM317.9 30l4.2 24-326.9 57.7L-9 87.6zM13.6 216.1L176 187.5l3.7 21.1-162.3 28.7zM162-2.9L-24.4 29.9l7.4 42 337.8-59.5-2.7-15.3H162z"/><path d="M69.7 23.3L72 36.4l3.1-.6.6 3.2-3.1.6 1.1 6-4.4.8-1.1-6-9.8 1.8-.5-2.9L65 24.1zm-3.6 6.1l-4 8.7 5.7-1-1.4-7.7zM87.4 43.4c-6.9 1.2-9.6-3.8-10.7-9.7s-.2-11.9 6.7-13.1S93 25.1 94 30.5s-.1 11.8-6.6 12.9zM84 24.2c-3.6.6-3.4 5.2-2.7 8.7s2.1 7.6 5.5 7 3.4-4.5 2.6-8.4-1.7-8-5.4-7.3zM101.3 22l-4.5 1.2-.6-3.1 4.7-2.3 4.1-.7 4 22.2-4.5.8zM119.4 13.7l2.2.9a23 23 0 0 0-1.3 13.3 23.2 23.2 0 0 0 5.9 12.7l-1.8 1.7a21.8 21.8 0 0 1-8-13.6 21.5 21.5 0 0 1 3-15zM131.2 24.7l4.1-6.4 5.2-.9-4.9 7.3 1.4 1.2 6.7 7.4-5.1.9-5.5-6.2-1.1 1.5 1 5.6-4.7.8-4.1-23.2 4.7-.8 1.4 8.1c.2 1.4.5 3.2.7 4.6zM148.1 38l-2.1-1a23.7 23.7 0 0 0 1.2-13.8 22.8 22.8 0 0 0-5.7-12.1l1.8-1.6a21.7 21.7 0 0 1 4.8 28.5zM173.9 19.1l-4 .7 1.5 8.5-4.8.9-4-22.3 8.5-1.5c5.1-.9 8.1 1.3 8.9 5.5a6.8 6.8 0 0 1-5.2 8.1zM168 9.5l1.2 7.1 3.1-.6a3.2 3.2 0 0 0 2.7-4.1 3.2 3.2 0 0 0-3.4-3.1h-.6zM185.9 25.8l-4-22.2 4.8-.8 3.3 18.9 11.4-2 .6 3.3zM218.5 20l-2.4-4.8-8.1 1.5-.7 5.3-4.8.8 3.6-23.5 6-1 11.2 20.9zm-6.7-13.4L209.7 2h-.2l-.5 5.2-.6 6 6.1-1.1zM239.5 9.2l-2.7-15.3 4.6-.8 3.9 22.2-4.7.8L231 5.4l-2.9-3.3h-.2l2.7 15.8-4.6.8-3.9-22.2 4.8-.9 8.8 9.6 3.6 4z" fill="#6d9f78"/><path fill="#5c7e6a" d="M360.9 240.3l-2.3-13.4-184.1 32.4.9 5.3h47.5l138-24.3z"/><path fill="#5c7e69" d="M0 183h319v181H0z"/><path d="M199.8 279s21.7 57.7-18.6 251.2l-15.6 3.8-2.1-215.4zM114 275.7s-27.8 102.8 3.2 241.2l19.5 7.5-8.1-103.4s15.1-55 22.7-105.4z" fill="#576682"/><path d="M157.9 115.6s2.5 0 20.1 8.7 28.3 2.4 28.3 2.4c-6.6-.4-8.6-8.7-8.6-8.7 7 2 11.9-4.7 11.9-4.7-5.8 1.2-9-5.5-9-5.5 13.1-4.7 11.5-19.2 6.2-22.4s-8.2-16.1-8.2-16.1c-12.1-40.4-42.4-37.5-42.4-37.5s-32-1.3-35.2 34.5a30.3 30.3 0 0 1-10.3 20.9c-7.1 6.1-6.2 14.6-2.1 16.9a7 7 0 0 1-6.6 7.1s4.1 4.3 11.9 2.4c0 0 4.3 6.3-4.5 10 0 0 11.1 2.9 17.7-1 0 0 18.1 13.4 30.8-7.1" fill="#333"/><path d="M201.6 284.2c0 24.3-20.2 38-45 38s-45.1-13.7-45.1-38z" fill="#576682"/><path d="M114.8 405.7c10.7-30.3-12.4-58 6-92.3 14.2-26.3 31-22.4 47.2-18.6 12.1 2.9 23.9 5.9 33.8-4.1-.3-2-.7-3.8-1-5.2V284h-.4a46.6 46.6 0 0 0-1.4-5.2l-4.8 5.2h-73l-8-8.6s-.8 3-2 8.6h-.6a11.3 11.3 0 0 0 .1 2.1c-6 29.9-19.5 118.6 5.6 230.6l19.5 7.5-1.1-13.9c-10.9-22.9-30.8-72-20.1-104.7" fill="#404f66"/><path d="M180.6 131.2a58.1 58.1 0 0 0-18.3-2.6l-21.4 1.9-5.9 112.6-14.4.2c-1.4 7.4-10.7 26.6-12.1 41.2h95.8c-1.3-14.6-15.4-32.7-16.8-40-3.8-19.7-4.9-58.3-4.9-58.3z" fill="#c7c7c4"/><path d="M170.5 97.9h-27.2v30.2c.2 5.8 2.7 25.7 10 35 1.6 2.1 3.6 4.3 3.6 4.3s2.1-2.6 4-4.4c9.6-9.6 9.4-28.6 9.6-34.4z" fill="#d6a361"/><path d="M143.3 97.9v26.2a20 20 0 0 0 14.1 4.3 16.6 16.6 0 0 0 13.2-7.8V97.9z" fill="#ab854f"/><path d="M184.9 84.9s-4.8 36.3-27.5 37.3c-14.6.6-26.7-12-28.3-37.3-1.7-27.8 6.1-46.3 27.8-46.3 20 0 28 21.7 28 46.3" fill="#d6a361"/><path d="M160.9 98.7c0 .8-2 2.4-4.4 2.4s-4.4-1.5-4.4-2.4 2-.6 4.4-.6 4.4-.2 4.4.6" fill="#ab854f"/><path d="M196.6 179.4s3 15.5-13.6 18.4c.1 3.2.3 6.8.6 10.7 21.5-7.7 13-29 13-29m-78.5 1a41.7 41.7 0 0 0 3 8.6c-1.6-5.3-3-8.6-3-8.6m3 8.6c4 12.8 9.6 37 1.9 54v.3h9.7a17.8 17.8 0 0 1 3.2-13.7l1.6-30.4h-.2a16.2 16.2 0 0 1-16.3-10.2" fill="#d1d1d1"/><path d="M160.1 196.6a73.1 73.1 0 0 0-11.7 1.3 72.1 72.1 0 0 1-11.2 1.3l-1.5 30.4c7.8-10.7 28-15.2 45.8-20.3l2.1-.7c-.2-3.8-.4-7.5-.6-10.7a34 34 0 0 1-5.9.5 61.1 61.1 0 0 1-11.6-1.3 27.8 27.8 0 0 0-5.3-.5m-27.6 46.6l-9.7.2c-3.2 6.9-13.1 26.7-14.4 41.2h5.9c-2.7-27.1 21.7-22.3 18.4-40.5a1.8 1.8 0 0 0-.1-.9" fill="#a1a1a1"/><path d="M207.8 157.8c.1-6.4-1.4-11.1-3.9-13.9a46.8 46.8 0 0 0-33.4-15.3s-2 91.8 5.1 163.5c0 0 20.7 1 35.6-7.3a151.4 151.4 0 0 0-18.2-45.5 229.4 229.4 0 0 1 8.6-50.9c3.9-15.6 6-21.9 6.2-30.7" fill="#576682"/><path d="M138 45.7c-7.7 7.8-10.5 21.7-9.4 39.3.8 12.6 4.2 22.1 9.2 28.3l-.6-1.2c-4.5-6.2-7.5-15.3-8.2-27.1-1.1-17.1 1.5-30.8 8.8-38.7l.2-.6" fill="#302b29"/><path d="M137.8 46.2c-7.3 8-9.8 21.6-8.8 38.8.7 11.8 3.7 20.8 8.2 27.1-9.4-21.4-4.4-48.5.6-65.8" fill="#cc8f4f"/><path d="M130.6 53.3s8 12.5 36.7 17.1c0 0-12.1-6.4-17.1-13.2 0 0 9.1 8.7 34.8 8.7 0 0-.7-29.1-28.8-29.1-21.6-.7-25.7 16.7-25.7 16.7" fill="#333"/><path d="M112.2 139.9a50.6 50.6 0 0 1 31.1-11.7 677.2 677.2 0 0 1-8.3 163.5l-30-5.3s0-27.7 15.5-47.4a226.2 226.2 0 0 0-8.3-53.8v.2s-11-36.2-.1-45.5" fill="#576682"/><path d="M170.5 129.1s5.8 10.5 21.2 12.6c0 0-3.6 3.1-14 2.8l-20.8 23s7.7-11.1 10.4-19.2a115.6 115.6 0 0 0 3.2-19.2M143.3 128.2s-5 10.3-21.2 12.8c0 0 2.8 3.8 13.2 3.6l21.5 22.8s-8.2-13.1-10.3-19.7a118 118 0 0 1-3.2-19.5M58.2 277.5l-2 14.8 20.8 1.9 1.4-15.2-20.2-1.5z" fill="#c7c7c4"/><path d="M127.6 148.3c-1.7-11-9-12.1-15.4-8.4a58.3 58.3 0 0 0-13.5 15.8c-40.2 62.1-43.2 130.7-43.2 130.7l23.9 3 7.9-56.4c10.1-16.9 23.6-44.9 24.9-47.6a86 86 0 0 0 3.1-11s14.4-12.1 12.3-26.2" fill="#576682"/><path fill="#c7c7c4" d="M256.5 270.8l10.1 11.1 14.2-13.9-10.8-10.8-13.5 13.6z"/><path d="M233.5 203c-9.1-20.8-15.7-44.1-29.6-59-1.7-.6-8.6-2.6-11.3 6s2.7 22 4.7 26.8c.7 1.8 2.5 6.5 4.3 11.7v-.2l20.7 50.3 40.2 40.6 15.9-15.2s-30.6-28.3-44.9-61.2" fill="#576682"/><path d="M165.8 71.4c1.7-2.7 7.6-3.4 11.3-2.7a10.1 10.1 0 0 1 5.8 3.7 17.3 17.3 0 0 0-6.2-2.1 16.2 16.2 0 0 0-9.4 2.4 1 1 0 0 1-1.5-1.3M149.2 71.4c-1.7-2.7-7.6-3.4-11.3-2.7a10.1 10.1 0 0 0-5.8 3.7 17.3 17.3 0 0 1 6.2-2.1 16.2 16.2 0 0 1 9.4 2.4 1 1 0 0 0 1.5-1.3" fill="#333"/><path d="M166.5 81.6a27.4 27.4 0 0 1 6.1-.8 26.6 26.6 0 0 1 6.1.7s-1.6-4.9-6.1-4.9-6.1 4.9-6.1 4.9M136 81.6a27.4 27.4 0 0 1 6.2-.8 26.6 26.6 0 0 1 6.1.7s-1.6-4.9-6.1-4.9-6.1 4.9-6.1 4.9" fill="#386678"/><path d="M169.3 103.4a18.6 18.6 0 0 1-2.8 3.1 18.8 18.8 0 0 1-8 4.3 10.9 10.9 0 0 1-2.6.3 16.8 16.8 0 0 1-5.7-1.1l-1.8-.8-.5-.3h-.1l-.9 1.6 2.7 1.2a18.7 18.7 0 0 0 6.4 1.3 12.8 12.8 0 0 0 3-.4 20.7 20.7 0 0 0 8.7-4.7 20 20 0 0 0 3.1-3.5zm-22.5 7.2" fill="#ab854f"/></g></svg>