<svg xmlns="http://www.w3.org/2000/svg" viewBox="0 0 397 360" width="397" height="360"><path fill="#557b99" d="M0 0h397v182H0z"/><path fill="#3e627b" d="M0 182h397v178H0z"/><path fill="#68a0c3" d="M129.7 21.5H188v97.49h-58.3z"/><path fill="#68a0c3" d="M98.5 84.6h120.6v93.33H98.5z"/><path fill="#68a0c3" d="M244 149.3V206H73.7v-56.7h24.8v-1.5h120.6v1.5H244z"/><path d="M188 38.7V46a29.3 29.3 0 0 1-7.4-6.5c-3.8 4.1-11.6 10.7-21.8 10.7A28.2 28.2 0 0 1 137 40a24.1 24.1 0 0 1-7.4 6.4v-7.2a16.1 16.1 0 0 0 4.3-5.7l2.3-6 3.1 5.7a22.7 22.7 0 0 0 19.5 11.1c11.5 0 19.6-11.3 19.8-11.4l2.8-4 2.2 4.3a20.7 20.7 0 0 0 4.4 5.5zM203 115.7a27.9 27.9 0 0 1-22.3-10.7c-3.8 4.1-11.6 10.7-21.8 10.7a28.2 28.2 0 0 1-21.9-10.1c-3.2 4.3-9.9 10.2-22.2 10.2v-5.9c15 0 19.2-10.3 19.3-10.7l2.1-5.9 3 5.6a22.8 22.8 0 0 0 19.5 11.1c11.4 0 19.6-11.3 19.8-11.4l2.8-3.9 2.2 4.3a22.2 22.2 0 0 0 19.5 11z" fill="#ece6dd"/><path d="M219.1 103.8v7.6a28.8 28.8 0 0 1-16.2 4.4v-5.9a21.5 21.5 0 0 0 16.2-6.1zM114.7 109.9v5.9a27.8 27.8 0 0 1-16.1-4.9v-7.6a22 22 0 0 0 16.1 6.6zM203 177.9a27.9 27.9 0 0 1-22.2-10.7c-3.8 4.1-11.6 10.7-21.8 10.7a28.2 28.2 0 0 1-22-10.2c-3.2 4.3-9.9 10.2-22.2 10.2V172c15.1 0 19.3-10.6 19.3-10.7l2.1-6.1 3.1 5.8a22.8 22.8 0 0 0 19.5 11.1c11.5 0 19.6-11.3 19.8-11.4l2.8-4 2.1 4.3a22.2 22.2 0 0 0 19.5 11zM244 171.8v5.9a28.1 28.1 0 0 1-18.7-9.9c-3.2 4.3-9.9 10.2-22.2 10.2v-6c15.1 0 19.3-10.6 19.3-10.7l2.3-6.1 2.9 5.8a22.9 22.9 0 0 0 16.4 10.8zM73.7 177.7a32.6 32.6 0 0 0 18.6-10.5 27.9 27.9 0 0 0 22.2 10.7V172a22.2 22.2 0 0 1-19.3-11l-2.2-4.3-2.8 3.9s-6.7 9.3-16.5 11.1v5.9zM143.6 84.4h-14V74.2a10.2 10.2 0 0 1 3.1-.5 10.8 10.8 0 0 1 8.7 4.3 10.6 10.6 0 0 1 2.2 6.4z" fill="#ece6dd"/><path d="M160.9 84.6h-21.6a10.6 10.6 0 0 1 2.2-6.5 10.8 10.8 0 0 1 19.4 6.5z" fill="#ece6dd"/><path d="M178.4 84.6h-21.7a10.8 10.8 0 1 1 21.7 0z" fill="#ece6dd"/><path d="M174 84.4a10.5 10.5 0 0 1 2.2-6.4 10.8 10.8 0 0 1 8.6-4.3 10.4 10.4 0 0 1 3.1.5v10.2zM109.1 149.3H98.5v-10.8a10.9 10.9 0 0 1 10.3 9.3 13 13 0 0 1 .3 1.5z" fill="#ece6dd"/><path d="M126.3 149.3h-21.6a10.8 10.8 0 0 1 21.7 0z" fill="#ece6dd"/><path d="M143.6 149.3H122a10.8 10.8 0 1 1 21.6 0z" fill="#ece6dd"/><path d="M160.9 149.3h-21.6a10.6 10.6 0 0 1 2.2-6.5 10.8 10.8 0 0 1 19.4 6.5z" fill="#ece6dd"/><path d="M178.4 149.3h-21.7a10.8 10.8 0 1 1 21.7 0z" fill="#ece6dd"/><path d="M195.7 149.3H174a10.6 10.6 0 0 1 2.2-6.5 10.8 10.8 0 0 1 19.5 6.5z" fill="#ece6dd"/><path d="M213 149.3h-21.6a10.8 10.8 0 1 1 21.7 0z" fill="#ece6dd"/><path d="M219.1 138.5v10.8h-10.4a10.9 10.9 0 0 1 10.4-10.8zM73.7 206h18.1A10.8 10.8 0 0 0 81 195.2a10.6 10.6 0 0 0-7.1 2.7v8.1z" fill="#ece6dd"/><path d="M109.1 206H87.3a10.6 10.6 0 0 1 2.2-6.5 10.8 10.8 0 0 1 19.6 6.5z" fill="#ece6dd"/><path d="M126.3 206h-21.6a10.8 10.8 0 0 1 21.7 0z" fill="#ece6dd"/><path d="M143.6 206H122a10.8 10.8 0 1 1 21.6 0z" fill="#ece6dd"/><path d="M160.9 206h-21.6a10.6 10.6 0 0 1 2.2-6.5 10.8 10.8 0 0 1 19.4 6.5z" fill="#ece6dd"/><path d="M178.4 206h-21.7a10.8 10.8 0 1 1 21.7 0z" fill="#ece6dd"/><path d="M195.7 206H174a10.6 10.6 0 0 1 2.2-6.5 10.8 10.8 0 0 1 19.5 6.5z" fill="#ece6dd"/><path d="M213 206h-21.6a10.8 10.8 0 1 1 21.7 0z" fill="#ece6dd"/><path d="M230.4 206h-21.7a10.8 10.8 0 1 1 21.7 0z" fill="#ece6dd"/><path d="M244 197.9v8.1h-18a10.6 10.6 0 0 1 2.2-6.5 10.8 10.8 0 0 1 8.6-4.3 10.6 10.6 0 0 1 7.2 2.7z" fill="#ece6dd"/><rect x="243.9" y="21.2" width="81.1" height="98.56" rx="3.2" ry="3.2" fill="#68a0c3"/><path fill="#ece6dd" d="M243.9 29.7H325v8.7h-81.1z"/><circle cx="254.3" cy="26.1" r="2.1" fill="#ece6dd"/><circle cx="314.5" cy="26.1" r="2.1" fill="#ece6dd"/><path fill="#68a0c3" d="M248.2 42.8h72.6v72.57h-72.6z"/><path d="M264.6 66.9l-1.1-3.6h-5.7l-1.1 3.6h-3.3l5.3-15.6h4.2l5.1 15.6h-3.4zm-3-9.9l-.9-3.4h-.1l-1 3.5-1.1 4h4.3zM276 60.9h-2.8v6h-3.4V51.3h5.9c3.6 0 5.4 1.9 5.4 4.8a4.7 4.7 0 0 1-4.5 4.8zm-2.8-7.2v5h2.2a2.2 2.2 0 0 0 2.3-2.5 2.2 2.2 0 0 0-1.8-2.5h-2.7zM291.8 60.3l3.3 6.6h-3.5l-3-6.3h-1.9v6.3h-3.3V51.3h6.2a4.5 4.5 0 0 1 5.1 4.6 4.6 4.6 0 0 1-2.9 4.4zm-2.8-2a2.3 2.3 0 0 0 .3-4.7h-2.7v4.6h2.4zM297.9 66.9V51.3h3.3v15.6zM304.7 66.9V51.3h3.3v13.2h7.9v2.3h-11.2zM269.8 80.9l-7.1.7v-4.9l7.7-2.2h6.6v34.7h-7.1V80.9zM287.4 93.5l-3.8-1.9 1.3-17.2h19.9v5.4h-14.3l-.5 7.8a19 19 0 0 1 4.3-.6c6.7 0 12.1 3.6 12.1 11s-6.1 11.6-13.4 11.6a26 26 0 0 1-11.5-2.4l1.7-4.9a27.9 27.9 0 0 0 8.5 1.7c4.6 0 7.4-2 7.4-6.1s-3-5.5-6.6-5.5a13.4 13.4 0 0 0-5.1 1.1z" fill="#ece6dd"/></svg>