<svg xmlns="http://www.w3.org/2000/svg" viewBox="0 0 319 363" width="319" height="363"><path fill="#4d7d96" d="M-.04 0h319v182h-319z"/><path fill="#376479" d="M-.04 182h319v181h-319z"/><path d="M112.9 115.29a4.79 4.79 0 0 1-4.17 2.9H41a3.1 3.1 0 0 1-3.08-3.08V74.89A3.1 3.1 0 0 1 41 71.81h55.6a9.71 9.71 0 0 1 5.4 2.08l17 16.67a4.75 4.75 0 0 1 1.27 4.9z" fill="#e5be7a"/><path fill="#faf7f5" d="M43.11 98.12H223.5V221.6H43.11z"/><path d="M240.19 88.58h-112a8.33 8.33 0 0 0-5.19 2.21l-10 10.19a8.33 8.33 0 0 1-5.25 2.08H40a3.1 3.1 0 0 0-3.08 3.08v118.42a3.1 3.1 0 0 0 3.08 3.08h200.19a3.1 3.1 0 0 0 3.08-3.08V91.68a3.1 3.1 0 0 0-3.08-3.1z" fill="#fad17d"/><path fill="#faf7f5" d="M43.11 75.52H99V95H43.11z"/><path d="M88.27 87l-.27-.4-.29-.6-.27-.65a1.4 1.4 0 0 1-.12-.46v-.56a3.33 3.33 0 0 1 .12-.92 2.5 2.5 0 0 1 .4-.83l.25-.23a.35.35 0 0 0 .12-.29 2.29 2.29 0 0 0-.21-.46.46.46 0 0 0-.35-.19h-.27a1.46 1.46 0 0 0-1 .33 2.37 2.37 0 0 0-.6.83 4.29 4.29 0 0 0-.31 1.1 7.39 7.39 0 0 0 0 1.15 3.42 3.42 0 0 0 .29 1.33 13.93 13.93 0 0 0 .67 1.4q.4.73.77 1.58a10.42 10.42 0 0 1 .65 1.9.77.77 0 0 1 0 .23 1.29 1.29 0 0 1-.29.87.9.9 0 0 1-.69.35.79.79 0 0 1-.56-.27.87.87 0 0 0-.35.15 1 1 0 0 0-.17.27 1.33 1.33 0 0 0 .46.87 1.29 1.29 0 0 0 .9.37 2.4 2.4 0 0 0 1-.23A2.58 2.58 0 0 0 89 93a3 3 0 0 0 .54-.9 3 3 0 0 0 .17-1.1 4.94 4.94 0 0 0-.4-2.08q-.4-.9-.85-1.77zM79 85.87a3.12 3.12 0 0 1 .27-.52 1.19 1.19 0 0 1 .23-.33l.21-.23a.5.5 0 0 1 .33-.23h.46a.58.58 0 0 1 .5.27 1.06 1.06 0 0 1 .19.6 1.25 1.25 0 0 1-.42 1 1.75 1.75 0 0 1-1.21.4h-.66A4 4 0 0 1 79 86m-2 3.1a4.17 4.17 0 0 0 .23 1 3.56 3.56 0 0 0 .5.87 4.17 4.17 0 0 0 .87.83 5.65 5.65 0 0 0 .92.35 3.31 3.31 0 0 0 .92.17 5 5 0 0 0 1.35-.15 3.21 3.21 0 0 0 1.12-.67 2.08 2.08 0 0 0 .33-.37 1.1 1.1 0 0 0 .25-.67 1.08 1.08 0 0 0 0-.25 1.67 1.67 0 0 1 0-.23.62.62 0 0 0-.25-.23l-.25-.1-1.06.73a2.08 2.08 0 0 1-1.19.33h-.37a1.56 1.56 0 0 1-.58-.31 2.27 2.27 0 0 1-.56-.73 3.1 3.1 0 0 1-.27-1.33v-.12a.92.92 0 0 1 0-.19l.37.06a2.08 2.08 0 0 0 .54 0 3.27 3.27 0 0 0 1.25-.27 2.77 2.77 0 0 0 1.48-1.54 2.75 2.75 0 0 0 .19-1 2 2 0 0 0-.6-1.48 2.31 2.31 0 0 0-.77-.46 2.79 2.79 0 0 0-1.06-.19 2.69 2.69 0 0 0-1.5.44 3.71 3.71 0 0 0-1.08 1.12 5.33 5.33 0 0 0-.65 1.56 7 7 0 0 0-.21 1.73v1m-9.23-5.21a.83.83 0 0 0 .27.58 1.92 1.92 0 0 1 .42.54l.54.75.37.73.4.69.46.87a1.23 1.23 0 0 1-.31.75 4 4 0 0 0-.48.69 10 10 0 0 1-.75 1.25 5.52 5.52 0 0 0-.67 1.25 2.77 2.77 0 0 0 .15.65 1.52 1.52 0 0 0 .46.58.83.83 0 0 0 .48.17.79.79 0 0 0 .69-.44 4.33 4.33 0 0 0 .4-.83 2 2 0 0 1 .25-.56l.35-.67.4-.69a6.88 6.88 0 0 1 .42-.62 1.83 1.83 0 0 1 .35.37l.6.71.6.79.42.5.27.12h.69a1.79 1.79 0 0 0 .35-.27.48.48 0 0 0 .17-.35 1.25 1.25 0 0 0-.31-.79 9.83 9.83 0 0 1-.54-.73 2.25 2.25 0 0 0-.33-.46l-.54-.62-.5-.56a.88.88 0 0 1-.23-.33.69.69 0 0 1 .17-.35L73 87l.5-.56a3.48 3.48 0 0 0 .35-.48l.85-.83a12.19 12.19 0 0 0 .87-1 .9.9 0 0 0 0-.27.6.6 0 0 0-.37-.58 2 2 0 0 0-.81-.17 1.15 1.15 0 0 0-.83.33A7.08 7.08 0 0 0 73 84a1.27 1.27 0 0 0-.29.31l-.5.62-.52.71a5.29 5.29 0 0 0-.33.54l-.4-.52-.31-.5-.31-.58-.42-.77a1.65 1.65 0 0 0-.71-.69 2.67 2.67 0 0 0-.83-.23.31.31 0 0 0-.27.12l-.19.25zM59.32 90a4.17 4.17 0 0 1 .21-1.29 7.08 7.08 0 0 1 .54-1.25 5.77 5.77 0 0 0 .25-.56 6.9 6.9 0 0 1 .48-.9 4.44 4.44 0 0 1 .69-.87 1.23 1.23 0 0 1 .9-.4h.42a1.31 1.31 0 0 1 0 .4 5.31 5.31 0 0 1-.21.5l-.33.77-.23.46a6.65 6.65 0 0 1-.5 1.06A10.67 10.67 0 0 1 60.8 89a7.14 7.14 0 0 1-.8 1 1.23 1.23 0 0 1-.69.42V90zm6.37.83l-.14-.83a14.21 14.21 0 0 1-.35-2.08 9.85 9.85 0 0 0-.25-2.08 9.29 9.29 0 0 0-.21-1.17 1.62 1.62 0 0 0-.54-.87l-.44-.29-.54-.25h-1.06a2.79 2.79 0 0 0-1.83.75 7.85 7.85 0 0 0-1.52 1.83 10.65 10.65 0 0 0-1 2.19 6.06 6.06 0 0 0-.37 1.9 4.62 4.62 0 0 0 0 .75 2.19 2.19 0 0 0 .25.73 1.52 1.52 0 0 0 .54.54 1.75 1.75 0 0 0 .92.21 2.42 2.42 0 0 0 1.46-.54 6.62 6.62 0 0 0 1.27-1.17 7.58 7.58 0 0 0 1-1.44 4.17 4.17 0 0 0 .46-1.23q.12.69.25 1.56A7 7 0 0 0 63.8 91a4.87 4.87 0 0 0 .5 1.29.87.87 0 0 0 .77.52h.29l.33-.15a.77.77 0 0 0 .25-.19.44.44 0 0 0 0-.31 1.17 1.17 0 0 0 0-.37l-.15-.37zM54 91.79v-2.88q0-2 .1-4.33t.19-5.23l3-.52 1.9-.42a1.17 1.17 0 0 0 .79-1c0-.27-.21-.42-.62-.42 0-.17-.12-.25-.35-.25h-.21a3.88 3.88 0 0 0-1.08.17l-.62.17-.44.1a8.06 8.06 0 0 1-2.08.25 6.6 6.6 0 0 1-1.85-.25 9.1 9.1 0 0 1-3 .75 10.77 10.77 0 0 0-1.21.17l-.85.23a.48.48 0 0 0-.17.35 5.13 5.13 0 0 0 .27.62 2.85 2.85 0 0 0 1.85.6h2.62v2.35q0 1.1-.12 2.5-.21 3.31-.19 4.85v1.81a2.08 2.08 0 0 0 .48 1.21 1.42 1.42 0 0 0 1.1.56.46.46 0 0 0 .46-.35 1.48 1.48 0 0 0 0-.19 2.08 2.08 0 0 0 0-.25v-.58zM224.77 95.75h32.17v42.87h-32.17z" fill="#376479"/><path d="M257.44 91.6l8-26.67a12.88 12.88 0 0 0-24.67-7.42l-1.31 4.33a7.19 7.19 0 1 1-13.77-4.17l1.31-4.32a27.29 27.29 0 1 1 52.27 15.73l-8 26.67z" fill="#95bec2"/><path d="M267.46 150.08a5.75 5.75 0 0 1-7.16 3.86L196 134.62a5.75 5.75 0 0 1-3.86-7.16l14.42-47.92a5.75 5.75 0 0 1 7.16-3.86L277.94 95a5.75 5.75 0 0 1 3.86 7.16zm-27.27-17.85l.56-17a7.23 7.23 0 1 0-7.06-2.08l-8.92 14.58z" fill="#95bec2"/></svg>