<svg xmlns="http://www.w3.org/2000/svg" viewBox="0 0 397 360" width="397" height="360"><defs><clipPath id="a"><path transform="rotate(-18.6 170.192 124.748)" fill="none" d="M141.1 80.8h58.8v88.14h-58.8z"/></clipPath></defs><g style="isolation:isolate"><path fill="#6c9e79" d="M0 0h397v182H0z"/><path fill="#5c7e6a" d="M0 182h397v178H0z"/><path d="M121.5 162.3a7.7 7.7 0 0 0 7.7 7.7h146.3a7.7 7.7 0 0 0 7.7-7.7V74a7.7 7.7 0 0 0-.9-3.5v-21a7.7 7.7 0 0 0-7.7-7.7h-36a24.4 24.4 0 0 0-13.6 5l-.8.7-1.7 1.2-6.3 5.4-.4.4-3.5-.5h-83.1a7.7 7.7 0 0 0-7.7 7.7v100.6z" fill="#f4be60"/><path fill="#f9f6f4" d="M198 58.6h75.6v45.31H198z"/><path d="M117.1 166.2V65.6a7.7 7.7 0 0 1 7.7-7.7h83.1a21.2 21.2 0 0 1 13.1 5.5l1 1a21.2 21.2 0 0 0 13.2 5.6h35.9a7.7 7.7 0 0 1 7.7 7.7v88.4a7.7 7.7 0 0 1-7.7 7.7H124.8a7.7 7.7 0 0 1-7.7-7.7z" fill="#f9d07d"/><path fill="#706e6e" d="M206.7 99.3h85.7v66.53h-85.7z"/><path fill="#69400f" d="M210.8 98h77.5v1.26h-77.5z"/><path fill="#d6a550" d="M165.4 121h41.3v26.15h-41.3z"/><path fill="#4c4c4c" d="M206.7 121h25.4v26.15h-25.4z"/><path d="M248.9 96.6v.7c-2.2-5.6-8.5-7.8-10.9-4.8a6 6 0 0 0-.4 5.9c1.8 4.3 5.6 6.9 9.8 8.8a20.9 20.9 0 0 0 3.5 1.2l.2.5h-.6l-3.1-1.1c-4.7-2.1-9.1-5-11.1-9.7a6.4 6.4 0 0 1 .4-6.5c2.6-3.3 9.6-1 12.2 4.9" fill="#a12734"/><path d="M235.1 91.3a7.8 7.8 0 0 0-.5 7.6 23.4 23.4 0 0 0 10.8 11.2l1.8.9a28.2 28.2 0 0 0 5.5 1.8 33.9 33.9 0 0 1-1.5-3.7l-.7-.2-3.1-1.1c-4.7-2.1-9.1-5-11.1-9.7a6.4 6.4 0 0 1 .4-6.5c2.6-3.3 9.6-1 12.2 4.9a54.2 54.2 0 0 1 0-6.1c-3.9-2-10.7-3.2-13.8.8" fill="#bc3845"/><path d="M294.6 79.9s6.7 47.5-22.5 47.9-24-47.2-24-47.2.9 6.8 23.3 6.5 23.1-7.2 23.1-7.2" fill="#a12734"/><path d="M248.2 80c1-3.6 10.7-6.6 23.1-6.8s22.1 2.5 23.2 6.1a5.8 5.8 0 0 1-3.1 3c-1.5-3-9.7-5.1-20.1-5s-18.5 2.6-19.9 5.6a5.8 5.8 0 0 1-3.2-2.9" fill="#bc3845"/><path d="M251.4 82.9c1.4-3.1 9.5-5.6 19.9-5.8s18.6 2.1 20.1 5.1c-4.1 2.2-11.3 3.8-19.9 3.9s-15.9-1.2-20-3.3" fill="#a12734"/><path d="M248.2 80a1.9 1.9 0 0 0 0 1 .8.8 0 0 0 .5.9c.1.7 1.3 1.5 2.5 2.1 4.1 2.1 11.4 3.5 20.3 3.3s16.5-1.8 20.5-4.1c1.7-1 2.6-2.1 2.7-3.3a2.2 2.2 0 0 0-.1-.7 5.8 5.8 0 0 1-3.1 3c-4.1 2.2-11.3 3.7-19.9 3.8s-15.9-1.2-20-3.2a5.8 5.8 0 0 1-3.2-2.9" fill="#bc3845"/><path fill="#6b5e51" d="M99.974 78.163l98.568-33.171 42.555 126.45-98.567 33.173z"/><path fill="#ece6dd" d="M114.288 85.269l77.148-25.963 35.335 104.993-77.149 25.964z"/><path fill="#9aabd1" d="M128.602 92.375l55.729-18.755 28.113 83.536-55.729 18.755z"/><path d="M153.9 103.3h-.8l.8-.6 6.9-5.5h.5l.4-.3v.2l-7.3 5.8-.6.4M161.7 96.9l-.3-.8-.4.3V96a.7.7 0 0 1 .9.4.6.6 0 0 1-.1.5" fill="#2a2724"/><path d="M161.3 97.2h-.5l.4-.3-.2-.5.4-.3.3.8-.4.3" fill="#1d1b18"/><path d="M160.8 97.3a.6.6 0 0 1-.4-.4.7.7 0 0 1 .5-.8v.4l.2.5-.4.3" fill="#4a5c7a"/><path d="M161.6 96.2a.6.6 0 1 1-.8-.4.6.6 0 0 1 .8.4" fill="#6d89ba"/><g clip-path="url(#a)"><path d="M176.9 122l-12.3 4.1 3.6 10.7c1 2.5 4.4 3.7 7.7 2.6s5.4-3.9 4.6-6.5z" fill="#866635"/><path d="M164.6 126.1l3.1 9.2a11.3 11.3 0 0 0 6.8-.7 8.5 8.5 0 0 0 5-4.8l-2.7-8z" fill="#654d28"/><path d="M160.5 127.7s-13.4-20.1 2.2-25.4 17.3 18.9 17.3 18.9l-19.5 6.6" fill="#352e1f"/><path d="M179.3 115.7s4.1 13.5-5.9 16.9c-7 2.4-11.7 0-15.2-9.8s-3.3-17.4 4.9-20.2 13.2 4.2 16.1 13.1" fill="#866635"/><path d="M158.2 114.1c1.9-2.3 4.7-2.2 7.7-2.2s7.1-.1 9.7-4c-3.1-4.5-7.3-6.9-12.3-5.3a10.7 10.7 0 0 0-4.8 3.1c-3.3 3.7-2.8 9.8-.2 17.2s4.9 9.4 8.3 10.3c-5.6-6-7.8-11.6-8.3-19.1" fill="#654d28"/><path d="M154.7 150.2c-4.4 14.4.2 34.9.2 34.9 3.4 8.1 7.7 16.6 7.7 16.6s2.6 4.9 2.1 7.2a10.7 10.7 0 0 0 2.1 9.3c2.8 3.6 7.2 1.7 5.6 0s-2.8-7.1-1.9-7.9.9.8 1.4 1.9 1 2.5 1.5 1.8-.8-7-2.7-8.6-2.5-5.2-2.5-5.2-3.5-10.2-4.6-17.9c0 0 3.3-14.3 1.6-28.2l-10.7-3.9M200.6 134.3c12.4 8.5 21.6 27.4 21.6 27.4 2.4 8.5 4.3 17.8 4.3 17.8s1 5.4 2.8 7a10.7 10.7 0 0 1 4.1 8.6c.1 4.6-4.5 5.8-4.4 3.5s-2.2-7.3-3.4-7.3 1.7 5.3 0 4.7-3.7-5.9-3.2-8.4-1.3-5.6-1.3-5.6-3.6-10.1-7.5-16.9c0 0-11.5-9.1-18.8-21z" fill="#af8756"/><path d="M157.1 119.6s-2.1-7.7 1.2-9.6c1.8-1 4.3 2.4 6.5 2.6a13.6 13.6 0 0 0 8.3-2.1 11.9 11.9 0 0 1-6.2-.2 51.8 51.8 0 0 0 3.3-4c1.5-2.1 5.9 1.8 7.7 5.9 0 0-4.6-12.9-15.1-9.4s-5.7 16.9-5.7 16.9" fill="#352e1f"/><path d="M240.9 254.1c-8.8-23.4-34.6-90.3-40.6-102.3-.3-2.8-3.7-18.2-9.1-19.7a25.8 25.8 0 0 0-12.9.1c.5 1.9-.3 3.7-1.5 4.1l-1.9.6a4.1 4.1 0 0 1-4.9-2 26.6 26.6 0 0 0-11.4 8.1c-3.7 4.9 3.4 20.9 3.4 20.9l.7 2c5.5 19.5 31.3 101.5 33.3 106.7.4 2.1 3.4 3.4 6.9 1.7a12.9 12.9 0 0 1 5.1-1.2 14.2 14.2 0 0 0 5-1.1c3.7-1.7 6.2-3.4 8.8-4.1s8.9-1.4 11.9-3.8a8.8 8.8 0 0 1 4.5-1.8 9 9 0 0 0 3-.9c2.5-1.3 1.2-3.2-.4-7.4" fill="#3b3936"/><path d="M165 175.6c-1.3-4.2-2.3-7.7-3-10.2l-.7-2-1.6-2.8.9-.3c.8 2.2 1.5 3.7 1.5 3.7l.7 2 2.4 8.2-.2 1.5" fill="#8a6941"/><path d="M192.5 261.1l-7.1-21.5c-7-22.1-15.6-49.9-20.3-65.6l-2.4-8.2-.7-2s-.7-1.5-1.5-3.7l8.2-2.8c8.7-2.9 21.2-7 27.4-8.8-1.6 2-5.9 5.1-12.5 7.3l-.9.3h-.4c-9.9 3.3-8.4 10.9-7.6 13.5s3 6.9 2.8 10.3-1.5 6.7-.7 10.6 3.2 9.9 4.4 14.9 2.1 6.9 3.1 10.5c2 6.8 2.7 13.9 3.8 21s2.8 13.2 3.8 19.9c.2 1.4.4 2.8.5 4.2" fill="#2e2c2b"/><path d="M192 132.2s5.1-1.9 8.5.1 19.4 21.6 21.3 26.3 9.8 29.2 9.8 29.2a8.8 8.8 0 0 1-3.4 1.4c-1.6.2-11.6-.4-12.8-1s-8.7-21.4-8.7-21.4l-8.3-16.3zM159 143.6s-5.3 1.1-7.1 4.7-1.2 25.9-.3 30.9 7.2 34 7.2 34a8.8 8.8 0 0 0 3.6-.6c1.4-.7 10.2-7.7 10.9-8.9s-8.4-21.5-8.4-21.5v-10.4z" fill="#3b3936"/><path fill="#fff" d="M167 133.8l7.9 2 4.5-6.2 1.6 2-4.5 8-9.5-3.3v-2.5z"/><path d="M171.9 95.7l-8.4 6.5a1.5 1.5 0 0 1-.9.3h-10.7l-.3.2a.4.4 0 0 0 0 .3l3 8.9.2.2h.3a16.4 16.4 0 0 0 20.3-6.8v-.3a.4.4 0 0 0 0-.3l-3-9-.2-.2h-.3" fill="#3b3936"/><rect x="173.1" y="97.2" height="1.22" transform="rotate(-18.2 172.997 96.218)" fill="#aea597"/><path d="M164.2 106.1h-.2l-10-.6-.4-1.2h10.3l9.1-7.1.4 1.2-8.9 7.6h-.2" fill="#23211e"/><path d="M178.2 91.8l-18.8.2h-.4l-14.5 11 18.9.4 14.8-11.7" fill="#3b3936"/><path d="M178.2 91.8l-14.8 11.7-18.9-.4a.6.6 0 0 0 .4 1l18.6.3h.4l14.7-11.5a.6.6 0 0 0-.3-1" fill="#2e2c2b"/><path d="M157.1 113" fill="#694c2c"/><path d="M157.1 112.9h-.1l-1.5-3.6h-.1l.9 2.3-1.3-2.8a1.3 1.3 0 0 0-.1-.5 1.3 1.3 0 0 0-.9-.8l-.7-2h.6l.8 2.2a1.3 1.3 0 0 1 .9.8 1.2 1.2 0 0 1 .1.5l1.6 3.3a.5.5 0 0 1 0 .4h-.2m-.1.1" fill="#2a2724"/><path fill="#171514" d="M154 105.5h-.6l-.4-1.2h.6l.4 1.2z"/><path d="M154.9 112.1h-.1l-.8-2.4h.1l.9 2.5m.5.3h-.1l-1-2.8h.1l1 2.9m.5.2h-.1l-1.2-3.2h.1l1.3 3.2m.5.2h-.1l-1.4-3.5h.1l1.5 3.6m.5.1h-.4l.2-.2v-.2l.2.5" fill="#2a2724"/><path d="M153.9 109.89999999999999h-.1v-.2h.1v.2" fill="#c9c2b7"/><path fill="#201e1d" d="M153.6 104.3h-.6l-.2-.7.3-.3h.8l-.5.5.2.5z"/><path d="M154.1 113.6h-.1l-1-3.8h.1l1 3.8m.4-.1h-.1l-1.1-3.7h.1l1.1 3.7m.4-.1h-.1l-1.2-3.6h.1l1.2 3.6m.4-.1h-.1l-1.2-3.6h.1l1.2 3.6m.3-.1l-1.3-3.6h.1l1.3 3.6h-.1m-.6-3.9l1.5 3.6h-.1l-1.5-3.6h.1m1.1 3.8h-.1l-1.4-3.6h.1l1.4 3.6" fill="#6d89ba"/><path d="M154.1 107.6" fill="#1d1b18"/><path d="M154.1 107.6l-1.3.4.6-.3h.8" fill="#4a5c7a"/><path d="M155 108.4a1.3 1.3 0 1 1-1.6-.8 1.2 1.2 0 0 1 1.6.8" fill="#6d89ba"/><path d="M168.6 124.4l3.9-1.3s-.9 2.5-3.9 1.3M174.4 116.5c.2.7 0 1.4-.5 1.6s-1.1-.3-1.3-1 0-1.4.5-1.6 1.1.3 1.3 1M164.8 119.8c.2.7 0 1.4-.5 1.6s-1.1-.3-1.3-1 0-1.4.5-1.6 1.1.3 1.3 1M168.3 128.5l7.1-2.4a4.3 4.3 0 0 1-7.1 2.4M164.9 116.7l-5.4 1.7 1-1.3 3.5-.6.9.2zM170.5 114.8l5.3-1.9-1.6-.4-3.2 1.6-.5.7z" fill="#654d28"/></g><path style="mix-blend-mode:multiply" fill="#9d8e80" opacity=".5" d="M165.4 121h66.7v5.72h-66.7z"/><path d="M98.3 97.5V213h201.2V97.5zm134.1 49.7h-67V121h67v26.2z" fill="#b17a47"/></g></svg>