<svg xmlns="http://www.w3.org/2000/svg" viewBox="0 0 397 360" width="397" height="360"><defs><clipPath id="a"><path fill="none" d="M0 0h397v360H0z"/></clipPath></defs><g clip-path="url(#a)"><path fill="#4d7d96" d="M0 0h397v182H0z"/><path fill="#376479" d="M0 182h397v178H0z"/><path d="M175.6 143.8a15.4 15.4 0 1 0 14.3-16.5 15.5 15.5 0 0 0-14.3 16.5m15.3-5.9a4.5 4.5 0 1 1 4.8 4.1 4.5 4.5 0 0 1-4.8-4.1" fill="#bd9143"/><path d="M185 156.1l-25.6 28.7 2.1-.6 20.4-23.3c.6-.7 1.6 2.1 3 .5s-.4-2.6-.3-3.3a1.9 1.9 0 0 1 1-1.2l-.6-.8M155.8 177a1 1 0 0 0-.9.2.8.8 0 0 0-.1.9zM157.3 175.4c0-.9-.3-2 .1-2.4s1.7-.2 2.2-.7c.5-.6-.3-1.4.4-2.2s1.7-.6 2.6-.7l-2.8 3.2zM164 167.7l1.3-1.5a1.2 1.2 0 0 0-1.3 1.5M155.8 177.1l-1 1.2.3.4 1.5-1.7-.8.2" fill="#bd9143"/><path d="M159.8 172.5l-2.5 2.9a2.3 2.3 0 0 1-.2.9l6.4-7.2-.9.2zM164 167.7a5.6 5.6 0 0 1 0 .9l2.1-2.4h-.8zM184.5 155.6l-25.2 29.1a2.8 2.8 0 0 0 1.7-1l20.5-23.3c.6-.7 1.6 2.1 3 .5s-.4-2.6-.3-3.3a1.9 1.9 0 0 1 1-1.2l-.6-.8M172.3 150.3c-.9 1 .3 2.4.3 2.4h.1l2.1-2.4h-.1c-1.2-.6-2.1-.6-2.5 0" fill="#bd9143"/><path d="M154.6 180.4s-.1-1.4.3-1.7h.1l1.5-1.7.3-.3.2-.3 6.4-7.2.3-.2v-.4l2.1-2.4h.1l.6-.8 12.1-13.4.7.2a9.6 9.6 0 0 1 2.6 1.1l-26.9 31a21.7 21.7 0 0 1-.4-3.9M185 152.9l-27.8 32h2.3l26.6-30.6-1.1-1.2" fill="#bd9143"/><path d="M183.4 151.6L155 184.2l.2.4a3.7 3.7 0 0 0 2 .2l27.8-32-1.6-1.2M168 163.2l12-14.2-1.7-1.5s-2.2 3.4-3.3 2.9l-2.1 2.4a1 1 0 0 1 .1 1.4l-2.5 3a3.7 3.7 0 0 0-.4 1.3 5.7 5.7 0 0 1-.1 2c-.2.2-1.1 0-1.6.5a4.5 4.5 0 0 0-.4 2.2" fill="#bd9143"/><path d="M180 149.1l-12 14v.7l-1.3 1.6 11.9-13.4.7.2 1.7-2.2z" fill="#bd9143"/><path d="M175.1 143.3a15.4 15.4 0 1 0 14.3-16.5 15.5 15.5 0 0 0-14.3 16.5m15.3-5.9a4.5 4.5 0 1 1 4.8 4.1 4.5 4.5 0 0 1-4.8-4.1" fill="#bd9143"/><path d="M196.1 130.2a13.2 13.2 0 1 1-6.6-1.2 13.2 13.2 0 0 1 6.6 1.2m.2-.4a13.7 13.7 0 1 0 7.8 11.4 13.7 13.7 0 0 0-7.8-11.4" fill="#e8d49b"/><path d="M206.7 135.4a15.5 15.5 0 1 0-6.2 20.9 15.4 15.4 0 0 0 6.2-20.9m-15.6 3.1a4.5 4.5 0 1 1 6.1 1.8 4.5 4.5 0 0 1-6.1-1.8" fill="#a4a1a5"/><path d="M196.6 162.6c-.4 1.3-2.2 1-2.2 1h-.2l.9-3.1h.1c1.1.7 1.6 1.4 1.4 2.1M186.1 153.1l-.6 2.1h-.5v-.2h-1a1.9 1.9 0 0 1-.5 1.5c-.6.4-2.6.2-3 1.5s.7 1.5 1.5 1.7h.3c.2.1.4.2.3.4l-8.7 29.7a10.2 10.2 0 0 0 .6 2.1v.2l1 1.9 12.1-40.6z" fill="#d8d7d9"/><path d="M195.8 156.1l-2.2-.7-1.3-.3-.9 2.5.3.3-.3-.3a9.6 9.6 0 0 0-2.3-1.6l-4.9 16.5 5.5-18.6-1.9-.7-12.2 40.8a3.7 3.7 0 0 0 1.3 1.6h.4a21.7 21.7 0 0 0 3.5-1.8s1.2-.7 1.2-1.2l.6-2.2a1.4 1.4 0 0 1 .1-.4v-.3l2.7-9.3a.7.7 0 0 1 0-.4l.2-.3.9-3.1.3-.9 5-17.2-5 17.2.7-1.9.5-.3a4.5 4.5 0 0 0 1.6-1.4c.2-.7-.5-1.3-.4-1.6a5.7 5.7 0 0 1 1.8-1.5 3.7 3.7 0 0 0 .9-1.1l1.2-3.7a1 1 0 0 1 1.2-.7l.9-3.1c-1.1-.6.6-4.3.6-4.3z" fill="#d8d7d9"/><path d="M207.4 135.7a15.5 15.5 0 1 0-6.2 20.9 15.4 15.4 0 0 0 6.2-20.9m-15.6 3.1a4.5 4.5 0 1 1 6.1 1.8 4.5 4.5 0 0 1-6.1-1.8" fill="#d8d7d9"/><path d="M199.7 130.7l-.2.4a13.2 13.2 0 0 1-5.4 25.1 13.3 13.3 0 0 1-5.9-1.3 13.2 13.2 0 0 1 5.4-25.1 13.3 13.3 0 0 1 5.9 1.3l.2-.4m0 0a13.7 13.7 0 1 0 6.2 5.9 13.7 13.7 0 0 0-6.2-5.9" fill="#a4a1a5"/><path d="M203 132.2a12.2 12.2 0 1 0 3.6 16.9 12.2 12.2 0 0 0-3.6-16.9m-9.7 8.1a3.5 3.5 0 1 1 4.9-1.1 3.5 3.5 0 0 1-4.9 1.1M206.4 154.9c.2 1.1-1.1 1.5-1.1 1.5h-.2l-.5-2.5h.1c1 0 1.6.4 1.8.9M207.6 179.8l.3 1.2a.6.6 0 0 0 .3-.7.8.8 0 0 0-.6-.5zM206.6 175.1l.7 3c.3-.6.9-1.3.8-1.7s-1.1-.7-1.3-1.3c-.1-.6.8-.9.6-1.7s-.9-1.1-1.5-1.5zM207.1 179.4l.4 1.8.3-.2-.3-1.2z" fill="#e8d49b"/><path d="M207 179.1a.9.9 0 0 1 0-.3 1.8 1.8 0 0 1 .2-.7l-.6-3-.7-3.3-.6-.5-.2-.2a.6.6 0 0 1 0-.3l.3-.6-.3-1.6-.6-.3v-.7l-3.1-13.8-.6-.2a7.6 7.6 0 0 0-2.2-.2l2.8 13.2-3.2-14.8-1.6.2 7.1 32.8a2.9 2.9 0 0 0 1.5.6l.3-.2a17.3 17.3 0 0 0 1.8-2.6s.6-.9.4-1.3l-.4-1.8zM195.4 152.3l.4 1.7-.3.2-.8.4a1.5 1.5 0 0 1 .2 1.2c-.2.5-1.7 1.1-1.5 2.2s1.1.7 1.7.6h.1c.2-.1.4 0 .4.2l5.3 23.9 1.2 1.2h.1l1.4.9-7-32.8zM204.5 165.5l-3-14.4 1.8-.4s.2 3.2 1.2 3.3l.5 2.5a.8.8 0 0 0-.6.9l.6 3a2.9 2.9 0 0 1-.2 1.1 4.5 4.5 0 0 0-.7 1.4c.1.2.8.4.9 1a3.6 3.6 0 0 1-.6 1.6" fill="#e8d49b"/><path d="M201.5 151.2l3 14.3-.3.5.2 1.6-3.1-13.8-.6-.2-.3-2.1z" fill="#e8d49b"/><path d="M203.6 132.1a12.2 12.2 0 1 0 3.6 16.9 12.2 12.2 0 0 0-3.6-16.9m-9.7 8.1a3.5 3.5 0 1 1 4.9-1.1 3.6 3.6 0 0 1-4.9 1.1" fill="#e8d49b"/><path d="M201.6 132.6l-.2.3 1.2.7a10.5 10.5 0 0 1-10.1 18.2l-1.2-.7a10.5 10.5 0 0 1 10.1-18.2l.2-.3m0 0a10.8 10.8 0 1 0 1.3.7l-1.3-.7" fill="#e8d49b"/><path d="M208.2 139.3a18.8 18.8 0 0 1-9.9.6 23.1 23.1 0 0 1-4.6-1.6l1.2-2.5a20.4 20.4 0 0 0 4 1.4 16.1 16.1 0 1 0-11.2-22.6l-2.5-1.2a18.8 18.8 0 1 1 23.1 25.9z" fill="#a7a7a7"/><path d="M184.3 127.8a4.2 4.2 0 0 1-.2-.9v-.3a18.8 18.8 0 0 1 1.1-13.1l2.5 1.2a16 16 0 0 0-.9 11.2v1z" fill="#a7a7a7"/><path d="M206.6 138.5a18.8 18.8 0 0 1-9.9.6 20.6 20.6 0 0 1-4.3-1.5l1.2-2.5a17.7 17.7 0 0 0 3.7 1.3 16 16 0 1 0-12.2-11.4l.7 2.3-2.6 1-.8-2.5a18.8 18.8 0 0 1 11.7-22.8h.3a18.8 18.8 0 1 1 12.1 35.7z" fill="#bebebe"/><path d="M210.2 104.4l-.8-.4-.8-.4a18.9 18.9 0 0 0-26.2 22.2s.5 1.8.8 2.5l2.6-1c-.1-.4-.5-1.6-.7-2.3a16 16 0 0 1 .9-11.2l1.6.8a15.2 15.2 0 1 1 9.7 21.8 17.7 17.7 0 0 1-3.7-1.3l-1.2 2.5 1.3.6a23.1 23.1 0 0 0 4.6 1.6 18.8 18.8 0 0 0 11.8-35.5z" fill="#a7a7a7"/><path d="M267.4-6.8L147.6 27.5q-5.9 1.5-11.7 3.3h-.3a224.4 224.4 0 0 0-43.1 19h-.1a8.5 8.5 0 0 0-2 1.2 8.5 8.5 0 1 0 10.3 13.5l.3-.2A174.1 174.1 0 0 1 128.8 51c-13 11.1-22.9 24.3-28.4 37.7v.2a8.5 8.5 0 0 0 15.8 6.2V95c6.4-14.4 18.6-28.6 34.7-39.2-17.1 17.4-29.6 37.2-37.1 56.9v.6a8.5 8.5 0 0 0 16 5.7 150.4 150.4 0 0 1 24.6-40 44 44 0 0 0 31.4 46 8.3 8.3 0 1 0 5.1-15.8h-.4a27.6 27.6 0 1 1 16.7-.4 8.3 8.3 0 1 0 5.3 15.7 44.1 44.1 0 0 0 28.3-30c9.4-24.4 18.4-51.4 18.4-51.4L404 24l-7-54L267.4-6.8z" fill="#f9f7f4"/><path d="M215.1 127.5a16 16 0 0 1-17.8 8.9 17.7 17.7 0 0 1-3.7-1.3l-1.2 2.5 1.3.6a23.1 23.1 0 0 0 4.6 1.6 18.8 18.8 0 0 0 20.9-10.4M212.9 105.9a18.9 18.9 0 0 1 8.1 14.5l-4.5 2.7a16.1 16.1 0 0 0-6.6-15.5" fill="#a7a7a7"/></g></svg>