<?xml version="1.0" encoding="UTF-8"?>
<svg id="Layer_2" data-name="Layer 2" xmlns="http://www.w3.org/2000/svg" width="3.19in" height="2.96in" viewBox="0 0 229.72 213.25">
  <defs>
    <style>
      .cls-1 {
        fill: #231f20;
      }

      .cls-1, .cls-2 {
        stroke-width: 0px;
      }

      .cls-2 {
        fill: #e31837;
      }
    </style>
  </defs>
  <g>
    <path class="cls-1" d="m66.97,14.6h-3.85l.03,7.31h-2.24V4.09h5.82c3.25,0,5.54,1.77,5.54,5.17,0,2.16-1.2,5.33-5.3,5.33Zm-3.85-8.81v7.15h3.54c1.66,0,3.35-.81,3.35-3.59,0-2.44-1.51-3.56-3.46-3.56h-3.43Z"/>
    <path class="cls-1" d="m79.71,22.11c-4.16,0-5.46-3.07-5.46-6.5s1.56-6.68,5.72-6.68,5.51,3.3,5.51,6.63-1.33,6.55-5.77,6.55Zm.26-11.54c-2.81,0-3.51,2.65-3.51,5.04,0,2.52.52,4.86,3.51,4.86,2.76,0,3.3-2.57,3.3-4.86s-.49-5.04-3.3-5.04Z"/>
    <path class="cls-1" d="m100.04,19.8l.94-3.87,1.82-6.71h2.13l-3.77,12.69h-2.31l-1.85-5.88-1.27-4.5h-.13l-1.17,4.5-1.69,5.88h-2.31l-3.72-12.69h2.13l1.79,6.55.99,4.03h.13l1.07-4.19,1.82-6.4h2.05l2.11,6.68,1.09,3.9h.16Z"/>
    <path class="cls-1" d="m116.86,14.99v1.01h-8.5c-.03,2.37.78,4.5,3.61,4.5,1.48,0,2.63-.31,4.06-.91l.52,1.35c-1.51.81-3.04,1.17-4.73,1.17-4.52,0-5.64-2.99-5.64-6.53,0-2.26.78-6.66,5.56-6.66,5.07,0,5.12,4.5,5.12,6.06Zm-8.48-.36h6.47c0-2.44-.73-4.13-3.07-4.13s-3.25,1.98-3.41,4.13Z"/>
    <path class="cls-1" d="m121.88,11.5s.03,0,.05.03c1.14-1.82,3.12-2.6,4.78-2.6v2.05c-1.33.03-3.25.39-4.76,2.26v8.66h-2.16v-12.69h2l.08,2.29Z"/>
    <path class="cls-1" d="m129.65,10.78h-1.77v-1.14l1.79-.47v-2.08c0-2.52,1.4-3.9,4.08-3.9.73,0,1.74.08,2.65.31l-.29,1.53c-.62-.1-1.38-.18-1.92-.18-1.61,0-2.47.57-2.47,2.21v2.16h3.72v1.56h-3.72l-.03,11.13h-2.05v-11.13Z"/>
    <path class="cls-1" d="m137.89,18.08v-8.87h2.11v8.35c0,1.77.21,2.83,2.18,2.83.96,0,2.47-.52,3.69-1.61v-9.57h2.08v12.69h-2l-.08-1.48-.05-.05c-1.66,1.48-3.38,1.77-4.26,1.77-3.46,0-3.67-2.18-3.67-4.06Z"/>
    <path class="cls-1" d="m153.49,21.9h-2.11V3.42h2.11v18.49Z"/>
    <path class="cls-1" d="m68.76,36.87v-6.45h2.13v18.49h-1.92l-.1-1.25s-.03-.03-.05-.03c-1.17.94-2.73,1.46-4.06,1.46-3.61,0-4.73-2.89-4.73-6.29,0-3.87,1.38-6.86,5.12-6.86.96,0,2.42.21,3.61.94Zm0,1.64c-.73-.44-2.11-.91-3.25-.91-1.77,0-3.3,1.17-3.3,5.2,0,3.59,1.3,4.71,3.2,4.71,1.01,0,2.6-.7,3.35-1.4v-7.59Z"/>
    <path class="cls-1" d="m75.65,34.27c-.73,0-1.38-.65-1.38-1.38,0-.78.65-1.4,1.38-1.4.78,0,1.43.62,1.43,1.4,0,.73-.65,1.38-1.43,1.38Zm-1.07,14.64v-12.69h2.11v12.69h-2.11Z"/>
    <path class="cls-1" d="m87.97,36.22c1.4-.08,2.78-.18,4.16-.29v1.53h-2.31l-.05.1c.68.62.96,1.69.96,2.57,0,2.44-2.03,4.24-5.07,4.24h-1.66c-1.3,0-2.13.81-2.13,1.53,0,.6.44,1.01,1.53,1.01h3.22c3.43,0,5.15,1.12,5.15,3.38,0,2.42-2.5,4.21-6.42,4.21-4.19,0-5.49-1.72-5.49-3.48,0-1.35.88-2.37,1.77-2.83-1.14-.26-1.61-1.12-1.61-2.03,0-1.38,1.14-2.39,2.31-2.6v-.13c-.88-.49-1.59-1.59-1.59-3.2,0-3.02,2.52-4.32,4.86-4.32.83,0,1.66.05,2.37.29Zm-4.42,12.22c-.88.34-1.61,1.22-1.61,2.18,0,1.25.94,2.34,3.64,2.34,2.21,0,4-.88,4-2.55,0-1.04-.73-1.98-3.25-1.98h-2.78Zm2.16-10.89c-1.74,0-2.81,1.01-2.81,2.6,0,1.66,1.14,2.68,2.78,2.68s2.86-.96,2.86-2.7c0-1.2-.68-2.57-2.83-2.57Z"/>
    <path class="cls-1" d="m96.11,34.27c-.73,0-1.38-.65-1.38-1.38,0-.78.65-1.4,1.38-1.4.78,0,1.43.62,1.43,1.4,0,.73-.65,1.38-1.43,1.38Zm-1.07,14.64v-12.69h2.11v12.69h-2.11Z"/>
    <path class="cls-1" d="m103.91,32.99v3.22h3.82v1.53h-3.85v7.59c0,1.22.34,2.08,1.77,2.08.6,0,1.4-.16,2.39-.44l.34,1.43c-.94.44-2.13.7-3.17.7-2.26,0-3.41-1.04-3.41-3.12v-8.24h-1.85v-1.12l1.95-.6.65-2.81,1.35-.23Z"/>
    <path class="cls-1" d="m119.85,40.17v8.74h-1.87l-.13-1.38s-.03-.03-.05-.03c-1.95,1.56-3.59,1.59-4.39,1.59-2.94,0-3.74-2.03-3.74-3.54,0-2.39,1.82-3.72,4.32-3.85l3.82-.21v-.91c0-2.08-.55-2.99-2.73-2.99-1.27,0-2.73.31-4,.73-.13-.47-.26-.94-.42-1.4,1.46-.62,3.33-.99,4.89-.99,2.73,0,4.32,1.12,4.32,4.24Zm-5.36,2.89c-1.72.1-2.57.94-2.57,2.29,0,1.51.73,2.26,2.37,2.26,1.09,0,2.31-.57,3.51-1.61v-3.15l-3.3.21Z"/>
    <path class="cls-1" d="m125.39,48.9h-2.11v-18.49h2.11v18.49Z"/>
    <path class="cls-1" d="m138.85,32.99v3.22h3.82v1.53h-3.85v7.59c0,1.22.34,2.08,1.77,2.08.6,0,1.4-.16,2.39-.44l.34,1.43c-.94.44-2.13.7-3.17.7-2.26,0-3.41-1.04-3.41-3.12v-8.24h-1.85v-1.12l1.95-.6.65-2.81,1.35-.23Z"/>
    <path class="cls-1" d="m150.35,49.11c-4.16,0-5.46-3.07-5.46-6.5s1.56-6.68,5.72-6.68,5.51,3.3,5.51,6.63-1.33,6.55-5.77,6.55Zm.26-11.54c-2.81,0-3.51,2.65-3.51,5.04,0,2.52.52,4.86,3.51,4.86,2.76,0,3.3-2.57,3.3-4.86s-.49-5.04-3.3-5.04Z"/>
    <path class="cls-1" d="m164.08,49.11c-4.16,0-5.46-3.07-5.46-6.5s1.56-6.68,5.72-6.68,5.51,3.3,5.51,6.63-1.33,6.55-5.77,6.55Zm.26-11.54c-2.81,0-3.51,2.65-3.51,5.04,0,2.52.52,4.86,3.51,4.86,2.76,0,3.3-2.57,3.3-4.86s-.49-5.04-3.3-5.04Z"/>
    <path class="cls-1" d="m175.1,48.9h-2.11v-18.49h2.11v18.49Z"/>
    <path class="cls-1" d="m178.71,46.67c1.61.73,3.02.86,3.93.86,1.61,0,2.89-.49,2.89-2.03,0-1.35-1.3-1.82-2.73-2.31-2.21-.78-4.29-1.35-4.29-3.69s2.05-3.56,4.6-3.56c1.07,0,2.68.23,3.8.91l-.65,1.48c-1.3-.52-2.29-.68-3.17-.68-1.33,0-2.57.47-2.57,1.87,0,1.09,1.66,1.59,2.7,1.92,2.13.68,4.37,1.35,4.37,4.03s-2.11,3.64-5.02,3.64c-1.51,0-3.38-.34-4.52-.99l.68-1.46Z"/>
    <path class="cls-1" d="m60.91,83.09h6.4c3.48,0,5.23,1.9,5.23,4.55,0,1.46-.6,2.99-2.44,3.93,2.34.73,2.94,3.07,2.94,4.47,0,2.94-2.34,4.86-5.02,4.86h-7.1v-17.81Zm5.9,1.69h-3.72v6.03h3.72c2.26,0,3.51-1.17,3.51-2.99s-1.04-3.04-3.51-3.04Zm.47,7.7h-4.19v6.73h4.19c2.57,0,3.56-1.56,3.56-3.38s-1.17-3.35-3.56-3.35Z"/>
    <path class="cls-1" d="m85.82,92.17v8.74h-1.87l-.13-1.38s-.03-.03-.05-.03c-1.95,1.56-3.59,1.59-4.39,1.59-2.94,0-3.74-2.03-3.74-3.54,0-2.39,1.82-3.72,4.32-3.85l3.82-.21v-.91c0-2.08-.55-2.99-2.73-2.99-1.27,0-2.73.31-4,.73-.13-.47-.26-.94-.42-1.4,1.46-.62,3.33-.99,4.89-.99,2.73,0,4.32,1.12,4.32,4.24Zm-5.36,2.89c-1.72.1-2.57.94-2.57,2.29,0,1.51.73,2.26,2.37,2.26,1.09,0,2.31-.57,3.51-1.61v-3.15l-3.3.21Z"/>
    <path class="cls-1" d="m97.08,100.9v-8.37c0-1.77-.21-2.86-2.21-2.86-1.2,0-2.78.62-3.87,1.25v9.98h-2.13v-12.69h2.08l.03,1.09.08.05c1.43-.91,3.2-1.43,4.42-1.43,3.46,0,3.72,2.18,3.72,4.08v8.89h-2.11Z"/>
    <path class="cls-1" d="m104.43,93.47c1.69-1.74,3.46-3.48,5.15-5.25h2.39c-1.59,1.64-3.3,3.35-4.92,4.99.26.36.6.7.86,1.07l4.45,6.63h-2.34c-1.43-2.13-2.83-4.29-4.24-6.42l-1.43,1.43v4.99h-2.13v-18.46h2.13v8.06l-.1,2.89.18.08Z"/>
    <path class="cls-1" d="m115.77,86.27c-.73,0-1.38-.65-1.38-1.38,0-.78.65-1.4,1.38-1.4.78,0,1.43.62,1.43,1.4,0,.73-.65,1.38-1.43,1.38Zm-1.07,14.64v-12.69h2.11v12.69h-2.11Z"/>
    <path class="cls-1" d="m128.82,100.9v-8.37c0-1.77-.21-2.86-2.21-2.86-1.2,0-2.78.62-3.88,1.25v9.98h-2.13v-12.69h2.08l.03,1.09.08.05c1.43-.91,3.2-1.43,4.42-1.43,3.46,0,3.72,2.18,3.72,4.08v8.89h-2.11Z"/>
    <path class="cls-1" d="m141.46,88.22c1.4-.08,2.78-.18,4.16-.29v1.53h-2.31l-.05.1c.68.62.96,1.69.96,2.57,0,2.44-2.03,4.24-5.07,4.24h-1.66c-1.3,0-2.13.81-2.13,1.53,0,.6.44,1.01,1.53,1.01h3.22c3.43,0,5.15,1.12,5.15,3.38,0,2.42-2.5,4.21-6.42,4.21-4.19,0-5.49-1.72-5.49-3.48,0-1.35.88-2.37,1.77-2.83-1.14-.26-1.61-1.12-1.61-2.03,0-1.38,1.14-2.39,2.31-2.6v-.13c-.88-.49-1.59-1.59-1.59-3.2,0-3.02,2.52-4.32,4.86-4.32.83,0,1.66.05,2.37.29Zm-4.42,12.22c-.88.34-1.61,1.22-1.61,2.18,0,1.25.94,2.34,3.64,2.34,2.21,0,4-.88,4-2.55,0-1.04-.73-1.98-3.25-1.98h-2.78Zm2.16-10.89c-1.74,0-2.81,1.01-2.81,2.6,0,1.66,1.14,2.68,2.78,2.68s2.86-.96,2.86-2.7c0-1.2-.68-2.57-2.83-2.57Z"/>
    <path class="cls-1" d="m164.54,92.17v8.74h-1.87l-.13-1.38s-.03-.03-.05-.03c-1.95,1.56-3.59,1.59-4.39,1.59-2.94,0-3.74-2.03-3.74-3.54,0-2.39,1.82-3.72,4.32-3.85l3.82-.21v-.91c0-2.08-.55-2.99-2.73-2.99-1.27,0-2.73.31-4,.73-.13-.47-.26-.94-.42-1.4,1.46-.62,3.33-.99,4.89-.99,2.73,0,4.32,1.12,4.32,4.24Zm-5.36,2.89c-1.72.1-2.57.94-2.57,2.29,0,1.51.73,2.26,2.37,2.26,1.09,0,2.31-.57,3.51-1.61v-3.15l-3.3.21Z"/>
    <path class="cls-1" d="m170.55,84.99v3.22h3.82v1.53h-3.85v7.59c0,1.22.34,2.08,1.77,2.08.6,0,1.4-.16,2.39-.44l.34,1.43c-.94.44-2.13.7-3.17.7-2.26,0-3.41-1.04-3.41-3.12v-8.24h-1.85v-1.12l1.95-.6.65-2.81,1.35-.23Z"/>
    <path class="cls-1" d="m191.82,88.22h2.11c-1.66,5.04-3.33,10.09-5.02,15.11-.78,2.34-1.9,3.2-3.77,3.2-.52,0-1.4-.05-2.76-.44.08-.52.21-1.04.31-1.59.94.18,1.51.29,2.11.29.96,0,1.64-.26,2.16-1.85l.52-1.56c-1.56-4.37-3.09-8.76-4.65-13.16h2.18c1.14,3.54,2.29,7.05,3.41,10.58h.13l3.28-10.58Z"/>
    <path class="cls-1" d="m200.76,101.11c-4.16,0-5.46-3.07-5.46-6.5s1.56-6.68,5.72-6.68,5.51,3.3,5.51,6.63-1.33,6.55-5.77,6.55Zm.26-11.54c-2.81,0-3.51,2.65-3.51,5.04,0,2.52.52,4.86,3.51,4.86,2.76,0,3.3-2.57,3.3-4.86s-.49-5.04-3.3-5.04Z"/>
    <path class="cls-1" d="m209.29,97.08v-8.87h2.11v8.35c0,1.77.21,2.83,2.18,2.83.96,0,2.47-.52,3.69-1.61v-9.57h2.08v12.69h-2l-.08-1.48-.05-.05c-1.66,1.48-3.38,1.77-4.26,1.77-3.46,0-3.67-2.18-3.67-4.06Z"/>
    <path class="cls-1" d="m224.71,90.5s.03,0,.05.03c1.14-1.82,3.12-2.6,4.78-2.6v2.05c-1.33.03-3.25.39-4.76,2.26v8.66h-2.16v-12.69h2l.08,2.29Z"/>
    <path class="cls-1" d="m69.67,115.94l-.75,1.51c-1.25-.68-2.18-.81-3.02-.81-2.5,0-3.67,1.98-3.67,4.99,0,2.63.75,4.78,3.51,4.78,1.2,0,2.18-.23,3.64-1.04l.65,1.4c-1.12.83-2.73,1.33-4.39,1.33-4.16,0-5.62-2.6-5.62-6.4,0-2.68,1.01-6.79,5.77-6.79,1.3,0,2.73.29,3.87,1.01Z"/>
    <path class="cls-1" d="m77.44,128.11c-4.16,0-5.46-3.07-5.46-6.5s1.56-6.68,5.72-6.68,5.51,3.3,5.51,6.63-1.33,6.55-5.77,6.55Zm.26-11.54c-2.81,0-3.51,2.65-3.51,5.04,0,2.52.52,4.86,3.51,4.86,2.76,0,3.3-2.57,3.3-4.86s-.49-5.04-3.3-5.04Z"/>
    <path class="cls-1" d="m94.19,127.9v-8.37c0-1.77-.21-2.86-2.21-2.86-1.2,0-2.78.62-3.88,1.25v9.98h-2.13v-12.69h2.08l.03,1.09.08.05c1.43-.91,3.2-1.43,4.42-1.43,3.46,0,3.72,2.18,3.72,4.08v8.89h-2.11Z"/>
    <path class="cls-1" d="m98.06,115.22h2.16c.7,2.21,1.48,4.34,2.16,6.53.47,1.46.94,3.09,1.43,4.52h.13c.18-.52.81-2.73,1.51-4.86l2.05-6.19h2.13l-4.58,12.69h-2.55l-4.45-12.69Z"/>
    <path class="cls-1" d="m121.54,120.99v1.01h-8.5c-.03,2.37.78,4.5,3.61,4.5,1.48,0,2.63-.31,4.06-.91l.52,1.35c-1.51.81-3.04,1.17-4.73,1.17-4.52,0-5.64-2.99-5.64-6.53,0-2.26.78-6.66,5.56-6.66,5.07,0,5.12,4.5,5.12,6.06Zm-8.48-.36h6.47c0-2.44-.73-4.13-3.07-4.13s-3.25,1.98-3.41,4.13Z"/>
    <path class="cls-1" d="m132.46,127.9v-8.37c0-1.77-.21-2.86-2.21-2.86-1.2,0-2.78.62-3.88,1.25v9.98h-2.13v-12.69h2.08l.03,1.09.08.05c1.43-.91,3.2-1.43,4.42-1.43,3.46,0,3.72,2.18,3.72,4.08v8.89h-2.11Z"/>
    <path class="cls-1" d="m139.38,113.27c-.73,0-1.38-.65-1.38-1.38,0-.78.65-1.4,1.38-1.4.78,0,1.43.62,1.43,1.4,0,.73-.65,1.38-1.43,1.38Zm-1.07,14.64v-12.69h2.11v12.69h-2.11Z"/>
    <path class="cls-1" d="m154.64,120.99v1.01h-8.5c-.03,2.37.78,4.5,3.61,4.5,1.48,0,2.63-.31,4.06-.91l.52,1.35c-1.51.81-3.04,1.17-4.73,1.17-4.52,0-5.64-2.99-5.64-6.53,0-2.26.78-6.66,5.56-6.66,5.07,0,5.12,4.5,5.12,6.06Zm-8.48-.36h6.47c0-2.44-.73-4.13-3.07-4.13s-3.25,1.98-3.41,4.13Z"/>
    <path class="cls-1" d="m165.56,127.9v-8.37c0-1.77-.21-2.86-2.21-2.86-1.2,0-2.78.62-3.87,1.25v9.98h-2.13v-12.69h2.08l.03,1.09.08.05c1.43-.91,3.2-1.43,4.42-1.43,3.46,0,3.72,2.18,3.72,4.08v8.89h-2.11Z"/>
    <path class="cls-1" d="m180.04,115.94l-.75,1.51c-1.25-.68-2.18-.81-3.02-.81-2.5,0-3.67,1.98-3.67,4.99,0,2.63.75,4.78,3.51,4.78,1.2,0,2.18-.23,3.64-1.04l.65,1.4c-1.12.83-2.73,1.33-4.39,1.33-4.16,0-5.62-2.6-5.62-6.4,0-2.68,1.01-6.79,5.77-6.79,1.3,0,2.73.29,3.88,1.01Z"/>
    <path class="cls-1" d="m193.04,120.99v1.01h-8.5c-.03,2.37.78,4.5,3.61,4.5,1.48,0,2.63-.31,4.06-.91l.52,1.35c-1.51.81-3.04,1.17-4.73,1.17-4.52,0-5.64-2.99-5.64-6.53,0-2.26.78-6.66,5.56-6.66,5.07,0,5.12,4.5,5.12,6.06Zm-8.48-.36h6.47c0-2.44-.73-4.13-3.07-4.13s-3.25,1.98-3.41,4.13Z"/>
    <path class="cls-1" d="m60.91,162.09h6.4c3.48,0,5.23,1.9,5.23,4.55,0,1.46-.6,2.99-2.44,3.93,2.34.73,2.94,3.07,2.94,4.47,0,2.94-2.34,4.86-5.02,4.86h-7.1v-17.81Zm5.9,1.69h-3.72v6.03h3.72c2.26,0,3.51-1.17,3.51-2.99s-1.04-3.04-3.51-3.04Zm.47,7.7h-4.19v6.73h4.19c2.57,0,3.56-1.56,3.56-3.38s-1.17-3.35-3.56-3.35Z"/>
    <path class="cls-1" d="m76.17,176.08v-8.87h2.11v8.35c0,1.77.21,2.83,2.18,2.83.96,0,2.47-.52,3.69-1.61v-9.57h2.08v12.69h-2l-.08-1.48-.05-.05c-1.66,1.48-3.38,1.77-4.26,1.77-3.46,0-3.67-2.18-3.67-4.06Z"/>
    <path class="cls-1" d="m89.46,177.67c1.61.73,3.02.86,3.93.86,1.61,0,2.89-.49,2.89-2.03,0-1.35-1.3-1.82-2.73-2.31-2.21-.78-4.29-1.35-4.29-3.69s2.05-3.56,4.6-3.56c1.07,0,2.68.23,3.8.91l-.65,1.48c-1.3-.52-2.29-.68-3.17-.68-1.33,0-2.57.47-2.57,1.87,0,1.09,1.66,1.59,2.7,1.92,2.13.68,4.37,1.35,4.37,4.03s-2.11,3.64-5.02,3.64c-1.51,0-3.38-.34-4.52-.99l.68-1.46Z"/>
    <path class="cls-1" d="m102.64,165.27c-.73,0-1.38-.65-1.38-1.38,0-.78.65-1.4,1.38-1.4.78,0,1.43.62,1.43,1.4,0,.73-.65,1.38-1.43,1.38Zm-1.07,14.64v-12.69h2.11v12.69h-2.11Z"/>
    <path class="cls-1" d="m115.69,179.9v-8.37c0-1.77-.21-2.86-2.21-2.86-1.2,0-2.78.62-3.87,1.25v9.98h-2.13v-12.69h2.08l.03,1.09.08.05c1.43-.91,3.2-1.43,4.42-1.43,3.46,0,3.72,2.18,3.72,4.08v8.89h-2.11Z"/>
    <path class="cls-1" d="m131.26,172.99v1.01h-8.5c-.03,2.37.78,4.5,3.61,4.5,1.48,0,2.63-.31,4.06-.91l.52,1.35c-1.51.81-3.04,1.17-4.73,1.17-4.52,0-5.64-2.99-5.64-6.53,0-2.26.78-6.66,5.56-6.66,5.07,0,5.12,4.5,5.12,6.06Zm-8.48-.36h6.47c0-2.44-.73-4.13-3.07-4.13s-3.25,1.98-3.41,4.13Z"/>
    <path class="cls-1" d="m134.15,177.67c1.61.73,3.02.86,3.93.86,1.61,0,2.89-.49,2.89-2.03,0-1.35-1.3-1.82-2.73-2.31-2.21-.78-4.29-1.35-4.29-3.69s2.05-3.56,4.6-3.56c1.07,0,2.68.23,3.8.91l-.65,1.48c-1.3-.52-2.29-.68-3.17-.68-1.33,0-2.57.47-2.57,1.87,0,1.09,1.66,1.59,2.7,1.92,2.13.68,4.37,1.35,4.37,4.03s-2.11,3.64-5.02,3.64c-1.51,0-3.38-.34-4.52-.99l.68-1.46Z"/>
    <path class="cls-1" d="m145.75,177.67c1.61.73,3.02.86,3.93.86,1.61,0,2.89-.49,2.89-2.03,0-1.35-1.3-1.82-2.73-2.31-2.21-.78-4.29-1.35-4.29-3.69s2.05-3.56,4.6-3.56c1.07,0,2.68.23,3.8.91l-.65,1.48c-1.3-.52-2.29-.68-3.17-.68-1.33,0-2.57.47-2.57,1.87,0,1.09,1.66,1.59,2.7,1.92,2.13.68,4.37,1.35,4.37,4.03s-2.11,3.64-5.02,3.64c-1.51,0-3.38-.34-4.52-.99l.68-1.46Z"/>
    <path class="cls-1" d="m60.52,204.67c1.61.73,3.02.86,3.93.86,1.61,0,2.89-.49,2.89-2.03,0-1.35-1.3-1.82-2.73-2.31-2.21-.78-4.29-1.35-4.29-3.69s2.05-3.56,4.6-3.56c1.07,0,2.68.23,3.8.91l-.65,1.48c-1.3-.52-2.29-.68-3.17-.68-1.33,0-2.57.47-2.57,1.87,0,1.09,1.66,1.59,2.7,1.92,2.13.68,4.37,1.35,4.37,4.03s-2.11,3.64-5.02,3.64c-1.51,0-3.38-.34-4.52-.99l.68-1.46Z"/>
    <path class="cls-1" d="m74.14,195.31c1.04-.83,2.44-1.38,3.8-1.38,3.64,0,4.76,2.91,4.76,6.34,0,3.72-1.35,6.86-5.1,6.86-.99,0-2.52-.16-3.56-.88v6.06h-2.11v-18.1h2.05l.03.99.13.1Zm-.08,9.33c.55.42,2.03.91,3.17.91,1.79,0,3.3-1.35,3.3-5.33,0-3.51-1.27-4.55-3.17-4.55-1.04,0-2.7.7-3.3,1.3v7.67Z"/>
    <path class="cls-1" d="m95.91,199.99v1.01h-8.5c-.03,2.37.78,4.5,3.61,4.5,1.48,0,2.63-.31,4.06-.91l.52,1.35c-1.51.81-3.04,1.17-4.73,1.17-4.52,0-5.64-2.99-5.64-6.53,0-2.26.78-6.66,5.56-6.66,5.07,0,5.12,4.5,5.12,6.06Zm-8.48-.36h6.47c0-2.44-.73-4.13-3.07-4.13s-3.25,1.98-3.41,4.13Z"/>
    <path class="cls-1" d="m107.94,194.94l-.75,1.51c-1.25-.68-2.18-.81-3.02-.81-2.5,0-3.67,1.98-3.67,4.99,0,2.63.75,4.78,3.51,4.78,1.2,0,2.18-.23,3.64-1.04l.65,1.4c-1.12.83-2.73,1.33-4.39,1.33-4.16,0-5.62-2.6-5.62-6.4,0-2.68,1.01-6.79,5.77-6.79,1.3,0,2.73.29,3.87,1.01Z"/>
    <path class="cls-1" d="m112.28,192.27c-.73,0-1.38-.65-1.38-1.38,0-.78.65-1.4,1.38-1.4.78,0,1.43.62,1.43,1.4,0,.73-.65,1.38-1.43,1.38Zm-1.07,14.64v-12.69h2.11v12.69h-2.11Z"/>
    <path class="cls-1" d="m126.77,198.17v8.74h-1.87l-.13-1.38s-.03-.03-.05-.03c-1.95,1.56-3.59,1.59-4.39,1.59-2.94,0-3.74-2.03-3.74-3.54,0-2.39,1.82-3.72,4.32-3.85l3.82-.21v-.91c0-2.08-.55-2.99-2.73-2.99-1.27,0-2.73.31-4,.73-.13-.47-.26-.94-.42-1.4,1.46-.62,3.33-.99,4.89-.99,2.73,0,4.32,1.12,4.32,4.24Zm-5.36,2.89c-1.72.1-2.57.94-2.57,2.29,0,1.51.73,2.26,2.37,2.26,1.09,0,2.31-.57,3.51-1.61v-3.15l-3.3.21Z"/>
    <path class="cls-1" d="m132.3,206.91h-2.11v-18.49h2.11v18.49Z"/>
    <path class="cls-1" d="m137.5,192.27c-.73,0-1.38-.65-1.38-1.38,0-.78.65-1.4,1.38-1.4.78,0,1.43.62,1.43,1.4,0,.73-.65,1.38-1.43,1.38Zm-1.07,14.64v-12.69h2.11v12.69h-2.11Z"/>
    <path class="cls-1" d="m142.52,204.67c1.61.73,3.02.86,3.93.86,1.61,0,2.89-.49,2.89-2.03,0-1.35-1.3-1.82-2.73-2.31-2.21-.78-4.29-1.35-4.29-3.69s2.05-3.56,4.6-3.56c1.07,0,2.68.23,3.8.91l-.65,1.48c-1.3-.52-2.29-.68-3.17-.68-1.33,0-2.57.47-2.57,1.87,0,1.09,1.66,1.59,2.7,1.92,2.13.68,4.37,1.35,4.37,4.03s-2.11,3.64-5.02,3.64c-1.51,0-3.38-.34-4.52-.99l.68-1.46Z"/>
    <path class="cls-1" d="m156.9,190.99v3.22h3.82v1.53h-3.85v7.59c0,1.22.34,2.08,1.77,2.08.6,0,1.4-.16,2.39-.44l.34,1.43c-.94.44-2.13.7-3.17.7-2.26,0-3.41-1.04-3.41-3.12v-8.24h-1.85v-1.12l1.95-.6.65-2.81,1.35-.23Z"/>
    <path class="cls-1" d="m163.37,204.67c1.61.73,3.02.86,3.93.86,1.61,0,2.89-.49,2.89-2.03,0-1.35-1.3-1.82-2.73-2.31-2.21-.78-4.29-1.35-4.29-3.69s2.05-3.56,4.6-3.56c1.07,0,2.68.23,3.8.91l-.65,1.48c-1.3-.52-2.29-.68-3.17-.68-1.33,0-2.57.47-2.57,1.87,0,1.09,1.66,1.59,2.7,1.92,2.13.68,4.37,1.35,4.37,4.03s-2.11,3.64-5.02,3.64c-1.51,0-3.38-.34-4.52-.99l.68-1.46Z"/>
  </g>
  <path class="cls-2" d="m29.8,49.03H12.28c-2.59,0-4.7-2.05-4.7-4.57V8.71c0-2.52,2.11-4.56,4.71-4.56h17.52c2.59,0,4.7,2.05,4.7,4.57v4.4h-2.24v-4.4c0-1.28-1.1-2.33-2.46-2.33H12.29c-1.36,0-2.46,1.04-2.46,2.32v35.74c0,1.28,1.1,2.33,2.46,2.33h17.52c1.36,0,2.46-1.04,2.46-2.32v-11.14h2.24v11.14c0,2.52-2.11,4.56-4.7,4.56Z"/>
  <polygon class="cls-2" points="30.02 40.05 12.06 40.05 12.07 8.63 30.02 8.63 30.02 13.12 27.78 13.12 27.78 10.88 14.31 10.88 14.31 37.81 27.78 37.81 27.78 33.32 30.02 33.32 30.02 40.05"/>
  <rect class="cls-2" x="21.04" y="17.61" width="13.46" height="2.24"/>
  <rect class="cls-2" x="21.04" y="22.1" width="17.95" height="2.24"/>
  <rect class="cls-2" x="21.04" y="26.59" width="22.44" height="2.24"/>
  <path class="cls-2" d="m42.73,125.62v-6.26h-3.87v-18.29l5.25,2.62,1.03-2.08-21.95-10.93L1.26,101.61l1.03,2.08,5.25-2.62v18.29h-3.87v6.26H0v2.32h46.41v-2.32h-3.67Zm-19.53-32.35l13.34,6.64v19.44H9.86v-19.44l13.34-6.64Zm-17.21,28.41h34.42v3.94H5.99v-3.94Z"/>
  <path class="cls-2" d="m18.18,109.86v.48c0,1.95,1.63,3.53,3.87,3.95v2.82h2.32v-2.82c2.24-.41,3.87-1.99,3.87-3.95,0-2.25-1.69-3.65-4.89-4.05-2.85-.35-2.85-1.37-2.85-1.75,0-.93,1.26-1.74,2.71-1.74s2.71.81,2.71,1.74v.48h2.32v-.48c0-1.92-1.65-3.52-3.87-3.94v-2.83h-2.32v2.83c-2.21.43-3.87,2.03-3.87,3.94,0,2.25,1.69,3.65,4.88,4.05,2.85.36,2.85,1.37,2.85,1.75,0,.93-1.26,1.74-2.71,1.74s-2.71-.81-2.71-1.74v-.48h-2.32Z"/>
  <path class="cls-2" d="m29.49,191.18v-3.46c2.79-3,4.58-7.86,4.58-13.47v-1.83c0-6.68-3.87-10.22-11.2-10.22s-11.21,3.53-11.21,10.22v1.83c0,5.56,1.76,10.39,4.51,13.39v3.54l-15.67,7v8.77h44.75v-8.77l-15.75-7Zm-11.2-1.71c1.39.9,2.93,1.4,4.57,1.4s3.12-.48,4.5-1.35v3.04l2.02.9c-1.15,2.05-3.14,4.11-6.56,4.11s-5.41-2.06-6.55-4.11l2.02-.9v-3.09Zm4.57-.73c-4.97,0-9.02-6.42-9.07-14.34h8.32l3.41-3.19,3.43,3.3h2.97c-.09,7.87-4.12,14.22-9.06,14.22Zm0-24.41c6.09,0,9.06,2.64,9.07,8.06h-2.12l-4.26-4.11-4.28,3.99h-7.47c.05-5.34,3.01-7.95,9.07-7.95Zm20.24,40.48H2.62v-5.25l11.72-5.23c1.87,3.46,4.84,5.37,8.49,5.37s6.62-1.91,8.49-5.38l11.79,5.24v5.25Z"/>
</svg>