<svg xmlns="http://www.w3.org/2000/svg" viewBox="0 0 319 363" width="319" height="363"><defs><clipPath id="a"><path fill="none" d="M0 383h319v363H0z"/></clipPath></defs><path fill="#4d7d96" d="M-.05 0h319v182h-319z"/><path fill="#376479" d="M0 182h319v181H0z"/><path d="M195.15 34l-2.71-.34a78.39 78.39 0 0 0-9.61-.34c-.13.53-.28 1-.43 1.56a.25.25 0 0 0 0 .07c-.15.49-.31 1-.49 1.44s-.34.93-.53 1.37a.08.08 0 0 0 0 .06c-.19.44-.38.88-.6 1.32s-.43.88-.66 1.31a1.62 1.62 0 0 0-.12.22 26.94 26.94 0 0 1-1.44 2.33 28.43 28.43 0 0 1-1.78 2.37 13.53 13.53 0 0 1-1 1.12c-.17.2-.35.4-.54.59-.74.77-1.53 1.49-2.34 2.19-.49.43-1 .84-1.49 1.2s-.79.59-1.21.87c-.71.47-1.41.91-2.16 1.34l-.25.13a10.36 10.36 0 0 1-1 .5c-.35.15-.93.46-1.41.68-.32.15-.66.29-1 .43q-.53.22-1.06.4a29.34 29.34 0 0 1-3.78 1.07 4.55 4.55 0 0 0-.6.12.69.69 0 0 1-.25 0l-.78.15-.38.06c-.38.06-.75.1-1.13.13-.6.07-1.21.12-1.82.15s-1 0-1.53 0a30.65 30.65 0 0 1-3.5-.21l-.84-.1-.72-.1-.35-.07-.5-.09-.57-.12c-.84-.18-1.68-.4-2.49-.65-.4-.12-.81-.25-1.21-.4s-.79-.28-1.18-.44-.78-.31-1.16-.49a31.09 31.09 0 0 1-3-1.52l-.48-.16-1.19-.77-.19-.13c-.37-.24-.72-.5-1.07-.77s-.77-.57-1.13-.88a10.25 10.25 0 0 1-1.1-1c-.35-.38-.71-.65-1-1a30.29 30.29 0 0 1-2.37-2.42c-.26-.32-.52-.65-.77-1-.54-.71-1-1.41-1.56-2.3q-.44-.7-.83-1.43l-.3-.58c-.26-.5-.51-1-.74-1.53-.15-.32-.29-.66-.43-1a3.47 3.47 0 0 1-.16-.41c-.12-.29-.24-.6-.34-.91a23.16 23.16 0 0 1-.83-2.76 78.39 78.39 0 0 0-9.61.34l-2.69.32c-22 3-36 15.3-44.09 25.47l21.16 32A70.79 70.79 0 0 1 107 73.5l-6.37 67.88-2.15 22.81A44.06 44.06 0 0 1 134.89 190H171a44.06 44.06 0 0 1 36.35-25.81l-8.5-90.69A71 71 0 0 1 218 91.37l21.16-31.95C231.15 49.26 217.12 37 195.15 34z" fill="#cceaff"/><circle cx="140.19" cy="183.97" r="3.04" fill="#516899"/><circle cx="165.74" cy="183.97" r="3.04" fill="#516899"/><path d="M250.55 118.44l-.37-.24.4-.62a2.34 2.34 0 0 0-.7-3.23l-23.3-15a2.34 2.34 0 0 0-3.23.7l-.4.62-.37-.24a2.6 2.6 0 0 0-3.59.78l-3.23 5a2.6 2.6 0 0 0 .78 3.59l28 18a2.6 2.6 0 0 0 3.59-.78l3.23-5a2.6 2.6 0 0 0-.81-3.58z" fill="#516899"/><path d="M248.86 113.7s3.17-5.55.63-10.39 5.57-12.49 1.62-15.54l-.88-.56c-4.42-2.32-8 8.24-13.45 7.94s-9.19 4.9-9.19 4.9z" fill="#fff"/><rect x="171.77" y="127.06" width="78.36" height="44.58" rx="4.48" ry="4.48" transform="rotate(-57.3 210.945 149.355)" fill="#fff"/><path fill="#516899" d="M229.159 129.206l1.74-2.71 13.404 8.607-1.74 2.71zM224.03 137.19l1.74-2.71 13.406 8.606-1.74 2.71zM218.663 144.914l1.742-2.708 13.382 8.604-1.742 2.709zM213.757 153.196l1.74-2.71 13.405 8.606-1.74 2.71zM208.422 160.883l1.742-2.709 13.382 8.605-1.741 2.708zM203.484 169.187l1.74-2.71 13.405 8.606-1.74 2.71z"/><g clip-path="url(#a)"><path d="M235.61 376.18l-119.85 34.35q-5.93 1.53-11.66 3.34l-.33.11a224.41 224.41 0 0 0-43.06 18.79h-.06a8.52 8.52 0 0 0-2 1.18A8.51 8.51 0 1 0 69 447.49l.29-.23A174.09 174.09 0 0 1 96.95 434c-13 11.14-22.87 24.35-28.41 37.72l-.1.23v.07a8.51 8.51 0 0 0 15.83 6.21l.07-.18C90.7 463.61 103 449.42 119 438.88c-17.14 17.39-29.63 37.18-37.14 56.88l-.15.37-.08.2a8.51 8.51 0 0 0 16 5.74 150.4 150.4 0 0 1 24.6-40 44 44 0 0 0 31.36 46 8.29 8.29 0 1 0 5.1-15.78l-.36-.11a27.56 27.56 0 1 1 16.67-.35 8.29 8.29 0 1 0 5.33 15.7 44.12 44.12 0 0 0 28.32-30c9.45-24.45 18.35-51.39 18.35-51.39l120.59-15.77L312.72 350l-77.12 26.17z" fill="#f9f7f4"/></g></svg>