<svg xmlns="http://www.w3.org/2000/svg" viewBox="0 0 319 363" width="319" height="363"><path d="M.1 0h319v363H.1z"/><path d="M125.3 151.5h-3.8v.2l-6.5 17.8h2.4a2.5 2.5 0 0 0 1.5-.4 2.6 2.6 0 0 0 .8-1.3l1-2.8h5.4l1 2.8a2.5 2.5 0 0 0 .8 1.3 2.6 2.6 0 0 0 1.5.4h2.4l-6.5-18m-1.9 4.9l.4 1.5 1.4 3.9h-3.5l1.4-3.9zM97 165.8l-2.2-4.4a3.3 3.3 0 0 0-.9-1.1 4.7 4.7 0 0 0 .8-1.1l4.2-7.6h-4.2l-3.6 6.7-.4.3h-2.2v-5.1a1.7 1.7 0 0 0-2-2h-1.9v18h3.9V162h2.2a.6.6 0 0 1 .4.3l2.8 5.7a2.3 2.3 0 0 0 1.1 1.2 3.7 3.7 0 0 0 1.6.3H99l-.2-.5-1.8-3.2m16.5-14.3H112a2 2 0 0 0-1.5.5 2 2 0 0 0-.5 1.5v5.4h-5.8v-5.4a1.8 1.8 0 0 0-2-2h-1.9v18h3.8v-7.3h5.9v7.3h3.8v-18h-.3m33.1 0H145a1.7 1.7 0 0 0-2 2v8.8l-.8-1.3-5.7-9.5h-3.7v18h1.9a1.7 1.7 0 0 0 2-2V158.8l.8 1.3 5.8 9.4h3.7v-18h-.3m8.3.1h1.9l6.8 17.9h-.5c-1.3 0-1.6-.3-2.1-1.5l-1.6-4.2h-7.1l-1.6 4.2c-.5 1.2-.8 1.5-2.1 1.5h-.5l6.8-17.9m4 10.6l-2.4-6.4c-.3-.8-.7-2.3-.7-2.3s-.4 1.5-.7 2.3l-2.3 6.4zm26.5-10.6h1.9l6.8 17.9h-.5c-1.3 0-1.6-.3-2.1-1.5l-1.6-4.2h-7.1l-1.6 4.2c-.4 1.2-.8 1.5-2 1.5h-.5l6.8-17.9m4 10.6l-2.4-6.4c-.3-.8-.7-2.3-.7-2.3s-.4 1.5-.7 2.3l-2.4 6.4zm35.2-10.6h1.8l4.7 10.4c.4.9.9 2.1.9 2.1h.1l.9-2.1 4.7-10.4h1.8l1.6 17.9h-.5c-1.1 0-1.5-.5-1.6-1.6l-.8-10.9c-.1-1-.1-2.5-.1-2.5a23.5 23.5 0 0 1-.9 2.5l-4.2 9.1h-1.6l-4.2-9.1c-.4-.9-1-2.5-1-2.5s0 1.6-.1 2.5l-.9 10.9c-.1 1.1-.5 1.6-1.6 1.6h-.4l1.5-17.9m22.6 10.1l-6.2-10.1h.5a2.3 2.3 0 0 1 2.4 1.4l3 5.1c.6.9 1.1 2 1.1 2h.1l1.1-2 3-5.1a2.3 2.3 0 0 1 2.4-1.4h.5l-6.2 10.1v7.8h-1.8v-7.8M177 156a6.1 6.1 0 0 0-5.5-3.2c-4 0-7 3.1-7 7.4s3 7.7 7.1 7.7a7.6 7.6 0 0 0 4.5-1.4 2.1 2.1 0 0 1 2.4.1 9.5 9.5 0 0 1-6.9 2.9c-5.2 0-8.9-4.2-8.9-9.4a8.8 8.8 0 0 1 8.8-9.1c2.6 0 5.7 1.1 6.9 3.8a7 7 0 0 1 .6 1.8s-1.5.2-1.9-.8m23.8-4.2h-5.5V168c0 1.1.5 1.6 1.5 1.6h4c5.4 0 9-3.3 9-9s-3.6-8.9-9-8.9m-.2 16.3h-3a.5.5 0 0 1-.6-.6v-14.2h3.6c4.4 0 7.3 2.6 7.3 7.4s-2.9 7.4-7.3 7.4zm19.3 0h-6.3a.5.5 0 0 1-.6-.6v-6.1h6.7v-1.6h-6.7v-6.5h8.3c0-1.1-.5-1.6-1.6-1.6h-8.6V168c0 1.1.5 1.6 1.5 1.6h7.7c1.1 0 1.6-.5 1.6-1.6h-2" fill="#fff"/><path d="M64.6 168.4s-2.9-6.8 2.3-11.9 11.6-5.3 12.9-5.4 1.9 6.2-2.8 13.2-11.2 5.1-11.2 5.1 6.4-8.2 5.7-8.1-3.9 3.7-6.8 7.1" fill="#9cb53b"/><path data-name="Credit Score and Rates" d="M43.4 63.3a7.3 7.3 0 0 0 2.1 5.3 5 5 0 0 0 4 1.5c3.8 0 7.9-2.9 11.8-6.2 2.2-1.9 6.2-5.3 6.2-6.4a.7.7 0 0 0-.5-.9h-.2c-.7 0-1.3 1-2.2 1.6s-10.2 9.5-15.4 9.5c-2.4 0-3.1-2-3.1-3.8 0-3.7 1.7-7.3 3.8-10.4s6.1-7.9 8.9-7.9 2.5 5.4 2.6 6.5.1.7.5.7.8-1.1.8-2c0-3.2-.2-7.9-3.7-7.9a8.7 8.7 0 0 0-3.2.8c-6.1 3.7-12.4 13-12.4 19.6zm27.7-13.1a1.6 1.6 0 0 0-1.7 1.6 5 5 0 0 0 .5 1.7 27.2 27.2 0 0 1 2 9.6c0 1.5-.1 1.9-.1 2.8a2.6 2.6 0 0 0 .5 1.6 2.3 2.3 0 0 0 1.7.5c.4-.1.7-.3.7-1.4a19.5 19.5 0 0 1 1.6-7.3c1.2-2.9 3-6.6 5.9-8.3 1-.6 1.9-1.3 1.9-2.3a1.2 1.2 0 0 0-1.4-1 2.4 2.4 0 0 0-1.3.4c-3.9 2.6-6.3 7.7-7.4 10.9a48.5 48.5 0 0 0-1.4-7.1c-.2-.6-.6-1.7-1.5-1.7zm16 4.9c-1.5 2.1-3 4.8-3 7.4a6.5 6.5 0 0 0 1 3.8 5.7 5.7 0 0 0 4.3 1.7c3.1 0 6.2-1.7 8.8-4a20.2 20.2 0 0 0 3.1-3.4 2.9 2.9 0 0 0 .7-1.7.7.7 0 0 0-.7-.7c-.7-.1-2.9 2.9-4.2 3.9s-4.5 3.7-7.4 3.7a3 3 0 0 1-3-3v-.2a4.1 4.1 0 0 1 .3-1.4c3.9-.8 11-5.3 11-9.9a2.7 2.7 0 0 0-2.5-2.9h-.2c-2.9 0-7.2 5-8.4 6.8zm8.2-2.5c-.9 1.8-3.7 4.5-7.6 5.8 2.1-3.1 4.7-6.1 7.6-7.6a.4.4 0 0 1 .4.4 4.3 4.3 0 0 1-.4 1.3zm28.7.5c-.1-5.3-.1-9.4-.1-13.6a1.6 1.6 0 0 0-1.5-1.7 1.7 1.7 0 0 0-1.9 1.5v.2a12.9 12.9 0 0 0 .2 1.8c.2 1.7.4 4.8.7 8h-1c-1.4 0-3.5.7-6.1 2.5-4.1 3-9.8 8.5-9.8 13.5a2.5 2.5 0 0 0 2.4 2.6h.2l1.3-.2c4.8-1.6 10.3-7 13.3-11.3a19.5 19.5 0 0 1 .1 2.5c.1.9.1 1.7.1 2.3s-.1 2.5-.1 3.6v.8a1.9 1.9 0 0 0 1.9 2h.3a.9.9 0 0 0 .9-1v-.8a104.5 104.5 0 0 1-.8-12.7zm-8.8 1c3.3-2.3 4.7-2.7 5.4-2.7a.7.7 0 0 1 .8.8 4.7 4.7 0 0 1-1.4 2.7c-2.5 2.9-7.1 7.7-10.2 9.5a3.6 3.6 0 0 1-2 .8c-.5 0-.7-.2-.7-.8a4.9 4.9 0 0 1 1-2.7 32.8 32.8 0 0 1 7.1-7.6zm18.5-10.8a1.9 1.9 0 0 0-1.9-1.9 1.9 1.9 0 0 0-1.9 1.6c0 1.4.7 2.8 1.9 2.8s1.9-1.6 1.9-2.5zM132 65.1c0 .7 0 1.3.1 1.9a1.1 1.1 0 0 0 .4.6 3.8 3.8 0 0 0 1.7.4c.7 0 1.1-.2 1.1-.7s-.1-.2-.1-.3a16.5 16.5 0 0 1-.8-5c-.2-2.8-.2-5.3-.2-7.9V51a1.4 1.4 0 0 0-1.5-1.1c-1 .1-1.9.5-1.9 1.1a2.5 2.5 0 0 0 .2.9c.7 1.7.9 8.1 1 11v2.3zm7.6-13.7c-1.5.2-2.2.7-2.2 1.3a1.4 1.4 0 0 0 1.3 1.1c.7 0 1.4-.5 4.4-1.2.2 3.8.7 8.8.9 12.3v.3c0 1.2.5 2 1.6 2A2.6 2.6 0 0 0 148 65a.3.3 0 0 0-.4-.3h-.4c-.4 0-.7-1.1-.8-2a84.3 84.3 0 0 1-.5-10.8 33.1 33.1 0 0 1 8.2-1.3c.6 0 1.4-.2 1.4-.9a1.7 1.7 0 0 0-1.6-1.7h-.1a58.7 58.7 0 0 0-7.9 1.6c.3-3.1.7-4.4.7-5.5a1.3 1.3 0 0 0-1.3-1.2 1.6 1.6 0 0 0-1.7 1.5 32.9 32.9 0 0 0-.4 5.8zm53.4 8c0-2.4-2.3-2.8-4.2-2.8a17 17 0 0 0-4.7.8 29.5 29.5 0 0 1-7.7 1.1c-1.8 0-3.5-.2-3.5-1.9.4-4.7 8.2-11.2 12.5-11.2a1 1 0 0 1 1.2.7v.3a2.5 2.5 0 0 1-.2 1c-.1.5-.1.8-.2 1s.1.5.9.6 1.9-2.8 1.9-3.7-1.7-2.7-3.4-2.7c-3.2 0-9.1 3.1-12.6 7.3a10.6 10.6 0 0 0-2.9 6.7c0 3.3 3.3 4.5 5.9 4.5a32.1 32.1 0 0 0 8-1.1 19.5 19.5 0 0 1 5-1c.7 0 1.3.1 1.3.7s-5 4.8-6.1 5.5l-4.6 1.7a2.5 2.5 0 0 0-1.6 2 1.4 1.4 0 0 0 1.4 1.3c2.1 0 4.7-2 6.1-3s4.4-2.5 8.5-4.3c2.3-1 2.6-1.4 2.6-1.6s-.3-1.2-.8-1.2a14.3 14.3 0 0 0-3.7 1.3 2.8 2.8 0 0 0 1-1.9zm20.8 5.1a20.7 20.7 0 0 0 3.8-3.7 3.5 3.5 0 0 0 .8-1.7.6.6 0 0 0-.5-.6h-.1c-.6 0-1.3 1.1-2.4 2.2-3.2 3-6.8 5.7-11 5.7a2.4 2.4 0 0 1-2.5-2.2c0-3.8 4.2-8.6 6.8-11s1.9-1.4 2.3-1.4a.8.8 0 0 1 .7.8s.2 2.2 1.3 2.2a1.4 1.4 0 0 0 1.4-1.5v-.2a5 5 0 0 0-2.1-3.5 2.4 2.4 0 0 0-1.5-.5c-2.5 0-7.1 5.4-8.3 7.1s-3.4 5.5-3.4 8.3a4.1 4.1 0 0 0 1 2.7c.8 1 2.2 1.6 4.3 1.6s6.7-1.7 9.4-4zm12.1 3.9c6.5 0 13.9-8.7 13.9-14.9 0-2.5-1.4-4-3.8-4s-5 2.4-6.8 4.3a6.4 6.4 0 0 0-1.9 3.2.6.6 0 0 0 .5.7c.4-.1.8-.5 2.2-1.9s4.1-4 5.8-4a1.3 1.3 0 0 1 1.4 1.2c0 5.3-6.1 12.9-11.3 12.9-1.5 0-2-1.1-2-2.5a10.7 10.7 0 0 1 .8-3.5 19.2 19.2 0 0 1 4.2-6.3l1.3-1.2a1.2 1.2 0 0 0 .4-.8 1.3 1.3 0 0 0-1.3-1.2c-1.4 0-2.9 1.7-3.6 2.6-2 2.5-4.4 6.5-4.4 10.5a4.6 4.6 0 0 0 4.3 4.9h.4zm19-18.2a1.6 1.6 0 0 0-1.7 1.6 5 5 0 0 0 .5 1.7 27.2 27.2 0 0 1 2 9.6c0 1.5-.1 1.9-.1 2.8a2.6 2.6 0 0 0 .5 1.6 2.3 2.3 0 0 0 1.5.5c.4-.1.7-.3.7-1.4a19.5 19.5 0 0 1 1.6-7.3c1.2-2.9 3-6.6 5.9-8.3 1-.6 1.9-1.3 1.9-2.3a1.2 1.2 0 0 0-1.4-1 2.4 2.4 0 0 0-1.3.4c-3.9 2.6-6.2 7.7-7.4 10.9a48.5 48.5 0 0 0-1.4-7.1c-.2-.7-.7-1.7-1.5-1.7zm16 4.9c-1.5 2.1-3 4.8-3 7.4a6.5 6.5 0 0 0 1 3.8 5.7 5.7 0 0 0 4.3 1.7c3.1 0 6.2-1.7 8.8-4a20.2 20.2 0 0 0 3.1-3.4 2.9 2.9 0 0 0 .7-1.7.7.7 0 0 0-.7-.7c-.7-.1-2.9 2.9-4.2 3.9s-4.5 3.7-7.4 3.7a3 3 0 0 1-3-3v-.2a4.1 4.1 0 0 1 .3-1.4c3.9-.8 11-5.3 11-9.9a2.7 2.7 0 0 0-2.5-2.9h-.2c-2.9 0-7.2 5-8.4 6.8zm8.2-2.5c-.9 1.8-3.7 4.5-7.6 5.8 2.1-3.1 4.7-6.1 7.6-7.6a.4.4 0 0 1 .4.4 4.3 4.3 0 0 1-.4 1.3zM78 95.8c0-2.9.2-5.3.2-7.9a3.5 3.5 0 0 0-1.3-2.8 3.7 3.7 0 0 0-2.3-.8 6.7 6.7 0 0 0-2.6.7 16.7 16.7 0 0 0-4.4 3 39.6 39.6 0 0 0-4.1 4.4c-2.5 3.3-3.5 6.2-3.5 8.3s.9 3 2.5 3a5.3 5.3 0 0 0 2-.5c2.2-1.1 4.6-3.7 7.3-6.8s2.9-4.1 3.6-4.8c.1 2.8-.3 11.3 3.3 11.3 1.3 0 2.5-1 5.6-6a1.7 1.7 0 0 0 .4-1.1.7.7 0 0 0-.7-.5 1.3 1.3 0 0 0-.7.5c-1.1 1.2-3.4 4.6-4.3 4.6s-1-.3-1-4.6zm-8.8-5.9c3.7-3.4 5-3.5 5.6-3.5a.4.4 0 0 1 .4.5 2.2 2.2 0 0 1-.1.7 40.6 40.6 0 0 1-5.7 7.8c-2.8 3.1-5.4 5.3-6.5 5.3a.6.6 0 0 1-.5-.7c0-1.7 2.6-6.4 6.8-10.2zm31.9-.8a4.5 4.5 0 0 0-.5-2.1 1.5 1.5 0 0 0-1.4-.8c-2.3 0-5.9 5.5-7.9 10.7-.5-5.1-.7-8.8-.7-9.2a1.5 1.5 0 0 0-1.4-1.6H89a1.4 1.4 0 0 0-1.4 1.3 96.8 96.8 0 0 1 1.3 12.8c0 .5-.1 1.1-.1 1.6s.4 1.7 1.3 1.7a1.2 1.2 0 0 0 1.4-.8c.4-.9.7-1.7 2.2-5.6s3.8-7.6 4.7-7.6.3 1 .3 1.8c.1 3.4.1 10.7 3.4 10.7 1.3 0 2.2 0 5.2-5.5a4.3 4.3 0 0 0 .5-1.1.7.7 0 0 0-.7-.6.9.9 0 0 0-.7.5c-1.3 1.9-2.5 4-3.8 4s-.7-1-.7-1.2a71.4 71.4 0 0 1-.7-9zm28.3.1c-.1-5.3-.1-9.4-.1-13.6a1.6 1.6 0 0 0-1.5-1.7 1.7 1.7 0 0 0-1.9 1.5v.2a12.9 12.9 0 0 0 .2 1.8c.2 1.7.4 4.8.7 8h-1c-1.4 0-3.5.7-6.1 2.5-4.1 3-9.8 8.5-9.8 13.5a2.5 2.5 0 0 0 2.4 2.6h.2l1.3-.2c4.8-1.6 10.3-7 13.3-11.3a19.5 19.5 0 0 1 .1 2.5c.1.9.1 1.7.1 2.3s-.1 2.5-.1 3.6v.8a1.9 1.9 0 0 0 1.9 2h.3a.9.9 0 0 0 .9-1v-.8a104.5 104.5 0 0 1-.8-12.7zm-8.8 1c3.3-2.3 4.7-2.7 5.4-2.7a.7.7 0 0 1 .8.8 4.7 4.7 0 0 1-1.4 2.7c-2.5 2.9-7.1 7.7-10.2 9.5a3.6 3.6 0 0 1-2 .8c-.5 0-.7-.2-.7-.8a4.9 4.9 0 0 1 1-2.7 32.8 32.8 0 0 1 7.1-7.6zm32.3-7l-1.6.2a.4.4 0 0 0-.4.4s2 2 3 2l2.6-.5c.5 3.2.8 6.5 1.1 9.7-.7.3-2.9.4-2.9 1.6s1.3 1.6 2.2 1.6l1-.2a24.6 24.6 0 0 1 .2 2.5v4.2a1.9 1.9 0 0 0 1.8 2h.4a1 1 0 0 0 1.1-.8 3 3 0 0 0-.1-.7c-.1-.7-.5-3.7-.9-7.1l2 .8c5.6 2.3 7.6 2.9 9.1 2.9a3.2 3.2 0 0 0 3.5-3.5c0-.4-.2-1.4-.5-1.4h-.2a3.2 3.2 0 0 1-2.6 2.2h-.6c-2.2 0-6.2-1.7-8.6-2.9a38.5 38.5 0 0 0 5.6-2.9c3.7-2.3 7.4-5.5 7.4-8.3s-3.4-3.7-7.3-3.7a77.1 77.1 0 0 0-8.3.7 1.5 1.5 0 0 0-1.5-1.1h-.6s-1.5.1-1.5 1.3v.5l-3.2.5zm6.8 1.4a39.5 39.5 0 0 1 8.5-.8c1.1 0 4.1.1 4.1 1.4s-3.8 4.9-5.8 6.1a26.9 26.9 0 0 1-6.5 3c-.1-2-.3-5.2-.3-9.8zm37.2 11.2c0-2.9.2-5.3.2-7.9a3.5 3.5 0 0 0-1.3-2.8 3.7 3.7 0 0 0-2.3-.8 6.7 6.7 0 0 0-2.6.7 16.7 16.7 0 0 0-4.4 2.9 39.6 39.6 0 0 0-4.1 4.4c-2.5 3.3-3.5 6.2-3.5 8.3s.9 3 2.5 3a5.3 5.3 0 0 0 2-.5c2.2-1.1 4.6-3.7 7.3-6.8s2.9-4.1 3.6-4.8c.1 2.8-.3 11.3 3.3 11.3 1.3 0 2.5-1 5.6-6a1.7 1.7 0 0 0 .4-1.1.7.7 0 0 0-.7-.5 1.3 1.3 0 0 0-.7.5c-1.1 1.2-3.4 4.6-4.3 4.6s-.9-.2-.9-4.5zm-8.8-5.9c3.7-3.4 5-3.5 5.6-3.5a.4.4 0 0 1 .4.5 2.2 2.2 0 0 1-.1.7 40.6 40.6 0 0 1-5.7 7.8c-2.8 3.1-5.4 5.3-6.5 5.3a.6.6 0 0 1-.5-.7c0-1.7 2.6-6.4 6.8-10.2zm17-2.3c-1.5.2-2.2.7-2.2 1.3a1.4 1.4 0 0 0 1.3 1.1c.7 0 1.4-.5 4.4-1.2.2 3.8.7 8.8.9 12.3v.3c0 1.2.5 2 1.6 2a2.6 2.6 0 0 0 2.4-2.2.3.3 0 0 0-.4-.3h-.4c-.4 0-.7-1.1-.8-2a84.3 84.3 0 0 1-.5-10.8 33.1 33.1 0 0 1 8.2-1.3c.6 0 1.4-.2 1.4-.9a1.7 1.7 0 0 0-1.6-1.7h-.1a58.7 58.7 0 0 0-7.9 1.6c.3-3.1.7-4.4.7-5.5a1.3 1.3 0 0 0-1.3-1.2 1.6 1.6 0 0 0-1.7 1.5 32.9 32.9 0 0 0-.4 5.8zm17.5 3.6c-1.5 2.1-3 4.8-3 7.4a6.5 6.5 0 0 0 1 3.8 5.7 5.7 0 0 0 4.3 1.7c3.1 0 6.2-1.7 8.8-4a20.2 20.2 0 0 0 3.1-3.4 2.9 2.9 0 0 0 .7-1.7.7.7 0 0 0-.7-.7c-.7-.1-2.9 2.9-4.2 3.9s-4.5 3.7-7.4 3.7a3 3 0 0 1-3-3v-.2a4.1 4.1 0 0 1 .3-1.4c3.9-.8 11-5.3 11-9.9a2.7 2.7 0 0 0-2.5-2.9c-2.9 0-7.2 5-8.4 6.8zm8.2-2.5c-.9 1.8-3.7 4.5-7.6 5.8 2.1-3.1 4.7-6.1 7.6-7.6a.4.4 0 0 1 .4.4 4.3 4.3 0 0 1-.4 1.3zm26.8 7.9a3.4 3.4 0 0 0 .5-1.7v-.5c-.3-1.9-2.6-2.1-2.8-2.1a14.4 14.4 0 0 0-4.7 1.1c-2 .7-4.1 1.7-6.4 1.9a.7.7 0 0 1-.7-.7c.1-1.7 5.9-7.8 8.3-7.8a1.2 1.2 0 0 1 1 .5 1.4 1.4 0 0 0 .9.5c.6 0 .8-.8.8-1.3a2.9 2.9 0 0 0-2.8-2.6c-1.6 0-3.8 1.6-5.6 3.2a18.8 18.8 0 0 0-4.8 6.1 7.3 7.3 0 0 0-.4 2 2.5 2.5 0 0 0 2.6 2.4h.1a14.5 14.5 0 0 0 5.7-1.4 22.3 22.3 0 0 1 5.6-1.6.7.7 0 0 1 .8.7c-.2.9-2.3 2.8-4.7 4.3a18.8 18.8 0 0 1-3.7 1.4c-1.2.5-1.4 1-1.4 1.7a1.4 1.4 0 0 0 1.4 1.3 4.8 4.8 0 0 0 1.9-.5 15.2 15.2 0 0 0 3-1.9l2.6-1.4a34 34 0 0 1 4-2.2c2.4-1.2 2.9-1.5 2.9-2a.8.8 0 0 0-.7-.8h-.2l-1.4.5z" fill="#fff"/></svg>