<svg xmlns="http://www.w3.org/2000/svg" viewBox="0 0 319 363" width="319" height="363"><defs><clipPath id="a"><path fill="none" d="M0 0h319v363H0z"/></clipPath></defs><g clip-path="url(#a)"><path fill="#e58632" d="M0 0h319.47v182H0z"/><path fill="#d16e28" d="M0 182h319v181H0z"/><path d="M30.1 187.6v83.78h6.61v27.09H30.1V339H-5.38v-40.52H-12v-27.09h6.62V187.6H-12v-27.09h6.62v-41.83L12.37 89l17.73 29.68v41.83h6.61v27.09H30.1m48.71 0v83.78h6.61v27.09h-6.61V339H43.34v-40.52h-6.63v-27.09h6.62V187.6h-6.62v-27.09h6.62v-41.83L61.08 89l17.73 29.67v41.84h6.61v27.09h-6.6m48.71 0v83.78h6.61v27.09h-6.61V339H92v-40.52h-6.57v-27.09H92V187.6h-6.57v-27.09H92v-41.83L109.8 89l17.73 29.67v41.84h6.61v27.09h-6.61m48.71 0v83.78h6.61v27.09h-6.61V339h-35.47v-40.52h-6.62v-27.09h6.62V187.6h-6.62v-27.09h6.62v-41.83L158.51 89l17.73 29.67v41.84h6.61v27.09h-6.61m48.72 0v83.78h6.61v27.09H225V339h-35.52v-40.52h-6.62v-27.09h6.62V187.6h-6.62v-27.09h6.62v-41.83L207.23 89 225 118.67v41.84h6.61v27.09H225m48.71 0v83.78h6.61v27.09h-6.61V339h-35.52v-40.52h-6.62v-27.09h6.62V187.6h-6.62v-27.09h6.62v-41.83L255.94 89l17.73 29.67v41.84h6.61v27.09h-6.61m48.71 0v83.78H329v27.09h-6.61V339h-35.48v-40.52h-6.62v-27.09h6.62V187.6h-6.62v-27.09h6.62v-41.83L304.66 89l17.73 29.67v41.84H329v27.09h-6.61" fill="#d26e28"/><path fill="#ece6dd" d="M95.11 62.55v20.03h5.41V62.55h-5.41zM197.59 62.55v20.03H203V62.55h-5.41z"/><path fill="#516999" d="M62.77 76.1V185.55h172.61V76.1H62.77z"/><path d="M87.47 176.76z" fill="#fff"/><path fill="#ece6dd" d="M266.54 16.09v255.48h-23.6V62.71H60.48l-7.08-8.68 7.08-8.68h182.46V16.09L254.74 8l11.8 8.09z"/><g fill="#f9f7f4"><path d="M107.17 124.29v-13.18H95.86v13.18h-6.27V95.14h6.31v11.82h11.31V95.14h6.31v29.15zM132.55 124.71c-9.53 0-13.69-6-13.69-14.91 0-8.35 4-15.17 13.69-15.17S146 101.49 146 109.71c0 8.56-4.55 15-13.45 15zm0-25.63c-5.76 0-7.12 5.21-7.12 10.76 0 6.61 1.86 10.34 7.12 10.34 4.91 0 6.82-4.45 6.82-10.38 0-5.3-1.14-10.72-6.82-10.72zM176.61 106l-7.12 18.26h-5.13l-6.91-18h-.13v18h-6V95.18H159l7.88 21.27h.34l8.18-21.27h7.46v29.11h-6.1V106zM189 124.29V95.14h20.08v4.41H195.3V107h11.57v4.15H195.3v8.73h14.36v4.45zM105.2 139.55l-2.2 4.24a10.72 10.72 0 0 0-6.61-2.12c-4.49 0-6.95 4-6.95 10.63 0 5.3 1.23 10 6.86 10 1.14 0 3.52 0 7.5-2.12l1.86 4.28c-2.58 1.74-7 2.63-9.75 2.63-9.58 0-13-5.93-13-14.83 0-6.31 2.88-15.3 13.56-15.3a15.24 15.24 0 0 1 8.73 2.59zM123.16 167.09c-9.53 0-13.69-6-13.69-14.91 0-8.35 4-15.17 13.69-15.17s13.47 6.86 13.47 15.08c.01 8.56-4.57 15-13.47 15zm0-25.63c-5.76 0-7.12 5.21-7.12 10.76 0 6.61 1.86 10.34 7.12 10.34 4.91 0 6.82-4.45 6.82-10.38.02-5.3-1.14-10.72-6.82-10.72zM161.64 139l-1.64 4.28a20.59 20.59 0 0 0-7.84-1.44c-2.63 0-4.28 1.27-4.28 3.73 0 2.25 2.8 3 5.8 3.69 4 1 9.75 2.25 9.75 9.15 0 5.51-4.11 8.68-12.25 8.68a24.83 24.83 0 0 1-10.64-2.33l1.61-4.41a25.46 25.46 0 0 0 9.49 1.91c3.43 0 5.21-1.06 5.21-3.85 0-2.46-1.95-3.18-4.79-3.94-5.72-1.44-10.76-2.67-10.76-8.64 0-5.3 3.73-8.86 11.06-8.86a19.69 19.69 0 0 1 9.28 2.03zM175.07 166.67v-24.62h-9.24v-4.54h24.66v4.54h-9.19v24.62zM213.88 139l-1.61 4.24a20.59 20.59 0 0 0-7.84-1.44c-2.63 0-4.28 1.27-4.28 3.73 0 2.25 2.8 3 5.81 3.69 4 1 9.75 2.25 9.75 9.15 0 5.51-4.11 8.68-12.25 8.68a24.83 24.83 0 0 1-10.64-2.33l1.61-4.41a25.46 25.46 0 0 0 9.49 1.91c3.43 0 5.21-1.06 5.21-3.85 0-2.46-1.95-3.18-4.79-3.94-5.72-1.44-10.76-2.67-10.76-8.64 0-5.3 3.73-8.86 11.06-8.86a19.69 19.69 0 0 1 9.24 2.07z"/></g></g></svg>