<svg xmlns="http://www.w3.org/2000/svg" viewBox="0 0 397 360" width="397" height="360"><defs><clipPath id="a"><path fill="none" d="M0 0h397v360H0z"/></clipPath></defs><g clip-path="url(#a)"><path fill="#4c7d96" d="M0 0h397v182H0z"/><path d="M279.5 38.1v-56h-37.1V.4L206.7-36h-9.8L67.1 92.8h24l15-15V190h188V76.6l16.1 16.3h22.9zm-82.6 39.8h-21.3V54.5h21.3v23.4zm0-27.8h-21.3V26.6h21.3v23.5zm27.8 27.8h-21.3V54.5h21.3v23.4zm0-27.8h-21.3V26.6h21.3v23.5z" fill="#376479"/><path fill="#376479" d="M0 181.8h397v178H0z"/><path fill="#689fc2" d="M211.4 113.5h19.5v21.51h-19.5z"/><path fill="#857363" d="M185.2 159.3h12.7v88.67h-12.7z"/><path fill="#9d8e80" d="M194.4 159.3h20.7v88.67h-20.7z"/><path d="M270.3 170.8v-38.4c0-18.7-10.4-33.9-23.3-33.9s-23.3 15.3-23.3 33.9v38.4" fill="#fff"/><path fill="#fff" d="M153.3 98.5H247v72.3h-93.7z"/><path d="M176.5 170.8v-38.4c0-18.7-10.4-33.9-23.3-33.9S130 113.8 130 132.4v38.4" fill="#ece6dd"/><circle cx="194.6" cy="135.9" r="5.6" fill="#a12734"/><path fill="#a12734" d="M192.1 92.1h5v43.12h-5z"/><path fill="#a12734" d="M192.1 92.1h14.2l-1.8 11.4h-12.4V92.1z"/><path d="M226.4 127.3c0-2.7-2.3-3.7-5.3-3.7a22.6 22.6 0 0 0-7.6 1.3l-.9-3a28.3 28.3 0 0 1 8.7-1.5c6.1 0 9.2 2.6 9.2 6.8 0 7.2-10.4 10-10.4 15.2a27.2 27.2 0 0 0 .4 3.5l-3.2.4a20.2 20.2 0 0 1-.6-4.4c0-3.6 2.2-5.7 6.1-9.1 2.3-1.8 3.6-3.4 3.6-5.5zm-6.5 27.1a2.6 2.6 0 1 1 .1 0zM235 149.8a17.5 17.5 0 0 0 7.3 1.6c3 0 5.3-.9 5.3-3.8s-2.4-3.4-5.1-4.3-7.9-2.6-7.9-6.8 3.8-6.6 8.5-6.6a14.8 14.8 0 0 1 7 1.7l-1.2 2.7a15.4 15.4 0 0 0-5.9-1.3c-2.5 0-4.8.9-4.8 3.5s3.1 2.9 5 3.6c3.9 1.3 8.1 2.6 8.1 7.5s-3.8 6.7-9.3 6.7a18.8 18.8 0 0 1-8.4-1.8zM143.7 131.7l-5.5.5v-2l5.7-1.4h2.8V154h-3zM160.2 154.3c-7.7 0-9.2-6.3-9.2-12.7s1.6-13.2 9.3-13.2 9 7.7 9 13.1-2.2 12.8-9.1 12.8zm0-23.4c-5.6 0-6.2 6.4-6.2 10.8s1 10.1 6.2 10.1 5.9-5.4 5.9-10.2-.3-10.7-5.8-10.7z" fill="#376479"/></g></svg>