<svg xmlns="http://www.w3.org/2000/svg" viewBox="0 0 397 360" width="397" height="360"><path fill="#aec076" d="M.2 0h397v182H.2z"/><path fill="#8c9a3f" d="M.2 182h397v178H.2z"/><path fill="#73a0a1" d="M147.4 154.5H250v8.66H147.4z"/><path fill="#73a0a1" d="M247.7 154.7h-98v-61l50.3-48 47.7 48v61z"/><path fill="#94bdc1" d="M185.9 69.8H197v12.21h-11.1zm14.5 0h11.1v12.21h-11.1zm-14.5 14.5H197v12.21h-11.1zm14.5 0h11.1v12.21h-11.1zm5.5 30.6H217v12.21h-11.1zm14.5 0h11.1v12.21h-11.1zm-14.5 14.5H217v12.21h-11.1zm14.5 0h11.1v12.21h-11.1zm-54.8-18.9h24.1v52.75h-24.1z"/><path fill="#73a0a1" d="M220.7 61.1V46.6H240v32.9l-19.3-18.4z"/><path fill="#73a0a1" d="M256 104.2h12l-65.9-67H197l-67.6 67h12.5l55.4-55.3h3.9l54.8 55.3z"/><path d="M191.4 198.9l-4.1-7.1-4-7-.2-.4-7.8-2.4-11.8-3.6-2.2-.7c-1.8-1.1-3.4-2.3-5.1-3.5h-.2l-3 3.2-1.2 1.2-17-17.2a7.8 7.8 0 0 1-.2-10.7 7.4 7.4 0 0 1 1.8-1.4c-.3-1.4-.5-2.8-.7-4.2l-2.1-12.7c-.4-2.4-.8-5-1.2-7.4a3.3 3.3 0 0 0-6.1-1.2 5.8 5.8 0 0 0-.5 3.2v21.9a27.2 27.2 0 0 0 2.3 11.3l4.5 10 3.5 7.8a20.7 20.7 0 0 0 6.9 7.8l1.8 1.1 9.6 5.9 10.3 6.3 2.4 1.5a5.7 5.7 0 0 1 2.6 4.4c.1 3.3.1 76.1.2 79.4s.1 6.5.2 9.8a3.5 3.5 0 0 0 .9 2.3 3.4 3.4 0 0 0 4.3.5c.1 1.3.1 2.6.2 3.9a2.1 2.1 0 0 0 .2 1.2 2.1 2.1 0 0 0 1 .5l1.7.4a61.4 61.4 0 0 0 9.6.6h3c.4 0 .4.1.4-.3v-14.8c0-3.4 0-76.3.1-79.6v-9.3a1.2 1.2 0 0 0-.1-.7z" fill="#d0c8bf"/><path d="M190.4 299.2a5.8 5.8 0 0 1-5.6-6.1l.5-94.1a8.1 8.1 0 0 0-1.4-4l-7.3-8.4a9.4 9.4 0 0 0-4.1-2.3l-8.7-1.5a21.9 21.9 0 0 1-10.7-5.6l-17-17.2a6.1 6.1 0 0 1-.1-8.4 5.5 5.5 0 0 1 7.8-.4l.2.2 17 17.2a11.1 11.1 0 0 0 4.6 2.4l8.7 1.5a20.3 20.3 0 0 1 10.7 6.1l7.3 8.4a19.9 19.9 0 0 1 4.4 12.3l-.5 94.1a5.8 5.8 0 0 1-5.9 5.8zM206 198.9l4.1-7.1 4-7 .2-.4 7.8-2.4 11.8-3.6 2.2-.7c1.8-1.1 3.4-2.3 5.1-3.5h.1l3 3.2 1.2 1.2 17-17.2a7.8 7.8 0 0 0 .2-10.7 7.4 7.4 0 0 0-1.8-1.4c.3-1.4.5-2.8.7-4.2l2.1-12.7c.4-2.4.8-5 1.2-7.4a3.3 3.3 0 0 1 6.1-1.2 5.8 5.8 0 0 1 .5 3.2v21.9a27.2 27.2 0 0 1-2.3 11.3l-4.5 10-3.5 7.8a20.6 20.6 0 0 1-6.8 7.8l-1.8 1.1-9.6 5.9-10.3 6.3-2.4 1.5a5.7 5.7 0 0 0-2.6 4.4c-.1 3.3-.1 76.1-.2 79.4s-.1 6.5-.2 9.8a3.5 3.5 0 0 1-.9 2.3 3.4 3.4 0 0 1-4.3.5c-.1 1.3-.1 2.6-.2 3.9a2.1 2.1 0 0 1-.2 1.2 2.1 2.1 0 0 1-1 .5l-1.7.4a61.4 61.4 0 0 1-9.6.6h-3.2c-.4 0-.4.1-.4-.3v-14.8c0-3.4 0-76.3-.1-79.6v-9.3a1.2 1.2 0 0 1 .3-.7z" fill="#d0c8bf"/><path d="M207 299.2a5.8 5.8 0 0 0 5.6-6.1l-.5-94.1a8.1 8.1 0 0 1 1.4-4l7.3-8.4a9.4 9.4 0 0 1 4.1-2.3l8.7-1.5a21.9 21.9 0 0 0 10.7-5.6l17-17.2a6.1 6.1 0 0 0 .1-8.4 5.5 5.5 0 0 0-7.8-.4l-.2.2-17 17.2a11.1 11.1 0 0 1-4.6 2.4l-8.7 1.5a20.3 20.3 0 0 0-10.7 6.1l-7.3 8.4a19.9 19.9 0 0 0-4.4 12.3l.5 94.1a5.8 5.8 0 0 0 5.9 5.8z" fill="#d0c8bf"/></svg>