<svg xmlns="http://www.w3.org/2000/svg" viewBox="0 0 319 363" width="319" height="363"><defs><clipPath id="a"><path transform="rotate(-18.56 131.466 124.875)" fill="none" d="M102.11 80.8h58.76v88.14h-58.76z"/></clipPath></defs><g style="isolation:isolate"><path fill="#6c9e79" d="M0 0h319v182H0z"/><path fill="#5c7e6a" d="M0 182h319v181H0z"/><path d="M82.52 162.26a7.72 7.72 0 0 0 7.72 7.74H236.5a7.72 7.72 0 0 0 7.72-7.72V74a7.72 7.72 0 0 0-.87-3.49v-21a7.72 7.72 0 0 0-7.72-7.72h-36a24.4 24.4 0 0 0-13.65 5l-.79.68a20.12 20.12 0 0 0-1.73 1.21l-6.33 5.43-.35.4a21.17 21.17 0 0 0-3.46-.49H90.21a7.72 7.72 0 0 0-7.72 7.72v100.52z" fill="#f4be60"/><path fill="#f9f6f4" d="M159.02 58.62h75.62v45.31h-75.62z"/><path d="M78.09 166.16V65.65a7.72 7.72 0 0 1 7.72-7.72h83.06A21.19 21.19 0 0 1 182 63.44l1 1A21.19 21.19 0 0 0 196.21 70h35.86a7.72 7.72 0 0 1 7.72 7.72v88.38a7.72 7.72 0 0 1-7.72 7.72H85.77a7.72 7.72 0 0 1-7.72-7.72z" fill="#f9d07d"/><path fill="#706e6e" d="M167.73 99.27h85.74v66.53h-85.74z"/><path fill="#69400f" d="M171.85 98h77.5v1.26h-77.5z"/><path fill="#d6a550" d="M126.4 121.05h41.33v26.15H126.4z"/><path fill="#4c4c4c" d="M167.73 121.05h25.38v26.15h-25.38z"/><path d="M209.9 96.61v.69c-2.17-5.64-8.53-7.85-10.93-4.8a6 6 0 0 0-.41 5.86c1.78 4.29 5.62 6.86 9.76 8.76a20.88 20.88 0 0 0 3.54 1.23l.16.52-.6.1a23.08 23.08 0 0 1-3.14-1.13c-4.71-2.11-9.07-5-11.11-9.68a6.45 6.45 0 0 1 .45-6.45c2.64-3.27 9.6-1 12.24 4.9" fill="#a12734"/><path d="M196.1 91.27a7.81 7.81 0 0 0-.53 7.6 23.43 23.43 0 0 0 10.82 11.24q.87.47 1.75.87a28.19 28.19 0 0 0 5.49 1.81 33.89 33.89 0 0 1-1.46-3.65l-.7-.19a23.17 23.17 0 0 1-3.14-1.13c-4.71-2.11-9.07-5-11.11-9.68a6.45 6.45 0 0 1 .45-6.45c2.64-3.27 9.6-1 12.24 4.9a54.21 54.21 0 0 1 0-6.08c-3.87-2-10.67-3.21-13.77.75" fill="#bc3845"/><path d="M255.61 79.87s6.72 47.49-22.52 47.94-24-47.18-24-47.18.93 6.82 23.33 6.48 23.14-7.24 23.14-7.24" fill="#a12734"/><path d="M209.19 80c1-3.64 10.73-6.62 23.05-6.81s22.1 2.5 23.25 6.1a5.77 5.77 0 0 1-3.12 3c-1.48-3-9.7-5.14-20.06-5s-18.51 2.58-19.9 5.6a5.78 5.78 0 0 1-3.22-2.89" fill="#bc3845"/><path d="M212.41 82.94c1.39-3.11 9.54-5.62 19.9-5.78s18.58 2.08 20.06 5.15c-4.08 2.23-11.25 3.8-19.93 3.93s-15.9-1.2-20-3.3" fill="#a12734"/><path d="M209.19 80a1.92 1.92 0 0 0 0 1 .82.82 0 0 0 .46.93c.1.74 1.32 1.45 2.54 2.09 4.08 2.11 11.38 3.48 20.26 3.34 9.08-.14 16.55-1.79 20.47-4.11 1.68-1 2.64-2.1 2.67-3.26v-.09a2.21 2.21 0 0 0-.11-.65 5.77 5.77 0 0 1-3.12 3c-4.08 2.16-11.25 3.68-19.93 3.81s-15.9-1.17-20-3.2a5.78 5.78 0 0 1-3.24-2.86" fill="#bc3845"/><g><path fill="#6b5e51" d="M60.942 78.19l98.63-33.116 42.466 126.48-98.629 33.116z"/><path fill="#ece6dd" d="M75.277 85.318l77.166-25.91 35.261 105.019-77.166 25.91z"/><path fill="#9aabd1" d="M89.608 92.436l55.704-18.703 28.054 83.556-55.703 18.703z"/><path d="M114.91 103.32h-.79l.75-.6 6.88-5.46a.86.86 0 0 0 .94-.34l.06.19-7.28 5.77-.57.45M122.7 96.91l-.25-.8-.44.34-.13-.42a.7.7 0 0 1 .91.37.59.59 0 0 1-.08.52" fill="#2a2724"/><path d="M122.26 97.24a.85.85 0 0 1-.5 0l.4-.31-.16-.5.44-.34.25.8a.83.83 0 0 1-.44.33" fill="#1d1b18"/><path d="M121.76 97.26a.6.6 0 0 1-.42-.38.71.71 0 0 1 .52-.85l.13.42.16.49-.39.31" fill="#4a5c7a"/><path d="M122.64 96.21a.64.64 0 1 1-.79-.36.62.62 0 0 1 .79.36" fill="#6d89ba"/><g clip-path="url(#a)"><path d="M137.9 122l-12.3 4.13 3.61 10.66c1 2.52 4.36 3.67 7.67 2.56s5.36-3.9 4.63-6.51z" fill="#866635"/><path d="M125.6 126.1l3.15 9.24a11.29 11.29 0 0 0 6.8-.65 8.47 8.47 0 0 0 5-4.75l-2.67-8z" fill="#654d28"/><path d="M121.51 127.73s-13.43-20.11 2.24-25.37C140.3 96.8 141 121.17 141 121.17l-19.53 6.56" fill="#352e1f"/><path d="M140.35 115.74s4.13 13.52-5.89 16.88c-7 2.36-11.68 0-15.18-9.81s-3.27-17.4 4.94-20.16c7.51-2.52 13.15 4.24 16.12 13.08" fill="#866635"/><path d="M119.2 114.1c1.92-2.25 4.72-2.22 7.66-2.23 3.44 0 7.06-.09 9.68-4-3.11-4.47-7.29-6.94-12.32-5.25a10.69 10.69 0 0 0-4.84 3.06v-.06c-3.32 3.74-2.81 9.8-.17 17.18 2.21 6.19 4.87 9.37 8.3 10.31-5.62-6-7.82-11.61-8.31-19.05" fill="#654d28"/><path d="M115.75 150.25c-4.36 14.42.19 34.94.19 34.94 3.39 8.13 7.67 16.56 7.67 16.56s2.63 4.85 2.15 7.19a10.7 10.7 0 0 0 2.11 9.3c2.8 3.6 7.17 1.75 5.59 0s-2.84-7.06-1.89-7.87c.45-.38.92.78 1.39 1.94s1 2.55 1.55 1.78c1-1.47-.8-7-2.71-8.55s-2.45-5.25-2.45-5.25-3.48-10.18-4.57-17.92c0 0 3.31-14.3 1.62-28.18l-10.65-3.91M161.61 134.27c12.38 8.55 21.59 27.44 21.59 27.44 2.4 8.47 4.26 17.75 4.26 17.75s1 5.44 2.79 7a10.69 10.69 0 0 1 4.14 8.59c.05 4.56-4.52 5.84-4.39 3.47s-2.17-7.3-3.41-7.33 1.69 5.28 0 4.74-3.7-5.94-3.2-8.38-1.35-5.63-1.35-5.63-3.57-10.15-7.53-16.87c0 0-11.49-9.12-18.8-21z" fill="#af8756"/><path d="M118.07 119.55s-2.15-7.66 1.2-9.63c1.76-1 4.31 2.41 6.53 2.58a13.55 13.55 0 0 0 8.28-2.1 11.88 11.88 0 0 1-6.25-.23 51.82 51.82 0 0 0 3.34-4c1.49-2.05 5.89 1.82 7.74 5.85 0 0-4.61-12.89-15.12-9.36s-5.73 16.93-5.73 16.93" fill="#352e1f"/><path d="M201.89 254.07c-8.76-23.44-34.59-90.33-40.59-102.31-.31-2.77-3.74-18.22-9.1-19.69a25.85 25.85 0 0 0-12.88.1c.47 1.93-.33 3.69-1.52 4.09l-1.9.64a4.13 4.13 0 0 1-4.87-2 26.64 26.64 0 0 0-11.42 8.1c-3.72 4.86 3.43 20.91 3.43 20.91s.25.72.7 2c5.52 19.48 31.31 101.55 33.34 106.71.4 2.07 3.45 3.41 6.87 1.67a12.89 12.89 0 0 1 5.08-1.18 14.24 14.24 0 0 0 5-1.11c3.72-1.69 6.18-3.4 8.77-4.05s8.88-1.44 11.9-3.77a8.78 8.78 0 0 1 4.53-1.81 9 9 0 0 0 3-.88c2.5-1.34 1.21-3.17-.39-7.44" fill="#3b3936"/><path d="M126 175.56c-1.29-4.22-2.34-7.71-3-10.17l-.7-2s-.67-1.09-1.58-2.77l.95-.33c.81 2.19 1.47 3.66 1.47 3.66s.25.72.7 2c.59 2.07 1.4 4.85 2.4 8.17q-.09.75-.19 1.45" fill="#8a6941"/><path d="M153.54 261.13c-1.9-5.66-4.37-13.14-7.09-21.46-7-22.1-15.61-49.87-20.3-65.56-1-3.32-1.81-6.1-2.4-8.17l-.7-2s-.66-1.47-1.47-3.66c1.58-.54 4.57-1.56 8.24-2.79 8.71-2.92 21.19-7 27.37-8.8-1.58 2-5.93 5.09-12.5 7.3l-.88.28-.4.13c-9.93 3.33-8.37 10.85-7.61 13.45 1 3.31 3 6.89 2.83 10.32-.16 3.62-1.46 6.73-.68 10.59 1 5 3.22 9.94 4.37 14.86.83 3.53 2.07 6.94 3.08 10.46 2 6.84 2.68 13.94 3.82 21 1.08 6.66 2.79 13.24 3.83 19.92.22 1.4.37 2.79.49 4.17" fill="#2e2c2b"/><path d="M153 132.24s5.11-1.93 8.5.15 19.36 21.59 21.3 26.28 9.79 29.15 9.79 29.15a8.81 8.81 0 0 1-3.37 1.42c-1.6.18-11.62-.37-12.79-1s-8.66-21.42-8.66-21.42l-8.28-16.26zM120 143.56s-5.35 1.14-7.08 4.71-1.16 25.87-.26 30.86 7.21 34 7.21 34a8.76 8.76 0 0 0 3.6-.62c1.45-.72 10.24-7.73 10.9-8.88s-8.35-21.5-8.35-21.5l-.02-10.3z" fill="#3b3936"/><path fill="#fff" d="M127.97 133.81l7.94 1.94 4.47-6.11 1.63 1.97-4.51 7.98-9.51-3.26-.02-2.52z"/><path d="M132.85 95.69l-8.42 6.52a1.46 1.46 0 0 1-.92.3l-10.64-.12a.38.38 0 0 0-.3.15.37.37 0 0 0 0 .33l3 8.94a.37.37 0 0 0 .19.21l.28.13a16.42 16.42 0 0 0 20.27-6.8l.14-.28a.36.36 0 0 0 0-.28l-3-9a.37.37 0 0 0-.57-.17" fill="#3b3936"/><path fill="#aea597" d="M133.892 97.246l.009-.003.388 1.157-.01.003z"/><path d="M125.21 106.06a.56.56 0 0 1-.19 0l-10-.57-.42-1.22 9.91.15a.56.56 0 0 0 .19 0 .59.59 0 0 0 .17-.09l9.05-7.07.39 1.15-8.92 7.59a.59.59 0 0 1-.17.09" fill="#23211e"/><path d="M139.19 91.82l-18.8.18a.64.64 0 0 0-.38.13l-14.52 11 18.87.4 14.83-11.7" fill="#3b3936"/><path d="M139.19 91.82l-14.83 11.7-18.87-.4a.59.59 0 0 0 .36 1l18.61.28a.57.57 0 0 0 .37-.12l14.68-11.45a.59.59 0 0 0-.32-1" fill="#2e2c2b"/><path d="M118.06 113h-.08v-.08h.1" fill="#694c2c"/><path d="M118.13 112.85h-.11l-1.46-3.56h-.08l.93 2.28-1.34-2.78a1.29 1.29 0 0 0-.06-.46 1.27 1.27 0 0 0-.88-.83v-.11l-.68-2h.56l.76 2.21a1.26 1.26 0 0 1 .89.83 1.21 1.21 0 0 1 .06.46l1.6 3.3a.5.5 0 0 1 0 .4.24.24 0 0 1-.16.14m-.09.08h-.1.03" fill="#2a2724"/><path fill="#171514" d="M114.97 105.52l-.55-.03-.42-1.2.55.01.42 1.22z"/><path d="M115.93 112.08l-.1-.06-.82-2.45h.08l.85 2.54m.5.26l-.1-.05-1-2.81h.08l1 2.89m.5.22h-.1l-1.23-3.17h.08l1.25 3.24m.5.18h-.1l-1.44-3.52h.08l1.47 3.58m.51.14l-.43-.12a.48.48 0 0 0 .18-.22.47.47 0 0 0 0-.19l.21.52" fill="#2a2724"/><path d="M114.47 109.78v-.06.08m.36.11h-.1v-.15h.08l.07.22" fill="#c9c2b7"/><path fill="#201e1d" d="M114.55 104.3l-.55-.01-.24-.7.36-.28.79.01-.54.44.18.54z"/><path d="M115.14 113.57h-.08l-1-3.84h.08l1 3.84m.38-.13h-.08l-1.08-3.73h.08l1.08 3.73m.39-.13h-.08l-1.15-3.64h.08l1.16 3.64m.38-.13h-.08l-1.22-3.61h.08l1.22 3.64m.31-.1l-1.28-3.59h.08l1.28 3.59h-.08m-.64-3.91l1.49 3.63h-.08l-1.49-3.63h.08m1.1 3.76h-.08l-1.39-3.6h.08l1.39 3.6" fill="#6d89ba"/><path d="M115.14 107.57v-.11.11" fill="#1d1b18"/><path d="M115.14 107.58l-1.29.39v-.1a1.45 1.45 0 0 1 .57-.35 1.43 1.43 0 0 1 .72-.06v.11" fill="#4a5c7a"/><path d="M116 108.37a1.27 1.27 0 1 1-1.59-.76 1.25 1.25 0 0 1 1.59.76" fill="#6d89ba"/><path d="M129.59 124.44l3.9-1.31s-.91 2.51-3.9 1.31M135.43 116.52c.24.7 0 1.4-.45 1.56s-1.07-.27-1.31-1 0-1.4.46-1.56 1.07.27 1.31 1M125.77 119.76c.24.7 0 1.4-.45 1.56s-1.07-.27-1.31-1 0-1.4.46-1.56 1.07.27 1.31 1M129.32 128.5l7.07-2.38a4.28 4.28 0 0 1-7.07 2.38M125.89 116.7l-5.39 1.66 1.02-1.26 3.53-.62.84.22zM131.46 114.83l5.3-1.93-1.58-.39-3.19 1.63-.53.69z" fill="#654d28"/></g></g><path style="mix-blend-mode:multiply" fill="#9d8e80" opacity=".5" d="M126.4 120.97h66.71v5.72H126.4z"/><path d="M59.32 97.46V213h201.15V97.46zm134.09 49.74h-67V121h67v26.2z" fill="#b17a47"/></g></svg>