<svg xmlns="http://www.w3.org/2000/svg" viewBox="0 0 319 363" width="319" height="363"><defs><clipPath id="a"><path fill="none" d="M0 0h319v363H0z"/></clipPath></defs><g clip-path="url(#a)"><path fill="#6e83b7" d="M0 0h319v182H0z"/><path fill="#516999" d="M0 182h319v181H0z"/><path d="M208.78 281.51s24.08 64.07-20.67 278.87l-17.3 4.15-2.37-239.11zM113.51 277.86S82.67 391.92 117 545.58l21.66 8.28-8.95-114.77s16.8-61 25.2-117z" fill="#414d62"/><path d="M210.7 287.28c0 27-22.4 42.21-50 42.21s-50-15.19-50-42.21z" fill="#414d62"/><path d="M114.37 422.17c11.86-33.6-13.79-64.4 6.71-102.46 15.76-29.23 34.43-24.91 52.34-20.6 13.45 3.25 26.48 6.5 37.47-4.51-.38-2.23-.74-4.2-1.09-5.81v-1.61h-.45a51.68 51.68 0 0 0-1.59-5.79l-5.29 5.79h-81l-8.83-9.49s-.88 3.32-2.18 9.49h-.64a12.51 12.51 0 0 0 .14 2.37c-6.71 33.17-21.66 131.59 6.24 256l21.66 8.28-1.23-15.4c-12.05-25.41-34.19-79.87-22.3-116.27" fill="#2c3341"/><path d="M75.61 223.15s25.23-15.27 44.81-45.59-3.48-43.32-3.48-43.32-18.59-3.59-39.94 31.6S50.91 214 49.25 225.48c-2.65 18.39 26.36-2.33 26.36-2.33M242.82 210.52s-27.85-9.69-53.3-35.27-5.59-43.11-5.59-43.11 17.42-7.37 45.58 22.61 35.56 41.64 39.58 52.57c6.42 17.43-26.27 3.19-26.27 3.19" fill="#deb887"/><path d="M205.4 136c17.45-17.19-1.32-19.41-1.32-69.31C204.08 16.18 162.3 17 162.3 17s-39.21-.23-42.48 38 8.12 36-1.15 53.23-4.91 27.77 4.33 36.64 82.4-8.87 82.4-8.87" fill="#766241"/><path d="M137.89 122.42a111.65 111.65 0 0 1 45.21 0s1 32.64-21.48 32.64-23.73-32.64-23.73-32.64" fill="#deb887"/><path d="M178.33 89.06h-32.49l.07 32.62c.34 7.85 7.43 14.13 16.18 14.13s15.83-5.78 16.17-13.62z" fill="#deb887"/><path d="M153.71 122.93a29.79 29.79 0 0 1-7.81-3.68v-7.29a25.92 25.92 0 0 0 6.37 3.46c0 .41 0 .83.05 1.25a21.45 21.45 0 0 0 1.4 6.26" fill="#c49e6e"/><path d="M193.62 76.69s-5.45 39.24-31.1 40.31c-16.51.69-30.19-12.92-32-40.31-1.93-29.89 6.93-50 31.51-50 22.48 0 31.55 23.4 31.55 50" fill="#deb887"/><path d="M162 94.13c-2.59 0-4.69-1.68-4.69-2.57 0-.62 1-.72 2.44-.72h4.49c1.45 0 2.44.1 2.44.72 0 .89-2.09 2.57-4.68 2.57" fill="#c49e6e"/><path d="M78.2 169.91l-9.06-6.36S97 125.13 140.88 121c0 0 .09.26.28.74s.55 1.37 1 2.43c-10.32 1.39-49.45 4.09-64 45.72" fill="#82484b"/><path d="M137.78 102.75c-3.83-6.38-6.42-14.87-7.18-25.48v-.08a.39.39 0 0 0 0-.07v-.22a.15.15 0 0 0 0-.07v-.08q-.25-3.94-.26-7.65c0-25.62 9.35-42.37 31.76-42.37h.39c11.91.15 20 6.91 25 17.24-.86 1.86-2.9 2.48-5.7 2.48a72.91 72.91 0 0 1-10.6-1.33 78.36 78.36 0 0 0-12.62-1.33c-8.95 0-17.32 3-20.72 15.19 0 0-7 26.09 0 43.83" fill="#c49e6e"/><path d="M133.41 43.58S142 57.27 173 62.25c0 0-13.07-7.05-18.38-14.53 0 0 9.8 9.54 37.56 9.54 0 0-.81-32-31-32-23.28-.83-27.77 18.26-27.77 18.26" fill="#766241"/><path d="M149.88 100.82h23.56a13.52 13.52 0 0 1-23.56 0M151.37 75.89c0 2.15-1.21 3.89-2.7 3.89S146 78 146 75.89s1.21-3.89 2.7-3.89 2.7 1.74 2.7 3.89M177.35 75.89c0 2.15-1.21 3.89-2.7 3.89s-2.7-1.74-2.7-3.89 1.21-3.89 2.7-3.89 2.7 1.74 2.7 3.89M168.14 69.38c1.34-2.08 5.92-2.63 8.8-2.1a7.85 7.85 0 0 1 4.51 2.91 13.43 13.43 0 0 0-4.83-1.65 12.58 12.58 0 0 0-7.29 1.87.79.79 0 0 1-1.19-1M155.19 69.38c-1.34-2.08-5.92-2.63-8.8-2.1a7.88 7.88 0 0 0-4.52 2.91 13.49 13.49 0 0 1 4.84-1.65 12.58 12.58 0 0 1 7.3 1.87.79.79 0 0 0 1.18-1" fill="#c49e6e"/><path d="M109.16 212.52c8.77 8.19 3.2 58.18-2.39 77.67h109.15c-5.55-19.29-11-69.55-2.35-77.67 10.24-9.58 9.28-27.23 9.28-27.23L250 163.95s-24.25-38.82-68.14-42.95a82.14 82.14 0 0 1-20.42 29.69h-.14A82.05 82.05 0 0 1 140.88 121c-43.89 4.1-71.74 42.52-71.74 42.52l30.75 21.74s-.97 17.68 9.27 27.26z" fill="#a65955"/><path d="M222.57 183.85L219.42 204a45.3 45.3 0 0 0 3.44-16.54 37.17 37.17 0 0 0-.29-3.61zM109.17 212.52c3.3 3.09 4.57 7.1 4.57 12 0 8-3.47 53.58-7 65.72h7.07c.24-.69.46-1.35.72-2.07 7-19.28 20.31-58.73 36.72-60.18l.61-21.36a126 126 0 0 0-17.91 5.1 24.68 24.68 0 0 1-9.12 2c-14.63 0-16.79-18.4-16.79-18.4s-2.11-15 4.85-27.65c0 0-9.94 7.51-13 17.69v1.23a47.91 47.91 0 0 0 2.21 14.3 27.62 27.62 0 0 0 7.07 11.62z" fill="#82484b"/><path d="M180.75 147.1c0 .39-1.67.85-3.81 1s-3.9 0-3.93-.41 1.68-.85 3.81-1 3.9 0 3.93.4" fill="#111"/><path d="M178.91 142.62l-4.47.32-.3-4.3s.35.4 2.24.26 2.22-.58 2.22-.58z" fill="#9c9996"/><path d="M175.56 142.46a6.4 6.4 0 0 1-1.07-.07l-.09-.38a1.31 1.31 0 0 0 .93.13c.31 0 .73 0 1.28-.06h.44v.33h-1.51" fill="#6f6c69"/><path d="M178.87 142v-.32z" fill="#6f6762"/><path d="M178.18 142.22v-.32a1.71 1.71 0 0 0 .69-.21v.33a3.92 3.92 0 0 1-.69.18m-3.79-.22" fill="#6f6c69"/><path d="M179.51 145.61l-5.24.37-.27-3.74s.41.34 2.63.18 2.62-.55 2.62-.55z" fill="#9c9996"/><path d="M179.48 145v-.11z" fill="#6f6762"/><path d="M175.48 145.73a6.43 6.43 0 0 1-1.21-.09l-.05-.35a1.8 1.8 0 0 0 1 .11c.38 0 .89 0 1.59-.06h.45v.33h-.44c-.56 0-1 .05-1.38.05m2.93-.22v-.32a2.93 2.93 0 0 0 1.08-.25v.34a7.24 7.24 0 0 1-1.05.23" fill="#6f6c69"/><path d="M180 148.57l-5.86.42-.24-3.44s.45.31 2.93.13 2.94-.54 2.94-.54z" fill="#9c9996"/><path d="M175.29 147.88h-1.2v-.34a2.48 2.48 0 0 0 .89.07c.43 0 1.08 0 2-.09h.43v.33h-.44c-.65 0-1.23.06-1.73.06" fill="#6f6c69"/><path d="M179.95 147.39v-.34h.06v.36H180" fill="#0c0c0c"/><path d="M178.57 147.65v-.32a5.54 5.54 0 0 0 1.38-.29v.34a12 12 0 0 1-1.38.26" fill="#6f6c69"/><path d="M175.64 183.34L173 147.71a15.9 15.9 0 0 0 4 .1 11.79 11.79 0 0 0 3.72-.68l2.66 35.62s-.72 1-3.87 1.25-3.89-.67-3.89-.67" fill="#6a6764"/><path d="M176.83 138.86v-.27l1.11-.08v.14a6.11 6.11 0 0 1-1.11.2" fill="#a39c91"/><path d="M177.05 142l-.22-3.19a6.17 6.17 0 0 0 1.11-.21l.23 3.26c-.27 0-.62.1-1.12.14" fill="#a5a3a1"/><path d="M177.07 142.38v-.34c.5 0 .85-.09 1.12-.14v.32c-.29.05-.65.11-1.11.15" fill="#7b7876"/><path d="M177.28 145.31l-.2-2.93c.46 0 .82-.1 1.11-.15l.21 3c-.29 0-.65.08-1.12.12" fill="#a5a3a1"/><path d="M177.3 145.65v-.33c.46 0 .82-.08 1.11-.12v.32c-.31.05-.67.09-1.11.13" fill="#7b7876"/><path d="M177.43 147.44l-.13-1.8c.44 0 .81-.08 1.12-.13l.13 1.82c-.3 0-.67.08-1.12.11" fill="#a5a3a1"/><path d="M177.45 147.79v-.34c.44 0 .81-.07 1.11-.11v.32l-1.11.13" fill="#7b7876"/><path d="M178.81 167l-1.36-19.23c.42 0 .78-.08 1.12-.13l1.36 19.36z" fill="#797474"/><path d="M193.17 183.71s-26.89-3.06-23.43-11.09-3.64-19.31-1.81-22.31 11.12 1.84 11.12 1.84c5.67-7 5.37-3.76 17.66 2.13s6.39 17.85 6.39 17.85 45.57 20.52 59.12 29.72c0 0 13.44 6.72 4.83 19.14s-24.8 1.79-37.23-6.81-36.65-30.47-36.65-30.47" fill="#deb887"/><path fill="#edeadf" d="M213.13 244.4l-62.37 37.47L153 167.93l72.44-2.55-12.31 79.02z"/><path fill="#e6e3d4" d="M150.76 281.87l2.23-113.88 60.14 76.41-62.37 37.47z"/><path d="M175.29 213.07c-6.29 3.48-22.92 2.89-24.5.36-.18-.28-1.09-1.39 1-1.87l.18-6.5c-6.4.05-11.69 1.72-15.29 4.48-6 4.58-17.14 3.75-17.14 3.75s-36.15 0-58.17 3.83c0 0-15 1-11.84 15.8s22.21 11.27 37 8.08a279.54 279.54 0 0 0 33.61-9.78s16.09-4.54 22.68-1.56 16.39 5.84 28.9 0 9.91-20 3.62-16.54" fill="#deb887"/><path d="M162.55 117h-1.18a26.07 26.07 0 0 1-9.08-1.59c0 .41 0 .83.05 1.25a21.61 21.61 0 0 0 1.4 6.26 23.19 23.19 0 0 0 6.54 1 22 22 0 0 0 2.37-.13c7.35-.81 11.11-2.84 15.65-8.37v-5.23a24 24 0 0 1-15.75 6.81" fill="#c6a27b"/><path d="M151.17 116.87c-.91-12.87 9.05-24.06 22.25-25a24.16 24.16 0 0 1 14 3.39 24.1 24.1 0 1 0-11.63 44.08 23.62 23.62 0 0 0 14.15-6.25 23.62 23.62 0 0 1-13.28 5.11c-13.19.94-24.58-8.46-25.49-21.34" fill="#6a6764"/><path d="M188.89 132.06a22.77 22.77 0 0 1-12.62 4.9c-12.38.87-23.11-8.21-24-20.29s8.49-22.58 20.87-23.45a22.16 22.16 0 0 1 15.7 38.84m-1.73-37a24.24 24.24 0 0 0-14.05-3.28c-13.2.93-23.16 12.12-22.25 25s12.34 22.55 25.54 21.62a23.62 23.62 0 0 0 10.76-43.34" fill="#bab6b3"/><path d="M152.94 116.56c-.84-11.93 8.27-22.32 20.43-23.41h-.56c-12.38.87-21.73 11.37-20.88 23.45s11.58 21.16 24 20.29l.56-.05c-12.19.63-22.68-8.37-23.52-20.31" fill="#ebe8e8"/><path d="M187.06 96.06A22.75 22.75 0 0 0 173.88 93h-.44a21.91 21.91 0 0 1 3.09 43.72h.44a22.16 22.16 0 0 0 10.09-40.66" fill="#6a6764"/></g></svg>