<svg width="50" height="50" viewBox="0 0 56.6 81.7" xmlns="http://www.w3.org/2000/svg">
  <g fill="#dc1431" transform="matrix(1, 0, 0, 1, -36.699997, 0.2)">
    <path d="M79.1 46.7a7.7 7.7 0 0 0 6.1 3.6h.4c-.1 5.9-3.9 10.6-8.5 10.6s-8.5-4.8-8.5-10.8c6 .6 9.1-1.5 10.6-3.3"/>
    <path d="M80.1 44.2h-2c-.8 1.6-3.1 4.3-9.5 3.7.8-4.9 4.2-8.6 8.4-8.6s7.6 3.7 8.4 8.7c-3.3.2-5.2-3.8-5.3-3.9M84.1 81.5h9.2s-1-12.9-2.7-14.2S83 63 82 62.2L77.9 66l-3.3-2.6-1.8 1.6c-1.7 1.5-2.9 16.4-2.9 16.4H83"/>
    <g>
      <path d="M61.5 54.4a8.9 8.9 0 0 0 2.2 4.5c-2.3 2.2-5.4.7-5.4.7a7.8 7.8 0 0 0 3.2-5.2z"/>
      <path d="M61.3 50c0 6-3.7 10.8-8.4 10.8s-8.5-4.7-8.6-10.5h.4a7.6 7.6 0 0 0 6-3.6c1.5 1.9 4.6 3.9 10.6 3.3z"/>
      <path d="M61.1 47.8c-6.3.6-8.6-2-9.4-3.6h-2s-1.9 4-5.2 3.9c.7-5 4.1-8.8 8.3-8.8s7.4 3.6 8.3 8.5zM60 81.4H36.7s1-12.9 2.7-14.2 7.6-4.2 8.6-5l1 1a4.9 4.9 0 0 0 6.4.3h-.1l1.9 1.6c1.6 1.4 2.8 16.3 2.8 16.3zM47.5 60.5s-4.7 2-7.9-1.4a13.2 13.2 0 0 0 3.5-6.5s.4 5.2 4.4 7.9z"/>
    </g>
    <path d="M63.7.6c-11.5.8-20.3 8.7-19.6 17.7a14.3 14.3 0 0 0 5.8 10.2l2.7 7.3 3.9-3.9A25.5 25.5 0 0 0 66 33c11.5-.8 20.3-8.7 19.6-17.7S75.2-.2 63.7.6z"/>
  </g>
</svg>
