<svg id="Layer_1" xmlns="http://www.w3.org/2000/svg" viewBox="0 0 397 360" width="397" height="360"><defs><style>.cls-1{fill:none}.cls-2{fill:#6e83b7}.cls-3{fill:#516999}.cls-4{clip-path:url(#clip-path)}.cls-5{fill:#576682}.cls-6{fill:#404f66}.cls-7{fill:#a78800}.cls-8{fill:#dbca66}.cls-9{fill:#f8fbff}.cls-10{fill:#bdc2c6}.cls-11{fill:#a5aaad}</style><clipPath id="clip-path"><path class="cls-1" d="M-18-508h397v360H-18z"/></clipPath></defs><path class="cls-2" d="M-.17 0h397v213.15h-397z"/><path class="cls-3" d="M-.17 213.15h397V360h-397z"/><g class="cls-4"><path class="cls-5" d="M224.36-230s21.7 57.72-18.62 251.23L190.16 25 188-190.41zM138.54-233.26s-27.79 102.75 3.18 241.18l19.52 7.46L153.18-88s15.13-55 22.7-105.4z"/><path class="cls-6" d="M139.3-103.26c10.69-30.27-12.42-58 6-92.3 14.19-26.34 31-22.44 47.16-18.55 12.12 2.93 23.86 5.86 33.75-4.06-.34-2-.66-3.78-1-5.24v-1.45h-.41a46.55 46.55 0 0 0-1.43-5.22l-4.77 5.22h-72.86l-8-8.55s-.79 3-2 8.55h-.58a11.27 11.27 0 0 0 .13 2.14c-6 29.88-19.52 118.55 5.62 230.63l19.52 7.46-1.03-13.88c-10.86-22.89-30.8-72-20.09-104.74"/></g><path class="cls-7" d="M321.78 161.78a79.52 79.52 0 1 1-49.39-101 79.52 79.52 0 0 1 49.39 101zm-134.15-46.06A62.32 62.32 0 1 0 266.82 77a62.39 62.39 0 0 0-79.24 38.69z"/><path class="cls-8" d="M242.21 180.67a79.52 79.52 0 1 1-49.36-101.09 79.52 79.52 0 0 1 49.36 101.09zm-134.14-46.06a62.32 62.32 0 1 0 79.19-38.71 62.39 62.39 0 0 0-79.19 38.71z"/><path class="cls-7" d="M227.23 76.69a62.42 62.42 0 0 0-43 59.8l-17.19.14a79.61 79.61 0 0 1 54.89-76.24z"/><path class="cls-9" d="M148.7 40.47l-13.14 3.77-2.58.74-15.88 4.55-6.17 20.75 34.16 17.28 19.84-32.76-16.23-14.33z"/><path class="cls-10" d="M125.57 66.08l7.41-21.1L150.27 59l-24.7 7.08zM145.09 87.56l-19.52-21.48-14.64 4.2 34.16 17.28zM145.09 87.56L150.27 59l14.66-4.2-19.84 32.76z"/><path class="cls-11" d="M125.57 66.08l-8.47-16.55-6.17 20.75 14.64-4.2zM150.27 59l-1.57-18.53 16.23 14.33-14.66 4.2z"/></svg>