<svg xmlns="http://www.w3.org/2000/svg" viewBox="0 0 397 360" width="397" height="360"><defs><clipPath id="a"><path d="M297.6 69.7s2.8 7.2-1.5 13-6 8-6.6 8.4a11.3 11.3 0 0 0-2.2 3.4 6.6 6.6 0 0 1-4.5 4.2c-3 1-12.7 3.2-12.7 3.2l17 1.6 13-20.8s1.7-9.6 1.3-10.4-3.8-2.6-3.8-2.6z" fill="none"/></clipPath></defs><path fill="#8c9a3f" d="M0 0h397v182H0z"/><path fill="#768034" d="M0 182h397v178H0z"/><path d="M172.7-.5H82.1a73.3 73.3 0 0 0-15.3 45.4c0 35.2 23.5 64.1 53.8 67.9l-2.1 79.2h17.9v-12.5l-2.2-66.7c19.4-2.4 36-15.2 45.5-33.3a74.9 74.9 0 0 0 8.3-34.6A73.3 73.3 0 0 0 172.7-.5" fill="#728236"/><path d="M278.2 187.8l6.7.8.6-5.5-6.9-1.6a44.4 44.4 0 0 1-.4 6.3zM317.7 183.2l5.8-4.4-3.5-4.3-6 3.8c1.6 1.4 2.4 3.2 3.7 4.9z" fill="#ede6db"/><path d="M286.9 184.6a1.3 1.3 0 0 0-1.1-.9c-.5-.1-.9 1.6-2.6 1.8a3.1 3.1 0 0 1-3-1.1 11.6 11.6 0 0 0-2.5-3.4 1.2 1.2 0 0 0-1.2.7 8.3 8.3 0 0 1-3.7 5.2 13.9 13.9 0 0 1-6.4 1.8 5.4 5.4 0 0 0-2.6.3 1 1 0 0 0-.3.6 1.8 1.8 0 0 0-.1 1.3c.3 1 1.8 1.6 3.3 2.1a42 42 0 0 0 7.9.7l4.8.2a67.4 67.4 0 0 0 7 0c2.8-.2.8-8.4.5-9.3z" fill="#66605b"/><path d="M286.1 156.8c-5.3-1.2-7.6 1.5-7.6 9.7 0 1.9.1 3.6.2 4.6s-.1 10.1 0 10.6l7 1.5 2.9-28.4-.6.7a1.7 1.7 0 0 1-1.9 1.3z" fill="#d5a158"/><path fill="#a87f41" d="M288.6 153.5l-.1 1.3.7-1-.6-.3zM279.4 150.5a1.9 1.9 0 0 0-.9 1.1c-.2 1.7-.2 9.4-.1 14.9 0-8.2 2.4-10.9 7.6-9.7a1.7 1.7 0 0 0 1.8-1.3l.6-.7v-1.2z"/><path d="M327.4 179.1a31.9 31.9 0 0 0-4-2.5 1.1 1.1 0 0 0-1.5-.1l-.3.4c-.2.8.3 1.5-.8 2.6a5.1 5.1 0 0 1-2.8 1.6h-1.6s-.6-1.7-1.2-1 .5 2.7.5 2.7a7.1 7.1 0 0 1 .2 3.5c-.7 2.8-1.2 4-2.6 4.8s-2.8 1-3.1 1.3a.9.9 0 0 0-.2 1.1c-.1.2.1.5.7.9l.4.2a7.4 7.4 0 0 0 2.5.5 11.7 11.7 0 0 0 6.2-1.2c1.8-.9 8.8-8.8 9.9-10.3a1.8 1.8 0 0 0 .4-1c.3-.2-1.3-2.3-2.7-3.5z" fill="#66605b"/><path d="M298.7 156.1s9.9 14.7 10.6 15.3 6.5 8.7 6.6 9l5.5-4.4c-.7-1.1-7.1-10.6-7.3-11-2-4-11-12.5-11-12.5l-7.6-1s0 .8.1 1.8a11.4 11.4 0 0 1 3 1.7z" fill="#d5a158"/><path d="M309.2 172.6l6.6 7.8-6.6-9c-.6-.6-10.6-15.3-10.6-15.3l-.2-1.2a11.4 11.4 0 0 0-3-1.7 31.4 31.4 0 0 0 .4 4.6c.5 1.2 8.6 9.8 13.4 14.8z" fill="#a87f41"/><path d="M306.4 150.4a4.6 4.6 0 0 1-.8-2.5c.2-.8-.6-22.4-.6-22.6a32.7 32.7 0 0 1-3 3.2 29.2 29.2 0 0 0-4.1 5.1h.3l-6.1 2.8v17.9a15.2 15.2 0 0 0 8.2 1.8 16.3 16.3 0 0 0 6.8-2c.7-.4-.5-3.1-.7-3.7z" fill="#366378"/><path d="M182 164.3s-14.8-1-27.4-1c-19.7 0-50.5 9.8-50.5 18 0 2.7 5.6 5.4 8.5 7.4s6.2 3.2 16.3 3.1 49.4 0 49.4 0z" fill="#ba3642"/><path d="M260.8 104.8l-87.9 55c0 1.3-2.8 4.3-2.8 4.3 2-.8 93.4-58.6 93.4-58.6z" fill="#ede6db"/><path d="M234.9 128.2s-7.2 38.4-10.2 41.2a61.8 61.8 0 0 1-21.8 11c-9.4 2.4-19.5 3.4-21.8 4.1s-6.7-6.2-7.8-8.5-3.8-8.7-4.9-10.2.3-3.9 2.6-5.6 11.2-8.5 14.1-9.9 24.6-13.5 33.4-16.4 16.4-5.7 16.4-5.7z" fill="#857363"/><ellipse cx="105.3" cy="185.8" rx="10.1" ry="10.1" fill="#303031"/><ellipse cx="170.8" cy="185.8" rx="10.1" ry="10.1" fill="#303031"/><ellipse cx="170.8" cy="185.8" rx="6.4" ry="6.4" fill="#f1eff0"/><path d="M163.1 176.3a9.2 9.2 0 0 0-7.4 8.9v.4l-1.1.4c-3.8 1-24.4 1-26.3 1.6a6.6 6.6 0 0 0-3 1.9c3.2-.5 17.3-.6 27.2-.6h6.7a8.9 8.9 0 0 1-1.1-4.4 9.1 9.1 0 0 1 5-8.2zM112.9 175.8a9.2 9.2 0 0 1 7.4 8.9c0 .1-.2 3.6-1.7 3.6h-1.8a8.9 8.9 0 0 0 1.2-4.3 9.1 9.1 0 0 0-5.1-8.2z" fill="#a12933"/><path d="M119.6 174.2h41.3a18.6 18.6 0 0 0 3.3-3.8v-3.3s-.2-4.4-.4-5.6a2.6 2.6 0 0 0-2.4-2.2l-8.7-.2a7.3 7.3 0 0 0-2.9-2.5 66.2 66.2 0 0 0-11.6 0 9.2 9.2 0 0 0-4.3 2.6s-7.6 1.3-11.9 4.2-2.4 10.5-2.4 10.8z" fill="#303031"/><path d="M263.8 102.7c-2.9-3.3-7.3-8.3-8.4-9.5s-2.1-2.7-3.4-2.9-3.9 1.5-2.1 3.7 6.9 7.9 8.5 9.6l3.3 3.5c.7 1.2-.2 2.7-1 3.4s-81.8 50.9-86.1 52.8-7.9 4.9-11.3 7-.8 2.9 0 3.5 2 .2 3.7-1.1 10.3-7.2 16.5-11.3 74.6-46.9 77.1-48.5 3.9-2.7 4.5-5.5a5 5 0 0 0-1.3-4.7z" fill="#ede6db"/><circle cx="164.5" cy="172.1" r="1" fill="#ccc4ba"/><path d="M151.9 168.7a.4.4 0 0 0-.4-.4h-28.7a3.1 3.1 0 0 1-.1.8h28.7a.4.4 0 0 0 .5-.4zM151.9 170.1a.4.4 0 0 0-.4-.4h-28.9v.8h28.8a.4.4 0 0 0 .5-.4zM151.9 171.5a.4.4 0 0 0-.4-.4h-28.9v.8h28.8a.4.4 0 0 0 .5-.4zM151.9 167.2a.4.4 0 0 0-.4-.4H123l-.2.8h28.6a.4.4 0 0 0 .5-.4zM151.9 165.7a.4.4 0 0 0-.4-.4h-27.3l-.7.5-.3.4h28.1a.4.4 0 0 0 .4-.4zM151.9 164.3a.4.4 0 0 0-.4-.4H127l-1.8.8h26.2a.4.4 0 0 0 .5-.4z" fill="#030506"/><ellipse cx="170.8" cy="185.8" rx="2.1" ry="2.1" fill="#303031"/><ellipse cx="105.3" cy="185.8" rx="6.4" ry="6.4" fill="#f1eff0"/><ellipse cx="105.3" cy="185.8" rx="2.1" ry="2.1" fill="#303031"/><path d="M307.1 113.1c-1.4-2.4-23.4-.6-23.7.2s-3.8 15.2-4.1 16.1-1.1 5.9-1.4 6.9-.9 3.6-1.5 6.3c0 0-.6 5.2 1.9 7.5s-.9 1.7-2.9-2a23.1 23.1 0 0 0-.3 5.3c.3.9 7.9 1.9 9.6 2.3s6.8 1.8 7.7 1.9 2.2-1.7 3.3-4.7 3.2-9.6 3.6-11 2.7-6.8 4-9.8 4.1-10.4 4.5-11.9a39 39 0 0 0-.7-7.1z" fill="#4a7a96"/><path d="M278.2 150.1c-2.4-2.3-1.9-7.5-1.9-7.5-.4 2-.8 3.8-.9 4.6a3.1 3.1 0 0 1-.1.9c2 3.6 4.9 3.8 2.9 2zM298.8 115.2a8.2 8.2 0 0 0-3.3.4l-11.8 1.3s-1.4 4.1 2.3 4.8 4.7-2.1 9.5-2.5 6.4 1.3 6.3 2.1-4.4 15.8-7.6 26h.4c4.4-9.9 12-28 12-31.6a54.9 54.9 0 0 1-7.8-.5z" fill="#366378"/><path d="M294 121.1s-.4 2.3 3.9 5.9" fill="none" stroke="#366378" stroke-miterlimit="10" stroke-width=".71"/><path d="M277.4 89c-1 1.1-16.5 3.3-19.9 3.4l-4-1.2-1-.4a1.3 1.3 0 0 0-1.7.7 11.1 11.1 0 0 0-1.3 3 1.3 1.3 0 0 0 .9 1.5l1.2 1s2.3-6.6 7.2-.9l3.8.2 16.9-1.9s2.1-9.2 2.1-12.9c-1.1 1.6-3.6 6.9-4.2 7.5z" fill="#d5a158"/><path d="M282.3 82.8c-.6-.4-1.1-.6-1.3-.2a16.8 16.8 0 0 0-.8 2.6c-.5 2-.5 4.7-1.4 6.5s-6.2 2.8-7.4 3.2a17.2 17.2 0 0 1-3.7.7l-5.1.6 16.5 1.3a12.2 12.2 0 0 0 3-2.4l2.6-2.3 1.4-5.9a27.3 27.3 0 0 0-3.8-4.1z" fill="#a87f41"/><path d="M256.2 101.1h6.5L259 97c-1.8-1.8-2-2.4-3.2-2.5s-4.6.8-3.1 2.6z" fill="#ede6db"/><path d="M255.8 94.4c1 .1 1.3.5 2.3 1.6h.8c-2-2.3-2.9-2.7-4.6-2.4a3.2 3.2 0 0 0-2.6 3.4h.9c-1.4-1.7 2.2-2.6 3.2-2.6z" fill="#a87f41"/><path d="M308.1 114.7c.7-1.3-.1-4.4-1-6.2-1.7-3.5-3.1-10-2.8-11.5s.6-7.1 1-9.9a44.6 44.6 0 0 0-.4-9.7h-22.2c-.4 1-.9 2.1-1.3 3.4a14 14 0 0 0-.5 5.2 49.2 49.2 0 0 1 0 5.5c-.1 2.2.4 10.6.5 13.6s.6 6.7.4 8.3-1.1 3-.8 3.8a2 2 0 0 1-.1 1.6c-.1.5.2 1.3.7 1.2s2.5.2 4.3 0c4.5-.6 11.9-2.6 13.7-2.8a19.4 19.4 0 0 1 7.4.9l.6.5a.6.6 0 0 0 .6-.3c.8-1.8-.5-2.9-.1-3.6z" fill="#5c7d6b"/><path d="M293.6 88.8l-5.1 7.2a18.4 18.4 0 0 1-3.2 3.6c-.3.1-20.8 2.7-22.2 2.6s-3.1 1.9-4.2 1.8c-2.7-.3-4.5-3.8-3.5-5a7.8 7.8 0 0 1 1.3-1.6 5 5 0 0 1 2.9-.3c.7.1 2 1.6 3.8 1.6s17.9-5.3 18.7-6.7 2.3-7.4 3.9-8.8 10.6-2 7.6 5.6zM282.1 60.4h-3.2a9.6 9.6 0 0 0-.2-1.9c-.3-.3-1.7-.1-1.6-1.8s2-3.5 1.3-5.1a8.6 8.6 0 0 1-.1-6.6c1.1-3 6.6-1.9 11.3-.9s7.5 2.3 8.3 4.7 1.1 5.4.5 6.6a18.6 18.6 0 0 1-2.4 3.2 63.4 63.4 0 0 1-10.2 5.3c-1.5.4-4.5 1.5-5.5.9a3.4 3.4 0 0 1-1.2-3.2 4 4 0 0 0 3-1.2z" fill="#d5a158"/><path d="M286.3 72.8a39 39 0 0 0 1.7-5.9c-.1-.7-2.4-2.8-4.6-3.2-.1 0-1.6-4.5-1.2-5.3s7.7-3.5 9.2-4.5 7.8-6 7.2-4.1-2.6 10.3-2.4 12.2a62.4 62.4 0 0 0 2.3 8.1c.2.8-12.2 2.7-12.2 2.7z" fill="#d5a158"/><path d="M305 87.6c0 1.6.3 3.3.3 4.9 0 4.4.9 8.8 1.3 13.2s.5 6.5.7 9.7c-3.6-.4-8.1-.2-8.7-4.7-.3-2.4.5-4.8.5-7.3a79.1 79.1 0 0 0-1-8.8 62.3 62.3 0 0 0-3.5-13.2c-1.5-4.2-3.1-3.4-7.1-3.3-2 .1-5.6 1.3-5.1-.8s3-4.5 4.8-5.6 7.1-5.5 9.4-4.1 6.3 3.1 7.5 7.8a35.8 35.8 0 0 1 1.2 6.1 50.5 50.5 0 0 1-.4 5.6z" fill="#5c7d6b"/><path d="M281.2 53.8a1.2 1.2 0 0 0 1.3 1 1.1 1.1 0 0 0 .6-1.4 1.2 1.2 0 0 0-1.3-1 1.1 1.1 0 0 0-.6 1.4M286.2 51.3l-6.8-.3 1.7-.9 4.2.7.9.5z" fill="#3f3220"/><path d="M292.4 56.1a18 18 0 0 1 .6-3.1 18.3 18.3 0 0 1 .9-2.3s3.6 1 2.6 3.6-2.3 2.9-2.3 2.9l-.9 3s1.8.4 1.9-.4.6 2 .2 2.5 1.8-1 2.3-2.6 1.5-3.2 1.5-2.4.4 1.2 1-1.4 2.2-7.1-.7-11.6-6.6-5.9-13.5-4.7-8.3 2.3-9.4 6.4a4.8 4.8 0 0 0 1.1 4.8s2.4-5 6.5-5.3c1.5.7-.7 2.2-1.8 2.6a7.1 7.1 0 0 0-1.8 1.1s3 .1 4.3-.9l2.8-2.3a8.7 8.7 0 0 0 1.2 6c.8 1.3 3.5 4.1 3.5 4.1z" fill="#3f3220"/><path d="M292.3 57.8c1.3 3.7-3.6 6.8-4.6 8.7a8.2 8.2 0 0 0-2.7-2.2c7.1-2 7.3-6.5 7.3-6.5z" fill="#a87f41"/><g clip-path="url(#a)"><path d="M293.6 88.8l-5.1 7.2a18.4 18.4 0 0 1-3.2 3.6c-.3.1-20.8 2.7-22.2 2.6s-3.1 1.9-4.2 1.8c-2.7-.3-4.5-3.8-3.5-5a7.8 7.8 0 0 1 1.3-1.6 5 5 0 0 1 2.9-.3c.7.1 2 1.6 3.8 1.6s17.9-5.3 18.7-6.7 2.3-7.4 3.9-8.8 10.6-2 7.6 5.6z" fill="#a87f41"/><path d="M293.6 88.8l-5.1 7.2a18.4 18.4 0 0 1-3.2 3.6c-.3.1-20.8 2.7-22.2 2.6s-3.1 1.9-4.2 1.8c-2.7-.3-4.5-3.8-3.5-5a7.8 7.8 0 0 1 1.3-1.6 5 5 0 0 1 2.9-.3c.7.1 2 1.6 3.8 1.6s17.9-5.3 18.7-6.7 2.3-7.4 3.9-8.8 10.6-2 7.6 5.6z" fill="#a87f41"/><path d="M285.5 81.6c-.6 1.3-1.2 2.8-1.5 3.5a3.2 3.2 0 0 0-.6 1.5c.2.3.3-.9 4.9 1.3a13.6 13.6 0 0 1 4 2.8c.1.4.5.3 1.1-.8s4.8-7 5.3-8.2a14.1 14.1 0 0 0 1-5.2c0-2.6.1-6.8-6.2-6.8a5.3 5.3 0 0 0-5 3.5c-.8 2-2.5 7.4-3 8.4z" fill="#5c7d6b"/><path d="M297.9 70.8c.6 2.2 1.4 7.4-1.8 11.9s-4 5.5-5.1 6.8a5.5 5.5 0 0 1 1.3 1.2c.1.4.5.3 1.1-.8s4.8-7 5.3-8.2a14.1 14.1 0 0 0 1-5.2c.1-1.8.2-4.3-1.8-5.7z" style="isolation:isolate" fill="#5c7e6a" opacity=".3"/></g></svg>