<svg id="Layer_1" xmlns="http://www.w3.org/2000/svg" viewBox="0 0 397 360" width="397" height="360"><defs><style>.cls-1{fill:none}.cls-2{clip-path:url(#clip-path)}.cls-3{fill:#6c9e79}.cls-4{fill:#6d9f78}.cls-5{fill:#5c7e6a}.cls-6{fill:#5c7e69}.cls-7{fill:#576682}.cls-8{fill:#333}.cls-9{fill:#404f66}.cls-10{fill:#c7c7c4}.cls-11{fill:#d6a361}.cls-12{fill:#ab854f}.cls-13{fill:#d1d1d1}.cls-14{fill:#a1a1a1}.cls-15{fill:#302b29}.cls-16{fill:#cc8f4f}.cls-17{fill:#386678}</style><clipPath id="clip-path"><path class="cls-1" d="M0 0h397v360H0z"/></clipPath></defs><g class="cls-2"><path class="cls-3" d="M.03 1h397v212H.03z"/><path class="cls-4" d="M68.47 1.57h272.35v272.35H68.47z"/><path class="cls-4" d="M57.16 2.13l-74.62 13.14 45.75 259.48h387.58L367.79 2.13H57.16z"/><path class="cls-5" transform="rotate(-10 318.855 232.448)" d="M247.57 225.51h142.59v13.91H247.57z"/><path class="cls-5" d="M110.8 262.1l2.23 12.65h6.06l116.28-20.5-2.42-13.69L110.8 262.1zM43.92 273.88l.15.87H96.8l-1.75-9.87-51.13 9zM382.42 189.63L354.33 30.27 12.08 90.63l28.51 161.6 342.24-60.35zM198.51 142l-4.21-23.93 165.63-29.2 4.21 23.93zm166-27.24l4.21 23.93-165.61 29.2-4.25-23.89zm-170.55 1.33L190.12 94l165.63-29.2 3.81 22.08zm-5.88-21.79l3.89 22.13-165.44 29.23-3.9-22.13zm4.25 24.09l4.21 23.93L31.1 171.55l-4.21-23.91zm4.58 25.91l4.09 23.98-165.41 29.18-4.21-23.93zm4.58 25.91l4.21 23.93-165.46 29.23L36 199.48zm2-.34l165.63-29.2 4.21 23.93-165.63 29.2zm170.18-3.3l3.79 21.53-165.63 29.2-3.83-21.46zM350.54 35.7l4.32 24.49-333 58.72-4.36-24.49zm-310 189.63L206 196.15l3.81 21.48-165.43 29.23zM191.72 2.13L1.84 35.61l7.55 42.8 344.14-60.68-2.76-15.6H191.72z"/><path class="cls-4" d="M97.65 28.91L100 42.22l3.2-.56.58 3.27-3.2.56 1.07 6.1-4.48.82-1.07-6.1-10 1.82-.49-3 7.26-15.43zM94 35.16L89.93 44l5.77-1-1.38-7.86zM115.68 49.35c-7 1.23-9.8-3.83-10.89-9.93-1-5.74-.16-12.13 6.81-13.36s9.86 4.65 10.89 10.19c1.03 5.95-.18 11.94-6.81 13.1zm-3.38-19.59c-3.63.65-3.41 5.28-2.78 8.88.78 4.41 2.11 7.72 5.59 7.1s3.41-4.58 2.69-8.59c-.61-3.5-1.8-8.04-5.5-7.39zM129.86 27.55l-4.54 1.23-.56-3.12 4.79-2.31 4.18-.74 4 22.53-4.61.82zM148.36 19.12l2.2.91a23.48 23.48 0 0 0-1.31 13.54 23.6 23.6 0 0 0 6 12.89l-1.82 1.71a22.17 22.17 0 0 1-8.13-13.82 21.93 21.93 0 0 1 3.06-15.23zM160.36 30.27l4.21-6.52 5.27-.93-5 7.43 1.43 1.18c1.2 1.36 5.63 6.17 6.83 7.52l-5.21.91c-1.82-2.09-3.72-4.19-5.57-6.35l-1.16 1.71 1 5.66-4.74.85-4.14-23.6 4.78-.84 1.42 8.21c.24 1.38.51 3.27.69 4.7a.44.44 0 0 0 .19.07zM177.52 43.89l-2.18-1a24.15 24.15 0 0 0 1.2-14.11 23.24 23.24 0 0 0-5.85-12.33l1.82-1.6a22.11 22.11 0 0 1 5.01 29.04zM203.83 24.59l-4.12.73 1.56 8.7-4.9.87-4-22.68 8.63-1.57c5.17-.91 8.24 1.33 9.08 5.57a6.9 6.9 0 0 1-6.26 8.37zm-6-9.8l1.3 7.21 3.2-.56a3.21 3.21 0 0 0 2.67-4.13 3.29 3.29 0 0 0-4.16-3zM216 31.4l-4-22.57 4.9-.83 3.4 19.26 11.58-2.07.6 3.4zM249.29 25.53l-2.49-4.88-8.26 1.45-.71 5.45-4.83.85 3.63-24 6.16-1 11.46 21.3zm-6.79-13.67l-2.18-4.67h-.16l-.51 5.27-.65 6.16 6.23-1.09zM270.67 14.49l-2.75-15.57 4.7-.84 4 22.62-4.79.84-9.83-10.9c-1-1.13-1.94-2.2-2.94-3.36h-.16l2.74 16.07-4.68.82L253 1.57l4.9-.87c3 3.23 6 6.45 8.91 9.73l3.63 4.1z"/><path class="cls-5" d="M394.4 249.95l-2.41-13.69-187.52 33.06.96 5.43h48.31l140.66-24.8z"/><path class="cls-6" d="M.03 213h397v148H.03z"/><path class="cls-7" d="M242.36 278s21.7 57.72-18.62 251.23L208.16 533 206 317.59zM156.54 274.74s-27.79 102.75 3.19 241.18l19.52 7.46L171.18 420s15.13-55 22.7-105.4z"/><path class="cls-8" d="M200.48 114.59s2.46 0 20.14 8.66 28.38 2.37 28.38 2.37c-6.58-.41-8.55-8.66-8.55-8.66 7 2 11.91-4.72 11.91-4.72-5.75 1.18-9-5.51-9-5.51 13.15-4.72 11.5-19.24 6.16-22.44s-8.21-16.14-8.21-16.14c-12.12-40.4-42.39-37.47-42.39-37.47s-32.06-1.18-35.31 34.63a30.27 30.27 0 0 1-10.28 20.95c-7.14 6.07-6.16 14.56-2.14 16.93a7 7 0 0 1-6.56 7.08s4.1 4.28 11.91 2.35c0 0 4.28 6.26-4.53 10 0 0 11.09 2.95 17.68-1 0 0 18.06 13.38 30.8-7.08"/><path class="cls-7" d="M244.09 283.22c0 24.35-20.18 38-45 38s-45.09-13.65-45.09-38z"/><path class="cls-9" d="M157.3 404.74c10.69-30.27-12.42-58 6-92.3 14.19-26.34 31-22.44 47.16-18.55 12.12 2.93 23.86 5.86 33.75-4.06-.34-2-.66-3.78-1-5.24v-1.45h-.41a46.55 46.55 0 0 0-1.43-5.22l-4.77 5.22h-72.86l-8-8.55s-.79 3-2 8.55h-.58a11.27 11.27 0 0 0 .13 2.14c-6 29.88-19.52 118.55 5.62 230.63l19.52 7.46-1.11-13.87c-10.86-22.89-30.8-72-20.09-104.74"/><path class="cls-10" d="M223.12 130.21a58.12 58.12 0 0 0-18.32-2.59l-21.38 1.88-5.9 112.54-14.36.17c-1.41 7.35-10.69 26.59-12.1 41.19h95.83c-1.35-14.6-15.43-32.68-16.84-40-3.78-19.69-4.87-58.31-4.87-58.31z"/><path class="cls-11" d="M213.07 96.93h-27.25v30.23c.24 5.77 2.74 25.65 10 35 1.58 2.14 3.57 4.28 3.57 4.28s2.14-2.63 4-4.4c9.62-9.62 9.38-28.6 9.62-34.37z"/><path class="cls-12" d="M185.82 96.93v26.19a20 20 0 0 0 14.09 4.28 16.57 16.57 0 0 0 13.19-7.8V96.93z"/><path class="cls-11" d="M227.4 83.93s-4.83 36.34-27.51 37.34c-14.62.64-26.72-12-28.28-37.34-1.71-27.79 6.13-46.34 27.79-46.34 20 0 28 21.7 28 46.34"/><path class="cls-12" d="M203.43 97.7c0 .83-2 2.39-4.42 2.39s-4.4-1.54-4.4-2.39 2-.64 4.4-.64 4.42-.19 4.42.64"/><path class="cls-13" d="M239.11 178.39s3 15.48-13.55 18.43c.15 3.16.34 6.78.58 10.69 21.5-7.74 13-29 13-29m-78.54 1a41.66 41.66 0 0 0 3 8.55c-1.65-5.32-3-8.55-3-8.55m3 8.55c4 12.83 9.56 37 1.88 54l-.06.28 9.66-.11a17.76 17.76 0 0 1 3.16-13.68l1.6-30.35h-.19a16.25 16.25 0 0 1-16.07-10.07"/><path class="cls-14" d="M202.64 195.58a73.06 73.06 0 0 0-11.74 1.28 72.12 72.12 0 0 1-11.16 1.28l-1.52 30.35c7.82-10.69 28-15.16 45.81-20.35.75-.21 1.47-.45 2.14-.71-.24-3.85-.43-7.46-.58-10.69a34 34 0 0 1-5.94.49A61.11 61.11 0 0 1 208 196a27.79 27.79 0 0 0-5.34-.47m-27.62 46.56l-9.66.21c-3.16 6.95-13.06 26.7-14.41 41.21h5.86c-2.74-27.1 21.72-22.27 18.43-40.46a1.81 1.81 0 0 0-.15-.88"/><path class="cls-7" d="M250.31 156.78c.15-6.41-1.41-11.12-3.87-13.85A46.79 46.79 0 0 0 213 127.58s-2 91.79 5.11 163.55c0 0 20.71 1 35.63-7.33a151.45 151.45 0 0 0-18.19-45.49 229.36 229.36 0 0 1 8.55-50.87c3.93-15.63 6-21.93 6.18-30.67"/><path class="cls-15" d="M180.58 44.67c-7.7 7.84-10.45 21.74-9.36 39.29.79 12.61 4.17 22.06 9.17 28.3l-.58-1.24c-4.49-6.22-7.48-15.26-8.21-27.06-1.07-17.1 1.54-30.8 8.81-38.73l.17-.56"/><path class="cls-16" d="M180.37 45.22c-7.29 7.93-9.88 21.61-8.81 38.73.73 11.8 3.74 20.82 8.21 27.06-9.45-21.38-4.42-48.54.6-65.8"/><path class="cls-8" d="M173.19 52.32s8 12.48 36.68 17.1c0 0-12.1-6.41-17.1-13.23 0 0 9.08 8.7 34.8 8.7 0 0-.75-29.14-28.75-29.14-21.57-.75-25.65 16.65-25.65 16.65"/><path class="cls-7" d="M154.72 138.89a50.64 50.64 0 0 1 31.08-11.71 677.17 677.17 0 0 1-8.29 163.5l-29.93-5.3s0-27.66 15.54-47.37a226.22 226.22 0 0 0-8.34-53.82v.21s-11-36.17-.06-45.51"/><path class="cls-10" d="M213 128.05s5.84 10.5 21.23 12.57c0 0-3.61 3.1-14 2.82l-20.82 23s7.74-11.12 10.41-19.24a115.56 115.56 0 0 0 3.18-19.27M185.88 127.18s-5 10.26-21.25 12.83c0 0 2.8 3.85 13.21 3.57l21.55 22.83s-8.17-13.08-10.35-19.73a118 118 0 0 1-3.19-19.49"/><path class="cls-11" d="M117.87 290.08s-3.14 9.7-.32 16 .51 22-3.74 24.48.58-13.62-2.8-12.83-6.73 15.45-5 21.78-11.52 5.56-14.13-6.78a29.16 29.16 0 0 1 6.2-25.65c4.1-5.19 3.48-20.41 3.48-20.41z"/><path class="cls-10" d="M100.77 276.47l-2.08 14.88 20.84 1.9 1.39-15.22-20.15-1.56z"/><path class="cls-7" d="M170.15 147.27c-1.69-11-9-12.14-15.43-8.38a58.27 58.27 0 0 0-13.51 15.75C101 216.81 98 285.4 98 285.4l23.88 3 7.94-56.4c10.07-16.91 23.64-44.89 24.92-47.58a86 86 0 0 0 3.12-11s14.43-12.1 12.27-26.16"/><path class="cls-11" d="M319.18 265.8s5.92 8.32 12.65 9.77 18 12.7 17.42 17.59-10.58-8.55-11.95-5.37 8.4 14.62 14.56 17-2.39 12.53-13.86 7.21a29.14 29.14 0 0 1-16.87-20.22c-1.71-6.41-14.32-15-14.32-15z"/><path class="cls-10" d="M299.07 269.84l10.11 11.07L323.33 267l-10.81-10.82-13.45 13.66z"/><path class="cls-7" d="M276 202c-9.11-20.76-15.73-44.08-29.56-59-1.71-.64-8.55-2.61-11.33 6-3.1 9.85 2.71 22 4.68 26.81.75 1.8 2.46 6.52 4.28 11.74v-.17l20.71 50.28 40.17 40.61 15.93-15.16s-30.57-28.3-44.89-61.16"/><path class="cls-8" d="M208.37 70.45c1.73-2.69 7.61-3.38 11.33-2.69a10.11 10.11 0 0 1 5.81 3.74 17.27 17.27 0 0 0-6.22-2.14 16.16 16.16 0 0 0-9.38 2.42 1 1 0 0 1-1.52-1.33M191.7 70.45c-1.73-2.69-7.61-3.44-11.33-2.69a10.11 10.11 0 0 0-5.81 3.74 17.27 17.27 0 0 1 6.22-2.14 16.16 16.16 0 0 1 9.38 2.42 1 1 0 0 0 1.52-1.33"/><path class="cls-17" d="M209 80.64a27.38 27.38 0 0 1 6.13-.81 26.59 26.59 0 0 1 6.07.75s-1.62-4.92-6.09-4.92-6.11 4.92-6.11 4.92M178.49 80.64a27.38 27.38 0 0 1 6.16-.81 26.59 26.59 0 0 1 6.07.75s-1.62-4.92-6.09-4.92-6.09 4.92-6.09 4.92"/><path class="cls-12" d="M211.83 102.4a18.64 18.64 0 0 1-2.84 3.08 18.83 18.83 0 0 1-8 4.28 10.9 10.9 0 0 1-2.61.3 16.84 16.84 0 0 1-5.66-1.11 18.61 18.61 0 0 1-1.8-.77l-.49-.26h-.13l-.94 1.62a19.24 19.24 0 0 0 2.74 1.22 18.73 18.73 0 0 0 6.41 1.22 12.83 12.83 0 0 0 3-.36 20.73 20.73 0 0 0 8.74-4.75 20 20 0 0 0 3.1-3.53zm-22.49 7.2"/></g></svg>