<svg xmlns="http://www.w3.org/2000/svg" viewBox="0 0 319 363" width="319" height="363"><path fill="#73a0a1" d="M0 0h319v182H0z"/><path fill="#577b7f" d="M0 182h319v181H0z"/><path d="M52.5 127.8a68.2 68.2 0 0 0 8.8 25.1 27.4 27.4 0 0 1 12.7-4.3 93.9 93.9 0 0 1-3.1-15.5 102.8 102.8 0 0 1-11.9-2.9c-2.6-.8-4.7-1.6-6.5-2.4zm54.1-77.3l1.5-.3-1.5.3zm3.8-.7l2.3-.3-2.3.3zm-47.6 56.6a11 11 0 0 0 8.2 4.2c3-25.3 15.9-47 33.9-59.7a69.6 69.6 0 0 0-44.6 34c-.9 5-2 15.5 2.5 21.5zM121.3 49a70.7 70.7 0 0 0-7.3.4c-21 11-36.3 34.1-39.6 61.5 11.8.7 24.9-8.5 38.7-18.2 16.5-11.6 34.8-24.4 55.8-24.9l3.5 3.5c-21.4-1-40.3 12.3-57.3 24.2-13.8 9.7-26.9 18.9-39.4 18.9h-1.6c-.2 2.5-.3 5.1-.3 7.7s.1 5.4.4 8.1a130.3 130.3 0 0 0 20.2 1.7c24.3.2 74.3.6 96.3-16.3v4.2c-21.1 14.2-61.5 15.5-87.1 15.5h-9.3a135.3 135.3 0 0 1-19.8-1.6 90.2 90.2 0 0 0 3.2 15c7.1.7 15.1 5.2 24.2 10.3 18.1 10.2 40.6 22.7 66.1 10.1a69.9 69.9 0 0 1-9.6 7.3 50.6 50.6 0 0 1-12.6 1.6c-17.2 0-32.5-8.6-45.6-15.9-8.1-4.5-15.2-8.5-21.3-9.7a80.6 80.6 0 0 0 19.3 30.7c36.2 12.7 75.9-6.1 88.7-42.1a68.9 68.9 0 0 0-42.5-88 69.9 69.9 0 0 0-23.1-4zM75.1 152a24 24 0 0 0-11.9 3.8 69.6 69.6 0 0 0 27.3 24A85.9 85.9 0 0 1 75.1 152zm-4.5-22.5q-.3-3.7-.3-7.4t.3-8a14.5 14.5 0 0 1-10.6-5.6c-3-3.9-3.9-9.3-4-14.2a68.4 68.4 0 0 0-4.2 23.7c0 2 .1 3.9.3 5.9a86.5 86.5 0 0 0 18.5 5.7z" fill="#577b7f"/><path d="M256.6 28.2h-1.7a1 1 0 0 0-.9-.9l-11.4-.7a.8.8 0 0 0-1 .8L199.2 25a11.2 11.2 0 0 0-11.9 10.4l-.7 12h-.6a.9.9 0 0 0-1 .8l-.3 4.7a.9.9 0 0 0 .9.9h.6l-.5 9.6-.3-.3c-.4 0-.8 1.1-.9 2.5s.2 2.6.6 2.6l.3-.3-.6 10.2c0-.7-.3-1.3-.6-1.3s-.8 1.1-.9 2.5.2 2.6.6 2.6.5-.5.7-1.2l-5.5 98.4a11.2 11.2 0 0 0 10.7 11.9l57.5 3.2a11.2 11.2 0 0 0 11.9-10.4l8.1-144a11.1 11.1 0 0 0-10.6-11.7" fill="#d1c9bf"/><path d="M199.9 25.9l55.8 3.1a11 11 0 0 1 10.4 11.5l-8 142.5a11 11 0 0 1-11.7 10.2l-55.8-3.2a11 11 0 0 1-10.4-11.5l8-142.5a11 11 0 0 1 11.7-10.2" fill="#eae7de"/><path d="M225.8 181.2a6.1 6.1 0 1 1-5.8-6.3 6.1 6.1 0 0 1 5.8 6.3" fill="#a39382"/><path d="M219.9 175a5.9 5.9 0 1 0 5.6 6.2 5.9 5.9 0 0 0-5.6-6.2m-.6 12a6.1 6.1 0 1 1 6.6-5.8 6.2 6.2 0 0 1-6.6 5.8" fill="#d1c9bf"/><path d="M218.4 178.9a.8.8 0 0 0-.8.7v2.1a.8.8 0 0 0 .7.8l2.6.2a.8.8 0 0 0 .8-.7v-2.1a.8.8 0 0 0-.7-.8zm2.3 3.9l-2.6-.2a.9.9 0 0 1-.9-.9v-2.1a.9.9 0 0 1 1-.8l2.6.2a.9.9 0 0 1 .9.9v2.1c.1.5-.4.9-1 .8" fill="#eae7de"/><path d="M228.9 34.3a1.6 1.6 0 1 1-1.5-1.7 1.6 1.6 0 0 1 1.5 1.7M217 40.2a1.3 1.3 0 1 1-1.2-1.3 1.3 1.3 0 0 1 1.2 1.3M233 41.4a.8.8 0 0 1-.9.8l-11.5-.7c-.5 0-1-.3-1-.9v-.4c0-.4.6-.8 1-.7l11.5.7a.7.7 0 0 1 .8.8z" fill="#867363"/><path d="M254.3 172.7l-68.9-3.9a.9.9 0 0 1-.9-.9l6.8-120.2a.9.9 0 0 1 1-.8l68.9 3.9a.9.9 0 0 1 .9.9l-6.7 120.2a1 1 0 0 1-1 .8" fill="#d8d8d8"/><path fill="#366378" d="M192.05 84.49l.07-1.197 5.8.334-.07 1.198zM199.27 84.826l.069-1.198 5.8.334-.069 1.198zM206.69 85.267l.068-1.198 5.8.334-.068 1.198zM213.903 85.802l.069-1.198 5.8.334-.069 1.198zM221.123 86.137l.069-1.198 5.8.334-.07 1.198zM228.442 86.572l.07-1.198 5.8.334-.07 1.198zM235.662 86.907l.069-1.198 5.8.334-.069 1.198zM242.875 87.442l.07-1.198 5.8.334-.07 1.198zM250.295 87.883l.069-1.198 5.8.334-.069 1.198z"/><path fill="#5c7e6a" d="M197.315 169.491l4.542-78.769 17.48 1.008-4.541 78.77z"/><path fill="#366378" d="M223.645 171.112l3.402-59.002 17.481 1.008-3.402 59.002z"/><path d="M227.6 51.9l-2.6-.2-.2 3.2a6.3 6.3 0 0 0-6.1 6.3c-.4 7.2 9.6 6.2 9.3 10.7-.1 1.8-1.2 2.7-3.8 2.5a12.4 12.4 0 0 1-5.4-1.7l-1.4 3.5a12.2 12.2 0 0 0 6 2l-.2 3.6 2.7.2.2-3.6c4.3-.4 6.5-3.1 6.7-6.6.4-7.8-9.7-6.8-9.5-10.9.1-1.8 1.4-2.4 3.4-2.3a11.8 11.8 0 0 1 4.2 1.1l1.3-3.4a15.9 15.9 0 0 0-4.8-1.5v-2.9z" fill="#5c7e6a"/></svg>