<svg xmlns="http://www.w3.org/2000/svg" viewBox="0 0 397 360" width="397" height="360"><defs><clipPath id="a"><path fill="none" d="M0 0h397v360H0z"/></clipPath></defs><g clip-path="url(#a)"><path fill="#cdad2d" d="M0-1.5h397v182H0z"/><path fill="#a58930" d="M0 180.5h397v181H0z"/><path d="M384.1 50.8l-48.2 28.4a7.7 7.7 0 0 1-5 1l-55.4-7.7a2 2 0 0 0-1.7.6 1.9 1.9 0 0 0-.5 1.8l9.8 48.6a1.9 1.9 0 0 0 .9 1.2l1.4.9c16.1 10.3 37.6 13.7 59.2 9.3s40.1-15.7 50.9-31.4l.9-1.4a1.8 1.8 0 0 0 .3-1.5L387 52.1a1.8 1.8 0 0 0-1.1-1.4 1.9 1.9 0 0 0-1.8.1" fill="#42403e"/><path d="M274.7 81c.7-.4 112.2-26.2 112.9-26.1l2.3 11-51.5 33.5a3.1 3.1 0 0 1-2 .4l-60.3-11.1z" fill="#333231"/><path d="M419.7 34.8h-.1L321 20a3.2 3.2 0 0 0-2.1.4l-82.2 51 98 14.6z" fill="#42403e"/><path d="M419.7 34.8l-85 51.2-98-14.5a3.1 3.1 0 0 0 1.2 5.7l96.8 13.7a3.1 3.1 0 0 0 2-.4l84-50a3.1 3.1 0 0 0-1-5.6z" fill="#42403e"/><path d="M276.3 74.1l-2.3 1.4a3.6 3.6 0 0 0-1.7 3.8l4.7 22.9a6.7 6.7 0 0 0-2.1 6.3 6.4 6.4 0 0 0 .9 2.2l1.4 19.2a2.5 2.5 0 0 0 3 2.3l12.1-2.4a2.5 2.5 0 0 0 1.7-1.2 2.6 2.6 0 0 0 .3-2.1l-6.1-18.3a6.6 6.6 0 0 0 0-2.4 6.7 6.7 0 0 0-4.2-4.8l-4.6-21.6 6.4-3.8 41.7-25.3-1-5.4zm3.8 58.1h-.4l-2.5-20.7h.4zm2.1-.4h-.4l-3.2-20.2h.4zm2.1-.4h-.4l-3.7-19.7h.4zm2.1-.4h-.4l-4-19.8h.4zm1.7-.3l-4.3-19.6h.4l4.3 19.6zm-.8-20.8l5.3 19.9h-.4l-5.3-19.9zm3.3 20.3h-.4l-4.8-19.7h.4z" fill="#6f84b8"/><ellipse cx="281.4" cy="107.1" rx="6.7" ry="6.5" transform="rotate(-11.3 282.348 107.037)" fill="#6f84b8"/><ellipse cx="327.3" cy="48.6" rx="4" ry="3.4" transform="rotate(-11.3 328.425 48.823)" style="isolation:isolate" fill="#857363" opacity=".5"/><path d="M330.6 46.8a3.4 3.4 0 1 1-4.2-2.3h.3a3.2 3.2 0 0 1 3.9 2.3z" fill="#6f84b8"/><path d="M193.5 155.7c-12.8-.5-26.6-3.2-37.5-9.1l6.7-17.9a89.7 89.7 0 0 0 36.2 7.7c11.9 0 19.8-4.3 19.8-15.6 0-9.3-7.4-12.7-18.4-15.9-21.7-6-41.2-10.6-41.2-34.7 0-19.1 12.3-32.7 34.2-35.2V16.9H208v17.9c9.6.7 20.5 3 29.4 7.9l-6.7 17.2a70.3 70.3 0 0 0-29.2-5.7c-10.5 0-17.3 5.2-17.3 15s10.8 12 22.3 14.8c15.1 3.8 37.3 9.1 37.3 36.9 0 19.9-14 32.4-35.9 34.7v17.9h-14.4z" fill="#a58930"/><path fill="#1d1e20" d="M-104.6 168l57.9 5.2h153.1l59.6-1.7v-40.1h-270.6V168z"/><circle cx="128.3" cy="173.9" r="24.5"/><circle cx="128.3" cy="173.9" r="18.2" fill="none" stroke="#404041" stroke-miterlimit="10" stroke-width=".28"/><circle cx="128.3" cy="173.9" r="17.4" fill="#58595b"/><circle cx="128.3" cy="173.9" r="10.2" fill="#d0d2d3"/><path d="M111 173.9a17.4 17.4 0 1 0 17.4-17.4 17.4 17.4 0 0 0-17.4 17.4zm22.6 0c0-1.8 7.5-1.6 8.4-1.6a1.6 1.6 0 0 1 0 3.3c-.8 0-8.4.1-8.4-1.7zm-1.6 3.8c1.3-1.3 7.1 2.1 8.5 3.4s-.7 3-1.4 3.7-2.3 2.8-3.7 1.4-4.7-7.2-3.4-8.5zm3.4-16c1.4-1.4 3 .7 3.7 1.4s2.8 2.3 1.4 3.7-7.2 4.7-8.5 3.4 2.1-7.1 3.5-8.5zm-7.2 17.4c1.8 0 1.6 7.5 1.6 8.4a1.6 1.6 0 1 1-3.3 0c0-.8-.2-8.4 1.6-8.4zm-1.6-19a1.6 1.6 0 0 1 3.3 0c0 .9.2 8.4-1.6 8.4s-1.6-7.5-1.6-8.4zm-2.1 10c-1.3 1.3-7.1-1.9-8.5-3.4s.8-3.1 1.4-3.7 2.3-2.8 3.7-1.4 4.7 7.3 3.4 8.6zm-8.4 10.9c1.4-1.4 7.3-4.7 8.5-3.4s-1.9 7.1-3.4 8.5-3.1-.8-3.7-1.4-2.8-2.2-1.4-3.7zm-3.1-7.1a1.6 1.6 0 0 1 1.6-1.6c.9 0 8.4-.2 8.4 1.6s-7.5 1.6-8.4 1.6a1.6 1.6 0 0 1-1.6-1.6z" fill="#f1f1f2"/><circle cx="131.4" cy="173" r="1.5" fill="#808184"/><path fill="#d0d2d3" d="M131.9 173.9l.5-.9-.5-.9h-1l-.5.9.5.9h1z"/><circle cx="124.8" cy="175.4" r="1.5" fill="#808184"/><path fill="#d0d2d3" d="M125.3 176.3l.5-.9-.5-.9h-1l-.5.9.5.9h1z"/><circle cx="129.5" cy="177.5" r="1.5" transform="rotate(-3.4 131.259 179.256)" fill="#808184"/><path fill="#d0d2d3" d="M128.6 178l1 .5.8-.6-.1-1-.9-.5-.8.6v1z"/><circle cx="126.7" cy="171" r="1.5" transform="rotate(-3.4 128.04 174.102)" fill="#808184"/><path fill="#d0d2d3" d="M125.8 171.6l1 .4.8-.6v-1l-1-.4-.8.5v1.1z"/><path d="M-107.9 134.6c1.4-5.8-1.8-25.6 27-53.1a7.9 7.9 0 0 1-1.6-3.9 2.3 2.3 0 0 1 2.2-2.2c1.3 0 50.2-10.4 96.7-6.8a167.7 167.7 0 0 1 58.3 15.5c20.7 9.9 41.4 21.8 41.4 21.8s46.1 6.3 58.9 26.1c4.3 0 6.1 11 6.7 13s3.6 15.3 1.8 22.7c0 0-1.3 3.9-2.7 4.5s-19.6 1.8-24.3 1.8h-.8a27.6 27.6 0 1 0-53.2 0H17.4c-29.9 0-52.3-.4-57.6 0h-4.6a27.6 27.6 0 0 0 1-7.3A27.6 27.6 0 0 0-71.3 139h-.1A27.6 27.6 0 0 0-99 166.6a27.8 27.8 0 0 0 .3 3.9 48.4 48.4 0 0 1-8.1-1.1c-1.9-1.3-.4-7-1.1-8.1s-1.4-20.9 0-26.7z" fill="#ae3d45"/><path d="M115.2 105.4c-3.1 1.7-7.5 3.5-10.5 2.5-5-1.8-53.3-27.1-54.4-29.2s1.3-1.7 3.6-2.8a167 167 0 0 1 20.8 8.2c18.2 8.7 36.5 18.9 40.5 21.3z" fill="#e6e7e8"/><path d="M-78.1 110.2H97.2S59.4 89.6 45.7 84.1s-87-3.6-99.6.4c-10.9 3.4-18 8.6-19.4 10.7s-8.4 15-4.8 15z" fill="#404041"/><path d="M74.9 101v7.2H4.7V82.9s31.5-.5 37.5 1.8S74.9 101 74.9 101z" fill="#d0d2d3"/><path d="M-53.8 131.4s11.4 7.2 16.7 17.7c3.2 6.4 2.9 15.5 2.9 15.5s97.2-.8 112.5 1.9a20 20 0 0 0-9.2-5.8c-5.8-1.6-67.7-1.8-79.2-4.9s-31.7-23.7-42.3-25.8-1.4 1.4-1.4 1.4zM136.8 131.1s-19-4.8-31.3 9.4a36.4 36.4 0 0 0-8.3 21.7s-2.9-7.5-1.9-11.4 6.2-16.5 16.5-20.4 25 .7 25 .7z" fill="#e6e7e8"/><ellipse cx="17.5" cy="119.4" rx="12" ry="4.5" fill="#e6e7e8"/><path d="M5.2 119.6a4.3 4.3 0 0 1 3-3.1 22.7 22.7 0 0 0 9.1 1.7 22.7 22.7 0 0 0 9.1-1.7 4.3 4.3 0 0 1 3 3.1c-.2 1.2-1.6 2.3-3.9 3a24.2 24.2 0 0 0-8.2-1.3 24.2 24.2 0 0 0-8.2 1.3c-2.2-.7-3.7-1.8-3.9-3z" fill="#bbbdbf"/><path d="M8.8 116.5a22.7 22.7 0 0 0 8.7 1.5 22.7 22.7 0 0 0 8.7-1.5 3.9 3.9 0 0 1 2.9 2.9c0 1.1-1.1 2.2-2.9 2.9a22.8 22.8 0 0 0-8.6-1.4 22.8 22.8 0 0 0-8.6 1.5c-1.8-.8-2.9-1.8-2.9-2.9a3.9 3.9 0 0 1 2.7-3zM62.3 107.1c0 9.2 6.8 6.5 11 6.5s7.8-2.9 7.8-6.5-3.7-5.5-7.9-6.2-10.9-3-10.9 6.2z" fill="#ae3d45"/><path d="M62.3 107.8l2.4 1.9a15.2 15.2 0 0 0 14.3 1.8 8.3 8.3 0 0 1-5.7 2.2c-4.1-.1-10.7 2.4-11-5.9z" fill="#e6e7e8"/><path d="M175 132s-8.5 3.4-13 1.3a142.7 142.7 0 0 1-14-9l20.7-.3c2.9-.1 5.7 5.3 6.3 8z" fill="#404041"/><path d="M173.5 131.3s-6.5 2.6-10 1a110.5 110.5 0 0 1-10.9-7l16-.3c2.2 0 4.5 4.2 4.9 6.3z" fill="#97999c"/><path d="M165.3 132.7a5.8 5.8 0 0 1-1.9-.5 110.5 110.5 0 0 1-10.9-7l14-.2c2.2.2 4.3 4.2 4.7 6.2a24.2 24.2 0 0 1-5.9 1.5z" fill="#fff"/><path d="M161 131.6a107.9 107.9 0 0 1-10.6-6.8l8.6-.2a14.5 14.5 0 0 0 1.4 4.9 25.9 25.9 0 0 0 1.4 2.3z" fill="#faaf40"/><path d="M105 108.1c.3.5 1.6.3 2.9-.4l5.4-3.1c1.3-.7 2.1-1.7 1.8-2.3s-1.6-.3-2.9.4l-5.5 3.1c-1.2.8-2 1.8-1.7 2.3z"/><path d="M105.556 106.987l9.05-2.14.267 1.13-9.05 2.139z"/><path d="M170.9 142.2c1.1 4.1.9 9.7 5.4 11.9a21.9 21.9 0 0 0 7.3 1.5c.1 1.2.3 2.3.3 3.5a50.6 50.6 0 0 1-9.2-2.3c-5.1-1.9-5-10-3.8-14.6z" fill="#e6e7e8"/><path fill="none" d="M39-.5h319v363H39z"/></g></svg>