<svg viewBox="0 0 319 363" xmlns="http://www.w3.org/2000/svg" xmlns:xlink="http://www.w3.org/1999/xlink" width="319" height="363"><defs><clipPath id="a"><path d="M217.1 80.7a32.7 32.7 0 0 0-61 9.6 33.5 33.5 0 0 0 3.4 19.7c8.3 16.3 27.9 23 43.8 14.9s22.1-27.9 13.8-44.2z" fill="none"/></clipPath><radialGradient cx="2212.74" cy="-5022.14" gradientTransform="rotate(-105.8 3136.057 -1698.738)" gradientUnits="userSpaceOnUse" id="b" r="32.44"><stop offset="0" stop-color="#e1e7ed" stop-opacity="0"/><stop offset=".1" stop-color="#e1e7ed" stop-opacity=".03"/><stop offset=".23" stop-color="#e1e7ed" stop-opacity=".1"/><stop offset=".38" stop-color="#e1e7ed" stop-opacity=".23"/><stop offset=".55" stop-color="#e1e7ed" stop-opacity=".4"/><stop offset=".73" stop-color="#e1e7ed" stop-opacity=".62"/><stop offset=".93" stop-color="#e1e7ed" stop-opacity=".89"/><stop offset="1" stop-color="#e1e7ed"/></radialGradient></defs><g style="isolation:isolate"><path d="M0 0h319v182H0z" fill="#ebe5dc"/><path d="M0 182h319v181H0z" fill="#d0c8bf"/><use opacity=".16" transform="rotate(-5.2 592.59 -973.835) scale(.05)" xlink:href="#a"/><path d="M92.099 50.65l117.514-10.695 13.842 152.092L105.94 202.74z" opacity=".15"/><path d="M90.099 48.65l117.514-10.695 13.842 152.092L103.94 200.74z" fill="#fff"/><path d="M118.7 158.7a40.5 40.5 0 0 0-2.9 5 16 16 0 0 0-2 6.4 2.2 2.2 0 0 0 3 2.3 5.3 5.3 0 0 0 2.6-2c1-1.2 2.1-2.6 3.8-2.9l-.3-.3c-.2 1.9.3 3.8 2.3 4.4s4.7.1 6.9-.3a43.7 43.7 0 0 1 9.8-.7c4.6.2 9.3.7 13.9-.1.3-.1.3-.6 0-.5-7.4 1.3-14.9-.7-22.3.6a32.9 32.9 0 0 1-6.5.8 4.5 4.5 0 0 1-2.7-.8c-1-.8-1-2.1-.9-3.2a.3.3 0 0 0-.3-.3c-2.5.3-3.6 2.8-5.3 4.3a2.4 2.4 0 0 1-2.8.4c-.7-.4-.7-1.5-.6-2.2a18.3 18.3 0 0 1 2.1-5.9 38 38 0 0 1 2.6-4.5c.2-.3-.2-.6-.4-.3zm48.5 14.3c5.6-1.6 16.4-7.8 10-14.4h-.2a3.2 3.2 0 0 0-2.4 2 3.5 3.5 0 0 0 .9 2.7c1.6 2.3 4.2 4 5.2 6.6s-2.4 4.3-4.5 3.9-4.2-1.7-3-3.4 2.5-1.2 3.7-1.3a22.3 22.3 0 0 1 5.3.2c3.1.5 6.1 1.2 9.2 1.5s6.1.4 8.6-1 3.4-4.4 3.2-7.4-1.6-5.2-3.8-3.7-2.3 3.8-1 5.2 3.5 1.4 5.1 1.5a26.3 26.3 0 0 0 5.9-.5c.3-.1.3-.6 0-.5a20.9 20.9 0 0 1-8.5.2c-1.4-.3-2.7-1.1-2.5-2.6a4.1 4.1 0 0 1 1.7-3c1.2-.6 2.1 1.3 2.3 2.1 1.2 3.2 0 7.1-3.2 8.5s-6.5.9-9.5.5-5.7-1.1-8.6-1.4a19 19 0 0 0-5.6.1 4.1 4.1 0 0 0-2.6 1.4c-1 1.4.5 3 1.7 3.6a5.1 5.1 0 0 0 5.8-.6c2.1-1.8.9-4.1-.6-5.9s-2-2.2-2.9-3.3-1.7-1.9-1.7-3.1a1.7 1.7 0 0 1 .8-1.2l1-.5c.2-.1 1 1.2 1.1 1.4a4.7 4.7 0 0 1-.1 4.9c-1.8 3.1-5.7 5.1-9 6.4l-2 .7c-.3.1-.1.6.2.5z" fill="#4d4d4d"/><path d="M97.974 80.974l38.74-3.526.653 7.18-38.74 3.526z" fill="#a39382"/><path d="M139.9 83.9l45.3-4.1" fill="#4d4d4d"/><path d="M139.83 83.793l45.312-4.123.037.408-45.313 4.124zM99.237 94.598l30.375-2.764.653 7.18-30.374 2.765zm81.213-7.429l26.192-2.384.654 7.18-26.192 2.384z" fill="#a39382"/><path d="M132.3 98.3l45-4.1" fill="#857363"/><path d="M132.266 98.123l45.014-4.097.037.409-45.014 4.096zm-23.421 93.735l47.603-4.332.057.618-47.604 4.332zm59.059-5.424l49.296-4.487.056.618-49.296 4.486zm-67.438-78.087l58.657-5.338.479 5.258-58.658 5.339zm69.325-6.358l38.242-3.48.479 5.258-38.242 3.48zm-68.567 15.247l43.918-3.997.479 5.258-43.919 3.997zm48.519-4.479l38.242-3.48.479 5.258-38.242 3.48zm43.06-3.894l16.034-1.46.478 5.26-16.033 1.458zm-41.09 21.155l58.657-5.338.39 4.282-58.658 5.338zm-48.81 4.401l38.242-3.48.39 4.282-38.242 3.48zm62.936-13.046l43.918-3.997.39 4.282-43.919 3.997zm-42.744 3.952l38.242-3.48.39 4.282-38.242 3.48zm-20.951 1.883l16.034-1.46.39 4.283-16.034 1.459zm41.806 16.462l67.521-6.145.317 3.486-67.52 6.145zm-39.756 3.677l31.072-2.828.317 3.485-31.072 2.828zm51.21-10.597l35.753-3.253.317 3.486-35.752 3.253zm-34.748 3.14l31.071-2.827.318 3.485-31.072 2.828zm-17.022 1.523l13.046-1.187.317 3.485-13.046 1.187zm90.766-8.286l16.531-1.504.317 3.485-16.532 1.505zm-37.859 16.953l52.583-4.784.653 7.18-52.582 4.785z" fill="#a39382"/><path d="M106.7 161.8l45.9-4.1" fill="#4d4d4d"/><path d="M106.726 161.682l45.91-4.178.038.408-45.91 4.178z" fill="#a39382"/><path d="M110.9 73l-1.7-18.9 4.1-.4 1.5 16.1 9.6-.9.3 2.8zm15.9-1.4l-1.7-18.9 13-1.2.3 2.9-8.9.8.4 4.8 7.5-.7.2 2.7-7.5.7.5 5.7 9.3-.8.3 2.9zm28.6-2.6l-1.7-4.2-6.9.6-1 4.4-4 .4 4.7-19.5 5.1-.5 8 18.3zm-4.6-11.7l-1.5-4h-.1l-.8 4.3-1 5 5.2-.5zm22.2-8l-.8 2.8a13.4 13.4 0 0 0-5.2-.5c-1.7.2-2.7 1.1-2.6 2.7s2 1.8 4 2.1 6.5.9 6.9 5.4-2.2 5.9-7.4 6.4a16.2 16.2 0 0 1-7-.9l.8-3a16.6 16.6 0 0 0 6.3.7c2.2-.2 3.3-1 3.2-2.8s-1.5-1.9-3.3-2.3c-3.8-.6-7.2-1.1-7.5-5s1.9-6 6.7-6.4a12.8 12.8 0 0 1 5.9.8zm6 17.5l-1.7-18.9 13-1.2.3 2.9-8.9.8.4 4.8 7.5-.7.2 2.7-7.5.7.5 5.7 9.3-.8.3 2.9z" fill="#4c7d96"/><path d="M221.5 190.1L104 200.8 90.2 48.7l131.3 141.4z" fill="#f4f2ed" opacity=".6" style="mix-blend-mode:multiply"/><g clip-path="url(#a)"><use opacity=".16" transform="matrix(.09 0 0 .09 17.91 4.68)" xlink:href="#a"/><path d="M16.957 2.936l204.156-18.58 24.041 264.169-204.156 18.58z" fill="#ebe7dd"/><path d="M65.7 221.2a70.4 70.4 0 0 0-5 8.7c-1.7 3.4-3.4 7.2-3.5 11.1s2.2 4.6 5.1 4 3.3-2.1 4.4-3.5 3.6-4.6 6.6-5l-.5-.5c-.4 3.4.5 6.6 4.1 7.7s8.2.1 12-.6a76 76 0 0 1 17-1.3c8.1.3 16.1 1.2 24.1-.2.6-.1.5-1-.1-.9-12.9 2.2-25.9-1.3-38.8 1-3.7.7-7.5 1.5-11.3 1.5a7.8 7.8 0 0 1-4.7-1.4c-1.7-1.3-1.7-3.7-1.5-5.6a.5.5 0 0 0-.5-.5c-4.4.6-6.2 4.8-9.2 7.4-1.3 1.1-3.4 1.7-4.9.8s-1.2-2.5-1-3.8c.4-3.6 2.1-7.1 3.7-10.3a66.1 66.1 0 0 1 4.5-7.9c.3-.5-.4-1.1-.7-.6zm91.7 15.1c9.7-2.8 28.5-13.5 17.4-25.1h-.4c-1.7.6-3.6 1.5-4.1 3.4s.7 3.4 1.6 4.6c2.8 3.9 7.2 6.9 9 11.5s-4.1 7.4-7.9 6.8c-2.2-.4-7.3-3-5.2-5.9s4.4-2.1 6.4-2.3a38.7 38.7 0 0 1 9.1.4c5.3.8 10.6 2 16 2.5s10.5.7 15-1.7 6-7.7 5.6-12.8c-.2-2.8-2.8-8.9-6.5-6.4s-4 6.6-1.8 9.1 6 2.5 8.9 2.6a45.7 45.7 0 0 0 10.2-.9c.6-.1.5-1-.1-.9-4.8 1-10.1 1.5-14.8.4-2.3-.5-4.6-1.9-4.3-4.6s1.3-4.3 3-5.2 3.6 2.3 4.1 3.6c2.1 5.5 0 12.4-5.6 14.8s-11.2 1.5-16.5.8-10-1.9-15-2.5a33.1 33.1 0 0 0-9.7.2c-1.7.3-3.6.9-4.6 2.4s.9 5.1 2.9 6.3a8.9 8.9 0 0 0 10.1-1c3.6-3.2 1.5-7.1-1-10.2s-3.4-3.8-5.1-5.7-3-3.3-2.9-5.3a2.9 2.9 0 0 1 1.5-2.1 8.3 8.3 0 0 1 1.8-.9c.4-.1 1.7 2.1 1.9 2.4a8.2 8.2 0 0 1-.2 8.6c-3.2 5.5-9.9 8.9-15.6 11.2l-3.4 1.2c-.6.2-.2 1 .3.8z" fill="#4d4d4d"/><path d="M30.457 59.169L97.68 53.05l1.133 12.458-67.222 6.118z" fill="#a39382"/><path d="M103.4 64.2l78.7-7.1" fill="#4d4d4d"/><path d="M103.44 63.89l78.675-7.16.065.717-78.675 7.16zM32.741 82.76l52.682-4.794 1.134 12.459-52.682 4.794zm141.087-12.836l45.511-4.142 1.134 12.458-45.512 4.142z" fill="#a39382"/><path d="M90.2 89.2l78.2-7.1" fill="#857363"/><path d="M90.16 88.892l78.177-7.115.066.717-78.177 7.115zm-40.595 162.81l82.757-7.531.098 1.075-82.758 7.532zm102.317-9.442l85.646-7.794.098 1.076-85.646 7.794zM34.891 106.6l101.879-9.272.832 9.142-101.879 9.272zm120.362-10.974l66.326-6.037.832 9.143-66.326 6.036zM36.39 121.995l76.284-6.942.832 9.142-76.285 6.942zm84-7.692l66.327-6.037.832 9.143-66.326 6.036zm74.93-6.777l27.785-2.529.832 9.143-27.785 2.528zm-71.378 36.752l101.879-9.272.677 7.44-101.88 9.271zm-84.709 7.638l66.326-6.036.677 7.44-66.326 6.036zM148.3 129.423l76.284-6.943.677 7.44-76.284 6.942zm-74.243 6.695l66.326-6.036.677 7.44-66.326 6.035zm-36.197 3.261l27.785-2.53.677 7.44-27.785 2.529zm72.622 28.537l117.315-10.677.55 6.045-117.315 10.677zM41.5 174.314l53.976-4.913.55 6.045-53.977 4.913zm88.839-18.372l62.043-5.646.55 6.045-62.043 5.646zm-60.426 5.451l53.977-4.913.55 6.045-53.977 4.913zm-29.407 2.647l22.606-2.057.55 6.045-22.606 2.057zm157.628-14.323l28.681-2.61.55 6.045-28.681 2.61zm-65.729 29.327l91.323-8.31 1.133 12.458-91.322 8.31z" fill="#a39382"/><path d="M45.8 199.5l79.8-7.2" fill="#4d4d4d"/><path d="M45.731 199.163l79.77-7.26.066.717-79.77 7.26z" fill="#a39382"/><path d="M53.1 45.2l-3-32.9 7.1-.6 2.5 28 16.7-1.5.4 4.9zm27.7-2.5l-3-32.9 22.7-2.1.5 5-15.7 1.4.8 8.4 13.1-1.2.4 4.7-13.1 1.2.9 9.8 16.2-1.5.5 5zm49.5-4.5l-3-7.3-12 1.1-1.7 7.7-7 .6 8.2-33.9 8.9-.8 13.8 31.9zm-8.1-20.4l-2.6-7h-.2l-1.3 7.5-1.7 8.6 9-.8zM160.9 4l-1.4 4.9a23.3 23.3 0 0 0-9-.8c-3 .3-4.7 1.9-4.4 4.6s3.5 3.1 6.9 3.6 11.2 1.5 11.9 9.3c.6 6.2-3.7 10.2-12.9 11.1a28.1 28.1 0 0 1-12.2-1.5l1.4-5.1a28.8 28.8 0 0 0 10.9 1.2c3.9-.4 5.8-1.7 5.5-4.9s-2.5-3.4-5.8-4c-6.6-1-12.4-1.9-13-8.6S142 3.3 150.3 2.6A22.3 22.3 0 0 1 160.9 4zm10.4 30.5l-3-32.9 22.6-2.1.5 5-15.6 1.4.8 8.4 13.1-1.2.4 4.7L177 19l.9 9.8 16.2-1.5.5 5z" fill="#4c7d96"/><path d="M245.2 248.6L41.1 267.1 17 3l228.2 245.6z" data-name="shadow" fill="#f4f2ed" opacity=".6" style="mix-blend-mode:multiply"/><path d="M121.8 34.2h139.5v130.82H121.8z" fill="#fff" opacity=".5"/></g><path d="M34.8 74.9l-.5.3s-.3.2-.2.7 1.3 2.8 4.7 7.8 4.6 7.4 5.2 7.5a3.4 3.4 0 0 1 2 1.6 9.1 9.1 0 0 1 .7 2.3.7.7 0 0 1-1.2-.1c-.4-.6-6.8-9.1-9-12.8-.1.1-.4-.1-.5-.3s-2.9-4.8-2.9-5.6a2.2 2.2 0 0 1 .5-1.3l.6-.3h.3z" fill="#4d4d4d"/><path d="M34.5 75.1l-.5.3s-.3.2-.2.7 1.3 2.9 4.8 7.9 4.6 7.4 5.2 7.5a3.4 3.4 0 0 1 2 1.6 9.1 9.1 0 0 1 .7 2.3s-.8.4-1.2-.1-6.8-9.1-9-12.8c-.1.1-.4-.1-.5-.3s-2.9-4.8-2.9-5.6a2.2 2.2 0 0 1 .5-1.3l.6-.3h.3z" fill="#e5e5e5"/><path d="M34.2 74.7s8.3 13.4 14.1 21.6a53.9 53.9 0 0 1 5.4-3.7s-11.5-17.3-14.9-21c0 0-2.8-3.3-4.8-2s.2 5.1.2 5.1z" fill="#1a1a1a"/><path d="M33.9 74a10.8 10.8 0 0 1 2.1-1.7 10.8 10.8 0 0 1 2.3-1.3l.6.6a14.9 14.9 0 0 0-2.4 1.4 16.9 16.9 0 0 0-2.2 1.8zm37.7 54.2l6.9 7.4a2.8 2.8 0 0 0 1.4-1l-4.5-9a16 16 0 0 0-3.8 2.6z" fill="#cbcbcb"/><path d="M72.7 120.7l-3-4.5-13.3-19.3s-4.5 2.4-4.9 3.4l13.3 19.3 3.2 4.2 3.6 4.4a16 16 0 0 1 3.9-2.5v-.2z" fill="#1a1a1a"/><path d="M51.1 100.3l-2.7-4 2.6-1.9 2.8-1.8 2.7 4-2.8 1.8z" fill="#cbcbcb"/><path d="M51.1 100.3h.4l2.4-1.8 2.6-1.7v-.4l-2.8 1.8z" fill="#666"/><path d="M34.5 75.1l-.5.3s-.3.2-.2.7 1.3 2.9 4.8 7.9 4.6 7.4 5.2 7.5a3.4 3.4 0 0 1 2 1.6 9.1 9.1 0 0 1 .7 2.3s-.8.4-1.2-.1-6.8-9.1-9-12.8c-.1.1-.4-.1-.5-.3s-2.9-4.8-2.9-5.6a2.2 2.2 0 0 1 .5-1.3l.6-.3h.3z" fill="#cbcbcb"/><path d="M33 76.5s.1.8 3.4 6" fill="none" stroke="#666" stroke-miterlimit="10" stroke-width=".64"/><path d="M34.2 69.5c-1.4 1-.7 3.3-.2 4.5v.3l.2.4s8.3 13.4 14.1 21.6l1-.8c-10.8-16-14.4-23-15.1-26zm15.2 26l-1 .8 2.7 4h.4l13.3 19.3 3.2 4.2 3.6 4.4 6.9 7.4.8-.4a482.1 482.1 0 0 1-29.9-39.7z" opacity=".5" fill="#f1f1f1"/><path d="M52.4 93.4c6.7 9.8 16.2 23.7 27 41.8l.7-.6-4.5-9v-.2l-2.7-4.8-3-4.5-13.3-19.3v-.4l-2.7-4S42.5 75.2 39 71.4l-.2-.2c-.6-.7-2.9-3-4.6-1.8 2.2 1.7 7.3 8 18.2 24" opacity=".5" style="mix-blend-mode:multiply"/><path d="M80.3 136.1a6 6 0 0 0-.6-1.2l-.9.6a5.9 5.9 0 0 0 .9 1z" fill="#b2b2b2"/><path d="M79.7 136.5c.2.2.4.3.5.2s.1-.3 0-.6z" fill="#333"/><path d="M186.9 116.5a29.3 29.3 0 0 1-12.4-3l2.2-6a29.5 29.5 0 0 0 12 2.6c3.9 0 6.6-1.4 6.6-5.2s-2.4-4.2-6.1-5.3c-7.2-2-13.6-3.5-13.6-11.6 0-6.4 4.1-10.9 11.3-11.8v-6h4.8v6a24.6 24.6 0 0 1 9.7 2.6l-2.2 5.7a23.1 23.1 0 0 0-9.7-1.9c-3.5 0-5.7 1.7-5.7 5s3.6 4 7.4 5 12.3 3 12.3 12.3c0 6.6-4.7 10.8-11.9 11.6v6h-4.8z" fill="#768034"/><ellipse cx="235.1" cy="83.8" rx="1.1" ry="5.7" transform="rotate(-16.4 235.14 83.824)"/><path d="M227.6 82.4l1.8 6.3-6.1 1.7s.5-.6-.3-3.3-1.5-3-1.5-3z" fill="#989898"/><path d="M231.6 81.6l1.5 5.1-5 2.4s.3-.1-.6-3.2-1.3-3.1-1.3-3.1z" fill="#666" opacity=".5" style="mix-blend-mode:multiply"/><path d="M231.7 80.6l2.1 7.5-5.3 1.5s.4-.7-.5-3.8-1.6-3.6-1.6-3.6z" fill="#989898"/><path d="M235.6 80.1l1.9 6.6-4.7 1.7s.3-.2-.7-3.8-1.4-3.7-1.4-3.7z" fill="#666" opacity=".5" style="mix-blend-mode:multiply"/><path d="M235.8 78.9l2.4 8.3-4.9 1.4s.3-.7-.7-4.3-1.7-4.1-1.7-4.1z" fill="#989898"/><path d="M286.4 73.4l-50.3 14.5s.2-.4-.9-4.2-1.6-4.2-1.6-4.2l50.7-13.2s.9-1.6 2.3 2.8-.2 4.3-.2 4.3z" fill="#666" opacity=".5" style="mix-blend-mode:multiply"/><path d="M287.3 74.8l-50.6 14.6a23.4 23.4 0 0 0-1.1-5.9 17.3 17.3 0 0 0-2.1-5.2l50.6-14.6s1.6.8 3 5.2.2 5.9.2 5.9z" fill="#666"/><path d="M221.277 85.491l64.128-18.036.446 1.584-64.129 18.036z" fill="gray" opacity=".2" style="mix-blend-mode:screen"/><path d="M180.4 65.9a33.3 33.3 0 0 0-21.9 19.7 33.5 33.5 0 0 0-.5 19.9c5 17.6 22.9 27.9 40.1 23s27-23.1 22-40.7a33.5 33.5 0 0 0-10.9-16.7 33.3 33.3 0 0 0-28.8-5.2z" fill="url(#b)" opacity=".5"/><path d="M198.8 130.1c-18.3 5.2-37.4-5.8-42.7-24.6a35.6 35.6 0 0 1 .7-21.2 35.5 35.5 0 1 0 67.1 3.5 34.8 34.8 0 0 0-13.3-18.5A34.8 34.8 0 0 1 222 86.9c5.2 18.8-4.9 38-23.2 43.2z" fill="#666"/><path d="M156.5 84.8a35.7 35.7 0 0 0-.5 21.2c5.3 18.8 24.5 29.8 42.7 24.6s28.8-24.6 23.5-43.3a35.7 35.7 0 0 0-11.6-17.8 35.6 35.6 0 0 0-54.2 15.4zm52.8-13.6a33.5 33.5 0 0 1 10.9 16.7c5 17.6-4.9 35.8-22 40.7s-35.1-5.5-40.1-23a33.5 33.5 0 0 1 .5-19.9 33.4 33.4 0 0 1 50.8-14.4z" fill="#b2b2b2"/><path d="M197.8 127.7c-17 4.8-34.7-5.2-39.9-22.4l.2.8c5 17.6 22.9 27.9 40.1 23s27-23.1 22-40.7l-.2-.8c4.6 17.4-5.2 35.2-22.2 40.1z" fill="#e5e5e5"/><path d="M158 84.6a33.5 33.5 0 0 0-.5 19.9l.2.6a33.5 33.5 0 0 1 .7-19.1 33.4 33.4 0 0 1 50.8-14.4 33.5 33.5 0 0 1 10.6 15.9l-.2-.6a33.5 33.5 0 0 0-10.9-16.7A33.4 33.4 0 0 0 158 84.6z" fill="#666"/></g></svg>