<svg xmlns="http://www.w3.org/2000/svg" viewBox="0 0 319 363" width="319" height="363"><path fill="#8c9a3f" d="M-.05 0h319v182h-319z"/><path fill="#768034" d="M0 182h319v181H0z"/><path fill="#73a0a1" d="M47.35 153.192l8.787-112.156L280.48 58.613l-8.788 112.156z"/><path d="M204.23 109c-2.11 28.23-22.07 49.71-44.34 48s-38.54-26.06-36.32-54.29S145.65 53 167.91 54.66 206.45 80.8 204.23 109" fill="#94bdc1"/><path d="M164.93 146.64l-7.24-.49.63-9.71a35.52 35.52 0 0 1-16.13-5.76l3.89-9.4c7.28 4 11.15 4.65 14.49 4.86 6.67.44 9.9-2.11 10.22-6.88.84-12.54-26.1-9.9-24.77-29.56.57-8.89 6-16.28 16.53-17.19l.59-8.87 7.24.49-.57 8.57a37.71 37.71 0 0 1 13.09 4.22l-3.46 9.21A29.27 29.27 0 0 0 168 82.78c-5.24-.36-8.87 1.31-9.21 6.1-.76 11.23 26.75 8.62 25.34 30-.63 9.33-6.76 16.89-18.48 17.72l-.68 10" fill="#73a0a1"/><path d="M154.89 165.84a34.74 34.74 0 1 1-13.29-27.35 34.74 34.74 0 0 1 13.29 27.35z" fill="#f9f7f4"/><path d="M149.21 165.84A29.06 29.06 0 1 1 138.1 143a29.06 29.06 0 0 1 11.11 22.84z" fill="#f9f7f4"/><path d="M140 165.84a19.85 19.85 0 1 1-7.59-15.62 19.85 19.85 0 0 1 7.59 15.62z" fill="#f9f7f4"/><path fill="#768034" d="M120.16 145.99l-1.14 1.06v16.32L99.63 146.6l-1.55.16.07 1.56 21.27 18.38 1.86-.86v-18.79l-1.12-1.06z"/><path d="M119.22 168L97 148.85l-.13-3.11 3.09-.32 17.89 15.46v-14.31l2.27-2.12 2.27 2.12v20zm.93-20.48" fill="#768034"/><g><path d="M99.23 91.59a34.74 34.74 0 1 1-13.29-27.35 34.74 34.74 0 0 1 13.29 27.35z" fill="#f9f7f4"/><path d="M93.55 91.59a29.06 29.06 0 1 1-11.12-22.86 29.06 29.06 0 0 1 11.12 22.86z" fill="#f9f7f4"/><path d="M84.35 91.59A19.85 19.85 0 1 1 76.75 76a19.85 19.85 0 0 1 7.6 15.59z" fill="#f9f7f4"/><path fill="#bc3845" d="M82.43 68.72l-1.54.15-15.27 19.45V72.81l-1.13-1.06-1.12 1.06v18.78l2.01.71 17.29-22.03-.24-1.55z"/><path fill="#bc3845" d="M65.78 93.63l-3.56-1.22v-20.1l2.27-2.12 2.27 2.12v12.73l13.53-17.25 3.11-.29.46 3.08-18.08 23.05z"/></g><g><path d="M290 69.18a34.74 34.74 0 1 1-13.29-27.35A34.74 34.74 0 0 1 290 69.18z" fill="#f9f7f4"/><path d="M284.32 69.18a29.06 29.06 0 1 1-11.12-22.87 29.06 29.06 0 0 1 11.12 22.87z" fill="#f9f7f4"/><path fill="#376479" d="M264.77 98.09l-2.81-1.32-8.88-27.06-.08-.54V49.88l2.26-2.12 2.27 2.12v18.93l8.74 26.56-1.5 2.72z"/></g></svg>