<svg xmlns="http://www.w3.org/2000/svg" viewBox="0 0 397 360" width="397" height="360"><defs><clipPath id="a"><path fill="none" d="M-39-540.5h397v360H-39z"/></clipPath></defs><g clip-path="url(#a)"><path d="M208.8-259s24.1 64.1-20.7 278.9l-17.3 4.2-2.4-239.1zM113.5-262.6S82.7-148.6 117 5.1l21.7 8.3-8.9-114.8s16.8-61 25.2-117z" fill="#414d62"/><path d="M114.4-118.3c11.9-33.6-13.8-64.4 6.7-102.5 15.8-29.2 34.4-24.9 52.3-20.6 13.5 3.3 26.5 6.5 37.5-4.5-.4-2.2-.7-4.2-1.1-5.8v-1.6h-.5a51.7 51.7 0 0 0-1.6-5.8l-5.3 5.8h-81l-8.8-9.5s-.9 3.3-2.2 9.5h-.6a12.5 12.5 0 0 0 .1 2.4c-6.7 33.2-21.7 131.6 6.2 256l21.7 8.3L136.7-2c-12.1-25.4-34.2-79.9-22.3-116.3" fill="#2c3341"/></g><path fill="#ebe5dc" d="M0 0h397v182H0z"/><path fill="#d0c8bf" d="M0 182h397v178H0z"/><path d="M218.8 140.3c-6-2.8-4.7-9.5-4.6-14 .1-3-3.1-4-5.3-4.2a102.3 102.3 0 0 0-.3 28.9l-.5 6.7h15.7c3.8-8.7 1.1-14.7-5-17.4zM234.5 112.5s-9.3 4-17.9 2.6 17.9-2.6 17.9-2.6z" fill="#497c7e"/><path d="M210.4 114.6a98.3 98.3 0 0 0-1.8 36.3l-.9 12.6a65.6 65.6 0 0 0 29.3 2.9c17-2 29.7 3.6 53.3 2.4s28.3-9.8 28.3-9.8 1.1-15.5-13.3-17.9-37.8-10.6-45.6-20.2a123.9 123.9 0 0 0-16.3-17.2c-8.4-6.9-9.9 6.4-9.9 6.4a78 78 0 0 1-15.1 1.8c-6.9.1-7.5.8-8 2.7z" fill="#63a0a0"/><path d="M272.8 144.1a54.5 54.5 0 0 0 37.8-1.3 16.8 16.8 0 0 0-5.3-1.8 113.4 113.4 0 0 1-15.4-3.8c1.3 3.5-17.1 6.9-17.1 6.9z" fill="#568d8e"/><path d="M278.5 141.3c.4-6.3-5.3-7.8-10.7-9.8s-10.8-7.1-15.3-14.2-11.9-2.8-21.9 0c-6.9 2-16 1.2-21 .6a101.3 101.3 0 0 0-1.9 22.4c19.9 6.8 49.4 11.2 59 12.4s11.5-5.1 11.8-11.4z" fill="#568d8e"/><path d="M278.1 145.5a33.4 33.4 0 0 0 .5-4.2c.4-6.3-5.3-7.8-10.7-9.8s-10.8-7.1-15.3-14.2c-3.3-5.2-8.2-4.3-14.5-2.3 3.6 5.7 17.5 25.8 40 30.5z" fill="#497c7e"/><circle cx="248.5" cy="120.1" r="1.8" fill="#404041"/><circle cx="253.1" cy="126.2" r="1.8" fill="#404041"/><circle cx="259.2" cy="131.4" r="1.8" fill="#404041"/><circle cx="265.6" cy="135.4" r="1.8" fill="#404041"/><circle cx="272.3" cy="138.5" r="1.8" fill="#404041"/><path d="M249 123.2a3.3 3.3 0 0 1-1.2-6.3c1.6-.6 3.7-2 4-2.8a3.3 3.3 0 1 1 6.2 2c-1.4 4.2-6.8 6.5-7.8 6.9z" fill="#c9a863"/><path d="M253.8 129.2a3.3 3.3 0 0 1-1.4-6.3 11.1 11.1 0 0 0 4-2.8 3.3 3.3 0 0 1 6.4 1.4c-.8 4.1-6.1 6.7-7.8 7.5zm2.7-9" fill="#c9a863"/><path d="M259.7 134.2a3.3 3.3 0 0 1-1.4-6.2 12.6 12.6 0 0 0 3.9-2.7 3.3 3.3 0 0 1 6.5 1.1c-.5 3.8-5.4 6.5-7.5 7.5a3.3 3.3 0 0 1-1.5.3zm2.4-8.7" fill="#c9a863"/><path d="M266.5 138a3.3 3.3 0 0 1-1.7-6.1 11.5 11.5 0 0 0 3.5-3.1 3.3 3.3 0 0 1 3.9-2.4 3.3 3.3 0 0 1 2.4 4c-.8 3.4-5.1 6.3-6.5 7.1a3.3 3.3 0 0 1-1.6.5z" fill="#c9a863"/><path d="M272.8 141a3.3 3.3 0 0 1-2.2-5.7 10.9 10.9 0 0 0 2.8-3.5 3.3 3.3 0 0 1 6.5.7c-.4 3.4-3.9 6.7-4.9 7.7a3.3 3.3 0 0 1-2.2.8z" fill="#c9a863"/><path d="M316.6 149c-7.7 9.3-35.7 9.9-49.8 9s-29.5-3-46-2.6a18.3 18.3 0 0 1-12.3-4l-.8 12.1a65.6 65.6 0 0 0 29.3 2.9c17-2 29.7 3.6 53.3 2.4s28.3-9.8 28.3-9.8a21.3 21.3 0 0 0-2-10z" fill="#d0d2d3"/><path d="M327.3 75.7a85 85 0 0 0-18 14.7 103 103 0 0 0-15.2 19.6l-1.1-2.5q-3.3-7.4-5.9-7.4t-6.9 4.1a8.7 8.7 0 0 1 4 3.2 35.7 35.7 0 0 1 3.9 7.3l1 2.3a57.4 57.4 0 0 1 2 5.5 43.7 43.7 0 0 1 4.3-3.4l2.6-1.8A121.5 121.5 0 0 1 311.8 95q9.1-11.9 16.6-17.6z" fill="#6c9e79"/><path d="M68.9 68.8a219.4 219.4 0 0 1 21.6-6.7 108.9 108.9 0 0 1 22.3-2.4c7 0 17.9 4 19.1 4.9a2.8 2.8 0 0 1 .1 3.9h-.1c-1.2.9-4.5 1.4-7.9-.9s-7.5-5.2-11.3-5.2-11.5 5.4-15 5.8A32.8 32.8 0 0 0 85 71.8H72.7z" fill="#d8b56c"/><path d="M68.9 68.8l3.9 3h12.1a28.6 28.6 0 0 1 7.3-2.6l-13.6-3.7z" fill="#d8b56c"/><path d="M68.9 68.8s-1 4.3 1.7 5.6.4 15.9 14 21.5 16.5-8.5 16.5-8.5a31.2 31.2 0 0 0 1-5.4 6.1 6.1 0 0 1 4.1 3.6c1.5 3.1 6.1 15.7 17.9 18.1s14.4 1.7 18.3-.1c6.5-2.9 5.1-17.3 5.1-17.3h2.4l3.5-2v-6.4l-1.4-.7a76.1 76.1 0 0 1-12.2-.5 117.4 117.4 0 0 0-30.4-1.4c-9.3 1-15.8-4.2-24-5.5a95.7 95.7 0 0 0-16.5-1z" fill="#73b0b1"/><path d="M151.9 77.2l16-6.5a106.8 106.8 0 0 1 16.6-4.6c2-.1 2.4 3.9 2.4 5.2s-.8 4.9-1.5 4.9-.5-6.6-1.5-6.5-1.5 0-2.6 2.5-2.4 4.5-7.2 5.8-20.6 6.1-20.6 6.1v-6.2z" fill="#d8b56c"/><path d="M110.3 79.7s2.2-2.4 8.5-2 17.3.5 21.8 4.6 4.1 10.8 3.8 13-1.7 7.1-7.7 7.2-16.4-1-20.8-6.2-9.5-13.5-5.6-16.6zM96.9 79.8a17.7 17.7 0 0 1 .6 8.9c-1 4.6-3.5 6.8-8.8 6.4s-10.8-5.6-12.9-11-2.4-9.1-1.6-11.6 9.4-.8 9.4-.8 11 1.5 13.3 8.1z" fill="#404041"/><path d="M167.9 70.7c-4.7 1.8-16 6.5-16 6.5l1.4.7a180.2 180.2 0 0 1 26.4-10.8 123 123 0 0 0-11.8 3.6z" fill="#d8b56c"/><path d="M102 81.6c-2.3 0-.3 4.1-2.6 9.8a16.1 16.1 0 0 0 1.6-4.2 31.2 31.2 0 0 0 1-5.4 5.4 5.4 0 0 1 2.8 1.6 3.8 3.8 0 0 0-2.8-1.8z" fill="#4d9799"/><path d="M169.1 81.6a24.2 24.2 0 1 1 24.3-24.2 24.3 24.3 0 0 1-24.3 24.2zm0-45.7a21.5 21.5 0 1 0 21.5 21.5 21.5 21.5 0 0 0-21.5-21.5z" fill="#bc3845"/><path fill="#bc3845" d="M155.978 46.173l1.91-1.909 24.402 24.402-1.91 1.91z"/><path fill="#bc3845" d="M155.978 68.66l24.395-24.396 1.938 1.937-24.395 24.396z"/><path data-name="Shape 2 copy" d="M111.3 161.5l-2.3-3.2 9.8-7 2.3 3.2zm19.4-13.8l-2.3-3.2 9.8-7 2.3 3.3zm19.4-13.8l-2.3-3.2 9.8-7 2.3 3.2zm19.4-13.8l-2.3-3.2 9.8-7 2.3 3.2zm19.4-13.8l-2.3-3.2 9.8-7 2.3 3.2zm19.4-13.8l-2.3-3.2 9.8-7 2.3 3.2zm19.4-13.8l-2.3-3.2 9.8-7 2.3 3.2zm19.4-13.8l-2.3-3.2 9.8-7 2.3 3.2zM266.6 51l-2.3-3.3 9.8-7 2.3 3.3zM286 37.2l-2.2-3.2 9.8-7 2.3 3.2z" fill="#a29281"/></svg>