<svg xmlns="http://www.w3.org/2000/svg" viewBox="0 0 319 363" width="319" height="363"><path fill="#ebe5dc" d="M-.05 0h319v182h-319z"/><path fill="#d0c8bf" d="M0 182h319v181H0z"/><path d="M177.85 139.27c-6-2.8-4.74-9.45-4.56-14 .13-3-3.13-4-5.33-4.21a102.27 102.27 0 0 0-.32 28.89l-.53 6.72h15.66c3.89-8.67 1.17-14.67-4.92-17.4zM193.54 111.45s-9.34 4-17.88 2.57 17.88-2.57 17.88-2.57z" fill="#497c7e"/><path d="M169.45 113.6a98.29 98.29 0 0 0-1.82 36.31l-.87 12.62a65.57 65.57 0 0 0 29.34 2.92c17-2 29.73 3.65 53.29 2.37s28.27-9.82 28.27-9.82 1.09-15.51-13.32-17.88-37.76-10.59-45.6-20.25a123.85 123.85 0 0 0-16.25-17.16c-8.41-6.93-9.9 6.38-9.9 6.38a78 78 0 0 1-15.09 1.82c-6.97.09-7.58.77-8.05 2.69z" fill="#63a0a0"/><path d="M231.87 143.09a54.51 54.51 0 0 0 37.75-1.29 16.83 16.83 0 0 0-5.3-1.75 113.35 113.35 0 0 1-15.43-3.81c1.32 3.43-17.02 6.85-17.02 6.85z" fill="#568d8e"/><path d="M237.59 140.31c.41-6.3-5.34-7.8-10.67-9.82s-10.81-7.11-15.33-14.23-11.91-2.8-21.89 0c-6.86 2-16 1.23-21 .59a101.26 101.26 0 0 0-1.91 22.44c19.86 6.82 49.36 11.22 59 12.42 10.3 1.19 11.44-5.1 11.8-11.4z" fill="#568d8e"/><path d="M237.11 144.5a33.39 33.39 0 0 0 .48-4.21c.41-6.3-5.34-7.8-10.67-9.82s-10.81-7.11-15.33-14.23c-3.32-5.23-8.2-4.32-14.53-2.33 3.64 5.79 17.62 25.91 40.05 30.59z" fill="#497c7e"/><circle cx="207.5" cy="119.11" r="1.78" fill="#404041"/><circle cx="212.13" cy="125.25" r="1.78" fill="#404041"/><circle cx="218.27" cy="130.44" r="1.78" fill="#404041"/><circle cx="224.68" cy="134.43" r="1.78" fill="#404041"/><circle cx="231.37" cy="137.49" r="1.78" fill="#404041"/><path d="M208 122.16a3.27 3.27 0 0 1-1.19-6.31c1.63-.65 3.73-2 4-2.8a3.27 3.27 0 1 1 6.21 2c-1.4 4.21-6.77 6.51-7.84 6.91a3.25 3.25 0 0 1-1.18.2z" fill="#c9a863"/><path d="M212.84 128.18a3.27 3.27 0 0 1-1.4-6.25 11.05 11.05 0 0 0 4-2.8 3.27 3.27 0 0 1 6.39 1.4c-.81 4.08-6.14 6.75-7.75 7.46a3.25 3.25 0 0 1-1.24.19zm2.66-9" fill="#c9a863"/><path d="M218.72 133.19a3.27 3.27 0 0 1-1.4-6.23 12.62 12.62 0 0 0 3.88-2.72 3.27 3.27 0 0 1 6.45 1.09c-.52 3.81-5.44 6.53-7.53 7.53a3.25 3.25 0 0 1-1.4.33zm2.44-8.72" fill="#c9a863"/><path d="M225.56 137a3.27 3.27 0 0 1-1.72-6.06 11.54 11.54 0 0 0 3.53-3.13 3.25 3.25 0 0 1 3.94-2.37 3.3 3.3 0 0 1 2.4 4c-.84 3.44-5.15 6.31-6.45 7.1a3.25 3.25 0 0 1-1.7.46z" fill="#c9a863"/><path d="M231.87 140a3.27 3.27 0 0 1-2.17-5.72 10.87 10.87 0 0 0 2.8-3.48 3.27 3.27 0 0 1 6.51.72c-.35 3.38-3.86 6.72-4.92 7.67a3.25 3.25 0 0 1-2.22.81z" fill="#c9a863"/><path d="M275.59 148c-7.67 9.33-35.75 9.9-49.77 9-14.5-1-29.55-3-46-2.59a18.33 18.33 0 0 1-12.26-4l-.84 12.09a65.57 65.57 0 0 0 29.34 2.92c17-2 29.73 3.65 53.29 2.37s28.27-9.82 28.27-9.82a21.27 21.27 0 0 0-2.03-9.97z" fill="#d0d2d3"/><path d="M286.31 74.65a85 85 0 0 0-18 14.67A103 103 0 0 0 253.16 109l-1.08-2.48q-3.28-7.42-5.95-7.42-3.14 0-6.9 4.05a8.69 8.69 0 0 1 4 3.17 35.73 35.73 0 0 1 3.88 7.35l1 2.31a57.4 57.4 0 0 1 2 5.47 43.71 43.71 0 0 1 4.35-3.38l2.58-1.78A121.52 121.52 0 0 1 270.88 94q9.12-11.86 16.58-17.59z" fill="#6c9e79"/><g><path d="M27.9 67.81a219.36 219.36 0 0 1 21.61-6.65 108.93 108.93 0 0 1 22.26-2.37c7 0 17.88 4 19.1 4.94a2.78 2.78 0 0 1 .13 3.93l-.13.13c-1.22.95-4.47 1.39-7.86-.89s-7.46-5.22-11.31-5.22-11.45 5.41-15 5.76A32.84 32.84 0 0 0 44 70.83H31.76z" fill="#d8b56c"/><path d="M27.9 67.81l3.85 3h12.2a28.65 28.65 0 0 1 7.29-2.6l-13.61-3.74c-5.26 1.71-9.73 3.34-9.73 3.34z" fill="#d8b56c"/><path d="M27.9 67.81s-1 4.27 1.73 5.57.4 15.88 14 21.45 16.48-8.53 16.48-8.53a31.25 31.25 0 0 0 1-5.38 6.08 6.08 0 0 1 4.06 3.56c1.53 3.14 6.11 15.72 17.88 18.09 10.87 2.18 14.44 1.66 18.3-.1 6.46-2.95 5.08-17.28 5.08-17.28h2.43l3.45-2v-6.24l-1.39-.71a76.12 76.12 0 0 1-12.19-.51 117.44 117.44 0 0 0-30.39-1.39c-9.25 1-15.85-4.17-24-5.48a95.7 95.7 0 0 0-16.44-1.05z" fill="#73b0b1"/><path d="M110.91 76.24s11.28-4.67 16-6.5a106.8 106.8 0 0 1 16.56-4.62c2-.14 2.37 3.87 2.37 5.22s-.81 4.94-1.49 4.94-.47-6.57-1.49-6.5c0 0-1.49 0-2.64 2.5S137.79 75.75 133 77s-20.63 6.09-20.63 6.09v-6.14z" fill="#d8b56c"/><path d="M69.37 78.67s2.2-2.39 8.49-2 17.27.49 21.76 4.59 4.09 10.78 3.8 13-1.67 7.08-7.69 7.25-16.42-1-20.76-6.19-9.5-13.54-5.6-16.65zM55.94 78.78a17.68 17.68 0 0 1 .61 8.95c-1 4.56-3.51 6.82-8.84 6.39s-10.77-5.57-12.9-11-2.33-9.12-1.52-11.57 9.45-.75 9.45-.75 10.86 1.38 13.2 7.98z" fill="#404041"/><path d="M126.94 69.74c-4.74 1.82-16 6.5-16 6.5l1.39.71a180.22 180.22 0 0 1 26.44-10.82 123 123 0 0 0-11.83 3.61z" fill="#d8b56c"/><path d="M61.07 80.64c-2.3 0-.31 4.08-2.59 9.81a16.13 16.13 0 0 0 1.63-4.17 31.25 31.25 0 0 0 1-5.38 5.43 5.43 0 0 1 2.78 1.64 3.78 3.78 0 0 0-2.82-1.9z" fill="#4d9799"/><path d="M128.18 80.64a24.24 24.24 0 1 1 24.25-24.22 24.27 24.27 0 0 1-24.25 24.22zm0-45.73a21.5 21.5 0 1 0 21.51 21.54 21.5 21.5 0 0 0-21.51-21.55z" fill="#bc3845"/><path fill="#bc3845" d="M115.02 45.2l1.937-1.938 24.402 24.402-1.937 1.937z"/><path fill="#bc3845" d="M115.027 67.674l24.402-24.402 1.938 1.937-24.403 24.402z"/></g><path data-name="Shape 2 copy" d="M70.3 160.55l-2.3-3.24 9.78-7 2.3 3.24zm19.4-13.82l-2.29-3.23 9.78-7 2.29 3.27zm19.44-13.82l-2.3-3.24 9.78-7 2.3 3.24zm19.43-13.82l-2.3-3.24 9.78-7 2.3 3.24zM148 105.27l-2.3-3.24 9.78-7 2.3 3.24zm19.43-13.82l-2.3-3.24 9.78-7 2.3 3.24zm19.42-13.82l-2.3-3.24 9.78-7 2.3 3.24zm19.42-13.83L204 60.56l9.78-7 2.3 3.24zM225.68 50l-2.33-3.28 9.78-7 2.29 3.27zm19.43-13.8L242.8 33l9.78-7 2.3 3.24z" fill="#a29281"/></svg>