<svg xmlns="http://www.w3.org/2000/svg" viewBox="0 0 319 363" width="319" height="363"><defs><clipPath id="a"><path fill="none" d="M0-507h319v363H0z"/></clipPath></defs><g clip-path="url(#a)"><path d="M199.8-228s21.7 57.7-18.6 251.2L165.6 27l-2.1-215.4zM114-231.3S86.2-128.5 117.2 9.9l19.5 7.5L128.6-86s15.1-55 22.7-105.4z" fill="#576682"/><path d="M114.8-101.3c10.7-30.3-12.4-58 6-92.3 14.2-26.3 31-22.4 47.2-18.6 12.1 2.9 23.9 5.9 33.8-4.1-.3-2-.7-3.8-1-5.2v-1.5h-.4a46.6 46.6 0 0 0-1.4-5.2l-4.8 5.2h-73l-8-8.6s-.8 3-2 8.6h-.6a11.3 11.3 0 0 0 .1 2.1c-6 29.9-19.5 118.6 5.6 230.6l19.7 7.7-1.1-13.9c-10.9-22.9-30.8-72-20.1-104.7" fill="#404f66"/></g><path fill="#6e83b7" d="M.1 0h319v182H.1z"/><path fill="#516999" d="M0 182h319v181H0z"/><path d="M278 161.4a81.9 81.9 0 1 1-50.9-104 81.9 81.9 0 0 1 50.9 104zM139.9 114a64.2 64.2 0 1 0 81.5-39.9 64.2 64.2 0 0 0-81.6 39.8z" fill="#a78800"/><path d="M196.1 180.8a81.9 81.9 0 1 1-50.9-104.1 81.9 81.9 0 0 1 50.9 104.1zM58 133.4a64.2 64.2 0 1 0 81.5-39.9A64.2 64.2 0 0 0 58 133.4z" fill="#dbca66"/><path d="M180.7 73.8a64.3 64.3 0 0 0-44.3 61.6h-17.8A82 82 0 0 1 175.2 57z" fill="#a78800"/><path fill="#f8fbff" d="M99.8 36.5l-13.5 3.8-2.7.8-16.4 4.7-6.3 21.4L96.1 85l20.4-33.8-16.7-14.7z"/><path fill="#bdc2c6" d="M76 62.8l7.6-21.7 17.8 14.4L76 62.8zM96.1 85L76 62.8l-15.1 4.4L96.1 85zM96.1 85l5.3-29.5 15.1-4.3L96.1 85z"/><path fill="#a5aaad" d="M76 62.8l-8.8-17-6.3 21.4L76 62.8zM101.4 55.5l-1.6-19 16.7 14.7-15.1 4.3z"/></svg>