<svg xmlns="http://www.w3.org/2000/svg" viewBox="0 0 319 363" width="319" height="363"><defs><clipPath id="a"><path fill="none" d="M0 0h319v363H0z"/></clipPath></defs><g clip-path="url(#a)"><path fill="#4d7d96" d="M-.05 0h319v182h-319z"/><path fill="#376479" d="M0 182h319v181H0z"/><path d="M143.8 143.77a15.45 15.45 0 1 0 14.32-16.49 15.45 15.45 0 0 0-14.32 16.49m15.28-5.86a4.48 4.48 0 1 1 4.79 4.14 4.47 4.47 0 0 1-4.79-4.14" fill="#bd9143"/><path d="M153.23 156.06l-25.63 28.67a10.2 10.2 0 0 0 2.1-.58l20.44-23.26c.57-.66 1.6 2.11 3 .55.93-1.07-.38-2.58-.32-3.3a1.92 1.92 0 0 1 1-1.22 9.37 9.37 0 0 0-.57-.85M124 177a1 1 0 0 0-.94.22.84.84 0 0 0-.06.91zM125.45 175.38c0-.89-.26-2 .12-2.43.57-.66 1.72-.16 2.18-.74.5-.58-.32-1.44.37-2.23.43-.49 1.66-.61 2.63-.74L128 172.4zM132.15 167.7l1.34-1.54a1.18 1.18 0 0 0-1.35 1.51M124 177.07l-1 1.15a2 2 0 0 0 .27.4l1.52-1.71a1.24 1.24 0 0 1-.78.17M128 172.46l-2.55 2.94a2.3 2.3 0 0 1-.16.94l6.41-7.23a6.39 6.39 0 0 1-.91.17zM132.18 167.68a5.62 5.62 0 0 1 0 .89l2.14-2.43a4.93 4.93 0 0 0-.79 0z" fill="#bd9143"/><path d="M152.7 155.59l-25.25 29.11a2.85 2.85 0 0 0 1.73-1l20.46-23.26c.57-.66 1.6 2.11 3 .55.93-1.07-.38-2.58-.32-3.3a1.92 1.92 0 0 1 1-1.22 9.21 9.21 0 0 0-.57-.85M140.54 150.35c-.91 1 .33 2.38.33 2.38l.14.14 2.1-2.42h-.08c-1.17-.59-2.07-.55-2.49 0M122.81 180.39s-.1-1.39.33-1.65l.1-.11 1.52-1.71a1.45 1.45 0 0 0 .31-.28 1.14 1.14 0 0 0 .17-.28l6.41-7.23a.51.51 0 0 0 .45-.52l2.14-2.43h.08l.58-.76L146.77 152a5.88 5.88 0 0 1 .74.15 9.62 9.62 0 0 1 2.58 1.12l-26.92 31.06a21.7 21.7 0 0 1-.36-3.9" fill="#bd9143"/><path d="M153.2 152.89l-27.84 32c.73 0 1.51-.11 2.1-.15h.22l26.61-30.56a9.78 9.78 0 0 0-1.09-1.23M151.57 151.63l-28.41 32.59a.84.84 0 0 0 .19.37 3.7 3.7 0 0 0 2 .21l27.84-32a10.06 10.06 0 0 0-1.62-1.22M136.16 163.16l12-14.11-1.72-1.51s-2.22 3.41-3.35 2.91l-2.1 2.42a1 1 0 0 1 .05 1.36c-.71.82-2.48 3-2.48 3a3.68 3.68 0 0 0-.44 1.32 5.7 5.7 0 0 1-.1 2c-.18.21-1.11 0-1.59.54a4.52 4.52 0 0 0-.37 2.15" fill="#bd9143"/><path d="M148.2 149.09l-12 14v.72l-1.26 1.65L146.8 152a5.94 5.94 0 0 1 .74.15l1.64-2.13z" fill="#bd9143"/><path d="M143.26 143.25a15.45 15.45 0 1 0 14.32-16.49 15.45 15.45 0 0 0-14.32 16.49m15.28-5.86a4.48 4.48 0 1 1 4.79 4.14 4.47 4.47 0 0 1-4.79-4.14" fill="#bd9143"/><path d="M164.25 130.22a13.23 13.23 0 1 1-6.55-1.22 13.19 13.19 0 0 1 6.56 1.21m.21-.43a13.66 13.66 0 1 0 7.82 11.41 13.7 13.7 0 0 0-7.82-11.41" fill="#e8d49b"/><path d="M174.87 135.45a15.45 15.45 0 1 0-6.24 20.92 15.45 15.45 0 0 0 6.24-20.92m-15.57 3.12a4.48 4.48 0 1 1 6.07 1.8 4.48 4.48 0 0 1-6.07-1.8" fill="#a4a1a5"/><path d="M164.82 162.65c-.43 1.34-2.19 1-2.19 1h-.19l.91-3.07h.07c1.11.67 1.58 1.44 1.39 2.07M154.25 153.1l-.63 2.14h-.49v-.18a9.46 9.46 0 0 0-1 0 1.92 1.92 0 0 1-.5 1.47c-.58.44-2.55.16-3 1.51s.7 1.47 1.46 1.67l.32.1c.23.09.36.21.3.42-.25.84-8.65 29.73-8.65 29.73a10.15 10.15 0 0 0 .63 2.08l.05.16c.28.52.64 1.22 1 1.85l12.05-40.62a9.83 9.83 0 0 0-1.54-.33zM164 156.11l-2.2-.65-1.32-.33-.91 2.53a4.17 4.17 0 0 1 .35.34c-.09-.09-.2-.21-.35-.34a9.56 9.56 0 0 0-2.31-1.58l-4.91 16.48 5.51-18.56a10 10 0 0 0-1.94-.7L143.84 194a3.69 3.69 0 0 0 1.27 1.56.84.84 0 0 0 .39 0 21.68 21.68 0 0 0 3.49-1.79s1.23-.67 1.21-1.2v-.15l.63-2.2a1.42 1.42 0 0 1 .06-.42 1.11 1.11 0 0 1 .14-.3l2.67-9.25a.69.69 0 0 1 0-.36.7.7 0 0 1 .22-.31l.9-3.11v-.08l.33-.9 5-17.2-5 17.19.72-1.94.54-.33a4.54 4.54 0 0 0 1.63-1.44c.2-.68-.46-1.34-.42-1.63a5.73 5.73 0 0 1 1.62-1.14 3.69 3.69 0 0 0 .88-1.07s.87-2.66 1.18-3.69a1 1 0 0 1 1.17-.7l.91-3.07c-1.06-.66.62-4.36.62-4.36z" fill="#d8d7d9"/><path d="M175.6 135.67a15.45 15.45 0 1 0-6.24 20.92 15.45 15.45 0 0 0 6.24-20.92m-15.6 3.11a4.48 4.48 0 1 1 6.07 1.8 4.48 4.48 0 0 1-6.07-1.8" fill="#d8d7d9"/><path d="M167.87 130.66l-.21.43a13.2 13.2 0 0 1-5.39 25.13 13.33 13.33 0 0 1-5.9-1.26 13.2 13.2 0 0 1 5.37-25.12 13.34 13.34 0 0 1 5.9 1.26l.21-.43m0 0a13.66 13.66 0 1 0 6.19 5.86 13.7 13.7 0 0 0-6.19-5.86" fill="#a4a1a5"/><path d="M171.2 132.23a12.24 12.24 0 1 0 3.62 16.91 12.22 12.22 0 0 0-3.63-16.9m-9.66 8.08a3.55 3.55 0 1 1 4.91-1.06 3.54 3.54 0 0 1-4.91 1.06M174.56 154.94c.24 1.1-1.1 1.55-1.1 1.55l-.15.05-.53-2.47h.06c1 0 1.64.41 1.75.91M175.82 179.77l.25 1.18a.64.64 0 0 0 .31-.66.78.78 0 0 0-.56-.52zM174.81 175.06l.67 3c.35-.65.94-1.28.84-1.74-.15-.67-1.14-.74-1.25-1.34-.13-.59.78-.87.6-1.69-.11-.5-.92-1.06-1.54-1.52zM175.33 179.37l.4 1.77a1.59 1.59 0 0 0 .33-.17l-.25-1.18a1 1 0 0 1-.48-.42z" fill="#e8d49b"/><path d="M175.22 179.06a.9.9 0 0 1 0-.26 1.81 1.81 0 0 1 .25-.71l-.65-3-.7-3.26a5 5 0 0 1-.57-.46.54.54 0 0 1-.16-.24.55.55 0 0 1 0-.3 4.64 4.64 0 0 1 .33-.62l-.34-1.57a3.84 3.84 0 0 0-.56-.3l-.11-.75-3.09-13.84a4.68 4.68 0 0 0-.57-.18 7.64 7.64 0 0 0-2.22-.21l2.84 13.2-3.2-14.84a7.92 7.92 0 0 0-1.61.25l7.08 32.8a2.94 2.94 0 0 0 1.48.6.67.67 0 0 0 .25-.17 17.28 17.28 0 0 0 1.78-2.58s.57-.92.38-1.3v-.11l-.4-1.77a1.17 1.17 0 0 1-.21-.38z" fill="#e8d49b"/><path d="M163.58 152.33l.37 1.72-.35.18v-.13a7.57 7.57 0 0 0-.75.39 1.52 1.52 0 0 1 .22 1.21c-.23.53-1.72 1.08-1.48 2.18s1.13.73 1.7.61h.11c.21-.07.41 0 .45.17.14.68 5.3 23.94 5.3 23.94a8 8 0 0 0 1.23 1.2l.11.08 1.41.9-7-32.84a7.82 7.82 0 0 0-1.32.39zM172.7 165.51l-3-14.41 1.78-.38s.21 3.21 1.22 3.29l.53 2.47a.76.76 0 0 0-.57.91c.17.83.58 3 .58 3a2.93 2.93 0 0 1-.2 1.08 4.5 4.5 0 0 0-.68 1.41c.07.21.78.41.89 1a3.58 3.58 0 0 1-.57 1.64" fill="#e8d49b"/><path d="M169.73 151.15l3 14.27c-.16.29-.28.49-.28.49l.24 1.63-3.09-13.84a4.68 4.68 0 0 0-.57-.18l-.32-2.1z" fill="#e8d49b"/><path d="M171.78 132.11a12.24 12.24 0 1 0 3.63 16.89 12.22 12.22 0 0 0-3.63-16.9m-9.66 8.08a3.55 3.55 0 1 1 4.91-1.06 3.55 3.55 0 0 1-4.91 1.06" fill="#e8d49b"/><path d="M169.77 132.57l-.16.35a10.61 10.61 0 0 1 1.23.68 10.46 10.46 0 0 1-10.14 18.25 10.61 10.61 0 0 1-1.23-.68 10.46 10.46 0 0 1 10.14-18.25l.16-.35m0 0a10.83 10.83 0 1 0 1.28.71 11.11 11.11 0 0 0-1.28-.71" fill="#e8d49b"/><path d="M176.41 139.26a18.83 18.83 0 0 1-9.92.6 23.08 23.08 0 0 1-4.63-1.61l1.18-2.52a20.4 20.4 0 0 0 4 1.4 16.06 16.06 0 1 0-11.22-22.57l-2.52-1.18a18.85 18.85 0 1 1 23.08 25.87z" fill="#a7a7a7"/><path d="M152.51 127.76a4.18 4.18 0 0 1-.24-.88 3.18 3.18 0 0 0-.12-.34 18.81 18.81 0 0 1 1.1-13.13l2.52 1.18a16 16 0 0 0-.94 11.19 5.86 5.86 0 0 1 .14.62 1.51 1.51 0 0 0 .12.36z" fill="#a7a7a7"/><path d="M174.81 138.51a18.83 18.83 0 0 1-9.91.59 20.63 20.63 0 0 1-4.35-1.48l1.18-2.52a17.67 17.67 0 0 0 3.74 1.27 16 16 0 1 0-12.2-11.37c.24.7.55 1.88.7 2.28l-2.6 1c-.23-.69-.78-2.51-.78-2.52a18.85 18.85 0 0 1 11.75-22.82l.32-.11a18.84 18.84 0 1 1 12.14 35.68z" fill="#bebebe"/><path d="M178.38 104.37c-.27-.13-.53-.24-.81-.35s-.53-.27-.79-.4a18.86 18.86 0 0 0-26.15 22.17s.52 1.83.78 2.52l2.6-1c-.13-.4-.54-1.59-.7-2.28a16 16 0 0 1 .94-11.19l1.6.76a15.16 15.16 0 1 1 9.65 21.8 17.68 17.68 0 0 1-3.74-1.27l-1.18 2.52c.43.21.89.39 1.35.57a23.13 23.13 0 0 0 4.63 1.61 18.84 18.84 0 0 0 11.81-35.5z" fill="#a7a7a7"/><path d="M235.61-6.82L115.76 27.53q-5.93 1.53-11.66 3.34l-.33.11a224.41 224.41 0 0 0-43.05 18.79h-.06a8.52 8.52 0 0 0-2 1.18A8.51 8.51 0 1 0 69 64.49l.29-.23A174.09 174.09 0 0 1 96.95 51c-13 11.14-22.87 24.35-28.41 37.72l-.1.23v.07a8.51 8.51 0 0 0 15.83 6.21l.07-.18C90.7 80.61 103 66.42 119 55.88c-17.14 17.39-29.63 37.18-37.14 56.88l-.15.37-.08.2a8.51 8.51 0 0 0 16 5.74 150.4 150.4 0 0 1 24.6-40 44 44 0 0 0 31.36 46 8.29 8.29 0 1 0 5.1-15.78l-.36-.11a27.56 27.56 0 1 1 16.67-.35 8.29 8.29 0 1 0 5.33 15.7 44.12 44.12 0 0 0 28.32-30C218.1 70.08 227 43.14 227 43.14l120.64-15.78L312.72-33 235.6-6.83z" fill="#f9f7f4"/><path d="M183.27 127.49a16 16 0 0 1-17.81 8.89 17.68 17.68 0 0 1-3.74-1.27l-1.18 2.52c.43.21.89.39 1.35.57a23.13 23.13 0 0 0 4.63 1.61 18.8 18.8 0 0 0 20.9-10.43M181.09 105.89a18.89 18.89 0 0 1 8.11 14.51l-4.55 2.66a16.08 16.08 0 0 0-6.58-15.47" fill="#a7a7a7"/></g></svg>