<svg xmlns="http://www.w3.org/2000/svg" viewBox="0 0 319 363" width="319" height="363"><defs><clipPath id="a"><path fill="none" d="M0 0h319v363H0z"/></clipPath></defs><g clip-path="url(#a)"><path fill="#4d7d96" d="M-.2 0h319v363H-.2z"/><path d="M58.6 40.6c0-7.4-6-11.4-15.3-11.4a78.3 78.3 0 0 0-26.4 4.6l-5.3-17.2a106.3 106.3 0 0 1 36.3-6.7c23.8 0 36.5 10.2 37.9 26.4 0 28.4-35.4 37.7-35.4 56.5 0 2.8.5 5.5.9 9.2l-20.6 1.1a93 93 0 0 1-1.4-13.6c0-13.6 7.9-21.1 19-31.2 7-5.9 10.3-10.7 10.3-17.7zm-15.8 96.3c-8.5 0-13.2-4.9-13.2-11.6s4.6-12.2 13.2-12.2S56 118.3 56 125.3s-4.8 11.6-13.2 11.6z" fill="#366278" style="isolation:isolate"/><path d="M290.9 188.1c0-3.7-3-5.7-7.6-5.7a38.7 38.7 0 0 0-13.1 2.3l-2.6-8.4a52.5 52.5 0 0 1 17.9-3.3c11.8 0 18 5 18.7 13.1 0 14-17.5 18.6-17.5 27.9 0 1.4.3 2.7.4 4.5l-10.1.5a46.1 46.1 0 0 1-.7-6.7c0-6.7 3.9-10.4 9.4-15.4 3.5-2.9 5.2-5.3 5.2-8.8zm-7.9 47.6c-4.2 0-6.5-2.4-6.5-5.7s2.3-6 6.5-6 6.5 2.5 6.5 6-2.3 5.7-6.5 5.7z" fill="#366278" data-name="copy 6" style="isolation:isolate"/><path d="M302 285.1c0-5.4-4.4-8.4-11.3-8.4a57.5 57.5 0 0 0-19.4 3.4l-3.9-12.5a78 78 0 0 1 26.6-4.9c17.5 0 26.8 7.5 27.8 19.4 0 20.8-26 27.7-26 41.5 0 2.1.4 4 .6 6.7l-15.1.8a68.2 68.2 0 0 1-1-10c0-10 5.8-15.5 14-22.9 5.3-4.5 7.7-8 7.7-13.1zm-11.6 70.8c-6.2 0-9.7-3.6-9.7-8.5s3.4-8.9 9.7-8.9 9.7 3.8 9.7 8.9-3.5 8.4-9.7 8.4z" fill="#366278" data-name="copy 8" style="isolation:isolate"/><path d="M188.5 22.3c0-3.7-3-5.7-7.6-5.7a38.7 38.7 0 0 0-13.1 2.3l-2.6-8.4a52.5 52.5 0 0 1 17.9-3.3c11.8 0 18 5 18.7 13.1 0 14-17.5 18.6-17.5 27.9 0 1.4.3 2.7.4 4.5l-10.2.5a46.1 46.1 0 0 1-.7-6.7c0-6.7 3.9-10.4 9.4-15.4 3.6-3 5.3-5.3 5.3-8.8zm-7.8 47.6c-4.2 0-6.5-2.4-6.5-5.7s2.3-6 6.5-6 6.5 2.5 6.5 6-2.4 5.7-6.5 5.7z" fill="#366278" data-name="copy 7" style="isolation:isolate"/><path d="M138.5-32.2c0-5.7-4.7-8.9-11.9-8.9a60.8 60.8 0 0 0-20.5 3.6L102-50.8a82.6 82.6 0 0 1 28.2-5.2c18.5 0 28.3 7.9 29.4 20.5 0 22-27.5 29.3-27.5 43.9 0 2.2.4 4.2.7 7.1l-16 .8a72.3 72.3 0 0 1-1.1-10.5c0-10.5 6.2-16.4 14.8-24.2 5.4-4.6 8-8.3 8-13.8zm-12.3 74.9c-6.6 0-10.3-3.8-10.3-9s3.6-9.4 10.3-9.4 10.3 4 10.3 9.4-3.7 9-10.3 9z" fill="#366278" data-name="copy 4" style="isolation:isolate"/><path d="M36.1 207.4c0-5.7-4.7-8.9-11.9-8.9A60.8 60.8 0 0 0 3.7 202l-4.1-13.2a82.6 82.6 0 0 1 28.2-5.2c18.5 0 28.3 7.9 29.4 20.5 0 22-27.5 29.3-27.5 43.9 0 2.2.4 4.2.7 7.1l-16 .8a72.3 72.3 0 0 1-1.1-10.5c0-10.5 6.2-16.4 14.8-24.2 5.4-4.7 8-8.4 8-13.8zm-12.3 74.8c-6.6 0-10.3-3.8-10.3-9s3.6-9.4 10.3-9.4 10.3 4 10.3 9.4-3.7 9-10.3 9z" fill="#366278" data-name="copy 3" style="isolation:isolate"/><path d="M130.8 290.6c0-10.1-8.2-15.6-20.9-15.6-10.1 0-21.1 1.2-36 6.2l-7.2-23.3a145 145 0 0 1 49.5-9.1c32.4 0 49.7 13.9 51.7 36 0 38.7-48.3 51.4-48.3 77.1 0 3.8.7 7.4 1.2 12.5l-28.1 1.4a126.9 126.9 0 0 1-1.9-18.5c0-18.5 10.8-28.8 26-42.5 9.5-8.1 14-14.6 14-24.2zM109.2 422c-11.5 0-18-6.7-18-15.9s6.2-16.6 18-16.6 18 7 18 16.6-6.5 15.9-18 15.9z" fill="#366278" data-name="copy" style="isolation:isolate"/><path d="M286.4 22.3c0-10.1-8.2-15.6-20.9-15.6-10.1 0-21.1 1.2-36 6.2l-7.2-23.3a145 145 0 0 1 49.5-9.1c32.4 0 49.7 13.9 51.7 36 0 38.7-48.3 51.4-48.3 77.1 0 3.8.7 7.4 1.2 12.5l-28.1 1.4a126.8 126.8 0 0 1-1.9-18.5c0-18.5 10.8-28.8 25.9-42.5 9.6-8.1 14.1-14.5 14.1-24.2zm-21.6 131.5c-11.5 0-18-6.7-18-15.9s6.2-16.6 18-16.6 18 7 18 16.6-6.5 15.9-18 15.9z" fill="#366278" data-name="copy 5" style="isolation:isolate"/><path d="M230.8 233.2c0-7.2-5.8-11.2-14.9-11.2a76.4 76.4 0 0 0-25.8 4.5l-5.2-16.7a103.7 103.7 0 0 1 35.4-6.5c23.2 0 35.6 10 36.9 25.8 0 27.7-34.5 36.8-34.5 55.1 0 2.7.5 5.3.9 8.9l-20.1 1a90.6 90.6 0 0 1-1.4-13.2c0-13.2 7.7-20.6 18.6-30.4 6.8-5.8 10.1-10.5 10.1-17.3zm-15.5 94c-8.2 0-12.9-4.8-12.9-11.3s4.5-11.9 12.9-11.9 12.9 5 12.9 11.9-4.6 11.2-12.9 11.2z" fill="#366278" data-name="copy 2" style="isolation:isolate"/><path fill="#eaeaea" d="M68.087 228.868l27.18-190.975 154.86 22.04-27.18 190.975z"/><path fill="#fff" d="M90.594 138.497l12.568-88.31 139.841 19.902-12.568 88.31zM78.852 220.214l10.976-77.122 139.84 19.902-10.975 77.123z"/><path fill="#d0c8bf" d="M110.595 60.644l.578-4.06 53.877 7.668-.578 4.06zM109.445 68.773l.578-4.06 53.877 7.669-.577 4.059zM108.31 76.803l.577-4.059 53.877 7.668-.577 4.06zM107.16 84.933l.577-4.06 53.878 7.668-.578 4.06zM105.91 93.048l.579-4.06 53.877 7.669-.578 4.059zM104.775 101.078l.578-4.059 53.877 7.668-.578 4.06zM103.625 109.208l.578-4.06 53.877 7.668-.578 4.06zM102.49 117.238l.577-4.06 53.877 7.669-.578 4.059zM101.34 125.367l.577-4.059 53.877 7.668-.577 4.06zM100.19 133.497l.577-4.06 53.877 7.668-.577 4.06zM164.663 118.702l.577-4.06 56.798 8.084-.578 4.06zM163.516 126.589l.578-4.06 56.797 8.084-.577 4.06zM162.482 134.39l.578-4.058 56.797 8.083-.577 4.06zM161.35 142.179l.577-4.06 56.798 8.084-.578 4.06zM151.604 210.063l.578-4.059 56.797 8.084-.577 4.059zM150.457 217.95l.578-4.059 56.798 8.084-.578 4.059zM149.323 225.853l.578-4.06 56.798 8.084-.578 4.059zM97.018 155.479l.578-4.06 53.738 7.649-.577 4.059zM95.936 162.24l.574-4.059 53.737 7.6-.574 4.058zM94.922 168.993l.574-4.059 53.737 7.6-.574 4.058zM94.104 175.952l.578-4.059 53.738 7.648-.577 4.06zM93.095 182.8l.578-4.059 53.739 7.648-.578 4.06zM92.087 189.648l.577-4.059 53.739 7.648-.578 4.06zM91.018 196.399l.574-4.059 53.737 7.6-.574 4.058zM90.068 203.359l.578-4.06 53.738 7.649-.577 4.059zM89.172 210.222l.578-4.059 53.739 7.648-.578 4.06zM88.164 217.07l.577-4.059 53.739 7.648-.578 4.06z"/><path d="M185.2 183.6l15.1 14.7a21.1 21.1 0 0 1-29.8.4 20 20 0 0 1-4-5.3z" fill="#94bdc1"/><path d="M185.3 183.6l-9-16.9a17.9 17.9 0 0 1 11.7-2z" fill="#d0c8bf"/><path d="M185.2 183.6l-17.2-8.5a18.4 18.4 0 0 1 8.3-8.5zM185.2 183.6l-16.9 9a18.6 18.6 0 0 1-.3-17.4z" fill="#d0c8bf"/><path d="M185.2 183.6l13.8 13.3a19.2 19.2 0 0 1-27.1.4 18.2 18.2 0 0 1-3.6-4.8z" fill="#73a0a1"/><path d="M185.3 183.6l2.7-19a19.1 19.1 0 0 1 16.2 21.7A18.4 18.4 0 0 1 199 197z" fill="#d0c8bf"/><path d="M183.8 193.3a9.8 9.8 0 1 0-8.3-11.1 9.8 9.8 0 0 0 8.3 11.1" fill="#fff"/><path d="M198.5 91.3l3-20.9a21 21 0 0 1 17.8 23.9 20.2 20.2 0 0 1-5.7 11.7z" fill="#ecab54"/><path d="M198.5 91.3l-9-17a17.9 17.9 0 0 1 11.7-2zM198.4 91.3l-17.2-8.4a18.4 18.4 0 0 1 8.3-8.5zM198.4 91.3l-17 9a18.6 18.6 0 0 1-.3-17.4zM198.4 91.3l13.8 13.4a19.2 19.2 0 0 1-27.1.4 18.2 18.2 0 0 1-3.6-4.8z" fill="#d0c8bf"/><path d="M198.5 91.3l2.7-19A19 19 0 0 1 217.4 94a18.3 18.3 0 0 1-5.2 10.6z" fill="#e48534"/><path d="M197 101a9.8 9.8 0 1 0-8.3-11.1A9.8 9.8 0 0 0 197 101" fill="#fff"/></g></svg>