<svg xmlns="http://www.w3.org/2000/svg" viewBox="0 0 319 363" width="319" height="363"><defs><clipPath id="a"><path fill="none" d="M0 0h319v363H0z"/></clipPath></defs><g clip-path="url(#a)"><path fill="#8c9a3f" d="M-.05 0h319v182h-319z"/><path fill="#768034" d="M0 182h319v181H0z"/><path d="M275.5 4l-63.64 35.8V21.27H184v34.31l-24 13.65 2.58 6.19V196h94.81v-77h37.39v77h93.84V75.4l2.38-6.19zm-63.79 151.3h-19.93v-23.7h19.93v23.7zm0-27.35h-19.93v-23.71h19.93V128zm22.92 27.35H214.7v-23.7h19.93v23.7zm0-27.35h-19.88v-23.71h19.93V128zm103.86 27.35h-19.93v-23.7h19.93v23.7zm0-27.35h-19.93v-23.71h19.93V128zm22.92 27.35h-19.93v-23.7h19.93v23.7zm0-27.35h-19.88v-23.71h19.93V128z" fill="#768034"/><path fill="#fff" d="M30.79 23.34V252h28.14V61.12h147.9V47.06H58.93V23.34L44.87 9.76 30.79 23.34z"/><path fill="#fff" d="M174.38 73.03h4.39v16.23h-4.39zM91.31 73.03h4.39v16.23h-4.39z"/><path fill="#ba3643" d="M67.73 87.02h126.88v81.02H67.73z"/><path fill="#ebe5dc" d="M30.79 23.34v223.92h14.08V121.93l14.07-3.22V75.2h147.89V61.12H58.94v-.01H44.87V9.75L30.79 23.34z"/><path d="M101.92 123.85v-22.33h15.22v3.41h-10.42v6h8.14v3.24h-8.14v9.64h-4.8zM130.43 124.17c-7.31 0-10.49-4.61-10.49-11.42 0-6.4 3.09-11.62 10.49-11.62s10.32 5.26 10.32 11.55c-.06 6.56-3.51 11.49-10.32 11.49zm0-19.63c-4.41 0-5.45 4-5.45 8.24 0 5.07 1.43 7.91 5.45 7.91 3.77 0 5.22-3.41 5.22-7.95 0-4.04-.92-8.2-5.22-8.2zM156.93 114.37l4.77 9.54h-5.16l-4.22-9h-2.75v9h-4.77v-22.35h9c5.13 0 7.31 3.05 7.31 6.56a6.63 6.63 0 0 1-4.18 6.25zm-4-2.79a3.11 3.11 0 0 0 3.34-3.37 3 3 0 0 0-3.37-3.28h-3.37v6.65zM108.51 132.45l-1.19 3.24a15.77 15.77 0 0 0-6-1.11c-2 0-3.28 1-3.28 2.86s2.15 2.28 4.45 2.82c3.05.77 7.46 1.72 7.46 7 0 4.22-3.15 6.65-9.38 6.65a19 19 0 0 1-8.14-1.79l1.19-3.37a19.51 19.51 0 0 0 7.27 1.47c2.63 0 4-.81 4-3 0-1.88-1.49-2.38-3.67-3-4.39-1.11-8.25-2.05-8.25-6.61 0-4.06 2.86-6.78 8.47-6.78a15.07 15.07 0 0 1 7.07 1.62zM127.67 153.61l-1.56-5.09H118l-1.59 5.09h-4.77l7.63-22.29h6l7.37 22.3h-4.9zm-4.18-14.22l-1.3-4.84H122l-1.36 5-1.64 5.71h6.14zM135.23 153.61v-22.32H140v19h11.42v3.34zM154 153.61v-22.32h15.38v3.37h-10.51v5.67h8.86v3.21h-8.86v6.69h11v3.41H154z" fill="#fff"/></g></svg>