<svg xmlns="http://www.w3.org/2000/svg" viewBox="0 0 319 363" width="319" height="363"><path fill="#4c7d96" d="M-.36 0h319v182h-319z"/><path d="M238.46 38.15v-56h-37.05V.4L165.68-36h-9.82L26.14 92.83h24l15-15V190h188V76.55l16.08 16.27h22.9zm-82.6 39.78H134.6V54.46h21.26v23.47zm0-27.84H134.6V26.62h21.26v23.47zm27.78 27.84h-21.25V54.46h21.26v23.47zm0-27.84h-21.25V26.62h21.26v23.47z" fill="#376479"/><path fill="#376479" d="M-.36 182h319v181h-319z"/><path fill="#689fc2" d="M170.4 113.55h19.5v21.51h-19.5z"/><path fill="#857363" d="M144.15 159.33h12.72V248h-12.72z"/><path fill="#9d8e80" d="M153.39 159.33h20.74V248h-20.74z"/><path d="M229.29 170.79v-38.35c0-18.74-10.43-33.95-23.29-33.95s-23.28 15.26-23.28 33.95v38.35" fill="#fff"/><path fill="#fff" d="M112.27 98.49H206v72.3h-93.73z"/><path d="M135.55 170.79v-38.35c0-18.74-10.43-33.95-23.29-33.95S89 113.75 89 132.44v38.35" fill="#ece6dd"/><circle cx="153.58" cy="135.86" r="5.62" fill="#a12734"/><path fill="#a12734" d="M151.11 92.09h4.97v43.12h-4.97z"/><path fill="#a12734" d="M151.11 92.09h14.23l-1.86 11.45h-12.37V92.09z"/><path d="M185.4 127.28c0-2.65-2.27-3.7-5.25-3.7a22.57 22.57 0 0 0-7.56 1.28c-.28-1-.58-2-.91-3a28.27 28.27 0 0 1 8.72-1.54c6.11 0 9.2 2.56 9.2 6.84 0 7.17-10.4 10-10.4 15.22a27.18 27.18 0 0 0 .44 3.47l-3.18.44a20.2 20.2 0 0 1-.58-4.38c0-3.56 2.16-5.69 6.07-9.06 2.11-1.85 3.45-3.44 3.45-5.57zm-6.55 27.12a2.56 2.56 0 1 1 .1 0zM194 149.77a17.54 17.54 0 0 0 7.28 1.59c3 0 5.34-.91 5.34-3.75 0-2.56-2.41-3.37-5.06-4.29-4.1-1.45-7.94-2.56-7.94-6.84 0-4.52 3.84-6.6 8.53-6.6a14.78 14.78 0 0 1 7 1.69l-1.2 2.74a15.37 15.37 0 0 0-5.88-1.28c-2.46 0-4.77.87-4.77 3.47 0 2 3.09 2.93 5 3.56 3.95 1.28 8.1 2.56 8.1 7.47 0 4.71-3.84 6.74-9.3 6.74a18.8 18.8 0 0 1-8.38-1.83zM102.73 131.69l-5.5.51v-2l5.69-1.4h2.81V154h-3zM119.23 154.26c-7.69 0-9.22-6.32-9.22-12.66 0-5.79 1.59-13.21 9.26-13.21s9 7.69 9 13.09c-.08 6.17-2.13 12.78-9.04 12.78zm0-23.39c-5.57 0-6.2 6.4-6.2 10.81 0 5.61 1 10.15 6.2 10.15 4.77 0 5.91-5.35 5.91-10.25.09-4-.28-10.71-5.82-10.71z" fill="#376479"/></svg>