<svg xmlns="http://www.w3.org/2000/svg" viewBox="0 0 319 363" width="319" height="363"><defs><clipPath id="a"><path fill="none" d="M0 0h319v363H0z"/></clipPath></defs><g clip-path="url(#a)"><path fill="#cdad2d" d="M0 0h319v182H0z"/><path fill="#a58930" d="M0 182h319v181H0z"/><path d="M345.11 52.26l-48.19 28.43a7.68 7.68 0 0 1-5 1L236.55 74a2 2 0 0 0-1.66.59 1.93 1.93 0 0 0-.49 1.78l9.75 48.63a1.93 1.93 0 0 0 .85 1.23l1.38.88c16.06 10.26 37.63 13.66 59.18 9.34s40.08-15.75 50.95-31.38l.93-1.35a1.82 1.82 0 0 0 .32-1.47L348 53.61a1.82 1.82 0 0 0-1.11-1.38 1.93 1.93 0 0 0-1.85.07" fill="#42403e"/><path d="M235.67 82.5c.7-.41 112.2-26.22 112.87-26.13l2.25 11-51.34 33.57a3.1 3.1 0 0 1-2 .4l-60.33-11.17z" fill="#333231"/><path d="M380.7 36.32h-.14L282 21.52a3.21 3.21 0 0 0-2.08.43L197.65 73l98.07 14.55z" fill="#42403e"/><path d="M380.7 36.32l-85 51.18L197.66 73a3.08 3.08 0 0 0 1.2 5.67l96.8 13.74a3.1 3.1 0 0 0 2-.4l84-50a3.08 3.08 0 0 0-1-5.64z" fill="#42403e"/><path d="M237.26 75.59L234.93 77a3.65 3.65 0 0 0-1.69 3.79L238 103.7a6.75 6.75 0 0 0-2.09 6.31 6.44 6.44 0 0 0 .9 2.25l1.37 19.22a2.53 2.53 0 0 0 3 2.32l12.12-2.42a2.52 2.52 0 0 0 1.7-1.21 2.55 2.55 0 0 0 .27-2.08l-6.15-18.26a6.6 6.6 0 0 0 0-2.45 6.69 6.69 0 0 0-4.15-4.84l-4.57-21.62 6.38-3.84 41.73-25.26-1-5.4zm3.81 58.15l-.41.08-2.49-20.67.41-.08zm2.09-.41l-.41.08-3.18-20.17.4-.08zm2.15-.4l-.41.08-3.68-19.72.41-.08zm2.1-.43l-.42.09-4-19.77.42-.09zm1.68-.33l-4.3-19.59.41-.08 4.28 19.58zm-.76-20.82l5.25 19.89-.42.09-5.35-19.89zm3.27 20.32l-.42.09-4.81-19.65.41-.08z" fill="#6f84b8"/><ellipse cx="242.43" cy="108.56" rx="6.65" ry="6.45" transform="rotate(-11.33 242.314 108.532)" fill="#6f84b8"/><ellipse cx="288.25" cy="50.11" rx="3.97" ry="3.35" transform="rotate(-11.35 288.11 50.073)" style="isolation:isolate" fill="#857363" opacity=".5"/><path d="M291.58 48.27a3.35 3.35 0 1 1-4.16-2.27l.28-.07a3.23 3.23 0 0 1 3.88 2.34z" fill="#6f84b8"/><path d="M154.5 157.23c-12.79-.54-26.57-3.22-37.49-9.13l6.73-17.89a89.73 89.73 0 0 0 36.16 7.69c11.89 0 19.82-4.29 19.82-15.57 0-9.31-7.39-12.7-18.37-15.92-21.67-6-41.15-10.55-41.15-34.71 0-19.14 12.26-32.74 34.24-35.18V18.39h14.65v17.89c9.57.72 20.55 3 29.37 7.86l-6.66 17.17a70.28 70.28 0 0 0-29.19-5.72c-10.45 0-17.29 5.19-17.29 15 0 9.13 10.81 12 22.34 14.85 15.13 3.76 37.29 9.13 37.29 36.94 0 19.86-14 32.38-35.85 34.71V175h-14.6z" fill="#a58930"/><g><path fill="#1d1e20" d="M-143.65 169.51l57.94 5.18h153.1l59.59-1.65v-40.13h-270.63v36.6z"/><circle cx="89.35" cy="175.42" r="24.49"/><circle cx="89.35" cy="175.42" r="18.18" fill="none" stroke="#404041" stroke-miterlimit="10" stroke-width=".28"/><circle cx="89.35" cy="175.42" r="17.36" fill="#58595b"/><circle cx="89.35" cy="175.42" r="10.21" fill="#d0d2d3"/><path d="M72 175.42A17.44 17.44 0 1 0 89.43 158 17.44 17.44 0 0 0 72 175.42zm22.63 0c0-1.8 7.54-1.65 8.45-1.65a1.65 1.65 0 0 1 0 3.29c-.92.01-8.46.17-8.46-1.64zm-1.55 3.78c1.28-1.28 7.11 2.05 8.51 3.45s-.72 3-1.36 3.68-2.31 2.75-3.68 1.36-4.73-7.15-3.45-8.49zm3.45-16c1.4-1.4 3 .72 3.68 1.36s2.75 2.31 1.36 3.7-7.24 4.74-8.57 3.46 2.09-7.13 3.49-8.53zm-7.17 17.44c1.8 0 1.65 7.54 1.65 8.45a1.65 1.65 0 1 1-3.29 0c0-.81-.16-8.41 1.65-8.41zm-1.65-19a1.65 1.65 0 0 1 3.29 0c0 .91.16 8.45-1.65 8.45s-1.65-7.5-1.65-8.41zm-2.07 10c-1.28 1.28-7.13-1.94-8.55-3.41s.76-3.08 1.4-3.74 2.31-2.81 3.74-1.4 4.69 7.32 3.41 8.58zm-8.55 10.77c1.41-1.41 7.27-4.69 8.55-3.41s-1.94 7.13-3.41 8.55-3.08-.76-3.74-1.4-2.82-2.15-1.41-3.67zM74 175.35a1.65 1.65 0 0 1 1.65-1.65c.91 0 8.45-.16 8.45 1.65S76.54 177 75.63 177a1.65 1.65 0 0 1-1.63-1.58z" fill="#f1f1f2"/><circle cx="92.41" cy="174.53" r="1.49" fill="#808184"/><path fill="#d0d2d3" d="M92.93 175.42l.51-.89-.51-.89h-1.02l-.53.89.53.89h1.02z"/><circle cx="85.8" cy="176.92" r="1.49" fill="#808184"/><path fill="#d0d2d3" d="M86.31 177.81l.52-.9-.52-.89h-1.03l-.5.89.5.9h1.03z"/><circle cx="90.5" cy="178.95" r="1.49" transform="rotate(-3.45 90.496 178.871)" fill="#808184"/><path fill="#d0d2d3" d="M89.64 179.51l.91.47.87-.57-.08-1.02-.91-.47-.85.57.06 1.02z"/><circle cx="87.73" cy="172.49" r="1.49" transform="rotate(-3.45 87.698 172.472)" fill="#808184"/><path fill="#d0d2d3" d="M86.85 173.06l.93.46.85-.58-.06-1-.93-.47-.85.56.06 1.03z"/><path d="M-146.88 136.15c1.43-5.81-1.8-25.56 27-53.11a7.87 7.87 0 0 1-1.63-3.88 2.34 2.34 0 0 1 2.16-2.16c1.26 0 50.19-10.39 96.69-6.84a167.73 167.73 0 0 1 58.35 15.43c20.71 9.9 41.41 21.78 41.41 21.78s46.1 6.3 58.87 26.1c4.32 0 6.12 11 6.67 13s3.6 15.31 1.8 22.69c0 0-1.26 3.88-2.69 4.5s-19.63 1.8-24.3 1.8h-.78a27.59 27.59 0 1 0-53.17 0h-85.07c-29.88 0-52.32-.37-57.61 0h-4.57a27.59 27.59 0 0 0 1-7.32 27.59 27.59 0 0 0-27.52-27.67h-.08a27.59 27.59 0 0 0-27.6 27.53 27.77 27.77 0 0 0 .27 3.88 48.44 48.44 0 0 1-8.12-1.1c-1.94-1.26-.37-7-1.09-8.1s-1.42-20.76.01-26.53z" fill="#ae3d45"/><path d="M76.19 106.9c-3.08 1.69-7.5 3.53-10.5 2.46-5-1.8-53.29-27.13-54.37-29.16-.39-.7 1.3-1.74 3.62-2.83a167 167 0 0 1 20.75 8.22c18.26 8.7 36.49 18.95 40.5 21.31z" fill="#e6e7e8"/><path d="M-117.12 111.67H58.21S20.38 91.13 6.72 85.59s-87-3.57-99.56.37c-10.91 3.43-18 8.6-19.38 10.74s-8.5 14.97-4.9 14.97z" fill="#404041"/><path d="M35.87 102.49v7.15h-70.13V84.45s31.51-.54 37.46 1.8 32.67 16.24 32.67 16.24z" fill="#d0d2d3"/><path d="M-92.84 132.91s11.37 7.25 16.72 17.75c3.24 6.38 2.89 15.5 2.89 15.5S24 165.37 39.3 168.1a20 20 0 0 0-9.18-5.81c-5.81-1.63-67.7-1.8-79.21-4.86s-31.66-23.8-42.32-25.95-1.43 1.43-1.43 1.43zM97.82 132.56s-19-4.82-31.33 9.36a36.45 36.45 0 0 0-8.27 21.68s-2.89-7.46-1.94-11.43 6.16-16.53 16.49-20.42 25.05.81 25.05.81z" fill="#e6e7e8"/><path d="M23.27 108.61c0 9.18 6.78 6.51 11 6.51s7.73-2.91 7.73-6.51-3.74-5.5-7.93-6.2c-5.07-.85-10.8-2.98-10.8 6.2z" fill="#ae3d45"/><path d="M23.29 109.27c.83.66 1.63 1.36 2.36 1.94A15.23 15.23 0 0 0 40 113a8.33 8.33 0 0 1-5.72 2.15c-4.11-.03-10.66 2.49-10.99-5.88z" fill="#e6e7e8"/><path d="M136 133.45s-8.47 3.43-13 1.26a142.66 142.66 0 0 1-14-9s17.83-.33 20.71-.33 5.74 5.38 6.29 8.07z" fill="#404041"/><path d="M134.48 132.75s-6.53 2.64-10 1a110.45 110.45 0 0 1-10.85-7s13.78-.25 16-.25 4.44 4.16 4.85 6.25z" fill="#97999c"/><path d="M126.3 134.23a5.81 5.81 0 0 1-1.94-.48 110.45 110.45 0 0 1-10.85-7l14-.23c2.17.21 4.28 4.2 4.69 6.24a24.2 24.2 0 0 1-5.9 1.47z" fill="#fff"/><path d="M122 133.12a107.91 107.91 0 0 1-10.58-6.84l8.58-.16a14.47 14.47 0 0 0 1.43 4.92 25.86 25.86 0 0 0 1.36 2.33 4.88 4.88 0 0 1-.79-.25z" fill="#faaf40"/><path d="M66 109.6c.29.5 1.59.33 2.89-.41l5.39-3.1c1.3-.74 2.11-1.74 1.82-2.27s-1.59-.33-2.89.41l-5.46 3.1c-1.25.74-2.06 1.75-1.75 2.27z"/><path d="M66.511 108.553l9.072-2.136.266 1.129-9.072 2.136z"/><path d="M131.88 143.72c1.1 4.11.85 9.69 5.41 11.88a21.92 21.92 0 0 0 7.31 1.47c.14 1.16.25 2.34.33 3.53a50.56 50.56 0 0 1-9.24-2.29c-5.11-1.92-5.01-10.02-3.81-14.59z" fill="#e6e7e8"/></g><path fill="none" d="M0 1h319v363H0z"/></g></svg>