<svg id="Layer_1" xmlns="http://www.w3.org/2000/svg" viewBox="0 0 397 360" width="397" height="360"><defs><style>.cls-1{fill:none}.cls-2{clip-path:url(#clip-path)}.cls-3{fill:#e58632}.cls-4{fill:#d16e28}.cls-5{fill:#d26e28}.cls-6{fill:#ece6dd}.cls-7{fill:#516999}.cls-8{fill:#fff}.cls-9{fill:#f9f7f4}.cls-10{opacity:.9}.cls-11{clip-path:url(#clip-path-2)}</style><clipPath id="clip-path"><path class="cls-1" d="M0 0h397v363H0z"/></clipPath><clipPath id="clip-path-2"><path class="cls-1" d="M-41-1h335v359.1H-41z"/></clipPath></defs><g class="cls-2"><path class="cls-3" d="M-.27 0h397v213.33h-397z"/><path class="cls-4" d="M0 213.33h397v178H0z"/><path class="cls-5" d="M511.26 167.6v-27.09h-6.61V98.67L486.92 69l-17.75 29.68v41.83h-13.23V98.67L438.2 69l-17.74 29.68v41.83h-13.24V98.67L389.49 69l-17.75 29.68v41.83h-13.23V98.67L340.78 69 323 98.68v41.83h-13.21V98.67L292.06 69l-17.75 29.68v41.83h-12.94V98.67L243.63 69l-.14.24-.14-.24-17.75 29.68v41.83h-12.95V98.67L194.92 69l-17.75 29.68v41.83h-13.23V98.67L146.2 69l-17.74 29.68v41.83h-13.24V98.67L97.49 69 79.74 98.68v41.83H66.51V98.67L48.78 69 31 98.68v41.83H17.79V98.67L.06 69l-17.75 29.68v41.83h-6.62v27.09h6.62v83.79h-6.62v27.09h6.62V319h35.48v-40.52h6.61v-27.1h-6.61V167.6H31v83.79h-6.6v27.09H31V319h35.51v-40.52h13.23V319h35.48v-40.52h13.23V319h35.48v-40.52h13.23V319h35.48v-40.52h12.96V319h35.77v-40.52h12.95V319h35.48v-40.52h6.61v-27.1h-6.61V167.6H323v83.79h-6.6v27.09h6.6V319h35.48v-40.52h13.23V319h35.48v-40.52h13.23V319h35.48v-40.52h13.23V319h35.48v-40.52h6.61v-27.1h-6.61V167.6zM79.74 251.39H66.51V167.6h13.23zm48.71 0h-13.23V167.6h13.23zm48.71 0h-13.22V167.6h13.23zm48.43 0h-12.94V167.6h12.95zm48.71 0h-12.93V167.6h12.95zm97.43 0h-13.22V167.6h13.23zm48.71 0h-13.22V167.6h13.23zm48.71 0h-13.21V167.6h13.23z"/><path class="cls-6" d="M133.38 62.55v20.03h5.41V62.55h-5.41zM235.85 62.55v20.03h5.41V62.55h-5.41z"/><path class="cls-7" d="M101.04 76.1V185.55h172.6V76.1h-172.6z"/><path class="cls-8" d="M125.74 176.76z"/><path class="cls-6" d="M304.8 16.09v255.48h-23.6V62.71H98.74l-7.08-8.68 7.08-8.68H281.2V16.09L293 8l11.8 8.09z"/><path class="cls-9" d="M145.44 124.29v-13.18h-11.32v13.18h-6.31V95.14h6.31v11.82h11.31V95.14h6.31v29.15zM170.82 124.71c-9.53 0-13.69-6-13.69-14.91 0-8.35 4-15.17 13.69-15.17s13.47 6.86 13.47 15.08c0 8.56-4.58 15-13.47 15zm0-25.63c-5.76 0-7.12 5.21-7.12 10.76 0 6.61 1.86 10.34 7.12 10.34 4.91 0 6.82-4.45 6.82-10.38 0-5.3-1.15-10.72-6.82-10.72zM214.88 106l-7.12 18.26h-5.13l-6.91-18h-.13v18h-6V95.18h7.71l7.88 21.27h.34l8.18-21.27h7.46v29.11H215V106zM227.25 124.29V95.14h20.08v4.41h-13.76V107h11.57v4.15h-11.57v8.73h14.36v4.45zM143.47 139.55l-2.2 4.24a10.72 10.72 0 0 0-6.61-2.12c-4.49 0-6.95 4-6.95 10.63 0 5.3 1.23 10 6.86 10 1.14 0 3.52 0 7.5-2.12l1.86 4.28c-2.58 1.74-7 2.63-9.75 2.63-9.58 0-13-5.93-13-14.83 0-6.31 2.88-15.3 13.56-15.3a15.24 15.24 0 0 1 8.73 2.59zM161.43 167.09c-9.53 0-13.69-6-13.69-14.91 0-8.35 4-15.17 13.69-15.17s13.47 6.86 13.47 15.08c.01 8.56-4.57 15-13.47 15zm0-25.63c-5.76 0-7.12 5.21-7.12 10.76 0 6.61 1.86 10.34 7.12 10.34 4.91 0 6.82-4.45 6.82-10.38 0-5.3-1.14-10.72-6.82-10.72zM199.9 139l-1.61 4.24a20.59 20.59 0 0 0-7.84-1.44c-2.63 0-4.28 1.27-4.28 3.73 0 2.25 2.8 3 5.8 3.69 4 1 9.75 2.25 9.75 9.15 0 5.51-4.11 8.68-12.25 8.68a24.83 24.83 0 0 1-10.64-2.33l1.61-4.41a25.46 25.46 0 0 0 9.49 1.91c3.43 0 5.21-1.06 5.21-3.85 0-2.46-1.95-3.18-4.79-3.94-5.72-1.44-10.76-2.67-10.76-8.64 0-5.3 3.73-8.86 11.06-8.86a19.69 19.69 0 0 1 9.25 2.07zM213.33 166.67v-24.62h-9.23v-4.54h24.66v4.54h-9.19v24.62zM252.14 139l-1.61 4.24a20.59 20.59 0 0 0-7.84-1.44c-2.63 0-4.28 1.27-4.28 3.73 0 2.25 2.8 3 5.81 3.69 4 1 9.75 2.25 9.75 9.15 0 5.51-4.11 8.68-12.25 8.68a24.83 24.83 0 0 1-10.64-2.33l1.61-4.41a25.46 25.46 0 0 0 9.49 1.91c3.43 0 5.21-1.06 5.21-3.85 0-2.46-1.95-3.18-4.79-3.94-5.72-1.44-10.76-2.67-10.76-8.64 0-5.3 3.73-8.86 11.06-8.86a19.69 19.69 0 0 1 9.24 2.07z"/></g></svg>