<?xml version="1.0" encoding="UTF-8"?>
<svg width="395px" height="24px" viewBox="0 0 395 24" version="1.1" xmlns="http://www.w3.org/2000/svg" xmlns:xlink="http://www.w3.org/1999/xlink">
    <title>pb-logo-header@1.5x</title>
    <g id="Private-Bank" stroke="none" stroke-width="1" fill="none" fill-rule="evenodd">
        <g id="pb-bau-sign-in-default" transform="translate(-76, -35)">
            <g id="pb-logo-header" transform="translate(77, 35)">
                <g id="logo-private-bank" transform="translate(-0.0411, 0.0961)">
                    <g id="Group-2" transform="translate(194.1084, 0)">
                        <path d="M25.6481607,22.8297509 C25.6481607,22.3022859 26.094053,21.8673376 26.6488703,21.8673376 C27.1975925,21.8673376 27.6421527,22.3022859 27.6421527,22.8297509 C27.6421527,23.3749613 27.1975925,23.8078762 26.6488703,23.8078762 C26.094053,23.8078762 25.6481607,23.3749613 25.6481607,22.8297509 M25.8371901,22.8297509 C25.8371901,23.2743086 26.198215,23.6174416 26.6488703,23.6174416 C27.0934306,23.6174416 27.4482795,23.2743086 27.4482795,22.8297509 C27.4482795,22.4050426 27.0934306,22.0577722 26.6488703,22.0577722 C26.198215,22.0577722 25.8371901,22.4050426 25.8371901,22.8297509" id="Shape" fill="#E31837"></path>
                        <path d="M27.1421108,23.3811346 L26.9550996,23.3811346 L26.6344802,22.8783579 L26.4406877,22.8783579 L26.4406877,23.3811346 L26.279712,23.3811346 L26.279712,22.2940792 L26.7598338,22.2940792 C26.8578199,22.2940792 26.9469055,22.3002525 27.031773,22.3482289 C27.1146827,22.3920678 27.1550881,22.4892845 27.1550881,22.5790638 C27.1550881,22.7934173 27.0023872,22.8714858 26.8023382,22.8783579 L27.1421108,23.3811346 Z M26.621523,22.7455116 C26.781086,22.7455116 26.9962114,22.7742691 26.9962114,22.5756278 C26.9962114,22.4345016 26.870878,22.4194227 26.7256042,22.4194227 L26.4406877,22.4194227 L26.4406877,22.7455116 L26.621523,22.7455116 Z" id="Shape" fill="#E31837"></path>
                        <path d="M21.9252336,23.8078762 C28.8689065,17.8629086 38.6247502,12.0691938 43.9738632,9.99642439 C43.1412941,9.46542624 41.8500169,8.7036259 40.4061598,7.87620589 C33.5074335,10.1520795 25.4426825,15.2246321 18.2243257,20.9536247 C19.4536023,21.8454421 20.7219118,22.8260322 21.9252336,23.8078762 Z" id="Path" fill="#E31837" fill-rule="nonzero"></path>
                        <path d="M18.741321,7.6442388 C17.7084607,7.16459631 16.6036497,6.68541801 15.7166483,6.29065371 C13.0983103,7.5805598 9.70403525,9.54773366 5.39950867,12.6078399 C6.33805611,13.1015344 7.3268782,13.6922388 8.38857935,14.2906301 C11.6997024,11.8376802 15.0425524,9.51325563 18.741321,7.6442388 Z" id="Path" fill="#012169" fill-rule="nonzero"></path>
                        <path d="M24.9212875,4.77941893 C23.6744118,4.06872954 19.287924,2.48078306 16.2819202,1.78145469 C15.3951409,2.12292816 14.1373868,2.60438503 13.276199,2.96658799 C14.3517857,3.27073879 18.431257,4.34795713 21.9021247,6.10539212 C22.8266251,5.68690516 24.0519257,5.14976837 24.9212875,4.77941893 Z" id="Path" fill="#E31837" fill-rule="nonzero"></path>
                        <path d="M10.1405023,4.3510848 C6.25777009,6.13719281 2.21279065,8.59470969 0,9.99642407 C0.785261249,10.3489357 1.57986701,10.6567499 2.67569679,11.1950995 C7.56117703,7.88502028 11.3929888,5.87963272 12.9284744,5.20730462 C11.8406773,4.84244355 10.7977055,4.54880942 10.1405023,4.3510848 Z" id="Path" fill="#012169" fill-rule="nonzero"></path>
                        <path d="M27.826964,3.78087485 C28.7055089,3.49628626 29.7566949,3.21058228 30.6432522,2.96170004 C28.0491735,1.8699457 24.8134321,0.725122174 21.9255768,0 C21.4740132,0.123443194 20.0878983,0.505333259 19.1017807,0.804920211 C20.1004115,1.04877873 23.3848129,1.80709831 27.826964,3.78087485 Z" id="Path" fill="#E31837" fill-rule="nonzero"></path>
                        <path d="M11.5217128,16.1933127 C12.5692257,16.8301668 13.7127265,17.6947265 14.8015328,18.4114819 C22.0407382,12.8007342 29.1794548,8.4493281 37.0383239,5.99561311 C35.9462683,5.4448361 34.988608,4.95040454 33.7768297,4.35749086 C29.0552315,5.55728234 21.0412396,8.77365101 11.5217128,16.1933127 Z" id="Path" fill="#E31837" fill-rule="nonzero"></path>
                    </g>
                    <path d="M0,22.0966059 L5.28900059,22.0966059 C7.96824572,22.0966059 9.2300527,20.714086 9.2300527,18.7609611 C9.2300527,17.1876635 8.40039117,16.1163454 6.67180868,15.7702834 C8.19301899,15.390456 8.88427892,14.473847 8.88427892,13.1087282 C8.88427892,11.3801451 7.6224713,9.99733765 4.94351473,9.99733765 L0,9.99733765 L0,22.0966059 Z M4.59774066,16.9631784 C5.60014558,16.9631784 6.27429262,17.4470656 6.27429262,18.4666988 C6.27429262,19.5385921 5.60014558,19.9707376 4.59774066,19.9707376 L2.88661698,19.9707376 L2.88661698,16.9631784 L4.59774066,16.9631784 L4.59774066,16.9631784 Z M4.26942509,12.1234936 C5.27183,12.1234936 5.94591935,12.5553515 5.94591935,13.5408737 C5.94591935,14.5261651 5.27183,14.9583106 4.26942509,14.9583106 L2.88661699,14.9583106 L2.88661699,12.1234936 L4.26942509,12.1234936 Z M19.8969112,9.99733765 L16.9064643,9.99733765 L12.3779825,22.0966059 L15.3855429,22.0966059 L16.1977452,19.5903931 L20.5709996,19.5903931 L21.38326,22.0966059 L24.425393,22.0966059 L19.8969112,9.99733765 Z M18.4102735,12.8839543 L19.8448239,17.343581 L16.9410937,17.343581 L18.4102735,12.8839543 Z M39.5321132,9.99733765 L36.8011264,9.99733765 L36.8011264,18.0868715 L31.6502385,9.99733765 L28.5734774,9.99733765 L28.5734774,22.0966059 L31.3044667,22.0966059 L31.3044667,14.0248189 L36.4553545,22.0966059 L39.5321132,22.0966059 L39.5321132,9.99733765 Z M52.2170124,22.0966059 L48.2416172,15.9430268 L48.2416172,22.0966059 L45.3032602,22.0966059 L45.3032602,9.99733765 L48.2416172,9.99733765 L48.2416172,15.822025 L52.027095,9.99733765 L55.311229,9.99733765 L51.353004,15.8051436 L55.6913464,22.0966059 L52.2170124,22.0966059 L52.2170124,22.0966059 Z M66.0758351,16.0471446 C66.0758351,18.4666988 67.5278459,19.9532797 69.4117675,19.9532797 C71.2959213,19.9532797 72.747932,18.4666988 72.747932,16.0471446 C72.747932,13.6270139 71.2959212,12.1406639 69.4117675,12.1406639 C67.5278459,12.1406639 66.0758351,13.6270139 66.0758351,16.0471446 L66.0758351,16.0471446 Z M62.9647309,16.0471446 C62.9819062,12.5035518 65.4884029,9.73793494 69.4117675,9.73793494 C73.3353593,9.73793494 75.841861,12.5035518 75.8590313,16.0471446 C75.841861,19.590393 73.3353593,22.3560092 69.4117675,22.3560092 C65.4884029,22.3560092 62.9819062,19.590393 62.9647309,16.0471446 L62.9647309,16.0471446 Z M79.9018562,22.0966059 L82.8402183,22.0966059 L82.8402183,17.3261231 L86.6600416,17.3261231 L86.6600416,15.0100535 L82.8402183,15.0100535 L82.8402183,12.3134072 L87.4725291,12.3134072 L87.9910482,9.99733763 L79.9018562,9.99733763 L79.9018562,22.0966059 Z M101.699133,9.99733765 L98.7087502,9.99733765 L94.1802078,22.0966059 L97.1878262,22.0966059 L98.0000311,19.5903931 L102.373279,19.5903931 L103.185484,22.0966059 L106.227675,22.0966059 L101.699133,9.99733765 Z M100.212559,12.8839543 L101.647102,17.343581 L98.7433733,17.343581 L100.212559,12.8839543 Z M123.741304,9.99733765 L120.301598,9.99733765 L117.155861,16.531033 L114.027359,9.99733765 L110.587603,9.99733765 L110.587603,22.0966059 L113.232269,22.0966059 L113.232269,14.0073597 L117.121298,22.0966059 L121.010317,14.0073597 L121.010317,22.0966059 L123.741304,22.0966059 L123.741304,9.99733765 Z M129.445336,22.0966059 L137.707271,22.0966059 L137.707271,19.7805363 L132.383699,19.7805363 L132.383699,17.0841789 L136.583861,17.0841789 L136.583861,14.8373101 L132.383699,14.8373101 L132.383699,12.3134072 L137.257947,12.3134072 L137.776466,9.99733763 L129.445336,9.99733763 L129.445336,22.0966059 L129.445336,22.0966059 Z M148.925358,22.0966059 L152.122833,22.0966059 L149.0981,16.9631784 C150.740028,16.5135738 151.535118,15.3555971 151.535118,13.644415 C151.535118,11.4494039 150.221509,9.99733765 147.248524,9.99733765 L142.599038,9.99733765 L142.599038,22.0966059 L145.485601,22.0966059 L145.485601,17.3261231 L146.263284,17.3261231 L148.925358,22.0966059 Z M146.730005,12.2270362 C147.940067,12.2270362 148.579591,12.7629538 148.579591,13.7654168 C148.579591,14.8024498 147.940067,15.3212552 146.730005,15.3212552 L145.485601,15.3212552 L145.485601,12.2270362 L146.730005,12.2270362 Z M156.530371,22.0966059 L159.469026,22.0966059 L159.469026,21.15671 L159.469026,9.99733765 L156.530371,9.99733765 L156.530371,22.0966059 Z M173.970667,18.8470446 C172.830092,19.6246756 171.844802,19.9015368 170.842115,19.9015368 C168.577838,19.9015368 167.022291,18.3631562 167.022291,16.0471446 C167.022291,13.731075 168.577838,12.1924068 170.773151,12.1924068 C171.775596,12.1924068 172.743429,12.4689791 173.832497,13.2466114 L173.832497,10.5158542 C172.830092,9.96276562 171.689235,9.73793494 170.392791,9.73793494 C166.382778,9.73793494 163.876564,12.5035518 163.859106,16.0471446 C163.876564,19.6246756 166.348205,22.3560092 170.410249,22.3560092 C171.758441,22.3560092 172.933649,22.1314662 173.970667,21.578377 L173.970667,18.8470446 L173.970667,18.8470446 Z M184.739107,9.99733765 L181.749007,9.99733765 L177.220172,22.0966059 L180.227751,22.0966059 L181.040278,19.5903931 L185.413244,19.5903931 L186.225751,22.0966059 L189.26766,22.0966059 L184.739107,9.99733765 Z M183.252766,12.8839543 L184.68736,17.343581 L181.78358,17.343581 L183.252766,12.8839543 Z" id="Shape" fill="#012169" fill-rule="nonzero"></path>
                </g>
                <g id="Group" transform="translate(284, 8)" fill="#012169" fill-rule="nonzero">
                    <path d="M3.96258027,6.00006566 L1.59289156,6.00006566 L1.59289156,10 L0,10 L0,0 L3.80335888,0 C5.8742534,0 7.34789829,1.0194145 7.34789829,2.94115501 C7.34789829,4.17639451 6.59108847,6.00006566 3.96258027,6.00006566 Z M1.59289156,1.21555839 L1.59289156,4.86256454 L3.78337151,4.86256454 C4.75902605,4.86256454 5.73501936,4.43124813 5.73501936,2.99986474 C5.73501936,1.70591812 4.85862411,1.21555839 3.72374817,1.21555839 L1.59289156,1.21555839 L1.59289156,1.21555839 Z" id="Shape"></path>
                    <path d="M15.1531346,5.6471401 L17.6024341,10 L15.9096057,10 L13.6195276,5.82360288 L11.3694243,5.82360288 L11.3694243,10 L9.73655806,10 L9.73655806,0 L13.8187238,0 C16.2283872,0 17.3832505,1.2352395 17.3832505,2.86276416 C17.3832505,4.03929393 16.6067921,5.29421452 15.1531346,5.6471401 Z M13.6195276,4.70578285 C14.8543404,4.70578285 15.7503843,4.25478534 15.7503843,2.90179279 C15.7503843,1.66655591 14.7943783,1.15684865 13.5798917,1.15684865 L11.349437,1.15684865 L11.349437,4.70578285 L13.6195276,4.70578285 Z" id="Shape"></path>
                    <polygon id="Path" points="20.2699007 9.99999998 20.2699007 0 21.8827796 0 21.8827796 9.41068745 21.8827796 9.99999998"></polygon>
                    <path d="M28.5931147,8.35279161 C28.7526749,7.82340325 28.9318837,7.25498627 29.1110924,6.76462655 C29.7679654,4.90192676 30.3855412,3.0979367 31.4408064,0.0193475351 L33.0340368,0.0193475351 C31.5800405,4.17639451 30.4851393,7.03916127 29.4295352,9.99999998 L27.5974728,9.99999998 C26.5222202,7.03916127 25.4469676,4.1960756 23.9733227,0.0193475351 L25.606189,0.0193475351 C26.6418057,3.0979367 27.3982767,5.0196798 28.0754758,6.96077044 C28.2147098,7.39208685 28.37427,7.92147521 28.5334914,8.35279161 L28.5931147,8.35279161 Z" id="Path"></path>
                    <path d="M41.1573163,10 L40.1816617,7.25498627 L36.139132,7.25498627 C35.9399358,7.82340325 35.7607271,8.21569103 35.1434901,10 L33.4709878,10 L37.2343719,0 L39.1460451,0 L42.8897806,10 L41.1573163,10 Z M38.5487954,2.5098386 C38.4491974,2.27433251 38.2500012,1.58816508 38.1703905,1.35265897 L38.1504032,1.35265897 C38.0707925,1.58816506 37.851609,2.2743325 37.7523496,2.5098386 C37.2743467,3.82346893 36.9955398,4.84321702 36.5175369,6.15684735 L39.8232442,6.15684735 C39.3252538,4.843217 39.046447,3.84315004 38.5487954,2.5098386 Z" id="Shape"></path>
                    <polygon id="Path" points="46.4886104 9.99999998 46.468623 1.21555839 42.9040963 1.21555839 42.9040963 0 51.5864054 0 51.5864054 1.21555839 48.0615146 1.21555839 48.041866 9.99999998"></polygon>
                    <polygon id="Path" points="53.6766097 9.99999998 53.6766097 0 60.6860778 0 60.6860778 1.25492059 55.309476 1.25492059 55.309476 4.13703227 59.9092806 4.13703227 59.9092806 5.33324313 55.309476 5.33324313 55.309476 8.74507936 60.9448973 8.74507936 60.9448973 9.99999995 53.6766097 9.99999995"></polygon>
                    <path d="M75.5990253,4.79818398 C76.7904756,5.22816608 77.2671235,6.32363637 77.2671235,7.20361526 C77.2671235,8.90486328 75.7579079,10 74.010199,10 L69.24372,10 L69.24372,0.0263526868 L73.573187,0.0263526868 C75.7975439,0.0263526868 76.9097223,1.12148941 76.9097223,2.62725809 C76.9097223,3.2530505 76.6119444,4.17239159 75.5990253,4.71979315 L75.5990253,4.79818398 L75.5990253,4.79818398 Z M70.8521949,1.27793749 L70.8521949,4.25044883 L73.5335511,4.25044883 C74.6457295,4.25044883 75.3009086,3.66368504 75.3009086,2.72499644 C75.3009086,1.82567264 74.6457295,1.27793749 73.5335511,1.27793749 L70.8521949,1.27793749 L70.8521949,1.27793749 Z M70.8521949,5.44332391 L70.8521949,8.74841516 L73.6924337,8.74841516 C75.0231181,8.74841516 75.6386612,8.04423191 75.6386612,7.12522441 C75.6386612,6.22556443 74.9831433,5.44332391 73.6924337,5.44332391 L70.8521949,5.44332391 L70.8521949,5.44332391 Z" id="Shape"></path>
                    <path d="M86.5229685,9.99999998 L85.5500241,7.26232498 L81.518335,7.26232498 C81.3194776,7.82940765 81.1409464,8.22036112 80.5250644,9.99999998 L78.8569662,9.99999998 L82.610526,0.0263526697 L84.5171176,0.0263526697 L88.2510289,9.99999998 L86.5229685,9.99999998 Z M83.921223,2.52951969 C83.8219637,2.29501433 83.6234451,1.61051479 83.5438345,1.37567585 L83.5241859,1.37567585 C83.4445752,1.61051479 83.2260692,2.29501433 83.1268099,2.52951969 C82.650162,3.83981425 82.3723715,4.8568937 81.8957236,6.16685468 L85.1922841,6.16685468 C84.6959876,4.85689372 84.4178583,3.85949536 83.921223,2.52951969 Z" id="Shape"></path>
                    <path d="M91.7474684,2.3730716 C91.7474684,4.5439975 91.767117,6.61685146 91.8070917,9.99999998 L90.237914,9.99999998 L90.237914,0.0460337615 L91.8863636,0.0460337615 L96.1565461,6.06911632 L97.2883731,7.71198818 L97.3083605,7.71198818 L97.3083605,0.0460337615 L98.8575508,0.0460337615 L98.8375635,9.99999998 L97.3479964,9.99999998 L92.6411408,3.44886077 C92.3433629,3.0185451 92.1048696,2.72499642 91.8070917,2.29501431 L91.7474684,2.3730716 Z" id="Path"></path>
                    <polygon id="Path" points="103.545435 9.99999998 101.936622 9.99999998 101.936622 0.0263526697 103.545435 0.0263526697 103.545435 4.28947745 107.994149 0.0263526697 109.900741 0.0263526697 105.61091 4.03529099 110 9.99999998 108.153032 9.99999998 104.538367 5.03268933 103.545435 5.97137796 103.545435 9.99999998"></polygon>
                </g>
            </g>
        </g>
    </g>
</svg>