<svg xmlns="http://www.w3.org/2000/svg" viewBox="0 0 90 90"><title>core_icon_specialist1_186rgb_7530rgb-2</title><g style="isolation:isolate"><g id="Layer_1" data-name="Layer 1"><path d="M55.131,18.908l2.36-.038c0.934,1.917,3.615,5.007,11.075,4.3C67.609,17.419,63.6,13.113,58.8,13.113c-4.872,0-8.93,4.447-9.806,10.328,3.933,0.206,6.116-4.488,6.138-4.533" style="fill:#d1c9c0"/><path d="M58.8,38.536c5.52,0,9.99-5.692,9.99-12.712,0-.017,0-0.032,0-0.049-7,.659-10.628-1.768-12.41-3.88-1.276,1.786-3.63,4.18-7.1,4.18-0.147,0-.3-0.006-0.457-0.017,0.1,6.914,4.527,12.478,9.979,12.478" style="fill:#d1c9c0"/><path d="M27.55,18.9l2.363-.037c0.934,1.916,3.614,5.009,11.073,4.3C40.026,17.413,36.02,13.1,31.22,13.1c-4.873,0-8.93,4.448-9.807,10.332,3.933,0.205,6.117-4.492,6.137-4.537" style="fill:#d1c9c0"/><path d="M31.22,38.526c5.517,0,9.988-5.689,9.988-12.713,0-.017,0-0.03,0-0.047-7,.66-10.626-1.77-12.407-3.882-1.275,1.79-3.631,4.184-7.1,4.184-0.147,0-.3-0.011-0.456-0.021,0.1,6.913,4.525,12.479,9.978,12.479" style="fill:#d1c9c0"/><path d="M42.84,29.615s-0.381,5.461-4.54,8.374c0,0,4.9,2.037,8.319-1.557a13.83,13.83,0,0,1-3.779-6.818" style="fill:#d1c9c0"/><path d="M19.675,29.615s0.384,5.461,4.543,8.374c0,0-4.9,2.037-8.319-1.557a13.817,13.817,0,0,0,3.776-6.818" style="fill:#d1c9c0"/><path d="M81,63.1s-1.144-15.162-3.213-16.721a27.386,27.386,0,0,0-2.533-1.339c-3.442-1.505-8.757-3.3-9.622-4L63.3,47.771,58.8,44.1l-4.789,3.669-2.25-6.729c-0.646.521-3.785,1.652-6.768,2.824-2.99-1.176-6.157-2.32-6.809-2.839a7.12,7.12,0,0,1-6.793,4.783,7.267,7.267,0,0,1-7.039-4.783c-1.146.914-10.082,3.758-12.143,5.314S9,63.021,9,63.021Z" style="fill:#d1c9c0"/><polygon points="45.021 42.137 49.329 55.419 63.292 55.419 52 63.618 56.313 76.897 45.021 68.69 33.728 76.897 38.041 63.618 26.745 55.419 40.708 55.419 45.021 42.137" style="fill:#e31837;mix-blend-mode:multiply"/><rect x="13.616" y="49.218" width="10.41" height="4.537" style="fill:#fff"/><rect x="66.061" y="49.218" width="10.411" height="4.537" style="fill:#fff"/></g></g></svg>