<?xml version="1.0" encoding="UTF-8"?>
<svg width="24px" height="24px" viewBox="0 0 24 24" version="1.1" xmlns="http://www.w3.org/2000/svg" xmlns:xlink="http://www.w3.org/1999/xlink">
    <title>call-us-med-small</title>
    <g id="call-us-med-small" stroke="none" stroke-width="1" fill="none" fill-rule="evenodd">
        <g id="Icon-Color" fill="#E31837">
            <path d="M22.7255669,20.1288049 L22.639165,20.2200048 C22.265957,20.5920043 20.732324,22.1184024 20.7227238,22.1268024 C20.54752,22.3116021 19.7699032,22.7904015 18.3034716,22.8000015 C18.2914714,22.8000015 18.2794711,22.8000015 18.2662708,22.8000015 C16.3834303,22.8000015 12.4533456,21.9636026 7.05202918,16.4448096 C-0.046123767,9.19441874 0.898296583,4.45082475 1.81631636,3.28562622 L3.81075934,1.27802876 C3.8647605,1.22522883 3.93316198,1.19762886 4.00156345,1.19762886 C4.0687649,1.19762886 4.13596635,1.22402883 4.18756746,1.27562876 L4.19116754,1.27202877 C4.39757198,1.4832285 5.18118887,2.26442751 8.39605814,5.46602346 L8.39485812,5.46602346 L8.63366326,5.70722316 C8.72966533,5.80322303 8.76446608,5.97002282 8.64206344,6.09362267 L8.48966016,6.25082247 L8.48966016,6.25322246 C8.03125028,6.71402188 6.6536206,8.10002013 6.6536206,8.10122012 C5.38879334,9.37561851 6.74962267,11.0556164 7.48043841,11.9580152 C8.62526308,13.3728135 10.0712942,14.8152116 11.5545262,16.0212101 C13.3041639,17.4396083 14.8173965,18.6708067 16.0402229,17.4384083 L18.0178655,15.4368108 C18.0694666,15.3852109 18.1378681,15.3564109 18.2086696,15.3564109 C18.2578706,15.3564109 18.3298722,15.3708109 18.3958736,15.4368108 C18.4570749,15.4980108 21.7391457,18.7644066 22.543163,19.5660056 L22.7183668,19.7436054 C22.8143688,19.8396053 22.8443695,20.011205 22.7255669,20.1288049 Z M23.7419888,19.1064062 L23.565585,18.8904065 C19.5046975,14.8464116 19.2382918,14.5812119 19.2382918,14.5812119 C19.2382918,14.5812119 19.2394918,14.5824119 19.2406918,14.5848119 C18.9634858,14.3088123 18.597478,14.1564125 18.2098696,14.1564125 C18.2074696,14.1564125 18.2062695,14.1564125 18.2050695,14.1564125 C17.812661,14.1576125 17.4442531,14.3124123 17.1658471,14.5932119 L15.1882045,16.5936094 C14.8341969,16.9500089 14.1873829,16.6116094 12.3105425,15.0888113 C10.8909119,13.9344127 9.50608206,12.5544145 8.41165848,11.2032162 C7.39523658,9.94681779 7.13963107,9.31441859 7.50443893,8.94601906 C8.61566287,7.82882047 9.4892817,6.94202159 9.4892817,6.94202159 C9.97289212,6.4608222 10.0460937,5.71922314 9.71008646,5.15162386 L9.48208154,4.85522423 C9.48208154,4.85522423 5.12598768,0.516029726 5.03118564,0.420029848 C4.45637325,-0.145169437 3.52755324,-0.139169444 2.95874098,0.433229831 L0.921097074,2.49002723 C-0.503333619,4.28882495 -1.23534939,9.69601811 6.19401069,17.2836085 C11.6193276,22.8264015 15.7438165,24 18.2638708,24 C18.2794711,24 18.2950714,24 18.3106718,24 C20.0051083,23.9892 21.1355326,23.4312007 21.5795422,22.9680013 C22.7831682,21.7704028 23.5763852,20.9748038 23.5763852,20.9748038 C24.0791961,20.4696045 24.1343973,19.6800055 23.7419888,19.1064062 L23.7419888,19.1064062 Z"></path>
        </g>
    </g>
</svg>