<?xml version="1.0" encoding="UTF-8"?>
<svg width="97px" height="95px" viewBox="10 10 97 95" version="1.1" xmlns="http://www.w3.org/2000/svg" xmlns:xlink="http://www.w3.org/1999/xlink">
    <title>core_illus_calculatorpov1_rgb (1)</title>
    <defs>
        <path d="M11.4105768,0 L11.4105768,0.0298133492 C11.5627929,0.0210447171 11.7150091,0.0210447171 11.8672252,0.0298133492 L34.4244814,2.8650044 L42.7612405,4.12184167 L26.3101919,44.8194016 L52.9714286,55.5522073 L50.7116048,71.815097 C50.4399576,73.8190217 48.7433335,75.3243036 46.7188592,75.358209 L46.5783521,75.358209 C46.3828129,75.3523632 46.1872738,75.3348259 45.9929055,75.3055972 L3.60071964,69.4598424 C1.70347793,69.1993801 0.242657454,67.7007485 0,65.8431886 L0,64.7890844 L6.18839347,20.2795078 L7.40026786,3.67171855 C7.56829102,1.59647562 9.30414009,0 11.3859881,0 L11.4105768,0 Z" id="path-1"></path>
        <linearGradient x1="29.6253555%" y1="14.6470813%" x2="23.1812649%" y2="64.0429257%" id="linearGradient-3">
            <stop stop-color="#ECECEC" offset="0%"></stop>
            <stop stop-color="#FFFFFF" offset="100%"></stop>
        </linearGradient>
        <polygon id="path-4" points="-8.29667111e-16 8.30634946e-13 76.5142857 8.30634946e-13 76.5142857 81.2686567 -8.29667111e-16 81.2686567"></polygon>
        <path d="M2.54501988,-2.66411693e-13 C2.65706753,-2.66411693e-13 2.77028236,0.0157822375 2.88349718,0.0485607306 L45.951816,8.97159499 L45.9634876,8.97159499 C45.9850801,8.97402302 46.0066727,8.97645106 46.0282652,8.98009311 C46.7046362,9.08328467 47.172085,9.73764051 47.0722926,10.4405571 L44.7379664,19.7460071 C44.5051173,20.4392115 43.7972329,20.8289114 43.1156096,20.6383105 L1.1677674,11.96415 C0.47972475,11.8488183 -0.019821062,11.2205638 0.000604292447,10.4951879 L1.33117024,0.977284704 L1.33700606,0.954218357" id="path-6"></path>
        <linearGradient x1="-0.0420957021%" y1="50.3440499%" x2="99.9578617%" y2="50.3440499%" id="linearGradient-8">
            <stop stop-color="#CCE2F5" offset="0%"></stop>
            <stop stop-color="#FFFFFF" offset="100%"></stop>
        </linearGradient>
        <path d="M9.54833518,0 L60.3285714,10.2476454 L50.850215,58.119041 C50.5620217,59.7441846 49.024991,60.826044 47.4169308,60.5346836 C47.3831627,60.5287975 47.3499768,60.5217342 47.3162087,60.5146709 L2.43956787,51.4442393 C0.801815011,51.1187397 -0.264208981,49.5130202 0.0571701796,47.8572691 C0.0594990141,47.8460856 0.06124564,47.834902 0.0641566831,47.8243071 L9.54833518,0 Z" id="path-9"></path>
        <linearGradient x1="13.4488682%" y1="40.5637204%" x2="52.6366739%" y2="84.1892358%" id="linearGradient-11">
            <stop stop-color="#CCE2F5" offset="0%"></stop>
            <stop stop-color="#80B8E7" offset="100%"></stop>
        </linearGradient>
    </defs>
    <g id="master-v3-(most-recent)" stroke="none" stroke-width="1" fill="none" fill-rule="evenodd">
        <g id="step-1" transform="translate(-1005, -1899)">
            <g id="Group-2" transform="translate(727, 1870)">
                <g id="core_illus_calculatorpov1_rgb-(1)" transform="translate(338.5, 87.5) rotate(-11) translate(-338.5, -87.5)translate(287, 38)">
                    <polyline id="Fill-1" fill="#0053C2" points="47.2068908 2.02626956e-12 26.4857143 50.9250269 61.6788235 65.0149254 82.4 14.0898985 47.2068908 2.02626956e-12"></polyline>
                    <g id="Group-4" transform="translate(-0, 5.9104)">
                        <mask id="mask-2" fill="white">
                            <use xlink:href="#path-1"></use>
                        </mask>
                        <g id="Clip-3"></g>
                        <polygon id="Fill-2" fill="url(#linearGradient-3)" mask="url(#mask-2)" points="0.000223260089 93.2199126 102.933439 93.2199126 102.933439 -6.44436003 0.000223260089 -6.44436003"></polygon>
                    </g>
                    <g id="Group-8" transform="translate(26.4857, 10.3433)">
                        <mask id="mask-5" fill="white">
                            <use xlink:href="#path-4"></use>
                        </mask>
                        <g id="Clip-6"></g>
                        <path d="M16.4881245,8.30634946e-13 L-8.29667111e-16,40.8484866 L26.7213234,51.6326748 L30.6526556,23.2816425 L34.0089571,6.91760496 C34.410305,4.68507851 32.925787,2.54995005 30.6931424,2.14862335 C30.6796468,2.14627642 30.6661512,2.14392948 30.6526556,2.14158254 L20.5896188,0.616071688 L16.4822568,8.30634946e-13" id="Fill-5" fill="#1456AF" mask="url(#mask-5)"></path>
                        <path d="M40.0057055,79.7431459 L73.9090447,11.5938824 C74.5362975,11.9095458 75.1101547,12.3214338 75.6106661,12.8142911 L76.3206529,13.4773016 C76.5307152,13.6527353 76.5764829,13.9578375 76.4262708,14.1872509 L43.1096976,81.2686567 L40.0057055,79.7431459" id="Fill-7" fill="#012169" mask="url(#mask-5)"></path>
                    </g>
                    <path d="M63.2714286,88.604084 L96.440406,21.0488189 C96.5378245,20.8136694 96.7729124,20.6683258 97.0237506,20.6884139 L97.7820987,20.7947629 C98.5701973,20.9235634 99.3355455,21.1640304 100.057143,21.5096647 L66.3748222,90.1343284 L63.2714286,88.604084" id="Fill-9" fill="#3375CE"></path>
                    <polyline id="Fill-10" fill="#E31837" points="92.7 28.0522995 94.1387528 25.119403 100.057143 28.0975267 98.6183901 31.0298507 92.7 28.0522995"></polyline>
                    <polyline id="Fill-11" fill="#000000" points="62.1606036 96.0447761 63.2714286 96.8085517 61.8 99 62.1606036 96.0447761"></polyline>
                    <polyline id="Fill-12" fill="#D5D5D5" points="63.1003591 88.6567164 69.1571429 91.5930812 63.3488722 97.5223881 61.8 96.7868824 63.1003591 88.6567164"></polyline>
                    <path d="M62.9635969,16.671456 L17.3237721,7.45925268 C15.1261249,7.04340769 13.0078258,8.49179695 12.5934526,10.6941261 C12.5687666,10.8225315 12.5511337,10.9515259 12.5393784,11.0816984 L10.3,28.1631496 L61.5647201,38.4179104 L66.0434769,21.7841111 C66.6817879,19.6530528 65.4756975,17.4065474 63.3491697,16.7668765 C63.2222128,16.7285905 63.0934926,16.6967837 62.9635969,16.671456" id="Fill-13" fill="#80B9E7"></path>
                    <path d="M60.6612072,21.3370013 L14.8289654,11.855141 C14.1074014,11.6866692 13.3899505,12.1562007 13.2277749,12.9030721 C13.2154355,12.9584184 13.2066216,13.0149811 13.2013332,13.0715439 L11.7793586,24.627371 C11.6994459,25.4332379 12.231805,26.167337 13.0015517,26.312089 L57.0710149,35.4351104 C57.8454623,35.5853361 58.6046322,35.1085062 58.8337934,34.3281838 L61.7717577,23.1068674 C61.9268822,22.3076908 61.4274283,21.5291929 60.6553313,21.3674113" id="Fill-14" fill="#012169"></path>
                    <g id="Group-17" transform="translate(13.2429, 13.2985)">
                        <mask id="mask-7" fill="white">
                            <use xlink:href="#path-6"></use>
                        </mask>
                        <g id="Clip-16"></g>
                        <path d="M1.33700606,0.954218357 C1.33525531,0.961502467 1.33292098,0.969393586 1.33117024,0.977284704 L0.000604292447,10.4951879 C-0.019821062,11.2205638 0.47972475,11.8488183 1.1677674,11.96415 L43.1156096,20.6383105 C43.7972329,20.8289114 44.5051173,20.4392115 44.7379664,19.7460071 L47.0722926,10.4405571 C47.172085,9.73764051 46.7046362,9.08328467 46.0282652,8.98009311 C46.0066727,8.97645106 45.9850801,8.97402302 45.9634876,8.97159499 L45.951816,8.97159499 L2.88349718,0.0485607306 C2.77028236,0.0157822375 2.65706753,-2.66411693e-13 2.54501988,-2.66411693e-13 C1.99586963,-2.66411693e-13 1.49223875,0.376952672 1.33700606,0.954218357" id="Fill-15" fill="url(#linearGradient-8)" mask="url(#mask-7)"></path>
                    </g>
                    <g id="Group-20" transform="translate(0, 28.0746)">
                        <mask id="mask-10" fill="white">
                            <use xlink:href="#path-9"></use>
                        </mask>
                        <g id="Clip-19"></g>
                        <polygon id="Fill-18" fill="url(#linearGradient-11)" mask="url(#mask-10)" points="-0.162904681 71.7864922 102.201016 71.7864922 102.201016 -28.5650908 -0.162904681 -28.5650908"></polygon>
                    </g>
                    <path d="M16.8721719,46.8411626 L11.667564,45.8223653 C11.1265231,45.7242194 10.6066039,46.0767979 10.5074943,46.6101996 C10.4928716,46.6864761 10.4879973,46.7638193 10.49233,46.8411626 L10.3027761,49.7962082 C10.2643238,50.3125411 10.6293504,50.7739336 11.1476448,50.8630117 L15.3719884,51.6951184 C15.8827007,51.7969981 16.3950377,51.5254966 16.590549,51.0497023 L17.5762291,48.2760133 C17.8026106,47.7308767 17.5377768,47.1078635 16.9837379,46.8849015 C16.9474519,46.8699663 16.9100827,46.8571646 16.8721719,46.8464966" id="Fill-21" fill="#80B9E7"></path>
                    <path d="M28.6533007,48.2989731 L23.4410861,47.3007371 C22.8992544,47.2003797 22.3774906,47.550563 22.2755242,48.0838452 C22.2619649,48.1548428 22.2559988,48.2269079 22.2587106,48.2989731 L22.0743035,51.2563141 C22.0352525,51.7714466 22.3981008,52.2326637 22.9149832,52.3239462 L27.1400771,53.1727138 C27.6515358,53.2746726 28.1646217,53.0029602 28.3604187,52.5267963 L29.3475395,49.7509528 C29.5742518,49.2053928 29.3090309,48.5818956 28.7541823,48.3587605 C28.7178432,48.3438137 28.6804194,48.3310021 28.6424532,48.3203257" id="Fill-22" fill="#80B9E7"></path>
                    <path d="M38.9486336,51.2695507 L33.7357442,50.2550572 C33.1938424,50.1573454 32.6736384,50.5102824 32.5738286,51.0442263 C32.5597251,51.1184446 32.5548431,51.1942646 32.5586402,51.2695507 L32.3742091,54.2276003 C32.3356956,54.744458 32.701303,55.2063195 33.2204222,55.2954882 L37.446063,56.1284408 C37.9592153,56.2293562 38.4723676,55.9554429 38.6665626,55.4770291 L39.6700845,52.70586 C39.85994,52.0117328 39.577869,51.3603212 38.964907,51.2695507" id="Fill-23" fill="#80B9E7"></path>
                    <path d="M50.726023,52.7485825 L45.5075803,51.7328623 C44.9683774,51.6350129 44.4503303,51.9838675 44.3505181,52.5124674 C44.3358717,52.5901088 44.3309896,52.6693456 44.3358717,52.7485825 L44.1460115,55.7212921 C44.1047848,56.237129 44.4720286,56.6981915 44.9922455,56.7848733 L49.2179907,57.6144667 C49.7306132,57.6905128 50.2291318,57.4107909 50.4222467,56.9390926 L51.4040951,54.1737813 C51.6454888,53.659008 51.4154867,53.0495759 50.8903877,52.8123973 C50.8307174,52.785276 50.7683347,52.7640044 50.7043247,52.7485825" id="Fill-24" fill="#80B9E7"></path>
                    <path d="M15.389225,54.2275182 L10.1926146,53.2093727 C9.65242645,53.1144879 9.13600655,53.4695062 9.03985305,54.0030997 C9.02634835,54.0771951 9.02148665,54.1523566 9.02580816,54.2275182 L8.83134041,57.1860038 C8.79298705,57.7020063 9.15707389,58.1631036 9.67403398,58.2521247 L13.8875018,59.0836991 C14.3985199,59.1844475 14.9095379,58.9109875 15.1029253,58.4333653 L16.0860677,55.6667814 C16.330773,55.1555764 16.1092958,54.5457553 15.5912554,54.3042789 C15.5248122,54.2733614 15.4551279,54.2493736 15.3838231,54.2328488" id="Fill-25" fill="#80B9E7"></path>
                    <path d="M27.1573205,57.1844462 L21.9644737,56.1656489 C21.4246554,56.0675029 20.9059111,56.4200815 20.8070254,56.9534832 C20.7924357,57.0297597 20.7875725,57.1071029 20.7918954,57.1844462 L20.6027699,60.1394918 C20.5644044,60.6558247 20.9286061,61.1172172 21.4457294,61.2062952 L25.660527,62.0384019 C26.1700852,62.1402817 26.6812645,61.8687802 26.876334,61.3929858 L27.8597867,58.6192968 C28.1024078,58.1034974 27.8759975,57.4916856 27.3534707,57.2516548 C27.2907891,57.2228511 27.2248653,57.2004482 27.1573205,57.1844462" id="Fill-26" fill="#80B9E7"></path>
                    <path d="M37.4607972,58.6620581 L32.2612276,57.6432608 C31.7207105,57.5451149 31.2012946,57.8976934 31.1022809,58.4310952 C31.0876723,58.5073716 31.0828028,58.5847149 31.0871313,58.6620581 L30.9031715,61.6171037 C30.8620511,62.1329032 31.2251011,62.5948291 31.7418117,62.6839072 L35.9620659,63.5160139 C36.4722838,63.6178936 36.9841249,63.3463921 37.1794469,62.8705978 L38.1641729,60.0969088 C38.4022385,59.5757753 38.1674193,58.9628967 37.6388054,58.7281999 C37.5814532,58.7025966 37.5219368,58.6823274 37.4607972,58.6673921" id="Fill-27" fill="#80B9E7"></path>
                    <path d="M49.2271311,61.6180458 L44.0361742,60.5984968 C43.4965524,60.5002785 42.9779968,60.8531171 42.8791472,61.3869124 C42.8645628,61.4632451 42.8597014,61.5406455 42.8640226,61.6180458 L42.6749659,64.5752716 C42.6312128,65.0935868 42.9979828,65.5585225 43.5176187,65.6428622 L47.7254807,66.4702449 C48.2370142,66.5748687 48.7507082,66.3031669 48.9462469,65.8243526 L49.9293417,63.0486171 C50.1729548,62.5393764 49.9525687,61.9319174 49.4372541,61.6911757 C49.3686536,61.659148 49.2962719,61.6345934 49.2217295,61.6180458" id="Fill-28" fill="#80B9E7"></path>
                    <path d="M12.4464327,70.4775756 L7.25059812,69.4639977 C6.70992854,69.3663742 6.19196709,69.7189926 6.09248389,70.2524546 C6.07842648,70.3266058 6.07356046,70.4023575 6.07734514,70.4775756 L5.88811079,73.4382899 C5.8524266,73.9557481 6.21900057,74.4161258 6.73696202,74.505214 L10.948778,75.3374148 C11.4602514,75.4382391 11.9717248,75.1645731 12.1652845,74.6865911 L13.1601165,71.9125885 C13.3888198,71.3684572 13.1271357,70.7443066 12.5756527,70.5181187 C12.5372652,70.5026483 12.4972556,70.4887783 12.4572461,70.4775756" id="Fill-29" fill="#80B9E7"></path>
                    <path d="M24.2656958,73.4297269 L19.0336372,72.4192575 C18.4863508,72.3214184 17.9615031,72.6748153 17.8613496,73.2094552 C17.8471202,73.2837702 17.8421946,73.3596891 17.8460256,73.4350733 L17.6599482,76.3969784 C17.6210909,76.9145098 17.989962,77.3769734 18.5137151,77.4662582 L22.7770766,78.3002965 C23.2767491,78.3772846 23.7654759,78.1099647 23.9592153,77.6533822 L24.9552767,74.8732547 C25.146827,74.1782228 24.862238,73.5313085 24.2438043,73.4350733" id="Fill-30" fill="#80B9E7"></path>
                    <path d="M34.5243546,74.9149294 L29.3196814,73.8959523 C28.7780921,73.8009901 28.2603327,74.1562983 28.1639298,74.6903276 C28.15039,74.7644836 28.1455157,74.8397065 28.1498485,74.9149294 L27.9602922,77.8704963 C27.9191314,78.3879873 28.2857874,78.8505281 28.8051715,78.937488 L33.0295681,79.7697415 C33.5402868,79.8716392 34.0526303,79.6000898 34.248144,79.1242115 L35.2338366,76.3500332 C35.4596793,75.8042669 35.193759,75.1816773 34.6397131,74.9592095 C34.6018019,74.9442717 34.563349,74.9309343 34.5243546,74.9202643" id="Fill-31" fill="#80B9E7"></path>
                    <path d="M13.9185655,63.0940339 L8.71767295,62.0750568 C8.17703963,61.9800946 7.66019418,62.3354028 7.56396145,62.8694321 C7.55044561,62.943588 7.54557991,63.018811 7.54990498,63.0940339 L7.36068332,66.0496008 C7.31689202,66.5676252 7.68398204,67.0323001 8.20407129,67.1165924 L12.4156048,67.9488459 C12.9254221,68.0507437 13.4368612,67.7791943 13.6320298,67.303316 L14.6213888,64.5291377 C14.8592674,64.0079122 14.6246326,63.3949255 14.0964338,63.1601874 C14.0391267,63.1345796 13.979657,63.1143067 13.9185655,63.0993688" id="Fill-32" fill="#80B9E7"></path>
                    <path d="M25.6838312,64.5716458 L20.4875095,63.5526688 C19.9473513,63.4577065 19.4309601,63.8130147 19.3348119,64.3470441 C19.321308,64.4212 19.3164465,64.4964229 19.3207678,64.5716458 L19.1317124,67.5272127 C19.0906604,68.0447037 19.4563475,68.5072446 19.9743592,68.5942044 L24.187593,69.4264579 C24.6969622,69.5283556 25.2079518,69.2568062 25.4029489,68.7809279 L26.3860368,66.0067496 C26.6301883,65.4983281 26.4103439,64.8906763 25.8955732,64.6495362 C25.8280534,64.6180599 25.7567525,64.5935191 25.6838312,64.5769808" id="Fill-33" fill="#80B9E7"></path>
                    <path d="M35.998987,67.5230136 L30.7903556,66.5090212 C30.2521665,66.410824 29.7356348,66.7614519 29.6360103,67.29193 C29.6213915,67.3682463 29.6165185,67.4456299 29.62085,67.5230136 L29.4313468,70.4849387 C29.3929047,71.0015412 29.7578338,71.4631745 30.2759897,71.5522991 L34.49379,72.3848403 C35.0059901,72.4777006 35.5149416,72.2071248 35.7174394,71.7337504 L36.7028561,68.9639501 C36.9318843,68.4195963 36.6698284,67.7951905 36.1175619,67.5689101 C36.0791198,67.5534333 36.0390534,67.5395577 35.998987,67.5283504" id="Fill-34" fill="#80B9E7"></path>
                    <path d="M18.324275,37.9700244 L13.1324232,36.9565336 C12.5916053,36.8589185 12.0729609,37.2115066 11.9739912,37.7449228 C11.95993,37.8190677 11.9550626,37.8948128 11.9588483,37.9700244 L11.7749702,40.9304844 C11.731164,41.4484316 12.0983793,41.9130371 12.6186462,41.9973169 L16.8316176,42.8294461 C17.3416088,42.9313286 17.8532226,42.6598198 18.0484578,42.1840125 L19.0327464,39.4102482 C19.274492,38.8907008 19.0430219,38.2767388 18.5162653,38.0383017 C18.457857,38.0116309 18.3972854,37.9908277 18.3350913,37.9753586" id="Fill-35" fill="#80B9E7"></path>
                    <path d="M30.0810108,40.9247972 L24.898249,39.911987 C24.3627329,39.8139044 23.8487667,40.1641235 23.7496369,40.6939831 C23.7350907,40.7702104 23.730242,40.8475038 23.734552,40.9247972 L23.54599,43.8832689 C23.5050451,44.4003351 23.8697779,44.8624964 24.3864378,44.9493848 L28.5886771,45.7809553 C29.105337,45.8934305 29.6284619,45.6178395 29.8224115,45.1306245 L30.802934,42.3587231 C31.0448321,41.8432561 30.8190964,41.2318386 30.2981265,40.9919625 C30.2350929,40.9631774 30.1699043,40.9407889 30.1025607,40.9247972" id="Fill-36" fill="#80B9E7"></path>
                    <path d="M41.9045097,42.40823 L36.680472,41.388501 C36.1374328,41.2934687 35.6182872,41.6490391 35.5216262,42.1834625 C35.5080503,42.2576731 35.5031629,42.3329516 35.5075072,42.40823 L35.3174435,45.3659779 C35.2761725,45.8838507 35.6438101,46.346733 36.1645847,46.433757 L40.3948605,47.2612857 C40.9091187,47.3659281 41.425549,47.0941783 41.6221292,46.6152794 L42.6050303,43.8390539 C42.8157295,43.258716 42.5083693,42.6201841 41.9180856,42.413035 C41.9137413,42.4114333 41.908854,42.4098316 41.9045097,42.40823" id="Fill-37" fill="#80B9E7"></path>
                    <path d="M52.1846632,45.3627795 L46.9757798,44.3437149 C46.4343158,44.2487444 45.9166763,44.6040832 45.8202957,45.1381584 C45.8067591,45.2123207 45.8018859,45.2875501 45.8062176,45.3627795 L45.6167052,48.3186003 C45.5809686,48.8345351 45.9448324,49.294448 46.461389,49.3856837 L50.684808,50.2180087 C51.1970329,50.3188481 51.7092579,50.0451412 51.903102,49.5670878 L52.8885664,46.7980066 C53.1176057,46.2537941 52.8555371,45.6295503 52.3032438,45.4033286 C52.2647999,45.3878559 52.2247316,45.3739838 52.1846632,45.3627795" id="Fill-38" fill="#80B9E7"></path>
                    <path d="M16.8575836,46.8364871 L11.6591247,45.8224547 C11.1219866,45.7242536 10.6064637,46.0748954 10.5070337,46.6053944 C10.4924435,46.6817137 10.48758,46.7591004 10.4919031,46.8364871 L10.30277,49.7985292 C10.264403,50.315152 10.6286193,50.7768036 11.1457633,50.8659317 L15.3553263,51.6985057 C15.8649049,51.7903024 16.3712413,51.5223843 16.5765859,51.0527272 L17.5546743,48.2774805 C17.8027089,47.7672621 17.5849356,47.1551068 17.0688724,46.9101379 C17.0013248,46.8781158 16.930535,46.8535655 16.8575836,46.8364871" id="Fill-39" fill="#F5F5F5"></path>
                    <path d="M28.6436005,48.3179145 L23.4335768,47.2989374 C22.8919943,47.2039752 22.3742414,47.5592834 22.2778397,48.0933127 C22.2643002,48.1674686 22.2594259,48.2426916 22.2637586,48.3179145 L22.0742047,51.2734814 C22.0357523,51.7899053 22.400779,52.2513792 22.9190734,52.340473 L27.1434169,53.1727265 C27.6541292,53.2746242 28.1664663,53.0030749 28.3619776,52.5271966 L29.3476577,49.7530183 C29.5740392,49.2077855 29.3092054,48.5846624 28.7551665,48.3616611 C28.7188804,48.3467232 28.6815112,48.3339193 28.6436005,48.3232494" id="Fill-40" fill="#F5F5F5"></path>
                    <path d="M40.4000679,51.2742868 L35.1947552,50.2533156 C34.6525577,50.1608402 34.1369013,50.520051 34.0431949,51.05566 C34.0307368,51.1278229 34.0264035,51.2010548 34.0301951,51.2742868 L33.8460321,54.2356376 C33.8048663,54.7525377 34.1683174,55.2154492 34.6855987,55.3047173 L38.9050977,56.1279087 C39.4158792,56.2300058 39.9282856,55.9579251 40.1238234,55.4811155 L41.109637,52.7015082 C41.3447156,52.1776591 41.1053038,51.5650765 40.5750227,51.3330862 C40.5186905,51.3084973 40.4601916,51.2887194 40.4000679,51.2742868" id="Fill-41" fill="#F5F5F5"></path>
                    <path d="M50.7475195,52.7487227 L45.4952566,51.7282054 C44.946529,51.6448543 44.4322336,52.0124542 44.3469731,52.5488937 C44.3365888,52.6151472 44.3333096,52.681935 44.3365888,52.7487227 L44.1452993,55.7087572 C44.1092276,56.2254275 44.4765034,56.685996 44.9979039,56.7773617 L49.2554615,57.6055302 C49.77085,57.7075819 50.2878782,57.435622 50.4851797,56.9590244 L51.4416271,54.1806528 C51.6329166,53.4860598 51.3432497,52.8395541 50.7311233,52.7487227" id="Fill-42" fill="#012169"></path>
                    <path d="M15.3874028,54.2294283 L10.1896857,53.2104282 C9.64936112,53.1122628 9.13013028,53.4649115 9.0311519,53.9984194 C9.01654853,54.074711 9.01168074,54.1520696 9.01600767,54.2294283 L8.83211341,57.1850619 C8.78830331,57.703098 9.15555096,58.1677834 9.67586353,58.2520776 L13.8892055,59.0843499 C14.4035685,59.1841159 14.9168498,58.9050913 15.1061528,58.4228001 L16.0905279,55.6485592 C16.3306722,55.1315901 16.1008043,54.5201901 15.5767057,54.2833126 C15.5155879,54.2561037 15.4523067,54.2342299 15.3874028,54.2187581" id="Fill-43" fill="#F5F5F5"></path>
                    <path d="M27.1917855,57.2340095 L21.9673401,56.1663704 C21.424237,56.0660123 20.9012488,56.4172656 20.7995868,56.9500175 C20.7816465,57.0439697 20.7772973,57.1395234 20.7876266,57.2340095 L20.6027867,60.1913697 C20.5641878,60.708107 20.9306057,61.1698609 21.4508757,61.2590087 L25.6858839,62.0383853 C26.1985428,62.1403448 26.7128327,61.8686306 26.9090892,61.3924636 L27.8985263,58.6219403 C28.0888026,57.9279749 27.8061063,57.276715 27.1917855,57.1859657" id="Fill-44" fill="#F5F5F5"></path>
                    <path d="M37.4476162,58.6565916 L32.2361973,57.6431008 C31.6950115,57.5454856 31.1754948,57.8980738 31.075817,58.43149 C31.0617321,58.5056348 31.0568565,58.5813799 31.0606486,58.6565916 L30.9035476,61.6170516 C30.8596677,62.1349987 31.2275007,62.5996043 31.7486426,62.683884 L35.9687,63.5160133 C36.4795491,63.6178958 36.9920233,63.346387 37.187587,62.8705797 L38.1735311,60.0968154 C38.4037653,59.5527308 38.1421109,58.9281005 37.5900905,58.701932 C37.5521696,58.6864629 37.5137069,58.6731275 37.4747025,58.6619258" id="Fill-45" fill="#F5F5F5"></path>
                    <path d="M49.2524233,61.6201742 L44.0528396,60.5986283 C43.5155853,60.5002176 42.9994104,60.8510732 42.8999589,61.3827049 C42.8853655,61.4607917 42.880501,61.540483 42.8853655,61.6201742 L42.6745716,64.5671471 C42.6334938,65.0859426 42.9994104,65.5496496 43.5177473,65.6368287 L47.733626,66.4711803 C48.2433149,66.5733349 48.7546253,66.3011009 48.9497448,65.8240229 L49.9334498,63.0428508 C50.1734306,62.52459 49.9437193,61.9116625 49.4199774,61.6741932 C49.3589012,61.6469163 49.2956631,61.6249878 49.2308034,61.6094774" id="Fill-46" fill="#012169"></path>
                    <path d="M12.4355725,70.4829021 L7.23925076,69.4622661 C6.69855242,69.3698211 6.18432183,69.7289139 6.09087447,70.2643471 C6.07845083,70.3364863 6.07412956,70.4096942 6.07791067,70.4829021 L5.88885531,73.4432809 C5.84780328,73.9616144 6.21349037,74.4249083 6.73150207,74.5120097 L10.9393343,75.3402745 C11.4487035,75.4321852 11.9548317,75.1639343 12.1600918,74.6936936 L13.1431797,71.9149987 C13.3873312,71.4057494 13.1674868,70.7971084 12.652716,70.5555757 C12.5851963,70.5240482 12.5138954,70.4994674 12.440974,70.4829021" id="Fill-47" fill="#F5F5F5"></path>
                    <path d="M24.2052108,73.4382519 L19.0106677,72.4183543 C18.4723731,72.3233062 17.9577634,72.6789355 17.861947,73.2134473 C17.8484896,73.2876702 17.843645,73.362961 17.8479513,73.4382519 L17.6595482,76.396489 C17.6240208,76.9128456 17.9857548,77.3731345 18.4992878,77.4644447 L22.6979859,78.2921103 C23.2055977,78.3941 23.7148244,78.1223053 23.9091488,77.6459971 L24.9319086,74.8693125 C25.1596072,74.3246551 24.8990726,73.699901 24.3500121,73.4734945 C24.3117931,73.4580091 24.2719593,73.4441257 24.2321255,73.4329121" id="Fill-48" fill="#F5F5F5"></path>
                    <path d="M34.5323974,74.9107139 L29.3253483,73.8968383 C28.7840537,73.7991861 28.2644324,74.1519081 28.1647345,74.6855268 C28.1506467,74.7596998 28.1457702,74.8354737 28.1495631,74.9107139 L27.9599203,77.8669618 C27.9214499,78.3835048 28.2866477,78.845085 28.8051853,78.9341993 L33.0315102,79.7719808 C33.5451712,79.8685658 34.0555813,79.5905504 34.245224,79.1102935 L35.2313665,76.3408122 C35.4605634,75.7965211 35.1983145,75.1721871 34.6456412,74.9459328 C34.6071708,74.9304578 34.5670749,74.9165838 34.526979,74.9053778" id="Fill-49" fill="#F5F5F5"></path>
                    <path d="M13.9372058,63.0890971 L8.72064394,62.0750461 C8.17783952,61.9800455 7.65997917,62.3360308 7.56345651,62.8697418 C7.55044222,62.9423265 7.54556186,63.0159787 7.54935769,63.0890971 L7.35956594,66.0511934 C7.32377664,66.567292 7.6881768,67.0273509 8.20549489,67.1186155 L12.4351397,67.9512047 C12.9443238,68.046739 13.4513389,67.7734789 13.6443843,67.3000772 L14.6313014,64.5247798 C14.8606783,63.9803945 14.5982234,63.3559526 14.045116,63.1296591 C14.0066154,63.1141815 13.966488,63.100305 13.9263606,63.0890971" id="Fill-50" fill="#F5F5F5"></path>
                    <path d="M25.6879059,64.5725059 L20.4934642,63.5537086 C19.9534801,63.4555626 19.4345765,63.8081412 19.3356604,64.3415429 C19.3210663,64.4178194 19.3162016,64.4951626 19.3205258,64.5725059 L19.1313421,67.5275515 C19.0929649,68.0438844 19.4572785,68.5052769 19.9745606,68.5943549 L24.1906526,69.4264616 C24.7003674,69.5283414 25.2117037,69.2568399 25.4068331,68.7810455 L26.3905879,66.0073565 C26.6305808,65.4904903 26.4008578,64.8792119 25.8770895,64.6423815 C25.8160102,64.615178 25.7527688,64.5933085 25.6879059,64.5778399" id="Fill-51" fill="#F5F5F5"></path>
                    <path d="M35.9833178,67.521926 L30.788838,66.5087671 C30.2488499,66.4111839 29.730483,66.7636566 29.6310257,67.2968981 C29.616972,67.3710186 29.6121072,67.4467389 29.6158909,67.521926 L29.4321112,70.4867486 C29.3883284,71.0045261 29.7553473,71.4689795 30.2753358,71.5532316 L34.4860536,72.3850883 C34.995772,72.4768059 35.5022473,72.2091186 35.7076482,71.7398661 L36.686005,68.9670104 C36.9308644,68.4556318 36.7092477,67.8456035 36.1908808,67.6040451 C36.1243957,67.5731171 36.0546676,67.5491213 35.9833178,67.5325908" id="Fill-52" fill="#F5F5F5"></path>
                    <path d="M47.6426628,69.0996472 L41.5848351,67.9873426 C40.9544936,67.8808962 40.3531188,68.2797711 40.2410301,68.8777843 C40.225917,68.9591141 40.2202496,69.0416399 40.2246576,69.1235678 L38.2599567,80.599442 C38.2183957,81.1777208 38.6415621,81.6932083 39.2423071,81.7954685 L44.1540593,82.7223891 C44.7478776,82.8366096 45.3435849,82.5322209 45.5709109,81.998793 L48.4612881,70.6365413 C48.7207294,70.0558704 48.43547,69.3854976 47.8233901,69.1391161 C47.7648269,69.1151956 47.7043745,69.0960591 47.6426628,69.0817068" id="Fill-53" fill="#80B9E7"></path>
                    <path d="M19.8370706,37.9748437 L14.6055597,36.9547951 C14.0611998,36.8624032 13.5434868,37.2212894 13.4494067,37.7564144 C13.4368989,37.8285121 13.4325484,37.9016779 13.4363551,37.9748437 L13.2460194,40.9335187 C13.2046894,41.4515539 13.5728529,41.9145812 14.0943726,42.0016324 L18.3307,42.8294206 C18.8435186,42.9314254 19.3579686,42.6595905 19.5542862,42.1832118 L20.5440315,39.4061161 C20.728929,38.7118421 20.4461446,38.0656333 19.8370706,37.9748437" id="Fill-54" fill="#012169"></path>
                    <path d="M30.0885998,40.9292674 L24.8791276,39.9120585 C24.3425249,39.8135499 23.827516,40.16529 23.7281851,40.6974509 C23.7136094,40.7740092 23.7087508,40.8516383 23.7130695,40.9292674 L23.5457186,43.8791732 C23.50685,44.3958083 23.8680041,44.8583706 24.3824732,44.9499194 L28.5932384,45.7851015 C29.1039286,45.886287 29.6146188,45.6116406 29.8078821,45.1319463 L30.8173861,42.3694211 C31.0457391,41.8233405 30.7844557,41.196954 30.2338172,40.9699558 C30.1954885,40.95443 30.1555402,40.9405103 30.1155919,40.9292674" id="Fill-55" fill="#012169"></path>
                    <path d="M41.8690321,42.4031098 L36.6745523,41.3893734 C36.1345642,41.2917346 35.6161973,41.6444081 35.51674,42.1779536 C35.5026863,42.2521164 35.4978215,42.3278798 35.5016052,42.4031098 L35.3178255,45.364287 C35.2740427,45.8823596 35.6410616,46.3470777 36.1610501,46.4313779 L40.3717679,47.2637088 C40.8814863,47.3618812 41.3895832,47.0887059 41.5825519,46.6127834 L42.5717192,43.8436825 C42.8165787,43.3320124 42.594962,42.7216364 42.076595,42.4799403 C42.01011,42.4489947 41.9403818,42.4249851 41.8690321,42.4084452" id="Fill-56" fill="#012169"></path>
                    <path d="M52.188946,45.350167 L46.9772456,44.3446188 C46.4354888,44.2467383 45.9164858,44.6008196 45.8173443,45.1356857 C45.8043421,45.206288 45.7989246,45.2784949 45.8016333,45.350167 L45.617436,48.3133248 C45.5762625,48.8321449 45.9430319,49.2958738 46.4625766,49.3830569 L50.6828621,50.2174479 C51.1937387,50.3196074 51.7062407,50.0473605 51.9018149,49.57026 L52.8878123,46.7889566 C53.1180589,46.2433933 52.8563904,45.6170651 52.3043402,45.3902819 C52.2664172,45.3747708 52.2279525,45.3613992 52.188946,45.350167" id="Fill-57" fill="#012169"></path>
                    <path d="M47.6382302,69.1251885 L41.5838105,67.9872966 C40.9544529,67.8812522 40.3527871,68.278025 40.2407615,68.8743757 C40.2250275,68.9571856 40.2193633,69.0411871 40.2243982,69.1251885 L38.2608026,80.581556 C38.2129714,81.1594383 38.6390465,81.6759579 39.2426004,81.7730659 L44.1452958,82.7262738 C44.7387799,82.8287437 45.328488,82.5296747 45.5676439,82.0054103 L48.4563951,70.6860664 C48.7207252,70.1165247 48.4469547,69.452258 47.8452889,69.2026366 C47.778577,69.1746362 47.7093476,69.1525932 47.6382302,69.1371036" id="Fill-58" fill="#E31837"></path>
                    <polyline id="Fill-59" fill="#8090B4" points="52.9675666 26.066538 51.7626172 26.5970149 51.5 26.1214149 53.7013498 22.1641791 54.4428571 23.3775688 52.9675666 26.066538"></polyline>
                    <polyline id="Fill-60" fill="#8090B4" points="58.8571429 23.0261194 57.2537476 23.641791 53.5982703 23.1113662 52.9714286 22.1641791 58.8571429 23.0261194"></polyline>
                    <polyline id="Fill-61" fill="#8090B4" points="55.7117955 27.4718465 55.5150908 27.1517862 52.3562441 26.5970149 51.9049803 26.7783825 51.5 26.9170753 51.7024902 27.1944609 51.9512638 27.4718465 55.063827 28.0746269 55.5150908 27.887925 55.9142857 27.7492322 55.7117955 27.4718465"></polyline>
                    <polyline id="Fill-62" fill="#8090B4" points="55.0314286 26.2775313 55.4275824 25.9072207 55.9142857 24.58572 55.7671429 24.0774506 55.6709341 23.641791 55.3257143 23.9540137 54.9352198 24.3315853 54.4428571 25.6530859 54.59 26.1540944 54.6918681 26.5970149 55.0314286 26.2775313"></polyline>
                    <polyline id="Fill-63" fill="#8090B4" points="53.5811042 30.7105678 53.9914627 30.3838596 54.4428571 28.9730743 54.3431986 28.520138 54.2435401 28.0746269 53.8859419 28.3939098 53.4286853 28.7131928 52.9714286 30.1314033 53.0710871 30.6437411 53.2293682 31.0298507 53.5811042 30.7105678"></polyline>
                    <polyline id="Fill-64" fill="#8090B4" points="54.4428571 32.5074627 48.5571429 31.6455224 50.139746 31.0298507 53.8215873 31.5650115 54.4428571 32.5074627"></polyline>
                    <polyline id="Fill-65" fill="#8090B4" points="55.1824233 32.5074627 54.4428571 31.2957397 55.9142857 28.6043751 57.1160808 28.0746269 57.3857143 28.5495736 55.1824233 32.5074627"></polyline>
                    <path d="M45.1711882,14.4424662 L34.5694849,11.8280287 C34.2831171,11.7769654 34.0128124,12.0050479 33.9491136,12.3522779 L33.849411,12.8833355 C33.8045449,13.2400973 33.9945336,13.5777955 34.2814554,13.6526882 L44.8886977,16.2467005 C45.1767272,16.2977637 45.4481397,16.0655962 45.509069,15.7156429 L45.6087716,15.1845852 C45.6497604,14.8285043 45.4581099,14.4942103 45.1711882,14.4220409" id="Fill-66" fill="#8090B4"></path>
                </g>
            </g>
        </g>
    </g>
</svg>