<svg xmlns="http://www.w3.org/2000/svg" viewBox="0 0 300.655 203.528"><title>Sparta_WebReady_SVGs-B</title><g style="isolation:isolate"><path d="M125.318 0c-69.207 0-125.318 43.773-125.318 97.747 0 24.351 11.522 46.588 30.445 63.706l-7.976 42.075 47.224-18.328a153.46 153.46 0 0 0 55.625 10.312c69.208 0 125.338-43.792 125.338-97.765s-56.13-97.747-125.338-97.747" fill="#cdc4bb"/><path d="M97.159 104.46c-5.94 0-13.325-5.5-13.325-16.076 0-12.457 5.5-21.576 21.576-26.217l2.468 5.506c-11.155 4.2-13.184 8.113-13.184 12.892 0 5.356 13.036 1.735 13.036 13.325 0 7.1-4.778 10.57-10.571 10.57m-32.3 0c-5.938 0-13.47-5.5-13.47-16.076 0-12.457 5.647-21.576 21.728-26.217l2.458 5.506c-11.153 4.2-13.181 8.113-13.181 12.892 0 5.356 13.04 1.735 13.04 13.325 0 7.1-4.782 10.57-10.575 10.57M173.94 134.106l-2.458-5.5c11.151-4.205 13.184-8.112 13.184-12.9 0-5.355-13.044-1.734-13.044-13.325 0-7.1 4.786-10.573 10.576-10.573 5.936 0 13.327 5.358 13.327 15.933 0 12.457-5.5 21.728-21.585 26.362m-32.437 0l-2.326-5.5c11.155-4.205 13.184-8.112 13.184-12.9 0-5.355-13.184-1.734-13.184-13.325 0-7.1 4.783-10.573 10.577-10.573 5.946 0 13.47 5.358 13.47 15.933 0 12.457-5.647 21.728-21.721 26.362" style="mix-blend-mode:multiply" fill="#c41230"/></g></svg>