<svg xmlns="http://www.w3.org/2000/svg" viewBox="0 0 314.811 210.508"><title>Untitled-1</title><g style="isolation:isolate"><path d="M262.813,163.848V32.755a9.354,9.354,0,0,0-9.363-9.363H35.173A9.362,9.362,0,0,0,25.8,32.755V163.848L0,190.231v10.914s0,9.363,9.37,9.363H279.232c9.356,0,9.356-9.363,9.356-9.363V190.231Zm-17.146-7.784H42.95V40.539H245.666V156.064Z" style="fill:#d1c8bf"/><rect x="197.98" width="116.831" height="112.646" style="fill:#dd1e33;mix-blend-mode:multiply"/><rect x="204.324" y="30.142" width="101.501" height="74.832" style="fill:#fff"/><path d="M249.251,64.826c6.225,1.356,8.461,6,8.461,10.467,0,7.029-5.813,12.8-15.546,12.8-4.241,0-9.719-.7-13.653-3.117l2.355-6.107c5.715,2.46,8.524,2.586,10.222,2.586,5.75,0,7.875-3.228,7.93-5.7,0.112-5.212-3.954-7.043-11.466-7.225V62.954c7.763-.238,9.887-3.353,9.887-6.107,0-2.012-1.481-3.745-4.689-3.745-1.768,0-5.066.112-10.879,3.228l-2.292-5.938a28.67,28.67,0,0,1,13.373-4c9.112,0,12.99,4.695,12.99,9.74,0,2.641-1.573,6.693-6.694,8.524v0.167Z" style="fill:#c22033"/><path d="M276.033,54.611l-8.224.755V49.79l8.992-2.642h7.462V87.563h-8.231V54.611Z" style="fill:#c22033"/></g></svg>