<?xml version="1.0" encoding="UTF-8"?>
<svg width="141px" height="141px" viewBox="0 0 141 141" version="1.1" xmlns="http://www.w3.org/2000/svg" xmlns:xlink="http://www.w3.org/1999/xlink">
    <title>illustration-debit-card-controls</title>
    <defs>
        <linearGradient x1="50%" y1="0%" x2="50%" y2="100%" id="linearGradient-1">
            <stop stop-color="#ECF6FD" offset="0%"></stop>
            <stop stop-color="#CDEAFF" offset="100%"></stop>
        </linearGradient>
        <circle id="path-2" cx="70.5" cy="70.5" r="70.5"></circle>
        <polyline id="path-4" points="58.0134082 109.014195 0 109.01233 0.00248832402 0 58.0158966 0.00248757391 58.0134082 109.014195"></polyline>
        <linearGradient x1="41.0392257%" y1="29.1892478%" x2="58.638136%" y2="70.0616678%" id="linearGradient-6">
            <stop stop-color="#ECEDED" offset="0%"></stop>
            <stop stop-color="#F9F9F9" offset="100%"></stop>
        </linearGradient>
        <rect id="path-7" x="29.1716623" y="36" width="49" height="8.70650868" rx="1.24416201"></rect>
        <filter x="-37.8%" y="-201.0%" width="175.5%" height="525.0%" filterUnits="objectBoundingBox" id="filter-8">
            <feOffset dx="0" dy="1" in="SourceAlpha" result="shadowOffsetOuter1"></feOffset>
            <feGaussianBlur stdDeviation="6" in="shadowOffsetOuter1" result="shadowBlurOuter1"></feGaussianBlur>
            <feColorMatrix values="0 0 0 0 0   0 0 0 0 0   0 0 0 0 0  0 0 0 0.12 0" type="matrix" in="shadowBlurOuter1"></feColorMatrix>
        </filter>
        <rect id="path-9" x="29.1716623" y="50" width="49" height="8.70650868" rx="1.24416201"></rect>
        <filter x="-37.8%" y="-201.0%" width="175.5%" height="525.0%" filterUnits="objectBoundingBox" id="filter-10">
            <feOffset dx="0" dy="1" in="SourceAlpha" result="shadowOffsetOuter1"></feOffset>
            <feGaussianBlur stdDeviation="6" in="shadowOffsetOuter1" result="shadowBlurOuter1"></feGaussianBlur>
            <feColorMatrix values="0 0 0 0 0   0 0 0 0 0   0 0 0 0 0  0 0 0 0.12 0" type="matrix" in="shadowBlurOuter1"></feColorMatrix>
        </filter>
        <linearGradient x1="50.0022924%" y1="100.042418%" x2="45.5233596%" y2="-36.3049139%" id="linearGradient-11">
            <stop stop-color="#C41230" offset="0%"></stop>
            <stop stop-color="#CF1435" offset="23%"></stop>
            <stop stop-color="#DE163C" offset="65%"></stop>
            <stop stop-color="#E3173E" offset="100%"></stop>
        </linearGradient>
    </defs>
    <g id="symbols" stroke="none" stroke-width="1" fill="none" fill-rule="evenodd">
        <g id="illustration-debit-card-controls">
            <mask id="mask-3" fill="white">
                <use xlink:href="#path-2"></use>
            </mask>
            <use id="Mask" fill="url(#linearGradient-1)" xlink:href="#path-2"></use>
            <g id="Group-8" mask="url(#mask-3)">
                <g transform="translate(16.0194, 30)">
                    <g id="Phone" stroke-width="1" fill="none" fill-rule="evenodd" transform="translate(20.9806, 0)">
                        <path d="M7.08923513,132 L57.9076545,132 C61.8068582,132 64.9968896,128.519884 64.9968896,124.264889 L65,7.73759864 C65,3.48260347 61.8099686,0.00186568043 57.9107649,0.00186568043 L7.09234553,0 C3.19376388,0 0.00311040502,3.48073779 0.00311040502,7.73511107 L0,124.263023 C0,128.518018 3.19003139,132 7.08923513,132" id="phone" fill="#000000"></path>
                        <g id="bg" transform="translate(3.4712, 9.4745)">
                            <mask id="mask-5" fill="white">
                                <use xlink:href="#path-4"></use>
                            </mask>
                            <g id="Clip-10"></g>
                            <polygon id="Fill-9" fill="url(#linearGradient-6)" mask="url(#mask-5)" points="0 109.01233 0.00248832402 0 58.0158966 0.00248757391 58.0134082 109.014195"></polygon>
                        </g>
                        <path d="M27.7323712,6.13808862 L36.9130426,6.13871051 C37.3273486,6.13871051 37.6626503,5.80350993 37.6626503,5.38932887 C37.6626503,4.97576971 37.3273486,4.64056913 36.9130426,4.64056913 L27.7323712,4.64056913 C27.3186873,4.64056913 26.9827636,4.97576971 26.9827636,5.38932887 C26.9827636,5.80288804 27.3186873,6.13808862 27.7323712,6.13808862" id="Fill-12" fill="#E6E7E8"></path>
                    </g>
                    <rect id="Rectangle" fill="#CCD3E1" fill-rule="evenodd" x="38.980559" y="91" width="39.1911033" height="8.70650868" rx="4.35325434"></rect>
                    <g id="Rectangle" fill="none">
                        <use fill="black" fill-opacity="1" filter="url(#filter-8)" xlink:href="#path-7"></use>
                        <use fill="#FFFFFF" fill-rule="evenodd" xlink:href="#path-7"></use>
                    </g>
                    <g id="Rectangle" fill="none">
                        <use fill="black" fill-opacity="1" filter="url(#filter-10)" xlink:href="#path-9"></use>
                        <use fill="#FFFFFF" fill-rule="evenodd" xlink:href="#path-9"></use>
                    </g>
                    <g id="Child-oriented-Debit-card" stroke-width="1" fill="none" fill-rule="evenodd" transform="translate(29.4806, 78.5) rotate(-8) translate(-29.4806, -78.5)translate(4.9806, 41)">
                        <rect id="Card-background" fill="#40C1AC" x="0" y="0" width="48.3194444" height="74.0384615" rx="5.93602723"></rect>
                        <rect id="Card-background" fill="url(#linearGradient-11)" x="0" y="0" width="49" height="75" rx="2.74062763"></rect>
                        <rect id="Rectangle-Copy-2" fill="#FFFFFF" opacity="0.870000005" x="30.2509007" y="7.44416873" width="11.4209596" height="12.5" rx="1.48400681"></rect>
                        <g id="Visa-emblem" transform="translate(22.9883, 61.1973)" fill="#FFFFFF">
                            <polyline id="Fill-1" opacity="0.699999988" points="7.92166237 6.10023501 6.43056738 6.10023501 7.3624826 0.107246662 8.85373079 0.107246662 7.92166237 6.10023501"></polyline>
                            <path d="M5.17616629,0.107246662 L3.75447087,4.22910939 L3.58641054,3.34147895 L3.58656374,3.34179957 L3.08468074,0.647006767 C3.08468074,0.647006767 3.02416677,0.107246662 2.37735663,0.107246662 L0.0274227888,0.107246662 L7.74441929e-13,0.208561894 C7.74441929e-13,0.208561894 0.718814107,0.365023391 1.55957536,0.89388249 L2.85503404,6.10023501 L4.4086346,6.10023501 L6.78093564,0.107246662 L5.17616629,0.107246662" id="Fill-2" opacity="0.699999988"></path>
                            <path d="M15.2636162,3.98030996 L16.0472339,1.73742798 L16.4879901,3.98030996 L15.2636162,3.98030996 Z M16.9043875,6.10023501 L18.2735354,6.10023501 L17.0798014,0.107246662 L15.8810119,0.107246662 C15.3273474,0.107246662 15.1926846,0.553867289 15.1926846,0.553867289 L12.9689875,6.10023501 L14.5230477,6.10023501 L14.8340436,5.21019993 L16.7295864,5.21019993 L16.9043875,6.10023501 L16.9043875,6.10023501 Z" id="Fill-3" opacity="0.699999988"></path>
                            <path d="M13.0855727,1.54842378 L13.2982142,0.261303526 C13.2982142,0.261303526 12.6415992,-5.2172309e-13 11.9571019,-5.2172309e-13 C11.2171462,-5.2172309e-13 9.46009615,0.338572421 9.46009615,1.98398309 C9.46009615,3.53240686 11.5223205,3.55164393 11.5223205,4.36457042 C11.5223205,5.17749691 9.67258446,5.03225704 9.06223591,4.51942883 L8.8404024,5.86490152 C8.8404024,5.86490152 9.50605613,6.20347395 10.5236101,6.20347395 C11.5410109,6.20347395 13.0762275,5.65185098 13.0762275,4.15168019 C13.0762275,2.59347757 10.9953127,2.448398 10.9953127,1.77093254 C10.9953127,1.09346708 12.4474949,1.18051482 13.0855727,1.54842378" id="Fill-4" opacity="0.699999988"></path>
                            <path d="M3.58656374,3.34179957 L3.08468074,0.647006767 C3.08468074,0.647006767 3.02416677,0.107246662 2.37735663,0.107246662 L0.0274227888,0.107246662 L7.74441929e-13,0.208561894 C7.74441929e-13,0.208561894 1.12954314,0.453674219 2.2131263,1.37128243 C3.24875788,2.24849279 3.58656374,3.34179957 3.58656374,3.34179957" id="Fill-5"></path>
                        </g>
                        <g id="logo/wordmark-boa/vertical" transform="translate(8.6975, 29.8462)">
                            <g id="flagscape" transform="translate(0, 0)">
                                <path d="M18.3188731,17.3282663 C18.4381882,17.3282663 18.5990915,17.3525665 18.5990915,17.1847332 C18.5990915,17.0655002 18.5053746,17.0527831 18.3967434,17.0527831 L18.1836397,17.0527831 L18.1836397,17.3282663 L18.3188731,17.3282663 Z M18.3393373,16.6285222 C18.7496264,16.6285222 19.082117,16.9627379 19.082117,17.3680555 C19.082117,17.7870777 18.7496264,18.1197461 18.3393373,18.1197461 C17.9244592,18.1197461 17.5908931,17.7870777 17.5908931,17.3680555 C17.5908931,16.9627379 17.9244592,16.6285222 18.3393373,16.6285222 Z M18.3393373,16.7747784 C18.0023295,16.7747784 17.732293,17.04165 17.732293,17.3680555 C17.732293,17.7097129 18.0023295,17.9734162 18.3393373,17.9734162 C18.6718278,17.9734162 18.9372036,17.7097129 18.9372036,17.3680555 C18.9372036,17.04165 18.6718278,16.7747784 18.3393373,16.7747784 Z M18.4222699,16.9564087 C18.4956229,16.9564087 18.5622357,16.9611243 18.6256219,16.9980383 C18.6877174,17.0317104 18.717833,17.1064227 18.717833,17.1754615 C18.717833,17.3401379 18.6037522,17.400114 18.4541064,17.405419 L18.7082247,17.7918006 L18.5683306,17.7918006 L18.3286248,17.405419 L18.1836397,17.405419 L18.1836397,17.7918006 L18.063249,17.7918006 L18.063249,16.9564087 L18.4222699,16.9564087 Z" id="registered-mark" fill="#E31837"></path>
                                <path d="M29.5065649,5.76697982 C30.560964,6.37279939 31.5039234,6.93061241 32.1118909,7.31938999 C28.2057235,8.83709567 21.0815104,13.0792621 16.0108904,17.4321732 C15.1321652,16.7132663 14.2059573,15.9952329 13.3083023,15.3422804 C18.5795056,11.1475248 24.4687748,7.43335093 29.5065649,5.76697982 Z M24.6655247,3.19058091 C25.1079763,3.40764276 25.5040343,3.60667734 25.8891623,3.80186028 L26.6553523,4.19129082 L27.0472192,4.3900298 C21.3082785,6.18660229 16.0952503,9.37270418 10.8088003,13.480897 C10.0137141,12.9561208 9.17866962,12.3230618 8.41372042,11.8567749 C15.3653487,6.42409373 21.2175507,4.06907289 24.6655247,3.19058091 Z M11.8898474,1.30438032 C14.0849776,1.81645014 17.2882122,2.97912975 18.1987378,3.49949846 C17.5639203,3.77066198 16.6691166,4.16396623 15.994024,4.47039014 C13.4594269,3.18358442 10.4803782,2.39483172 9.69491528,2.17215124 C10.3237926,1.90694386 11.2422781,1.55441937 11.8898474,1.30438032 Z M16.011136,-3.13833667e-13 C18.1200133,0.530930948 20.4828969,1.36919908 22.377251,2.16859343 C21.7298005,2.35081183 20.9621584,2.55999171 20.3206481,2.76837744 C17.0767424,1.32317792 14.6782964,0.767945893 13.9490284,0.589380604 C14.6691483,0.370035562 15.681411,0.0904143122 16.011136,-3.13833667e-13 Z" id="flagscape-red" fill="#FFFFFF"></path>
                                <path d="M11.4770774,4.60605926 C12.1248052,4.89509122 12.9315739,5.24594799 13.6858306,5.59712242 C10.9848265,6.96560676 8.54368971,8.66759564 6.12575959,10.4636122 C5.35043471,10.025478 4.62833471,9.59298235 3.94294561,9.23148393 C7.08634189,6.99086083 9.56502124,5.55050564 11.4770774,4.60605926 Z M7.4050694,3.18587158 C7.88500414,3.33064566 8.64666638,3.54566257 9.44100015,3.81281562 C8.31971357,4.30511103 5.52152655,5.7734204 1.95391533,8.19709576 C1.15368089,7.80287824 0.573434685,7.57749763 3.53495011e-13,7.31939793 C1.615874,6.29307438 4.56969626,4.49368264 7.4050694,3.18587158 Z" id="flagscape-blue" fill="#FFFFFF"></path>
                            </g>
                        </g>
                    </g>
                </g>
            </g>
            <line x1="62.5" y1="48.5" x2="77.5" y2="48.5" id="Line" stroke="#CCDCF3" stroke-linecap="square" mask="url(#mask-3)"></line>
            <circle id="Oval" fill="#80A8E0" mask="url(#mask-3)" cx="62.5" cy="48.5" r="1.5"></circle>
            <circle id="Oval" fill="#80A8E0" mask="url(#mask-3)" cx="70.5" cy="48.5" r="1.5"></circle>
            <circle id="Oval" fill="#80A8E0" mask="url(#mask-3)" cx="78.5" cy="48.5" r="1.5"></circle>
        </g>
    </g>
</svg>